<svg width="184" height="44" viewBox="0 0 184 44" fill="none" xmlns="http://www.w3.org/2000/svg">
<path fill-rule="evenodd" clip-rule="evenodd" d="M0 22C12.7375 22 20.0396 14.6517 20.0396 1.83337C20.0396 14.6517 27.3417 22 40.0792 22C27.3417 22 20.0396 29.3484 20.0396 42.1667C20.0396 29.3484 12.7375 22 0 22Z" fill="#464F6D"/>
<path d="M47.9949 31.0834L54.9905 11.8334H58.9256L65.9212 31.0834H62.2048L60.6745 26.6284H53.2143L51.6567 31.0834H47.9949ZM54.1707 23.8784H59.718L56.9307 15.8759L54.1707 23.8784Z" fill="#464F6D"/>
<path d="M72.9369 31.4134C71.5524 31.4134 70.3318 31.1109 69.2751 30.5059C68.2185 29.9009 67.3805 29.0576 66.7611 27.9759C66.1599 26.8943 65.8593 25.6568 65.8593 24.2634C65.8593 22.8701 66.1599 21.6326 66.7611 20.5509C67.3805 19.4693 68.2185 18.6259 69.2751 18.0209C70.3318 17.4159 71.5524 17.1134 72.9369 17.1134C74.6676 17.1134 76.125 17.5718 77.3092 18.4884C78.4934 19.3868 79.2494 20.6334 79.5773 22.2284H75.8882C75.706 21.5684 75.3417 21.0551 74.7951 20.6884C74.2668 20.3034 73.6383 20.1109 72.9096 20.1109C71.944 20.1109 71.1242 20.4776 70.4502 21.2109C69.7761 21.9443 69.4391 22.9618 69.4391 24.2634C69.4391 25.5651 69.7761 26.5826 70.4502 27.3159C71.1242 28.0493 71.944 28.4159 72.9096 28.4159C73.6383 28.4159 74.2668 28.2326 74.7951 27.8659C75.3417 27.4993 75.706 26.9768 75.8882 26.2984H79.5773C79.2494 27.8384 78.4934 29.0759 77.3092 30.0109C76.125 30.9459 74.6676 31.4134 72.9369 31.4134Z" fill="#464F6D"/>
<path d="M81.3156 31.0834V17.4434H84.4035L84.7041 19.2859C85.1413 18.6259 85.7152 18.1034 86.4257 17.7184C87.1544 17.3151 87.9924 17.1134 88.9397 17.1134C91.0348 17.1134 92.5195 17.9293 93.394 19.5609C93.8858 18.8093 94.5417 18.2134 95.3615 17.7734C96.1995 17.3334 97.1104 17.1134 98.0942 17.1134C99.8613 17.1134 101.219 17.6451 102.166 18.7084C103.113 19.7718 103.587 21.3301 103.587 23.3834V31.0834H100.089V23.7134C100.089 22.5401 99.8613 21.6418 99.4058 21.0184C98.9686 20.3951 98.2855 20.0834 97.3563 20.0834C96.409 20.0834 95.6439 20.4318 95.0609 21.1284C94.4961 21.8251 94.2138 22.7968 94.2138 24.0434V31.0834H90.7159V23.7134C90.7159 22.5401 90.4882 21.6418 90.0328 21.0184C89.5773 20.3951 88.8759 20.0834 87.9286 20.0834C86.9995 20.0834 86.2435 20.4318 85.6605 21.1284C85.0958 21.8251 84.8134 22.7968 84.8134 24.0434V31.0834H81.3156Z" fill="#464F6D"/>
<path d="M112.127 31.4134C110.761 31.4134 109.549 31.1201 108.493 30.5334C107.436 29.9468 106.607 29.1218 106.006 28.0584C105.405 26.9951 105.104 25.7668 105.104 24.3734C105.104 22.9618 105.396 21.7059 105.979 20.6059C106.58 19.5059 107.4 18.6534 108.438 18.0484C109.495 17.4251 110.733 17.1134 112.154 17.1134C113.484 17.1134 114.659 17.4068 115.68 17.9934C116.7 18.5801 117.492 19.3868 118.057 20.4134C118.64 21.4218 118.931 22.5493 118.931 23.7959C118.931 23.9976 118.922 24.2084 118.904 24.4284C118.904 24.6484 118.895 24.8776 118.877 25.1159H108.575C108.647 26.1793 109.012 27.0134 109.668 27.6184C110.342 28.2234 111.152 28.5259 112.1 28.5259C112.81 28.5259 113.402 28.3701 113.876 28.0584C114.368 27.7284 114.732 27.3068 114.969 26.7934H118.522C118.266 27.6551 117.838 28.4434 117.237 29.1584C116.654 29.8551 115.925 30.4051 115.051 30.8084C114.195 31.2118 113.22 31.4134 112.127 31.4134ZM112.154 19.9734C111.298 19.9734 110.542 20.2209 109.886 20.7159C109.23 21.1926 108.811 21.9259 108.629 22.9159H115.379C115.324 22.0176 114.996 21.3026 114.395 20.7709C113.794 20.2393 113.047 19.9734 112.154 19.9734Z" fill="#464F6D"/>
<path d="M134.397 31.4134C132.466 31.4134 130.808 31.0009 129.423 30.1759C128.039 29.3326 126.973 28.1684 126.226 26.6834C125.479 25.1801 125.106 23.4476 125.106 21.4859C125.106 19.5243 125.479 17.7918 126.226 16.2884C126.973 14.7851 128.039 13.6118 129.423 12.7684C130.808 11.9251 132.466 11.5034 134.397 11.5034C136.692 11.5034 138.569 12.0809 140.026 13.2359C141.502 14.3726 142.422 15.9768 142.786 18.0484H138.933C138.696 17.0034 138.186 16.1876 137.403 15.6009C136.637 14.9959 135.617 14.6934 134.342 14.6934C132.575 14.6934 131.19 15.2984 130.188 16.5084C129.186 17.7184 128.685 19.3776 128.685 21.4859C128.685 23.5943 129.186 25.2534 130.188 26.4634C131.19 27.6551 132.575 28.2509 134.342 28.2509C135.617 28.2509 136.637 27.9759 137.403 27.4259C138.186 26.8576 138.696 26.0784 138.933 25.0884H142.786C142.422 27.0684 141.502 28.6176 140.026 29.7359C138.569 30.8543 136.692 31.4134 134.397 31.4134Z" fill="#464F6D"/>
<path d="M150.938 31.4134C149.626 31.4134 148.442 31.1109 147.385 30.5059C146.347 29.9009 145.518 29.0668 144.898 28.0034C144.297 26.9218 143.997 25.6751 143.997 24.2634C143.997 22.8518 144.306 21.6143 144.926 20.5509C145.545 19.4693 146.374 18.6259 147.413 18.0209C148.469 17.4159 149.653 17.1134 150.965 17.1134C152.258 17.1134 153.424 17.4159 154.463 18.0209C155.519 18.6259 156.348 19.4693 156.95 20.5509C157.569 21.6143 157.879 22.8518 157.879 24.2634C157.879 25.6751 157.569 26.9218 156.95 28.0034C156.348 29.0668 155.519 29.9009 154.463 30.5059C153.406 31.1109 152.231 31.4134 150.938 31.4134ZM150.938 28.3609C151.849 28.3609 152.641 28.0218 153.315 27.3434C153.989 26.6468 154.326 25.6201 154.326 24.2634C154.326 22.9068 153.989 21.8893 153.315 21.2109C152.641 20.5143 151.858 20.1659 150.965 20.1659C150.036 20.1659 149.234 20.5143 148.56 21.2109C147.904 21.8893 147.576 22.9068 147.576 24.2634C147.576 25.6201 147.904 26.6468 148.56 27.3434C149.234 28.0218 150.027 28.3609 150.938 28.3609Z" fill="#464F6D"/>
<path d="M159.64 31.0834V17.4434H162.755L163.083 20.0009C163.575 19.1209 164.24 18.4243 165.078 17.9109C165.934 17.3793 166.936 17.1134 168.084 17.1134V20.8259H167.1C166.335 20.8259 165.652 20.9451 165.05 21.1834C164.449 21.4218 163.976 21.8343 163.629 22.4209C163.302 23.0076 163.138 23.8234 163.138 24.8684V31.0834H159.64Z" fill="#464F6D"/>
<path d="M169.108 37.1334V17.4434H172.223L172.606 19.3959C173.043 18.7909 173.617 18.2593 174.327 17.8009C175.056 17.3426 175.994 17.1134 177.142 17.1134C178.417 17.1134 179.556 17.4251 180.558 18.0484C181.56 18.6718 182.352 19.5243 182.935 20.6059C183.518 21.6876 183.81 22.9159 183.81 24.2909C183.81 25.6659 183.518 26.8943 182.935 27.9759C182.352 29.0393 181.56 29.8826 180.558 30.5059C179.556 31.1109 178.417 31.4134 177.142 31.4134C176.122 31.4134 175.229 31.2209 174.464 30.8359C173.699 30.4509 173.079 29.9101 172.606 29.2134V37.1334H169.108ZM176.404 28.3334C177.516 28.3334 178.436 27.9576 179.164 27.2059C179.893 26.4543 180.257 25.4826 180.257 24.2909C180.257 23.0993 179.893 22.1184 179.164 21.3484C178.436 20.5784 177.516 20.1934 176.404 20.1934C175.275 20.1934 174.346 20.5784 173.617 21.3484C172.906 22.1001 172.551 23.0718 172.551 24.2634C172.551 25.4551 172.906 26.4359 173.617 27.2059C174.346 27.9576 175.275 28.3334 176.404 28.3334Z" fill="#464F6D"/>
</svg>
