<svg width="24" height="24" viewBox="0 0 24 24" fill="none" xmlns="http://www.w3.org/2000/svg">
<path fill-rule="evenodd" clip-rule="evenodd" d="M13 3C13 2.44772 12.5523 2 12 2C11.4477 2 11 2.44772 11 3V3.05493C6.82838 3.51608 3.51608 6.82838 3.05493 11H3C2.44772 11 2 11.4477 2 12C2 12.5523 2.44772 13 3 13H3.05493C3.51608 17.1716 6.82838 20.4839 11 20.9451V21C11 21.5523 11.4477 22 12 22C12.5523 22 13 21.5523 13 21V20.9451C17.1716 20.4839 20.4839 17.1716 20.9451 13H21C21.5523 13 22 12.5523 22 12C22 11.4477 21.5523 11 21 11H20.9451C20.4839 6.82838 17.1716 3.51608 13 3.05493V3ZM9 12C9 10.3431 10.3431 9 12 9C13.6569 9 15 10.3431 15 12C15 13.6569 13.6569 15 12 15C10.3431 15 9 13.6569 9 12ZM12 7C9.23858 7 7 9.23858 7 12C7 14.7614 9.23858 17 12 17C14.7614 17 17 14.7614 17 12C17 9.23858 14.7614 7 12 7Z" fill="white"/>
</svg>
