<svg width="24" height="24" viewBox="0 0 24 24" fill="none" xmlns="http://www.w3.org/2000/svg">
<path fill-rule="evenodd" clip-rule="evenodd" d="M20 11H20.0812C21.1409 11 22 10.1409 22 9.08119C22 8.05069 21.4413 7.10118 20.5405 6.60072L14.4282 3.20502C12.9181 2.36607 11.0819 2.36607 9.57179 3.20502L3.45952 6.60072C2.55869 7.10118 2 8.05069 2 9.08119C2 10.1409 2.85907 11 3.91878 11H4L4 19H3C2.44772 19 2 19.4477 2 20C2 20.5523 2.44772 21 3 21H21C21.5523 21 22 20.5523 22 20C22 19.4477 21.5523 19 21 19H20V11ZM17 11H7L7 19H9L9 14C9 13.4477 9.44772 13 10 13C10.5523 13 11 13.4477 11 14V19H13V14C13 13.4477 13.4477 13 14 13C14.5523 13 15 13.4477 15 14V19H17V11ZM11 6.99997C11 6.44768 11.4477 5.99997 12 5.99997H12.002C12.5542 5.99997 13.002 6.44768 13.002 6.99997C13.002 7.55225 12.5542 7.99997 12.002 7.99997H12C11.4477 7.99997 11 7.55225 11 6.99997Z" fill="white"/>
</svg>
