<svg width="50" height="50" viewBox="0 0 50 50" fill="none" xmlns="http://www.w3.org/2000/svg">
<path fill-rule="evenodd" clip-rule="evenodd" d="M18.6031 6.25L25.1526 6.25C28.9514 6.24995 32.0134 6.2499 34.4217 6.57368C36.922 6.90984 39.0272 7.62899 40.6992 9.30098C42.3712 10.973 43.0903 13.0782 43.4265 15.5785C43.7502 17.9867 43.7502 21.0487 43.7501 24.8476V38.5792C43.7502 39.8361 43.842 41.2409 43.1872 42.3692C42.4685 43.6077 41.164 44.3904 39.733 44.4418C38.978 44.4689 38.3177 44.2298 37.8194 44.0121C37.3306 43.7985 36.7542 43.4911 36.124 43.1549C35.6063 42.8788 35.0471 42.4859 34.4656 42.3534C34.1184 42.2742 33.7567 42.2854 33.415 42.3858C32.7915 42.569 32.2284 43.0301 31.6796 43.3678C30.5301 44.0752 29.5446 44.7138 28.4356 44.9596C27.545 45.1569 26.622 45.1569 25.7314 44.9596C24.6223 44.7138 23.6369 44.0752 22.4873 43.3678C21.9386 43.0301 21.3754 42.569 20.752 42.3858C20.4103 42.2854 20.0486 42.2742 19.7014 42.3534C19.4943 42.4006 19.257 42.5075 18.1078 43.1204C17.528 43.4296 16.9502 43.7488 16.3476 44.0121C15.8492 44.2298 15.1889 44.4689 14.434 44.4418C13.0029 44.3904 11.6985 43.6077 10.9797 42.3692C10.3249 41.2409 10.4167 39.8361 10.4168 38.5792L10.4168 29.1667C9.49362 29.1667 8.59164 29.1711 7.85323 29.0718C7.05489 28.9645 6.1439 28.703 5.3872 27.9463C4.6305 27.1896 4.369 26.2786 4.26166 25.4803C4.05028 23.908 4.16681 22.2695 4.16681 20.6863C4.16674 17.8652 4.16667 15.539 4.41421 13.6978C4.67409 11.7648 5.2407 10.0577 6.60759 8.69078C7.97448 7.32389 9.68162 6.75729 11.6146 6.49741C13.4558 6.24987 15.782 6.24993 18.6031 6.25ZM10.4168 25V11.0608C9.12536 11.6232 8.72019 12.9405 8.54372 14.253C8.3379 15.7839 8.33348 17.8282 8.33348 20.8333C8.33348 22.1793 8.21157 23.5892 8.39118 24.9251C8.39187 24.9302 8.39256 24.9353 8.39326 24.9402C8.39821 24.9409 8.40327 24.9416 8.40843 24.9423C8.80466 24.9956 9.37582 25 10.4168 25ZM19.7918 18.75C19.7918 17.5994 20.7246 16.6667 21.8751 16.6667H32.2918C33.4424 16.6667 34.3751 17.5994 34.3751 18.75C34.3751 19.9006 33.4424 20.8333 32.2918 20.8333H21.8751C20.7246 20.8333 19.7918 19.9006 19.7918 18.75ZM19.7918 27.0833C19.7918 25.9327 20.7246 25 21.8751 25H30.2085C31.3591 25 32.2918 25.9327 32.2918 27.0833C32.2918 28.2339 31.3591 29.1667 30.2085 29.1667H21.8751C20.7246 29.1667 19.7918 28.2339 19.7918 27.0833Z" fill="#3671FF"/>
</svg>
