<svg width="204" height="44" viewBox="0 0 204 44" fill="none" xmlns="http://www.w3.org/2000/svg">
<path opacity="0.8" fill-rule="evenodd" clip-rule="evenodd" d="M4.41665 26.6409C5.35041 27.5504 5.35039 29.0248 4.41661 29.9342L4.36879 29.9808C3.43501 30.8902 1.92106 30.8902 0.987301 29.9808C0.0535369 29.0714 0.0535513 27.5969 0.987333 26.6875L1.03515 26.6409C1.96894 25.7315 3.48288 25.7315 4.41665 26.6409Z" fill="#464F6D"/>
<path opacity="0.9" fill-rule="evenodd" clip-rule="evenodd" d="M15.6577 27.3424C16.5898 28.2535 16.5871 29.7279 15.6516 30.6357L9.02835 37.0629C8.09289 37.9707 6.57894 37.9681 5.64686 37.057C4.71478 36.1459 4.71751 34.6715 5.65297 33.7637L12.2763 27.3364C13.2117 26.4287 14.7257 26.4313 15.6577 27.3424Z" fill="#464F6D"/>
<path opacity="0.8" fill-rule="evenodd" clip-rule="evenodd" d="M24.6471 38.4065C25.3796 37.3364 26.8641 37.0472 27.9629 37.7606L28.1064 37.8538C29.2051 38.5672 29.502 40.013 28.7695 41.0831C28.037 42.1532 26.5525 42.4424 25.4537 41.729L25.3102 41.6358C24.2115 40.9224 23.9146 39.4766 24.6471 38.4065Z" fill="#464F6D"/>
<path opacity="0.9" fill-rule="evenodd" clip-rule="evenodd" d="M40.4262 26.5012C41.36 27.4106 41.36 28.885 40.4262 29.7945L37.1743 32.9615C36.2406 33.8709 34.7266 33.8709 33.7929 32.9615C32.8591 32.0521 32.8591 30.5776 33.7929 29.6682L37.0447 26.5012C37.9785 25.5917 39.4924 25.5917 40.4262 26.5012Z" fill="#464F6D"/>
<path fill-rule="evenodd" clip-rule="evenodd" d="M40.4739 14.7878C41.4077 15.6972 41.4077 17.1717 40.4739 18.0811L16.4436 41.4847C15.5099 42.3941 13.9959 42.3941 13.0621 41.4847C12.1284 40.5752 12.1284 39.1008 13.0621 38.1914L37.0925 14.7878C38.0262 13.8784 39.5402 13.8784 40.4739 14.7878Z" fill="#464F6D"/>
<path fill-rule="evenodd" clip-rule="evenodd" d="M35.9309 7.59198C36.8647 8.5014 36.8647 9.97586 35.9309 10.8853L22.1105 24.3452C21.1767 25.2547 19.6628 25.2547 18.729 24.3452C17.7952 23.4358 17.7952 21.9614 18.729 21.0519L32.5494 7.59198C33.4832 6.68256 34.9972 6.68256 35.9309 7.59198Z" fill="#464F6D"/>
<path fill-rule="evenodd" clip-rule="evenodd" d="M28.637 3.02666C29.5714 3.93547 29.5724 5.40993 28.6393 6.31996L10.8736 23.6456C9.94046 24.5556 8.42652 24.5566 7.49212 23.6478C6.55772 22.739 6.5567 21.2645 7.48984 20.3545L25.2555 3.02888C26.1887 2.11884 27.7026 2.11785 28.637 3.02666Z" fill="#464F6D"/>
<path opacity="0.9" fill-rule="evenodd" clip-rule="evenodd" d="M11.0428 8.57296C11.9749 9.48395 11.9723 10.9584 11.0369 11.8663L4.07891 18.6195C3.14353 19.5274 1.62959 19.5248 0.697422 18.6139C-0.234742 17.7029 -0.232136 16.2284 0.703242 15.3206L7.66127 8.56729C8.59665 7.65944 10.1106 7.66198 11.0428 8.57296Z" fill="#464F6D"/>
<path opacity="0.8" fill-rule="evenodd" clip-rule="evenodd" d="M15.3029 1.83337C16.6235 1.83337 17.694 2.87598 17.694 4.16209V4.39496C17.694 5.68107 16.6235 6.72367 15.3029 6.72367C13.9824 6.72367 12.9119 5.68107 12.9119 4.39496V4.16209C12.9119 2.87598 13.9824 1.83337 15.3029 1.83337Z" fill="#464F6D"/>
<path d="M58.0183 21.5135H61.6959C63.0622 21.5135 64.26 21.3302 65.2893 20.9635C66.3374 20.5785 67.1609 20.0285 67.7598 19.3135C68.3774 18.5985 68.6862 17.7369 68.6862 16.7285C68.6862 15.6285 68.3774 14.721 67.7598 14.006C67.1609 13.2727 66.3374 12.7319 65.2893 12.3835C64.26 12.0169 63.0622 11.8335 61.6959 11.8335H54.4811V31.0835H62.1732C63.7266 31.0835 65.0741 30.9002 66.2158 30.5335C67.3574 30.1485 68.237 29.5619 68.8547 28.7735C69.491 27.9852 69.8092 26.9494 69.8092 25.666C69.8092 24.6944 69.5846 23.8694 69.1354 23.191C68.7049 22.4944 68.1247 21.926 67.3948 21.486C66.6649 21.0277 65.8508 20.6977 64.9525 20.496C64.0541 20.2944 63.1277 20.1935 62.1732 20.1935H58.0183V22.7235H61.6398C62.1077 22.7235 62.5288 22.7694 62.9031 22.861C63.2961 22.9344 63.6424 23.0627 63.9418 23.246C64.2413 23.4294 64.4752 23.6677 64.6436 23.961C64.8121 24.2544 64.8963 24.6027 64.8963 25.006C64.8963 25.6294 64.7466 26.1244 64.4471 26.491C64.1664 26.8394 63.7827 27.096 63.2961 27.261C62.8095 27.4077 62.2574 27.481 61.6398 27.481H59.2255V15.436H61.1906C62.0141 15.436 62.6504 15.601 63.0996 15.931C63.5488 16.261 63.7734 16.756 63.7734 17.416C63.7734 17.856 63.6704 18.2319 63.4646 18.5435C63.2587 18.8369 62.9592 19.066 62.5662 19.231C62.1919 19.396 61.7334 19.4785 61.1906 19.4785H58.0183V21.5135Z" fill="#464F6D"/>
<path d="M71.6076 13.676C71.6076 14.336 71.8509 14.8769 72.3375 15.2985C72.8241 15.7202 73.4043 15.931 74.0781 15.931C74.7705 15.931 75.3507 15.7202 75.8186 15.2985C76.3052 14.8769 76.5485 14.336 76.5485 13.676C76.5485 13.016 76.3052 12.4844 75.8186 12.081C75.3507 11.6594 74.7705 11.4485 74.0781 11.4485C73.4043 11.4485 72.8241 11.6594 72.3375 12.081C71.8509 12.4844 71.6076 13.016 71.6076 13.676ZM72.0287 18.4335V31.0835H76.1274V18.4335H72.0287Z" fill="#464F6D"/>
<path d="M78.0186 24.7585C78.0186 26.0785 78.3368 27.2335 78.9731 28.2235C79.6095 29.2135 80.4891 29.9835 81.612 30.5335C82.735 31.0835 83.9983 31.3585 85.402 31.3585C86.8056 31.3585 88.0596 31.0835 89.1638 30.5335C90.2867 29.9835 91.1664 29.2135 91.8027 28.2235C92.4577 27.2335 92.7853 26.0785 92.7853 24.7585C92.7853 23.4202 92.4577 22.256 91.8027 21.266C91.1664 20.276 90.2867 19.506 89.1638 18.956C88.0596 18.406 86.8056 18.131 85.402 18.131C83.9983 18.131 82.735 18.406 81.612 18.956C80.4891 19.506 79.6095 20.276 78.9731 21.266C78.3368 22.256 78.0186 23.4202 78.0186 24.7585ZM82.37 24.7585C82.37 24.0985 82.5104 23.5302 82.7911 23.0535C83.0719 22.5769 83.4368 22.2102 83.886 21.9535C84.3352 21.6969 84.8405 21.5685 85.402 21.5685C85.9447 21.5685 86.4407 21.6969 86.8898 21.9535C87.3577 22.2102 87.7227 22.5769 87.9847 23.0535C88.2654 23.5302 88.4058 24.0985 88.4058 24.7585C88.4058 25.4185 88.2654 25.9869 87.9847 26.4635C87.7227 26.9219 87.3577 27.2794 86.8898 27.536C86.4407 27.7927 85.9447 27.921 85.402 27.921C84.8405 27.921 84.3352 27.7927 83.886 27.536C83.4368 27.2794 83.0719 26.9219 82.7911 26.4635C82.5104 25.9869 82.37 25.4185 82.37 24.7585Z" fill="#464F6D"/>
<path d="M95.1952 26.491L93.4266 29.241C94.0067 29.681 94.6337 30.0844 95.3075 30.451C95.9812 30.7994 96.7111 31.0744 97.4972 31.276C98.302 31.496 99.1722 31.606 100.108 31.606C101.643 31.606 102.831 31.2669 103.673 30.5885C104.534 29.8919 104.965 28.8652 104.965 27.5085C104.965 26.7202 104.787 26.0877 104.431 25.611C104.094 25.1344 103.636 24.7402 103.056 24.4285C102.494 24.1169 101.877 23.8419 101.203 23.6035C100.567 23.3652 100.024 23.1727 99.5746 23.026C99.1442 22.861 98.8073 22.6869 98.564 22.5035C98.3394 22.3202 98.2271 22.091 98.2271 21.816C98.2271 21.5777 98.3207 21.3852 98.5078 21.2385C98.7137 21.0919 99.0132 21.0185 99.4062 21.0185C99.9864 21.0185 100.623 21.1835 101.315 21.5135C102.008 21.8252 102.625 22.2285 103.168 22.7235L104.684 20.0285C104.179 19.6619 103.636 19.341 103.056 19.066C102.494 18.791 101.886 18.571 101.231 18.406C100.595 18.241 99.9021 18.1585 99.1535 18.1585C98.2177 18.1585 97.3849 18.296 96.655 18.571C95.9438 18.846 95.373 19.2494 94.9425 19.781C94.5308 20.3127 94.3249 20.9635 94.3249 21.7335C94.3249 22.5402 94.5027 23.2002 94.8583 23.7135C95.2139 24.2269 95.6631 24.6394 96.2058 24.951C96.7673 25.2444 97.3568 25.501 97.9744 25.721C98.6669 25.9227 99.2097 26.1152 99.6027 26.2985C100.014 26.4819 100.305 26.6744 100.473 26.876C100.641 27.0594 100.726 27.2885 100.726 27.5635C100.726 27.8569 100.623 28.0952 100.417 28.2785C100.211 28.4619 99.8928 28.5535 99.4623 28.5535C99.1629 28.5535 98.8073 28.4985 98.3955 28.3885C97.9838 28.2602 97.5065 28.0494 96.9638 27.756C96.4398 27.4444 95.8502 27.0227 95.1952 26.491Z" fill="#464F6D"/>
<path d="M119.54 18.4335H115.188L111.061 28.5535L113.251 28.581L109.068 18.4335H104.408L109.995 30.066L106.85 37.1335H111.118L119.54 18.4335Z" fill="#464F6D"/>
<path d="M128.509 23.3835V31.0835H132.916V22.9435C132.916 21.4219 132.551 20.2394 131.821 19.396C131.091 18.5527 129.922 18.131 128.312 18.131C127.358 18.131 126.553 18.3235 125.898 18.7085C125.261 19.0935 124.756 19.6344 124.382 20.331V18.4335H120.115V31.0835H124.382V23.3835C124.382 22.8885 124.475 22.4669 124.663 22.1185C124.85 21.7702 125.112 21.5044 125.449 21.321C125.786 21.1377 126.179 21.046 126.628 21.046C127.301 21.046 127.779 21.2477 128.059 21.651C128.359 22.0544 128.509 22.6319 128.509 23.3835Z" fill="#464F6D"/>
<path d="M133.904 18.4335V21.871H142.551V18.4335H133.904ZM136.178 14.0335V31.0835H140.249V14.0335H136.178Z" fill="#464F6D"/>
<path d="M147.783 9.63354H143.515V31.0835H147.783V9.63354ZM151.909 23.3835V31.0835H156.148V22.7785C156.148 21.7335 155.999 20.8535 155.699 20.1385C155.4 19.4235 154.923 18.8827 154.268 18.516C153.631 18.1494 152.78 17.966 151.713 17.966C150.646 17.966 149.766 18.2135 149.074 18.7085C148.4 19.1852 147.895 19.836 147.558 20.661C147.221 21.4677 147.053 22.3752 147.053 23.3835H147.783C147.783 22.8885 147.876 22.476 148.063 22.146C148.25 21.7977 148.512 21.5319 148.849 21.3485C149.186 21.1469 149.579 21.046 150.028 21.046C150.721 21.046 151.208 21.2477 151.488 21.651C151.769 22.0544 151.909 22.6319 151.909 23.3835Z" fill="#464F6D"/>
<path d="M165.226 31.3585C166.873 31.3585 168.267 31.0469 169.409 30.4235C170.569 29.8002 171.486 28.8652 172.16 27.6185L168.37 26.711C168.052 27.261 167.621 27.6735 167.078 27.9485C166.554 28.2235 165.918 28.361 165.169 28.361C164.514 28.361 163.962 28.2235 163.513 27.9485C163.064 27.6552 162.727 27.2335 162.502 26.6835C162.278 26.1335 162.166 25.4735 162.166 24.7035C162.184 23.8602 162.297 23.1635 162.502 22.6135C162.727 22.0452 163.055 21.6235 163.485 21.3485C163.915 21.0735 164.449 20.936 165.085 20.936C165.591 20.936 166.03 21.046 166.405 21.266C166.779 21.486 167.069 21.7977 167.275 22.201C167.481 22.6044 167.584 23.081 167.584 23.631C167.584 23.7594 167.546 23.9244 167.471 24.126C167.415 24.3094 167.34 24.4652 167.247 24.5935L168.257 23.3285H160.285V25.6385H172.075C172.113 25.5102 172.132 25.3544 172.132 25.171C172.132 24.9694 172.132 24.7677 172.132 24.566C172.132 23.2094 171.86 22.0544 171.318 21.101C170.775 20.1477 169.989 19.4235 168.959 18.9285C167.93 18.4152 166.667 18.1585 165.169 18.1585C163.672 18.1585 162.371 18.4244 161.267 18.956C160.182 19.4877 159.349 20.2485 158.769 21.2385C158.189 22.2285 157.898 23.4019 157.898 24.7585C157.898 26.0969 158.198 27.261 158.797 28.251C159.396 29.241 160.238 30.011 161.323 30.561C162.428 31.0927 163.728 31.3585 165.226 31.3585Z" fill="#464F6D"/>
<path d="M174.609 26.491L172.84 29.241C173.42 29.681 174.047 30.0844 174.721 30.451C175.395 30.7994 176.125 31.0744 176.911 31.276C177.716 31.496 178.586 31.606 179.522 31.606C181.056 31.606 182.245 31.2669 183.087 30.5885C183.948 29.8919 184.378 28.8652 184.378 27.5085C184.378 26.7202 184.201 26.0877 183.845 25.611C183.508 25.1344 183.05 24.7402 182.469 24.4285C181.908 24.1169 181.29 23.8419 180.617 23.6035C179.98 23.3652 179.438 23.1727 178.988 23.026C178.558 22.861 178.221 22.6869 177.978 22.5035C177.753 22.3202 177.641 22.091 177.641 21.816C177.641 21.5777 177.734 21.3852 177.922 21.2385C178.127 21.0919 178.427 21.0185 178.82 21.0185C179.4 21.0185 180.036 21.1835 180.729 21.5135C181.421 21.8252 182.039 22.2285 182.582 22.7235L184.098 20.0285C183.592 19.6619 183.05 19.341 182.469 19.066C181.908 18.791 181.3 18.571 180.645 18.406C180.008 18.241 179.316 18.1585 178.567 18.1585C177.631 18.1585 176.799 18.296 176.069 18.571C175.358 18.846 174.787 19.2494 174.356 19.781C173.944 20.3127 173.739 20.9635 173.739 21.7335C173.739 22.5402 173.916 23.2002 174.272 23.7135C174.628 24.2269 175.077 24.6394 175.62 24.951C176.181 25.2444 176.771 25.501 177.388 25.721C178.081 25.9227 178.623 26.1152 179.016 26.2985C179.428 26.4819 179.718 26.6744 179.887 26.876C180.055 27.0594 180.139 27.2885 180.139 27.5635C180.139 27.8569 180.036 28.0952 179.831 28.2785C179.625 28.4619 179.306 28.5535 178.876 28.5535C178.577 28.5535 178.221 28.4985 177.809 28.3885C177.398 28.2602 176.92 28.0494 176.378 27.756C175.853 27.4444 175.264 27.0227 174.609 26.491Z" fill="#464F6D"/>
<path d="M185.615 13.676C185.615 14.336 185.858 14.8769 186.345 15.2985C186.832 15.7202 187.412 15.931 188.086 15.931C188.778 15.931 189.358 15.7202 189.826 15.2985C190.313 14.8769 190.556 14.336 190.556 13.676C190.556 13.016 190.313 12.4844 189.826 12.081C189.358 11.6594 188.778 11.4485 188.086 11.4485C187.412 11.4485 186.832 11.6594 186.345 12.081C185.858 12.4844 185.615 13.016 185.615 13.676ZM186.036 18.4335V31.0835H190.135V18.4335H186.036Z" fill="#464F6D"/>
<path d="M193.486 26.491L191.717 29.241C192.298 29.681 192.925 30.0844 193.598 30.451C194.272 30.7994 195.002 31.0744 195.788 31.276C196.593 31.496 197.463 31.606 198.399 31.606C199.934 31.606 201.122 31.2669 201.964 30.5885C202.825 29.8919 203.256 28.8652 203.256 27.5085C203.256 26.7202 203.078 26.0877 202.722 25.611C202.385 25.1344 201.927 24.7402 201.347 24.4285C200.785 24.1169 200.168 23.8419 199.494 23.6035C198.857 23.3652 198.315 23.1727 197.866 23.026C197.435 22.861 197.098 22.6869 196.855 22.5035C196.63 22.3202 196.518 22.091 196.518 21.816C196.518 21.5777 196.612 21.3852 196.799 21.2385C197.005 21.0919 197.304 21.0185 197.697 21.0185C198.277 21.0185 198.914 21.1835 199.606 21.5135C200.299 21.8252 200.916 22.2285 201.459 22.7235L202.975 20.0285C202.47 19.6619 201.927 19.341 201.347 19.066C200.785 18.791 200.177 18.571 199.522 18.406C198.886 18.241 198.193 18.1585 197.444 18.1585C196.509 18.1585 195.676 18.296 194.946 18.571C194.235 18.846 193.664 19.2494 193.233 19.781C192.822 20.3127 192.616 20.9635 192.616 21.7335C192.616 22.5402 192.794 23.2002 193.149 23.7135C193.505 24.2269 193.954 24.6394 194.497 24.951C195.058 25.2444 195.648 25.501 196.265 25.721C196.958 25.9227 197.501 26.1152 197.894 26.2985C198.305 26.4819 198.595 26.6744 198.764 26.876C198.932 27.0594 199.017 27.2885 199.017 27.5635C199.017 27.8569 198.914 28.0952 198.708 28.2785C198.502 28.4619 198.184 28.5535 197.753 28.5535C197.454 28.5535 197.098 28.4985 196.686 28.3885C196.275 28.2602 195.797 28.0494 195.255 27.756C194.731 27.4444 194.141 27.0227 193.486 26.491Z" fill="#464F6D"/>
</svg>
