<svg width="158" height="44" viewBox="0 0 158 44" fill="none" xmlns="http://www.w3.org/2000/svg">
<path fill-rule="evenodd" clip-rule="evenodd" d="M20.4471 42.1667C31.7397 42.1667 40.8941 33.1378 40.8941 22C40.8941 10.8623 31.7397 1.83337 20.4471 1.83337C9.15444 1.83337 0 10.8623 0 22C0 33.1378 9.15444 42.1667 20.4471 42.1667ZM26.8258 11.2279C27.1363 10.1401 26.066 9.49684 25.0885 10.1837L11.4433 19.7712C10.3832 20.5161 10.55 22 11.6938 22H15.2869V21.9726H22.2899L16.5838 23.9583L14.0683 32.7723C13.7578 33.8601 14.828 34.5033 15.8056 33.8164L29.4508 24.2289C30.5109 23.4841 30.3441 22 29.2003 22H23.7514L26.8258 11.2279Z" fill="#464F6D"/>
<path d="M51.4707 31.0834V27.8934H54.0359V15.0234H51.4707V11.8334H61.5084C62.698 11.8334 63.7296 12.035 64.6033 12.4384C65.4955 12.8234 66.1833 13.3825 66.6666 14.1159C67.1685 14.8309 67.4194 15.6925 67.4194 16.7009V16.9759C67.4194 17.8559 67.2521 18.58 66.9175 19.1484C66.5829 19.6984 66.1833 20.1292 65.7186 20.4409C65.2725 20.7342 64.8449 20.945 64.436 21.0734V21.5684C64.8449 21.6784 65.2911 21.8892 65.7744 22.2009C66.2576 22.4942 66.6666 22.925 67.0012 23.4934C67.3544 24.0617 67.5309 24.8042 67.5309 25.7209V25.9959C67.5309 27.0592 67.28 27.9759 66.7781 28.7459C66.2762 29.4975 65.5792 30.075 64.6869 30.4784C63.8133 30.8817 62.7909 31.0834 61.6199 31.0834H51.4707ZM57.7164 27.7834H61.1738C61.9731 27.7834 62.6144 27.5909 63.0976 27.2059C63.5995 26.8209 63.8505 26.2709 63.8505 25.5559V25.2809C63.8505 24.5659 63.6088 24.0159 63.1255 23.6309C62.6422 23.2459 61.9916 23.0534 61.1738 23.0534H57.7164V27.7834ZM57.7164 19.7534H61.118C61.8801 19.7534 62.5028 19.5609 62.9861 19.1759C63.488 18.7909 63.7389 18.2592 63.7389 17.5809V17.3059C63.7389 16.6092 63.4973 16.0775 63.014 15.7109C62.5307 15.3259 61.8987 15.1334 61.118 15.1334H57.7164V19.7534Z" fill="#464F6D"/>
<path d="M75.8416 31.4684C74.4661 31.4684 73.23 31.1934 72.1333 30.6434C71.0366 30.0934 70.1722 29.2959 69.5402 28.2509C68.9082 27.2059 68.5922 25.95 68.5922 24.4834V24.0434C68.5922 22.5767 68.9082 21.3209 69.5402 20.2759C70.1722 19.2309 71.0366 18.4334 72.1333 17.8834C73.23 17.3334 74.4661 17.0584 75.8416 17.0584C77.2172 17.0584 78.4533 17.3334 79.55 17.8834C80.6467 18.4334 81.511 19.2309 82.143 20.2759C82.775 21.3209 83.091 22.5767 83.091 24.0434V24.4834C83.091 25.95 82.775 27.2059 82.143 28.2509C81.511 29.2959 80.6467 30.0934 79.55 30.6434C78.4533 31.1934 77.2172 31.4684 75.8416 31.4684ZM75.8416 28.3884C76.9197 28.3884 77.812 28.0492 78.5183 27.3709C79.2247 26.6742 79.5779 25.6842 79.5779 24.4009V24.1259C79.5779 22.8425 79.2247 21.8617 78.5183 21.1834C77.8306 20.4867 76.9383 20.1384 75.8416 20.1384C74.7635 20.1384 73.8713 20.4867 73.1649 21.1834C72.4586 21.8617 72.1054 22.8425 72.1054 24.1259V24.4009C72.1054 25.6842 72.4586 26.6742 73.1649 27.3709C73.8713 28.0492 74.7635 28.3884 75.8416 28.3884Z" fill="#464F6D"/>
<path d="M84.9398 31.0834V11.8334H88.4529V31.0834H84.9398Z" fill="#464F6D"/>
<path d="M96.2495 31.0834C95.3387 31.0834 94.5952 30.8084 94.019 30.2584C93.4613 29.69 93.1825 28.9384 93.1825 28.0034V20.3034H89.7251V17.4434H93.1825V13.2084H96.6957V17.4434H100.488V20.3034H96.6957V27.3984C96.6957 27.9484 96.9559 28.2234 97.4764 28.2234H100.153V31.0834H96.2495Z" fill="#464F6D"/>
<path d="M108.017 31.4684C106.214 31.4684 104.737 31.0834 103.584 30.3134C102.432 29.5434 101.735 28.4434 101.493 27.0134L104.727 26.1884C104.857 26.83 105.071 27.3342 105.369 27.7009C105.685 28.0675 106.066 28.3334 106.512 28.4984C106.976 28.645 107.478 28.7184 108.017 28.7184C108.835 28.7184 109.439 28.5809 109.83 28.3059C110.22 28.0125 110.415 27.655 110.415 27.2334C110.415 26.8117 110.229 26.4909 109.858 26.2709C109.486 26.0325 108.891 25.84 108.073 25.6934L107.292 25.5559C106.326 25.3725 105.443 25.125 104.644 24.8134C103.844 24.4834 103.203 24.0342 102.72 23.4659C102.236 22.8975 101.995 22.1642 101.995 21.2659C101.995 19.9092 102.497 18.8734 103.5 18.1584C104.504 17.425 105.824 17.0584 107.46 17.0584C109.003 17.0584 110.285 17.3975 111.308 18.0759C112.33 18.7542 112.999 19.6434 113.315 20.7434L110.053 21.7334C109.904 21.0367 109.597 20.5417 109.133 20.2484C108.687 19.955 108.129 19.8084 107.46 19.8084C106.791 19.8084 106.279 19.9275 105.926 20.1659C105.573 20.3859 105.396 20.6975 105.396 21.1009C105.396 21.5409 105.582 21.8709 105.954 22.0909C106.326 22.2925 106.828 22.4484 107.46 22.5584L108.24 22.6959C109.281 22.8792 110.22 23.1267 111.057 23.4384C111.912 23.7317 112.581 24.1625 113.064 24.7309C113.566 25.2809 113.817 26.0325 113.817 26.9859C113.817 28.4159 113.287 29.525 112.228 30.3134C111.187 31.0834 109.783 31.4684 108.017 31.4684Z" fill="#464F6D"/>
<path d="M115.501 31.0834V11.8334H119.015V19.1209H119.517C119.665 18.8275 119.898 18.5342 120.214 18.2409C120.53 17.9475 120.948 17.7092 121.468 17.5259C122.007 17.3242 122.686 17.2234 123.504 17.2234C124.582 17.2234 125.521 17.4709 126.32 17.9659C127.138 18.4425 127.77 19.1117 128.216 19.9734C128.662 20.8167 128.885 21.8067 128.885 22.9434V31.0834H125.372V23.2184C125.372 22.1917 125.112 21.4217 124.591 20.9084C124.089 20.395 123.364 20.1384 122.416 20.1384C121.338 20.1384 120.502 20.4959 119.907 21.2109C119.312 21.9075 119.015 22.8884 119.015 24.1534V31.0834H115.501Z" fill="#464F6D"/>
<path d="M131.289 31.0834V17.4434H134.802V31.0834H131.289ZM133.045 15.8484C132.413 15.8484 131.874 15.6467 131.428 15.2434C131.001 14.84 130.787 14.3084 130.787 13.6484C130.787 12.9884 131.001 12.4567 131.428 12.0534C131.874 11.65 132.413 11.4484 133.045 11.4484C133.696 11.4484 134.235 11.65 134.663 12.0534C135.09 12.4567 135.304 12.9884 135.304 13.6484C135.304 14.3084 135.09 14.84 134.663 15.2434C134.235 15.6467 133.696 15.8484 133.045 15.8484Z" fill="#464F6D"/>
<path d="M139.587 31.0834V20.3034H136.074V17.4434H139.587V14.9134C139.587 13.9784 139.866 13.2359 140.424 12.6859C141 12.1175 141.743 11.8334 142.654 11.8334H146.279V14.6934H143.881C143.361 14.6934 143.1 14.9684 143.1 15.5184V17.4434H146.725V20.3034H143.1V31.0834H139.587Z" fill="#464F6D"/>
<path d="M153.076 31.0834C152.165 31.0834 151.422 30.8084 150.846 30.2584C150.288 29.69 150.009 28.9384 150.009 28.0034V20.3034H146.552V17.4434H150.009V13.2084H153.522V17.4434H157.314V20.3034H153.522V27.3984C153.522 27.9484 153.783 28.2234 154.303 28.2234H156.98V31.0834H153.076Z" fill="#464F6D"/>
</svg>
