<svg width="25" height="24" viewBox="0 0 25 24" fill="none" xmlns="http://www.w3.org/2000/svg">
<path fill-rule="evenodd" clip-rule="evenodd" d="M5.33337 4C5.33337 2.89543 6.2288 2 7.33337 2H17.3334C18.4379 2 19.3334 2.89543 19.3334 4V20C19.8857 20 20.3334 20.4477 20.3334 21C20.3334 21.5523 19.8857 22 19.3334 22H5.33337C4.78109 22 4.33337 21.5523 4.33337 21C4.33337 20.4477 4.78109 20 5.33337 20V4ZM10.3334 14V20H14.3334V14C14.3334 13.4477 13.8857 13 13.3334 13H11.3334C10.7811 13 10.3334 13.4477 10.3334 14ZM11.3334 7C11.3334 7.55228 10.8857 8 10.3334 8C9.78109 8 9.33337 7.55228 9.33337 7C9.33337 6.44772 9.78109 6 10.3334 6C10.8857 6 11.3334 6.44772 11.3334 7ZM14.3334 8C14.8857 8 15.3334 7.55228 15.3334 7C15.3334 6.44772 14.8857 6 14.3334 6C13.7811 6 13.3334 6.44772 13.3334 7C13.3334 7.55228 13.7811 8 14.3334 8ZM11.3334 10C11.3334 10.5523 10.8857 11 10.3334 11C9.78109 11 9.33337 10.5523 9.33337 10C9.33337 9.44772 9.78109 9 10.3334 9C10.8857 9 11.3334 9.44772 11.3334 10ZM14.3334 11C14.8857 11 15.3334 10.5523 15.3334 10C15.3334 9.44772 14.8857 9 14.3334 9C13.7811 9 13.3334 9.44772 13.3334 10C13.3334 10.5523 13.7811 11 14.3334 11Z" fill="white"/>
</svg>
