<svg width="24" height="24" viewBox="0 0 24 24" fill="none" xmlns="http://www.w3.org/2000/svg">
<path fill-rule="evenodd" clip-rule="evenodd" d="M10.75 2.56687C11.5235 2.12029 12.4765 2.12029 13.25 2.56687L19.5442 6.20084C19.5947 6.23001 19.6439 6.26079 19.6919 6.29309L11.9999 10.8383L4.30801 6.29312C4.35595 6.2608 4.40521 6.23002 4.45573 6.20084L10.75 2.56687ZM20.7942 8.36591C20.7942 8.23628 20.7842 8.10809 20.7646 7.98227L12.9999 12.5705V21.5592C13.085 21.522 13.1685 21.4799 13.25 21.4329L19.5442 17.7989C20.3177 17.3523 20.7942 16.527 20.7942 15.6339V8.36591ZM10.9999 21.5591C10.9149 21.522 10.8314 21.4799 10.75 21.4329L4.45573 17.7989C3.68223 17.3523 3.20573 16.527 3.20573 15.6339V8.36591C3.20573 8.2363 3.21577 8.10812 3.23529 7.98231L10.9999 12.5705V21.5591Z" fill="white"/>
</svg>
