<svg width="24" height="24" viewBox="0 0 24 24" fill="none" xmlns="http://www.w3.org/2000/svg">
<path d="M24 0V24H0V0H24Z" fill="white" fill-opacity="0.01"/>
<path fill-rule="evenodd" clip-rule="evenodd" d="M12 4L12 7C12 8.44248 12.0021 9.42375 12.1009 10.1586C12.1958 10.8646 12.3632 11.1916 12.5858 11.4142C12.8084 11.6368 13.1354 11.8042 13.8414 11.8991C14.5763 11.9979 15.5575 12 17 12H20C20 7.58172 16.4183 4 12 4ZM2 12C2 6.47715 6.47715 2 12 2C17.5228 2 22 6.47715 22 12C22 17.5228 17.5228 22 12 22C6.47715 22 2 17.5228 2 12Z" fill="white"/>
</svg>
