<svg width="24" height="24" viewBox="0 0 24 24" fill="none" xmlns="http://www.w3.org/2000/svg">
<path d="M24 0V24H0V0H24Z" fill="white" fill-opacity="0.01"/>
<path d="M8.32635 4.00004C9.77551 4.00058 11.2247 4.00058 12.6738 4.00004C13.9011 3.99959 14.7391 3.99928 15.4515 4.21538C17.0495 4.70013 18.3 5.95065 18.7848 7.54866C18.835 7.71404 18.8735 7.88619 18.903 8.06841C18.4705 8.00266 18.0085 7.99972 17.6309 8.00005C16.2313 8.00098 14.8316 8.00047 13.4319 8.00009C13.0266 7.99982 12.6197 7.99842 12.217 8.05143C9.5246 8.40589 7.40595 10.5245 7.05149 13.2169C6.94341 14.0379 6.94342 14.9623 7.05149 15.7833C7.18969 16.8329 7.59604 17.7954 8.2 18.6001L8.15224 18.636C7.84553 18.8662 7.53242 19.1012 7.25762 19.2505C6.97498 19.4041 6.42479 19.6395 5.82926 19.3417C5.23374 19.044 5.09193 18.4626 5.04523 18.1443C4.99597 17.8086 4.99771 17.4663 4.99945 17.1267C4.99977 17.0642 5.00008 17.0019 5.00008 16.9396C3.29334 16.6261 2.00008 15.1308 2.00008 13.3334C2.00015 12.3311 2.00041 11.3287 2.00004 10.3264C1.99959 9.09908 1.99928 8.26106 2.21538 7.54866C2.70013 5.95065 3.95065 4.70013 5.54866 4.21538C6.26106 3.99928 7.09908 3.99959 8.32635 4.00004Z" fill="#0C1739"/>
<path d="M13.4313 10C14.8105 10.0004 16.1897 10.0004 17.5689 10C17.9663 9.9999 18.2607 9.99982 18.5222 10.0342C20.3171 10.2706 21.7296 11.683 21.9659 13.4779C22.0501 14.1174 22.0001 14.7849 22.0001 15.4286C22.0001 17.2066 20.7009 18.6811 19 18.9546C18.9996 19.1527 18.9972 19.3474 18.9824 19.5116C18.9656 19.6986 18.9213 20.0566 18.6722 20.3685C18.3807 20.7335 17.9358 20.9419 17.4688 20.9322C17.0697 20.9238 16.7663 20.7287 16.6119 20.6219C16.4487 20.509 16.2628 20.3541 16.0794 20.2011L14.7736 19.1129C14.6513 19.0111 14.6198 19 14.4617 19C13.8073 19 13.1281 19.0514 12.478 18.9658C10.6831 18.7295 9.27062 17.3171 9.03432 15.5221C8.94854 14.8706 8.94854 14.1294 9.03432 13.4779C9.27062 11.683 10.6831 10.2706 12.478 10.0342C12.7394 9.99982 13.0339 9.9999 13.4313 10Z" fill="#0C1739"/>
</svg>
