<svg width="24" height="24" viewBox="0 0 24 24" fill="none" xmlns="http://www.w3.org/2000/svg">
<path fill-rule="evenodd" clip-rule="evenodd" d="M2 12C2 6.47715 6.47715 2 12 2C17.5228 2 22 6.47715 22 12C22 17.5228 17.5228 22 12 22C10.9036 22 9.84658 21.8232 8.85693 21.4958C8.279 21.3046 7.85029 21.1628 7.54366 21.0635C7.17763 20.9449 6.79673 20.795 6.40865 20.7885C5.91712 20.7803 5.38898 20.9868 4.92553 21.1231C4.68468 21.1939 4.43906 21.2697 4.18506 21.2607C3.39845 21.2328 2.76724 20.6016 2.73928 19.8149C2.73025 19.5609 2.80606 19.3153 2.87692 19.0745C3.01323 18.611 3.21967 18.0829 3.21145 17.5913C3.20505 17.2084 3.05341 16.8172 2.93654 16.4563C2.83724 16.1497 2.69542 15.721 2.50422 15.1431C2.1768 14.1534 2 13.0964 2 12ZM7 12C7 11.1716 7.67157 10.5 8.5 10.5C9.32843 10.5 10 11.1716 10 12C10 12.8284 9.32843 13.5 8.5 13.5C7.67157 13.5 7 12.8284 7 12ZM14 12C14 11.1716 14.6716 10.5 15.5 10.5C16.3284 10.5 17 11.1716 17 12C17 12.8284 16.3284 13.5 15.5 13.5C14.6716 13.5 14 12.8284 14 12Z" fill="white"/>
</svg>
