<svg width="39" height="39" viewBox="0 0 39 39" fill="none" xmlns="http://www.w3.org/2000/svg">
<path fill-rule="evenodd" clip-rule="evenodd" d="M3.25 19.5C3.25 10.5254 10.5254 3.25 19.5 3.25C28.4746 3.25 35.75 10.5254 35.75 19.5C35.75 28.4746 28.4746 35.75 19.5 35.75C17.7184 35.75 16.0007 35.4627 14.3925 34.9306C13.4534 34.6199 12.7567 34.3895 12.2584 34.2281C11.6636 34.0355 11.0447 33.7919 10.4141 33.7814C9.61533 33.768 8.75709 34.1035 8.00398 34.325C7.6126 34.4402 7.21347 34.5633 6.80072 34.5487C5.52248 34.5032 4.49676 33.4775 4.45133 32.1993C4.43666 31.7865 4.55984 31.3874 4.67499 30.996C4.89649 30.2429 5.23197 29.3847 5.21861 28.5859C5.2082 27.9636 4.96179 27.328 4.77188 26.7416C4.61052 26.2433 4.38005 25.5466 4.06935 24.6075C3.5373 22.9993 3.25 21.2816 3.25 19.5ZM11.375 19.5C11.375 18.1538 12.4663 17.0625 13.8125 17.0625C15.1587 17.0625 16.25 18.1538 16.25 19.5C16.25 20.8462 15.1587 21.9375 13.8125 21.9375C12.4663 21.9375 11.375 20.8462 11.375 19.5ZM22.75 19.5C22.75 18.1538 23.8413 17.0625 25.1875 17.0625C26.5337 17.0625 27.625 18.1538 27.625 19.5C27.625 20.8462 26.5337 21.9375 25.1875 21.9375C23.8413 21.9375 22.75 20.8462 22.75 19.5Z" fill="#3671FF"/>
</svg>
