<svg width="24" height="24" viewBox="0 0 24 24" fill="none" xmlns="http://www.w3.org/2000/svg">
<path fill-rule="evenodd" clip-rule="evenodd" d="M12 2C6.47715 2 2 6.47715 2 12C2 17.5228 6.47715 22 12 22C17.5228 22 22 17.5228 22 12C22 6.47715 17.5228 2 12 2ZM16.7222 9.96532C17.2068 9.70039 17.3848 9.09278 17.1199 8.60819C16.855 8.1236 16.2474 7.94553 15.7628 8.21046C13.5251 9.43382 11.8265 10.964 10.4738 12.9956C9.84063 12.2869 9.13486 11.6625 8.33235 11.0983C7.88056 10.7806 7.2568 10.8894 6.93916 11.3412C6.62151 11.793 6.73026 12.4167 7.18205 12.7344C8.212 13.4585 9.04334 14.2899 9.76762 15.3199C9.96637 15.6026 10.297 15.7626 10.642 15.7432C10.9869 15.7237 11.2974 15.5275 11.4631 15.2243C12.7451 12.8785 14.3762 11.2479 16.7222 9.96532Z" fill="white"/>
</svg>
