<svg width="24" height="24" viewBox="0 0 24 24" fill="none" xmlns="http://www.w3.org/2000/svg">
<path fill-rule="evenodd" clip-rule="evenodd" d="M12 2C6.47715 2 2 6.47715 2 12C2 17.5228 6.47715 22 12 22C17.5228 22 22 17.5228 22 12C22 6.47715 17.5228 2 12 2ZM16.9496 9.7953C17.3401 9.40478 17.3401 8.77161 16.9496 8.38109C16.5591 7.99056 15.9259 7.99056 15.5354 8.38109L10.5856 13.3308L8.46431 11.2095C8.07379 10.819 7.44063 10.819 7.0501 11.2095C6.65958 11.6 6.65958 12.2332 7.0501 12.6237L9.87853 15.4522C10.2691 15.8427 10.9022 15.8427 11.2927 15.4522L16.9496 9.7953Z" fill="#3671FF"/>
</svg>
