<svg width="20" height="21" viewBox="0 0 20 21" fill="none" xmlns="http://www.w3.org/2000/svg">
<path fill-rule="evenodd" clip-rule="evenodd" d="M12.1282 1.75C13.2604 1.74999 14.1735 1.74998 14.906 1.8245C15.6622 1.90142 16.318 2.06459 16.8981 2.45221C17.3531 2.7562 17.7437 3.14683 18.0477 3.60179C18.4353 4.18191 18.5985 4.83769 18.6754 5.59387C18.7721 6.54467 18.7499 7.50733 18.7499 8.46163C18.7499 9.59385 18.7499 10.5069 18.6754 11.2395C18.5985 11.9956 18.4353 12.6514 18.0477 13.2315C17.5775 13.9353 16.9055 14.4984 16.0992 14.7699L15.5673 13.1904C16.0205 13.0377 16.3989 12.6992 16.6619 12.3056C16.8361 12.045 16.9538 11.6952 17.0173 11.0708C17.0822 10.4325 17.0832 9.6044 17.0832 8.41667C17.0832 7.22894 17.0822 6.40087 17.0173 5.76254C16.9538 5.13815 16.8361 4.78837 16.6619 4.52774C16.4795 4.25477 16.2451 4.02039 15.9722 3.83799C15.7115 3.66385 15.3618 3.54613 14.7374 3.48261C14.099 3.41767 13.271 3.41667 12.0832 3.41667C10.8955 3.41667 10.0674 3.41767 9.42912 3.48261C8.80473 3.54613 8.45494 3.66385 8.19432 3.83799C7.80072 4.10098 7.46217 4.47938 7.30953 4.93263L5.73003 4.4007C6.00157 3.5944 6.56461 2.92245 7.26837 2.45221C7.84849 2.06459 8.50427 1.90142 9.26044 1.8245C10.2112 1.72778 11.1739 1.75 12.1282 1.75ZM7.96162 5.91667C9.09385 5.91665 10.0069 5.91664 10.7395 5.99117C11.4956 6.06809 12.1514 6.23125 12.7315 6.61888C13.1865 6.92287 13.5771 7.3135 13.8811 7.76846C14.2688 8.34858 14.4319 9.00436 14.5088 9.76054C14.6056 10.7113 14.5833 11.674 14.5833 12.6283C14.5834 13.7605 14.5834 14.6736 14.5088 15.4061C14.4319 16.1623 14.2688 16.8181 13.8811 17.3982C13.5771 17.8532 13.1865 18.2438 12.7315 18.5478C12.1514 18.9354 11.4956 19.0986 10.7395 19.1755C10.0069 19.25 9.09386 19.25 7.96164 19.25C7.00733 19.25 6.04467 19.2722 5.09387 19.1755C4.3377 19.0986 3.68192 18.9354 3.1018 18.5478C2.64684 18.2438 2.25621 17.8532 1.95222 17.3982C1.56459 16.8181 1.40143 16.1623 1.32451 15.4061C1.24998 14.6736 1.24999 13.7605 1.25001 12.6283C1.25001 11.674 1.22778 10.7113 1.32451 9.76054C1.40143 9.00436 1.56459 8.34858 1.95222 7.76846C2.68517 6.67151 3.80133 6.12265 5.09387 5.99117C6.04467 5.89444 7.00732 5.91667 7.96162 5.91667Z" fill="#464F6D"/>
</svg>
