<svg width="24" height="24" viewBox="0 0 24 24" fill="none" xmlns="http://www.w3.org/2000/svg">
<path fill-rule="evenodd" clip-rule="evenodd" d="M12 1.5C7.85786 1.5 4.5 4.85786 4.5 9C4.5 12.4361 6.99909 15.0245 8.87555 16.5032C8.89201 16.5162 8.90845 16.5291 8.92487 16.5421C9.37143 16.8941 9.80492 17.2359 10.2663 17.4732C10.7933 17.7442 11.3341 17.8726 12 17.8726C12.6659 17.8726 13.2067 17.7442 13.7337 17.4732C14.1952 17.2359 14.6288 16.894 15.0755 16.5418C15.0918 16.5289 15.1081 16.5161 15.1244 16.5032C17.0009 15.0245 19.5 12.4361 19.5 9C19.5 4.85786 16.1421 1.5 12 1.5ZM17.2799 16.6401C16.7497 16.4855 16.1946 16.79 16.04 17.3202C15.8854 17.8504 16.1899 18.4055 16.7201 18.5601C17.2209 18.7061 17.5807 18.861 17.8113 18.9998C17.5726 19.1435 17.1975 19.3032 16.675 19.4525C15.5204 19.7824 13.8672 19.9998 12 19.9998C10.1328 19.9998 8.47958 19.7824 7.32497 19.4525C6.80251 19.3032 6.42735 19.1435 6.18867 18.9998C6.41926 18.861 6.77915 18.7061 7.27991 18.5601C7.81012 18.4055 8.11462 17.8504 7.96003 17.3202C7.80543 16.79 7.25029 16.4855 6.72009 16.6401C6.05202 16.8349 5.43918 17.0849 4.97068 17.406C4.53454 17.705 4 18.2262 4 18.9998C4 19.7834 4.54781 20.308 4.99033 20.607C5.46776 20.9295 6.09289 21.1805 6.77553 21.3755C8.15442 21.7695 10.0012 21.9998 12 21.9998C13.9988 21.9998 15.8456 21.7695 17.2245 21.3755C17.9071 21.1805 18.5322 20.9295 19.0097 20.607C19.4522 20.308 20 19.7834 20 18.9998C20 18.2262 19.4655 17.705 19.0293 17.406C18.5608 17.0849 17.948 16.8349 17.2799 16.6401ZM12 11C13.1046 11 14 10.1046 14 9C14 7.89543 13.1046 7 12 7C10.8954 7 10 7.89543 10 9C10 10.1046 10.8954 11 12 11Z" fill="white"/>
</svg>
