<svg width="24" height="24" viewBox="0 0 24 24" fill="none" xmlns="http://www.w3.org/2000/svg">
<path fill-rule="evenodd" clip-rule="evenodd" d="M9.00039 4.35631C9.00013 4.37085 9 4.38541 9 4.4C9 4.73137 9.26863 5 9.6 5H9.66667H14.3333H14.4C14.7314 5 15 4.73137 15 4.4C15 4.38542 14.9999 4.37087 14.9996 4.35635C14.9999 4.34871 15 4.34104 15 4.33333C15 3.59201 14.6543 2.93143 14.1153 2.50402C14.1004 2.50372 14.0855 2.50342 14.0705 2.50314C13.6643 2.18777 13.1541 2 12.6 2H11.4C10.8459 2 10.3357 2.18777 9.92947 2.50314C9.91455 2.50342 9.89963 2.50372 9.88471 2.50402C9.34571 2.93143 9 3.59201 9 4.33333C9 4.34102 9.00013 4.34869 9.00039 4.35631ZM17 4.33333C17 3.77269 16.8935 3.2369 16.6997 2.74511C17.5577 2.93685 18.3551 3.29646 19 3.92861C19.8546 4.76631 20.2408 5.87127 20.3796 7.04522C20.5 8.0642 20.5 9.34602 20.5 10.9359V14.0628C20.5 15.6526 20.5 16.9344 20.3796 17.9534C20.2451 19.0909 19.8826 20.1713 19.0701 21C18.2324 21.8542 17.1277 22.2402 15.9541 22.3789C14.8463 22.5099 13.7224 22.5054 12.6057 22.5009H12.605H12.6043H12.6036C12.4021 22.5001 12.2009 22.4993 12 22.4993C11.7991 22.4993 11.5979 22.5001 11.3964 22.5009H11.3957H11.395H11.3943C10.2776 22.5054 9.15374 22.5099 8.04591 22.3789C6.8723 22.2402 5.76757 21.8542 4.92995 21C4.1174 20.1713 3.75487 19.0909 3.62041 17.9534C3.49997 16.9345 3.49998 15.6527 3.5 14.0628V14.0628V14.0628V10.9359V10.9359V10.9358C3.49998 9.34599 3.49997 8.06419 3.62041 7.04522C3.75918 5.87127 4.14538 4.76631 5 3.92861C5.64493 3.29646 6.44228 2.93685 7.3003 2.74511C7.10647 3.2369 7 3.77268 7 4.33333C7 5.80609 8.19391 7 9.66667 7H14.3333C15.8061 7 17 5.80609 17 4.33333ZM8 11C8 10.4477 8.44772 10 9 10H15C15.5523 10 16 10.4477 16 11C16 11.5523 15.5523 12 15 12H9C8.44772 12 8 11.5523 8 11ZM9 14C8.44772 14 8 14.4477 8 15C8 15.5523 8.44772 16 9 16H12C12.5523 16 13 15.5523 13 15C13 14.4477 12.5523 14 12 14H9Z" fill="white"/>
</svg>
