<svg width="39" height="39" viewBox="0 0 39 39" fill="none" xmlns="http://www.w3.org/2000/svg">
<path fill-rule="evenodd" clip-rule="evenodd" d="M17.9645 2.43748C18.1864 2.43745 18.3964 2.43743 18.596 2.43788C18.8429 2.4857 18.9984 2.54474 19.116 2.60757C19.5521 2.84066 19.9092 3.19782 20.1423 3.63389C20.2425 3.82137 20.3331 4.10543 20.3839 4.70259C20.4362 5.31838 20.4375 6.11924 20.4375 7.31238V9.81238L20.4375 9.90188C20.4374 10.7675 20.4373 11.5612 20.5241 12.2068C20.6197 12.9178 20.8446 13.6692 21.4626 14.2873C22.0807 14.9053 22.8321 15.1302 23.5431 15.2258C24.1887 15.3126 24.9824 15.3125 25.848 15.3124H25.848L25.9375 15.3124H28.4375C29.6306 15.3124 30.4315 15.3136 31.0473 15.366C31.6444 15.4168 31.9285 15.5074 32.116 15.6076C32.5521 15.8407 32.9092 16.1978 33.1423 16.6339C33.2052 16.7515 33.2643 16.9072 33.3121 17.1544C33.3126 17.3535 33.3125 17.5629 33.3125 17.784V17.7856L33.3125 17.9327V22.8531C33.3125 25.4366 33.3126 27.5195 33.1168 29.1754C32.8599 31.3495 32.052 33.3148 30.3419 34.7182C29.1055 35.7329 27.6391 36.1643 25.9254 36.3668C24.1252 36.5796 22.2989 36.5723 20.4843 36.5651H20.4831C20.1549 36.5638 19.8272 36.5625 19.5 36.5625C19.1728 36.5625 18.8451 36.5638 18.5169 36.5651H18.5157C16.7011 36.5723 14.8748 36.5796 13.0746 36.3668C11.3609 36.1643 9.89447 35.7329 8.65806 34.7182C8.24665 34.3806 7.86942 34.0033 7.53179 33.5919C6.51709 32.3555 6.08573 30.8891 5.88317 29.1754C5.68744 27.5195 5.68747 25.4366 5.6875 22.8531L5.6875 14.0225C5.68749 12.4332 5.68748 11.1513 5.76442 10.11C5.84358 9.03878 6.0106 8.09403 6.41249 7.20758C7.2259 5.41342 8.66343 3.97588 10.4576 3.16247C11.344 2.76058 12.2888 2.59356 13.36 2.5144C14.5747 2.42464 15.7956 2.42985 17.0142 2.43505L17.0143 2.43505C17.3013 2.43628 17.5883 2.4375 17.875 2.43748L17.9645 2.43748H17.9645ZM31.199 9.62191C31.858 10.5461 32.373 11.5609 32.7296 12.6315C32.2723 12.4917 31.7967 12.4189 31.3015 12.3768C30.5435 12.3123 29.6143 12.3124 28.501 12.3124H28.4375H25.9375C24.9523 12.3124 24.3643 12.3092 23.9428 12.2525C23.7497 12.2266 23.653 12.196 23.6094 12.1781C23.5993 12.1739 23.5927 12.1707 23.5888 12.1687L23.5839 12.1659L23.5812 12.161C23.5792 12.1572 23.576 12.1505 23.5718 12.1404C23.5539 12.0969 23.5233 12.0002 23.4973 11.807C23.4407 11.3856 23.4375 10.7976 23.4375 9.81238V7.31238V7.24891C23.4375 6.13561 23.4375 5.20641 23.3731 4.44834C23.331 3.95325 23.2582 3.4776 23.1184 3.02033C24.1891 3.37694 25.2039 3.89196 26.1281 4.55097C26.8995 5.10102 27.5822 5.78393 28.6694 6.87124L28.6694 6.87127L28.7741 6.97594L28.8782 7.08003C29.9658 8.16747 30.6489 8.85039 31.199 9.62191ZM14.625 19.625C13.7966 19.625 13.125 20.2966 13.125 21.125C13.125 21.9534 13.7966 22.625 14.625 22.625H16.25C17.0784 22.625 17.75 21.9534 17.75 21.125C17.75 20.2966 17.0784 19.625 16.25 19.625H14.625ZM14.625 26.125C13.7966 26.125 13.125 26.7966 13.125 27.625C13.125 28.4534 13.7966 29.125 14.625 29.125H24.375C25.2034 29.125 25.875 28.4534 25.875 27.625C25.875 26.7966 25.2034 26.125 24.375 26.125H14.625Z" fill="#3671FF"/>
</svg>
