<svg width="24" height="24" viewBox="0 0 24 24" fill="none" xmlns="http://www.w3.org/2000/svg">
<path fill-rule="evenodd" clip-rule="evenodd" d="M9.5 1.5C9.07326 1.50436 8.6468 1.51687 8.22157 1.54829C7.56234 1.597 6.98095 1.69978 6.43544 1.9471C5.33135 2.44766 4.44671 3.3323 3.94615 4.4364C3.69883 4.98191 3.59605 5.56329 3.54734 6.22252C3.49999 6.86326 3.49999 7.65211 3.5 8.63007V8.63012V8.63014V8.63021V14.0644V14.0644V14.0644V14.0645C3.49998 15.6543 3.49997 16.9361 3.62041 17.9551C3.74507 19.0096 4.01052 19.912 4.63495 20.6729C4.84272 20.9261 5.07487 21.1582 5.32804 21.366C6.08891 21.9904 6.99133 22.2559 8.04591 22.3805C9.15374 22.5115 10.2776 22.507 11.3943 22.5026H11.395H11.3957C11.5974 22.5018 11.7989 22.501 12 22.501C12.2011 22.501 12.4026 22.5018 12.6043 22.5026H12.605H12.6057L12.8819 22.5036C12.3153 21.7886 12.1335 21.0197 12.0633 20.497C11.9988 20.0174 11.9994 19.4767 11.9998 19.0894V19.0894L11.9998 18.9354V18.9353C11.9997 18.4572 11.9995 17.9776 12.0633 17.503C12.1383 16.945 12.3404 16.1063 13.0023 15.3521C13.0803 12.9353 15.0641 11 17.4999 11C18.6413 11 19.6834 11.4249 20.4767 12.1252C20.2919 10.6457 19.0296 9.50089 17.5 9.50089H16.1667L16.0548 9.50097H16.0548C15.5471 9.5015 15.1091 9.50197 14.7235 9.39867C13.6883 9.12126 12.8796 8.31262 12.6022 7.27735C12.4989 6.89182 12.4994 6.45379 12.4999 5.94607L12.5 5.83422V4.50089C12.5 2.84404 11.1569 1.50089 9.5 1.50089V1.5ZM20.3095 8.36427C20.1007 7.48772 19.7243 6.65821 19.1994 5.92214C18.8608 5.44736 18.4405 5.0271 17.7712 4.3579L17.7712 4.3579L17.7071 4.29385L17.6427 4.22944L17.6427 4.22943C16.9737 3.56031 16.5535 3.14005 16.0788 2.80156C15.3427 2.27668 14.5132 1.90024 13.6367 1.69146C14.1815 2.49218 14.5 3.45934 14.5 4.50089V5.83422C14.5 6.51859 14.5086 6.6646 14.5341 6.75971C14.6265 7.1048 14.8961 7.37435 15.2412 7.46681C15.3363 7.4923 15.4823 7.50089 16.1667 7.50089H17.5C18.5416 7.50089 19.5088 7.81937 20.3095 8.36427ZM17 15.5C17 15.2239 17.2239 15 17.5 15C17.7762 15 18 15.2239 18 15.5V16H17V15.5ZM20 15.5V16.2788C20.1437 16.3555 20.2837 16.4553 20.4142 16.5858C20.7774 16.949 20.903 17.3863 20.9545 17.7695C21.0002 18.1094 21.0001 18.5215 21 18.9456C21 18.9637 21 18.9819 21 19C21 19.0181 21 19.0363 21 19.0544C21.0001 19.4785 21.0002 19.8906 20.9545 20.2305C20.903 20.6137 20.7774 21.051 20.4142 21.4142C20.051 21.7774 19.6137 21.903 19.2305 21.9545C18.8906 22.0002 18.4785 22.0001 18.0544 22C18.0363 22 18.0182 22 18 22H17C16.9819 22 16.9637 22 16.9456 22C16.5215 22.0001 16.1094 22.0002 15.7695 21.9545C15.3863 21.903 14.949 21.7774 14.5858 21.4142C14.2226 21.051 14.0971 20.6137 14.0455 20.2305C13.9998 19.8906 13.9999 19.4785 14 19.0544C14 19.0363 14 19.0182 14 19C14 18.9818 14 18.9637 14 18.9456C13.9999 18.5215 13.9998 18.1094 14.0455 17.7695C14.0971 17.3863 14.2226 16.949 14.5858 16.5858C14.7163 16.4553 14.8563 16.3555 15 16.2788V15.5C15 14.1193 16.1193 13 17.5 13C18.8807 13 20 14.1193 20 15.5Z" fill="white"/>
</svg>
