<svg width="24" height="24" viewBox="0 0 24 24" fill="none" xmlns="http://www.w3.org/2000/svg">
<path fill-rule="evenodd" clip-rule="evenodd" d="M8.22157 1.54731C8.6468 1.51589 9.07326 1.50338 9.5 1.49902V1.49991C11.1569 1.49991 12.5 2.84306 12.5 4.49991V5.83325L12.4999 5.94509C12.4994 6.45281 12.4989 6.89084 12.6022 7.27637C12.8796 8.31165 13.6883 9.12029 14.7235 9.39769C15.1091 9.50099 15.5471 9.50053 16.0548 9.49999H16.0548L16.1667 9.49991H17.5C19.1569 9.49991 20.5 10.8431 20.5 12.4999L20.5 14.0634C20.5 15.6533 20.5 16.9351 20.3796 17.9541C20.2214 19.292 19.7243 20.5014 18.672 21.365C17.9111 21.9895 17.0087 22.2549 15.9541 22.3796C14.8463 22.5105 13.7224 22.506 12.6057 22.5016H12.605C12.403 22.5008 12.2013 22.5 12 22.5C11.7987 22.5 11.597 22.5008 11.395 22.5016H11.3943C10.2776 22.506 9.15374 22.5105 8.04591 22.3796C6.99133 22.2549 6.08891 21.9895 5.32804 21.365C5.07487 21.1573 4.84272 20.9251 4.63495 20.6719C4.01052 19.9111 3.74507 19.0086 3.62041 17.9541C3.49997 16.9351 3.49998 15.6533 3.5 14.0635V14.0634V14.0634V8.62923V8.62917V8.62914C3.49999 7.65116 3.49999 6.86229 3.54734 6.22154C3.59605 5.56231 3.69883 4.98093 3.94615 4.43542C4.44671 3.33132 5.33135 2.44668 6.43544 1.94612C6.98095 1.69881 7.56234 1.59602 8.22157 1.54731ZM19.1994 5.92116C19.7243 6.65723 20.1007 7.48674 20.3095 8.36329C19.5088 7.8184 18.5416 7.49991 17.5 7.49991H16.1667C15.4823 7.49991 15.3363 7.49132 15.2412 7.46584C14.8961 7.37337 14.6265 7.10382 14.5341 6.75873C14.5086 6.66362 14.5 6.51761 14.5 5.83325V4.49991C14.5 3.45836 14.1815 2.4912 13.6367 1.69048C14.5132 1.89926 15.3427 2.2757 16.0788 2.80058C16.5535 3.13908 16.9737 3.55933 17.6427 4.22846L17.6427 4.22846L17.7071 4.29287L17.7712 4.35692L17.7712 4.35693C18.4405 5.02612 18.8608 5.44638 19.1994 5.92116ZM9 12C8.44772 12 8 12.4477 8 13C8 13.5523 8.44772 14 9 14H10C10.5523 14 11 13.5523 11 13C11 12.4477 10.5523 12 10 12H9ZM9 16C8.44772 16 8 16.4477 8 17C8 17.5523 8.44772 18 9 18H15C15.5523 18 16 17.5523 16 17C16 16.4477 15.5523 16 15 16H9Z" fill="white"/>
</svg>
