<svg width="24" height="24" viewBox="0 0 24 24" fill="none" xmlns="http://www.w3.org/2000/svg">
<path fill-rule="evenodd" clip-rule="evenodd" d="M20.9989 6.85358C21.0321 5.37332 20.278 4.07939 19.1658 3.43139C18.2121 2.8757 17.0309 2.82452 16 3.46808C14.9691 2.82452 13.7879 2.8757 12.8342 3.43139C11.722 4.07939 10.9679 5.37332 11.0011 6.85358C11.0439 8.7624 12.5222 10.3172 14.6854 11.6022L14.7428 11.6364C15.1279 11.8658 15.5392 12.1109 16 12.1109C16.4608 12.1109 16.8722 11.8658 17.2572 11.6363L17.3146 11.6022C19.4778 10.3172 20.9561 8.7624 20.9989 6.85358ZM10.9941 13.7793C10.4673 13.6476 9.90955 13.7358 9.44905 14.0236L7.47 15.2605C7.17762 15.4432 7 15.7637 7 16.1085V18H7.52786C7.9936 18 8.45294 18.1084 8.8695 18.3167L11.2197 19.4918C11.8164 19.7902 12.4955 19.8811 13.1497 19.7503L16.359 19.1084C16.5055 19.0791 16.6435 19.0174 16.7629 18.9278L19.8334 16.6249C19.9383 16.5463 20 16.4229 20 16.2918V16.2361C20 15.9668 19.7314 15.7869 19.487 15.8772L17.0585 17.4962C16.5657 17.8247 15.9867 18 15.3944 18H13.5585H13H12V16H13H13.5585C13.9889 16 14.3711 15.7246 14.5072 15.3162L14.7098 14.7082L10.9941 13.7793ZM6.73244 20H7.52786C7.68311 20 7.83622 20.0361 7.97508 20.1056L10.3252 21.2807C11.3197 21.7779 12.4516 21.9295 13.5419 21.7114L16.7513 21.0695C17.1905 20.9817 17.6046 20.7966 17.9629 20.5278L21.0334 18.2249C21.6419 17.7686 22 17.0524 22 16.2918V16.2361C22 14.4654 20.1366 13.3137 18.5528 14.1056L19 15L18.4453 14.1679L16.5846 15.4084L16.6072 15.3407C16.9756 14.2355 16.3251 13.0505 15.1949 12.7679L11.4792 11.839C10.4255 11.5756 9.31005 11.752 8.38905 12.3276L6.41 13.5645C6.40647 13.5667 6.40294 13.5689 6.39942 13.5711C6.03872 13.2178 5.5448 13 5 13H4C2.89543 13 2 13.8954 2 15V19C2 20.1046 2.89543 21 4 21H5C5.74028 21 6.38663 20.5978 6.73244 20Z" fill="white"/>
</svg>
