<svg width="24" height="24" viewBox="0 0 24 24" fill="none" xmlns="http://www.w3.org/2000/svg">
<path fill-rule="evenodd" clip-rule="evenodd" d="M21.3446 17.0223C21.2328 17.8543 21.0326 18.5951 20.6529 19.2387L4.76129 3.34707C5.40488 2.96742 6.14571 2.76722 6.97767 2.65537C8.13362 2.49995 9.60337 2.49997 11.4268 2.5H11.4268H12.5732H12.5732C14.3966 2.49997 15.8664 2.49995 17.0223 2.65537C18.2225 2.81672 19.233 3.16191 20.0355 3.96447C20.8381 4.76702 21.1833 5.77752 21.3446 6.97767C21.5001 8.13363 21.5 9.6034 21.5 11.4269V12.5731C21.5 14.3966 21.5001 15.8664 21.3446 17.0223ZM2.65537 6.97767C2.76722 6.14571 2.96742 5.40488 3.34707 4.76129L9.08579 10.5L2.64475 16.941C2.49995 15.7977 2.49997 14.3541 2.5 12.5732V12.5732V11.4268V11.4268C2.49997 9.60337 2.49995 8.13362 2.65537 6.97767ZM10.5 11.9142L19.2387 20.6529C18.5951 21.0326 17.8543 21.2328 17.0223 21.3446C15.8664 21.5001 14.3966 21.5 12.5731 21.5H11.4269C9.6034 21.5 8.13363 21.5001 6.97767 21.3446C5.77752 21.1833 4.76702 20.8381 3.96447 20.0355C3.68702 19.7581 3.46424 19.4558 3.28481 19.1294L10.5 11.9142Z" fill="white"/>
</svg>
