<svg width="24" height="24" viewBox="0 0 24 24" fill="none" xmlns="http://www.w3.org/2000/svg">
<path fill-rule="evenodd" clip-rule="evenodd" d="M7.00004 3C6.37053 3 5.77775 3.29639 5.40004 3.8L1.69591 8.73885C1.12032 9.5063 1.17072 10.5744 1.81603 11.2842L11.0751 21.4692C11.5711 22.0147 12.429 22.0147 12.925 21.4692L22.1841 11.2842C22.8294 10.5744 22.8798 9.5063 22.3042 8.73885L18.6 3.8C18.2223 3.29639 17.6296 3 17 3H7.00004ZM9.86698 8.99998C9.73916 8.99998 9.64415 8.88173 9.67167 8.75691L10.3097 5.86305C10.3556 5.65498 10.0877 5.52899 9.95669 5.69703L7.4257 8.94393C7.39744 8.98018 7.35755 9.0056 7.31275 9.01589L4.08643 9.7572C3.88284 9.80398 3.87826 10.0923 4.08026 10.1455L7.24001 10.9781C7.293 10.9921 7.33795 11.0272 7.36434 11.0752L11.8247 19.1943C11.9007 19.3326 12.0994 19.3326 12.1753 19.1943L16.6357 11.0752C16.6621 11.0272 16.7071 10.9921 16.7601 10.9781L19.9198 10.1455C20.1218 10.0923 20.1172 9.80398 19.9136 9.7572L16.6873 9.01589C16.6425 9.0056 16.6026 8.98018 16.5744 8.94393L14.0434 5.69703C13.9124 5.52899 13.6445 5.65498 13.6903 5.86305L14.3284 8.75691C14.3559 8.88173 14.2609 8.99998 14.1331 8.99998H9.86698ZM11.8143 16.8432C11.8814 17.0108 12.1187 17.0108 12.1857 16.8432L14.4133 11.2743C14.4658 11.1429 14.3691 11 14.2276 11H9.77248C9.63099 11 9.53424 11.1429 9.58679 11.2743L11.8143 16.8432Z" fill="white"/>
</svg>
