<svg width="178" height="44" viewBox="0 0 178 44" fill="none" xmlns="http://www.w3.org/2000/svg">
<path d="M32.6392 10.233C32.2506 9.83676 31.8621 9.44056 31.4735 9.04436C30.3078 7.77651 29.0644 6.50867 27.5102 5.71627C25.7228 4.76538 23.78 5.0031 21.8372 5.0031C18.8841 5.0031 11.5014 5.0031 7.14954 5.0031L10.1026 9.04436C15.4648 9.04436 23.8577 9.04436 27.7433 9.04436C29.3753 9.04436 30.7741 9.36132 32.0952 10.233C32.3283 10.3122 32.5615 10.3122 32.6392 10.233Z" fill="#464F6D"/>
<path d="M35.9031 16.7308C35.5145 16.3346 35.126 15.9384 34.7374 15.5422C33.5717 14.2743 32.3283 13.0065 30.7741 12.2141C28.9867 11.2632 27.0439 11.5009 25.1011 11.5009C22.5366 11.5009 16.3973 11.5009 12.0454 11.5009L14.9985 15.5422C20.2829 15.5422 27.5102 15.5422 31.0849 15.5422C32.7169 15.5422 34.1157 15.8591 35.4368 16.7308C35.5922 16.81 35.7477 16.81 35.9031 16.7308Z" fill="#464F6D"/>
<path d="M39.5556 23.0698C39.167 22.6736 38.7785 22.2774 38.3899 21.8812C37.2242 20.6133 35.9808 19.3455 34.4266 18.553C32.6392 17.6022 30.6964 17.8399 28.7536 17.8399C26.3445 17.8399 21.0601 17.8399 16.7859 17.8399L19.7389 21.8812C24.868 21.8812 31.3958 21.8812 34.6597 21.8812C36.2917 21.8812 37.6905 22.1981 39.0116 23.0698C39.2447 23.149 39.4002 23.2282 39.5556 23.0698Z" fill="#464F6D"/>
<path d="M6.83875 33.7672C7.22731 34.1634 7.61587 34.5596 8.00443 34.9558C9.17011 36.2236 10.4135 37.4915 11.9678 38.2839C13.7551 39.2348 15.6979 38.997 17.6408 38.997H32.3284L29.3753 34.9558C24.0132 34.9558 15.6202 34.9558 11.7346 34.9558C10.1027 34.9558 8.70384 34.6388 7.38273 33.7672C7.14959 33.688 6.99417 33.688 6.83875 33.7672Z" fill="#464F6D"/>
<path d="M3.57483 27.2696C3.96339 27.6658 4.35195 28.062 4.74051 28.4582C5.9062 29.7261 7.14959 30.9939 8.70383 31.7863C10.4912 32.7372 12.434 32.4995 14.3768 32.4995H27.4325L24.4794 28.4582C19.195 28.4582 11.9678 28.4582 8.39299 28.4582C6.76103 28.4582 5.36221 28.1413 4.0411 27.2696C3.88567 27.1904 3.73025 27.1904 3.57483 27.2696Z" fill="#464F6D"/>
<path d="M0 20.8509C0.388562 21.2471 0.777123 21.6433 1.16568 22.0395C2.33137 23.3074 3.57477 24.5752 5.12902 25.3676C6.9164 26.3185 8.8592 26.0808 10.802 26.0808H22.7697L19.8166 22.0395C14.6876 22.0395 8.15979 22.0395 4.89588 22.0395C3.26392 22.0395 1.86509 21.7226 0.543984 20.8509C0.310847 20.7717 0.155425 20.7717 0 20.8509Z" fill="#464F6D"/>
<path d="M48.4844 12.8407V31.1667H52.4363V23.595H59.9627V20.4637H52.4363V16.2287H61.1206V12.8407H48.4844Z" fill="#464F6D"/>
<path d="M71.0325 23.1074H65.2179C65.2346 22.8507 65.285 22.5598 65.3689 22.2347C65.4696 21.9096 65.629 21.6016 65.8472 21.3107C66.0821 21.0198 66.3842 20.7803 66.7533 20.592C67.1393 20.3867 67.6176 20.284 68.1881 20.284C69.0607 20.284 69.7068 20.5236 70.1263 21.0027C70.5627 21.4818 70.8647 22.1834 71.0325 23.1074ZM65.2179 25.4174H74.6069C74.674 24.3907 74.5901 23.4068 74.3552 22.4657C74.1203 21.5246 73.7343 20.6861 73.1973 19.9504C72.6771 19.2146 72.0058 18.6328 71.1836 18.205C70.3613 17.7601 69.3964 17.5377 68.2888 17.5377C67.2987 17.5377 66.3925 17.7174 65.5703 18.0767C64.7648 18.436 64.0684 18.9323 63.481 19.5654C62.8937 20.1814 62.4406 20.9171 62.1217 21.7727C61.8029 22.6283 61.6435 23.5523 61.6435 24.5447C61.6435 25.5714 61.7945 26.5125 62.0966 27.368C62.4154 28.2236 62.8601 28.9594 63.4307 29.5754C64.0012 30.1914 64.6976 30.6705 65.5199 31.0127C66.3422 31.3378 67.2652 31.5004 68.2888 31.5004C69.7656 31.5004 71.0241 31.1581 72.0646 30.4737C73.105 29.7893 73.8769 28.6514 74.3804 27.06H71.2339C71.1164 27.4707 70.7976 27.8643 70.2774 28.2407C69.7572 28.6 69.1363 28.7797 68.4147 28.7797C67.4078 28.7797 66.6359 28.5145 66.0989 27.984C65.5619 27.4536 65.2682 26.598 65.2179 25.4174Z" fill="#464F6D"/>
<path d="M75.8207 21.978C75.871 21.1225 76.0808 20.4124 76.45 19.8477C76.8191 19.283 77.289 18.8296 77.8596 18.4874C78.4301 18.1451 79.0678 17.9056 79.7726 17.7687C80.4942 17.6147 81.2158 17.5377 81.9374 17.5377C82.5919 17.5377 83.2547 17.589 83.926 17.6917C84.5972 17.7773 85.2097 17.9569 85.7635 18.2307C86.3173 18.5045 86.7704 18.8895 87.1228 19.3857C87.4752 19.8648 87.6514 20.5065 87.6514 21.3107V28.215C87.6514 28.8139 87.6849 29.3871 87.7521 29.9347C87.8192 30.4823 87.9366 30.8929 88.1045 31.1667H84.4797C84.4126 30.9614 84.3539 30.756 84.3035 30.5507C84.27 30.3283 84.2448 30.1058 84.228 29.8834C83.6575 30.4823 82.9862 30.9015 82.2143 31.141C81.4423 31.3806 80.6536 31.5004 79.8481 31.5004C79.2272 31.5004 78.6483 31.4234 78.1113 31.2694C77.5743 31.1154 77.1044 30.8758 76.7017 30.5507C76.2989 30.2256 75.9801 29.8149 75.7451 29.3187C75.527 28.8225 75.4179 28.2321 75.4179 27.5477C75.4179 26.7948 75.5438 26.1788 75.7955 25.6997C76.064 25.2035 76.3996 24.8099 76.8024 24.519C77.2219 24.2281 77.6918 24.0143 78.212 23.8774C78.749 23.7234 79.286 23.6036 79.823 23.518C80.36 23.4325 80.8886 23.364 81.4088 23.3127C81.929 23.2614 82.3905 23.1844 82.7932 23.0817C83.196 22.979 83.5148 22.8336 83.7498 22.6454C83.9847 22.44 84.0938 22.1491 84.077 21.7727C84.077 21.3791 84.0099 21.0711 83.8756 20.8487C83.7581 20.6091 83.5903 20.4295 83.3722 20.3097C83.1708 20.1728 82.9275 20.0873 82.6422 20.053C82.3737 20.0017 82.08 19.976 81.7612 19.976C81.0564 19.976 80.5026 20.13 80.0999 20.438C79.6971 20.746 79.4622 21.2594 79.395 21.978H75.8207ZM84.077 24.673C83.926 24.8099 83.733 24.9211 83.498 25.0067C83.2799 25.0751 83.0366 25.135 82.7681 25.1864C82.5163 25.2377 82.2478 25.2805 81.9626 25.3147C81.6773 25.3489 81.392 25.3917 81.1067 25.443C80.8382 25.4944 80.5697 25.5628 80.3012 25.6484C80.0495 25.7339 79.823 25.8537 79.6216 26.0077C79.437 26.1446 79.286 26.3243 79.1685 26.5467C79.051 26.7691 78.9923 27.0515 78.9923 27.3937C78.9923 27.7188 79.051 27.9926 79.1685 28.215C79.286 28.4375 79.4454 28.6171 79.6468 28.754C79.8481 28.8738 80.0831 28.9594 80.3516 29.0107C80.6201 29.062 80.897 29.0877 81.1822 29.0877C81.887 29.0877 82.4324 28.9679 82.8184 28.7284C83.2044 28.4888 83.4896 28.2065 83.6742 27.8814C83.8588 27.5391 83.9679 27.1969 84.0015 26.8547C84.0518 26.5125 84.077 26.2387 84.077 26.0334V24.673Z" fill="#464F6D"/>
<path d="M94.2015 17.897V13.9187H90.6271V17.897H88.4624V20.3354H90.6271V28.1637C90.6271 28.831 90.7362 29.37 90.9544 29.7807C91.1725 30.1914 91.4662 30.5079 91.8354 30.7304C92.2213 30.9528 92.6577 31.0983 93.1443 31.1667C93.6477 31.2523 94.1763 31.295 94.7301 31.295C95.0825 31.295 95.4433 31.2865 95.8125 31.2694C96.1817 31.2523 96.5173 31.218 96.8194 31.1667V28.3434C96.6516 28.3776 96.4754 28.4033 96.2908 28.4204C96.1062 28.4375 95.9132 28.446 95.7118 28.446C95.1077 28.446 94.705 28.3434 94.5036 28.138C94.3022 27.9327 94.2015 27.522 94.2015 26.906V20.3354H96.8194V17.897H94.2015Z" fill="#464F6D"/>
<path d="M97.7649 12.8407V31.1667H101.339V24.211C101.339 22.8593 101.557 21.8925 101.994 21.3107C102.43 20.7118 103.135 20.4124 104.108 20.4124C104.964 20.4124 105.56 20.6861 105.895 21.2337C106.231 21.7641 106.399 22.5769 106.399 23.672V31.1667H109.973V23.0047C109.973 22.1834 109.898 21.439 109.747 20.7717C109.612 20.0873 109.369 19.514 109.017 19.052C108.664 18.5729 108.178 18.205 107.557 17.9484C106.953 17.6746 106.172 17.5377 105.216 17.5377C104.544 17.5377 103.856 17.7174 103.152 18.0767C102.447 18.4189 101.868 18.975 101.415 19.745H101.339V12.8407H97.7649Z" fill="#464F6D"/>
<path d="M120.691 23.1074H114.876C114.893 22.8507 114.943 22.5598 115.027 22.2347C115.128 21.9096 115.287 21.6016 115.505 21.3107C115.74 21.0198 116.042 20.7803 116.411 20.592C116.797 20.3867 117.276 20.284 117.846 20.284C118.719 20.284 119.365 20.5236 119.784 21.0027C120.221 21.4818 120.523 22.1834 120.691 23.1074ZM114.876 25.4174H124.265C124.332 24.3907 124.248 23.4068 124.013 22.4657C123.778 21.5246 123.392 20.6861 122.855 19.9504C122.335 19.2146 121.664 18.6328 120.842 18.205C120.019 17.7601 119.054 17.5377 117.947 17.5377C116.957 17.5377 116.051 17.7174 115.228 18.0767C114.423 18.436 113.726 18.9323 113.139 19.5654C112.552 20.1814 112.099 20.9171 111.78 21.7727C111.461 22.6283 111.302 23.5523 111.302 24.5447C111.302 25.5714 111.453 26.5125 111.755 27.368C112.074 28.2236 112.518 28.9594 113.089 29.5754C113.659 30.1914 114.356 30.6705 115.178 31.0127C116 31.3378 116.923 31.5004 117.947 31.5004C119.424 31.5004 120.682 31.1581 121.723 30.4737C122.763 29.7893 123.535 28.6514 124.038 27.06H120.892C120.775 27.4707 120.456 27.8643 119.935 28.2407C119.415 28.6 118.794 28.7797 118.073 28.7797C117.066 28.7797 116.294 28.5145 115.757 27.984C115.22 27.4536 114.926 26.598 114.876 25.4174Z" fill="#464F6D"/>
<path d="M125.63 17.897V31.1667H129.204V25.1864C129.204 24.5875 129.263 24.0314 129.38 23.518C129.498 23.0047 129.691 22.5598 129.959 22.1834C130.245 21.7898 130.614 21.4818 131.067 21.2594C131.52 21.0369 132.074 20.9257 132.728 20.9257C132.946 20.9257 133.173 20.9428 133.408 20.977C133.643 20.9941 133.844 21.0198 134.012 21.054V17.666C133.727 17.5805 133.467 17.5377 133.232 17.5377C132.779 17.5377 132.342 17.6061 131.923 17.743C131.503 17.8799 131.109 18.0767 130.74 18.3334C130.37 18.5729 130.043 18.8724 129.758 19.2317C129.473 19.5739 129.246 19.9504 129.078 20.361H129.028V17.897H125.63Z" fill="#464F6D"/>
<path d="M138.988 27.7787V16.2287H141.807C142.78 16.2287 143.594 16.3741 144.249 16.665C144.92 16.9388 145.457 17.3409 145.86 17.8714C146.262 18.4018 146.548 19.0435 146.715 19.7964C146.9 20.5321 146.992 21.362 146.992 22.286C146.992 23.2956 146.866 24.1511 146.615 24.8527C146.363 25.5543 146.027 26.1275 145.608 26.5724C145.188 27.0001 144.71 27.3081 144.173 27.4964C143.636 27.6846 143.082 27.7787 142.512 27.7787H138.988ZM135.036 12.8407V31.1667H142.789C144.165 31.1667 145.356 30.9357 146.363 30.4737C147.387 29.9946 148.234 29.3444 148.905 28.523C149.593 27.7017 150.105 26.7264 150.441 25.597C150.776 24.4677 150.944 23.2357 150.944 21.901C150.944 20.3781 150.735 19.052 150.315 17.9227C149.912 16.7934 149.342 15.8523 148.603 15.0994C147.882 14.3465 147.017 13.7818 146.011 13.4054C145.021 13.0289 143.947 12.8407 142.789 12.8407H135.036Z" fill="#464F6D"/>
<path d="M161.32 23.1074H155.506C155.522 22.8507 155.573 22.5598 155.657 22.2347C155.757 21.9096 155.917 21.6016 156.135 21.3107C156.37 21.0198 156.672 20.7803 157.041 20.592C157.427 20.3867 157.905 20.284 158.476 20.284C159.349 20.284 159.995 20.5236 160.414 21.0027C160.85 21.4818 161.153 22.1834 161.32 23.1074ZM155.506 25.4174H164.895C164.962 24.3907 164.878 23.4068 164.643 22.4657C164.408 21.5246 164.022 20.6861 163.485 19.9504C162.965 19.2146 162.294 18.6328 161.471 18.205C160.649 17.7601 159.684 17.5377 158.577 17.5377C157.587 17.5377 156.68 17.7174 155.858 18.0767C155.053 18.436 154.356 18.9323 153.769 19.5654C153.181 20.1814 152.728 20.9171 152.41 21.7727C152.091 22.6283 151.931 23.5523 151.931 24.5447C151.931 25.5714 152.082 26.5125 152.384 27.368C152.703 28.2236 153.148 28.9594 153.718 29.5754C154.289 30.1914 154.985 30.6705 155.808 31.0127C156.63 31.3378 157.553 31.5004 158.577 31.5004C160.053 31.5004 161.312 31.1581 162.352 30.4737C163.393 29.7893 164.165 28.6514 164.668 27.06H161.522C161.404 27.4707 161.085 27.8643 160.565 28.2407C160.045 28.6 159.424 28.7797 158.702 28.7797C157.696 28.7797 156.924 28.5145 156.387 27.984C155.85 27.4536 155.556 26.598 155.506 25.4174Z" fill="#464F6D"/>
<path d="M173.459 31.1667L177.864 17.897H174.314L171.571 26.9574H171.52L168.777 17.897H165.026L169.481 31.1667H173.459Z" fill="#464F6D"/>
</svg>
