<svg width="22" height="22" viewBox="0 0 22 22" fill="none" xmlns="http://www.w3.org/2000/svg">
<path d="M1.83325 10.9999H20.1666M1.83325 10.9999C1.83325 16.0625 5.93731 20.1666 10.9999 20.1666M1.83325 10.9999C1.83325 5.93731 5.93731 1.83325 10.9999 1.83325M20.1666 10.9999C20.1666 16.0625 16.0625 20.1666 10.9999 20.1666M20.1666 10.9999C20.1666 5.93731 16.0625 1.83325 10.9999 1.83325M10.9999 1.83325C13.2928 4.34341 14.5958 7.60095 14.6666 10.9999C14.5958 14.3989 13.2928 17.6564 10.9999 20.1666M10.9999 1.83325C8.70708 4.34341 7.40406 7.60095 7.33325 10.9999C7.40406 14.3989 8.70708 17.6564 10.9999 20.1666" stroke="#0C1739" stroke-width="1.5" stroke-linecap="round" stroke-linejoin="round"/>
</svg>
