<svg width="148" height="44" viewBox="0 0 148 44" fill="none" xmlns="http://www.w3.org/2000/svg">
<path d="M27.0552 16.5C27.0552 23.5137 21.4285 29.1667 14.5276 29.1667C7.62672 29.1667 2 23.5137 2 16.5C2 9.48643 7.62672 3.83337 14.5276 3.83337C21.4285 3.83337 27.0552 9.48643 27.0552 16.5Z" stroke="#464F6D" stroke-width="4"/>
<path d="M34.3191 27.5C34.3191 34.5137 28.6924 40.1667 21.7915 40.1667C14.8906 40.1667 9.26392 34.5137 9.26392 27.5C9.26392 20.4864 14.8906 14.8334 21.7915 14.8334C28.6924 14.8334 34.3191 20.4864 34.3191 27.5Z" stroke="#464F6D" stroke-width="4"/>
<path d="M47.1693 31.0834H51.2824V11.8334H47.1693V31.0834Z" fill="#464F6D"/>
<path d="M53.087 31.0834H56.9005V23.4934C56.9005 21.7059 58.0718 20.4134 59.7334 20.4134C61.3133 20.4134 62.3756 21.6234 62.3756 23.3009V31.0834H66.1891V22.4484C66.1891 19.2584 64.1734 17.0034 61.0681 17.0034C59.1886 17.0034 57.6632 17.8009 56.9005 19.1484V17.2234H53.087V31.0834Z" fill="#464F6D"/>
<path d="M68.9507 13.1259V17.2234H66.3085V20.4134H68.9507V26.0509C68.9507 29.2684 70.9937 31.0834 74.1534 31.0834H76.4143V27.8659H74.671C73.4452 27.8659 72.737 27.2334 72.737 25.8859V20.4134H76.4143V17.2234H72.737V13.1259H68.9507Z" fill="#464F6D"/>
<path d="M86.0372 26.3809C85.7376 27.5634 84.7297 28.1684 83.2043 28.1684C81.2976 28.1684 80.0718 26.9584 79.7994 25.0059H89.66C89.6872 24.7034 89.7145 24.2909 89.7145 23.7684C89.7145 20.6059 87.7805 17.0034 82.9319 17.0034C78.274 17.0034 76.1493 20.6059 76.1493 24.1259C76.1493 27.6184 78.5464 31.3034 83.2043 31.3034C86.582 31.3034 89.1969 29.3784 89.7417 26.3809H86.0372ZM82.9319 19.8084C84.7569 19.8084 85.8193 21.0459 85.9282 22.5859H79.8539C80.1807 20.6609 81.2158 19.8084 82.9319 19.8084Z" fill="#464F6D"/>
<path d="M99.2435 20.4134V17.2234H97.6909C96.0293 17.2234 94.9942 17.8009 94.2588 19.5334V17.2234H90.4453V31.0834H94.2588V24.3459C94.2588 21.9809 95.1032 20.4134 96.9827 20.4134H99.2435Z" fill="#464F6D"/>
<path d="M99.8618 31.0834H103.648V11.2009H99.8618V31.0834Z" fill="#464F6D"/>
<path d="M111.815 31.3034C116.037 31.3034 119.061 28.2784 119.061 24.1534C119.061 20.0284 116.037 17.0034 111.815 17.0034C107.593 17.0034 104.57 20.0284 104.57 24.1534C104.57 28.2784 107.593 31.3034 111.815 31.3034ZM111.815 28.0034C109.772 28.0034 108.383 26.4359 108.383 24.1534C108.383 21.8434 109.772 20.2759 111.815 20.2759C113.858 20.2759 115.247 21.8434 115.247 24.1534C115.247 26.4359 113.858 28.0034 111.815 28.0034Z" fill="#464F6D"/>
<path d="M126.144 31.3034C129.712 31.3034 132.545 28.9934 132.954 25.9134H129.086C128.813 27.1509 127.697 28.0034 126.307 28.0034C124.237 28.0034 123.012 26.4084 123.012 24.1534C123.012 21.8984 124.21 20.2759 126.253 20.2759C127.642 20.2759 128.813 21.1834 129.031 22.4209H132.845C132.6 19.2034 129.74 17.0034 126.144 17.0034C121.895 17.0034 119.062 20.1109 119.062 24.1534C119.062 28.1959 121.895 31.3034 126.144 31.3034Z" fill="#464F6D"/>
<path d="M142.969 31.0834H147.546L141.635 22.6684L147.11 17.2234H142.316L137.549 21.9534V11.2009H133.735V31.0834H137.549V26.7384L139.074 25.2259L142.969 31.0834Z" fill="#464F6D"/>
</svg>
