<svg width="24" height="24" viewBox="0 0 24 24" fill="none" xmlns="http://www.w3.org/2000/svg">
<path fill-rule="evenodd" clip-rule="evenodd" d="M8.92919 3L12.0729 3C13.8964 2.99997 15.3661 2.99995 16.5221 3.15537C17.7222 3.31672 18.7327 3.66191 19.5353 4.46447C20.3378 5.26702 20.683 6.27752 20.8444 7.47767C20.9998 8.63363 20.9998 10.1034 20.9998 11.9269V18.518C20.9998 19.1213 21.0439 19.7956 20.7296 20.3372C20.3845 20.9317 19.7584 21.3074 19.0715 21.332C18.7091 21.3451 18.3922 21.2303 18.153 21.1258C17.9184 21.0233 17.6417 20.8757 17.3392 20.7144C17.0907 20.5818 16.8223 20.3933 16.5432 20.3296C16.3765 20.2916 16.2029 20.297 16.0389 20.3452C15.7396 20.4331 15.4693 20.6545 15.2059 20.8165C14.6541 21.1561 14.1811 21.4626 13.6488 21.5806C13.2213 21.6753 12.7782 21.6753 12.3508 21.5806C11.8184 21.4626 11.3454 21.1561 10.7936 20.8165C10.5302 20.6545 10.2599 20.4331 9.96063 20.3452C9.79663 20.297 9.62301 20.2916 9.45635 20.3296C9.35694 20.3523 9.24303 20.4036 8.69144 20.6978C8.41314 20.8462 8.13581 20.9994 7.84652 21.1258C7.60731 21.2303 7.29038 21.3451 6.928 21.332C6.24109 21.3074 5.61497 20.9317 5.26996 20.3372C4.95565 19.7956 4.99972 19.1213 4.99976 18.518L4.99976 14C4.55662 14 4.12367 14.0021 3.76924 13.9545C3.38604 13.903 2.94876 13.7774 2.58554 13.4142C2.22233 13.051 2.09681 12.6137 2.04529 12.2305C1.94382 11.4758 1.99976 10.6894 1.99976 9.92943C1.99972 8.57531 1.99969 7.4587 2.11851 6.57494C2.24325 5.64711 2.51522 4.82768 3.17133 4.17158C3.82744 3.51547 4.64686 3.2435 5.57469 3.11875C6.45845 2.99994 7.57507 2.99997 8.92919 3ZM4.99976 12V5.30917C4.37986 5.57914 4.18538 6.21142 4.10068 6.84143C4.00188 7.57625 3.99976 8.55752 3.99976 10C3.99976 10.6461 3.94124 11.3228 4.02745 11.964C4.02779 11.9665 4.02812 11.9689 4.02845 11.9713C4.03083 11.9716 4.03326 11.972 4.03573 11.9723C4.22593 11.9979 4.50008 12 4.99976 12ZM9.49976 9C9.49976 8.44772 9.94747 8 10.4998 8H15.4998C16.052 8 16.4998 8.44772 16.4998 9C16.4998 9.55229 16.052 10 15.4998 10H10.4998C9.94747 10 9.49976 9.55229 9.49976 9ZM9.49976 13C9.49976 12.4477 9.94747 12 10.4998 12H14.4998C15.052 12 15.4998 12.4477 15.4998 13C15.4998 13.5523 15.052 14 14.4998 14H10.4998C9.94747 14 9.49976 13.5523 9.49976 13Z" fill="white"/>
</svg>
