<svg width="50" height="51" viewBox="0 0 50 51" fill="none" xmlns="http://www.w3.org/2000/svg">
<path fill-rule="evenodd" clip-rule="evenodd" d="M14.5833 15.0833C14.5833 9.33033 19.247 4.66663 25 4.66663C30.753 4.66663 35.4167 9.33033 35.4167 15.0833C35.4167 20.8363 30.753 25.5 25 25.5C19.247 25.5 14.5833 20.8363 14.5833 15.0833ZM6.25 41.125C6.25 34.7967 11.3801 29.6666 17.7083 29.6666H32.2917C38.6199 29.6666 43.75 34.7967 43.75 41.125C43.75 44.0014 41.4181 46.3333 38.5417 46.3333H11.4583C8.58185 46.3333 6.25 44.0014 6.25 41.125Z" fill="#3671FF"/>
<path fill-rule="evenodd" clip-rule="evenodd" d="M47.8627 19.8051C48.4709 20.7819 48.1721 22.0667 47.1954 22.6748C44.9873 24.0497 43.3404 25.6927 41.9612 27.8975C41.5578 28.5424 40.8348 28.9162 40.0753 28.8725C39.3158 28.8288 38.6405 28.3746 38.3137 27.6876C37.8537 26.7206 37.2988 26.1636 36.3763 25.7382C35.3315 25.2564 34.875 24.0188 35.3568 22.9739C35.8387 21.9291 37.0763 21.4726 38.1211 21.9544C38.9085 22.3175 39.5858 22.7587 40.17 23.2837C41.5304 21.6642 43.1103 20.3101 44.993 19.1378C45.9698 18.5296 47.2546 18.8284 47.8627 19.8051Z" fill="#3671FF"/>
</svg>
