<svg width="156" height="44" viewBox="0 0 156 44" fill="none" xmlns="http://www.w3.org/2000/svg">
<path fill-rule="evenodd" clip-rule="evenodd" d="M18.4636 3.16064C17.9918 3.06543 17.5052 3.06543 17.0334 3.16064C16.4881 3.27071 16.0007 3.53861 15.6132 3.7516L15.5075 3.8095L2.37412 10.9694C2.33781 10.9892 2.3004 11.0094 2.26206 11.0302C1.85185 11.2519 1.33608 11.5307 0.939988 11.9524C0.59754 12.3171 0.338386 12.7493 0.179853 13.2201C-0.0035122 13.7647 -0.00136687 14.3426 0.000339237 14.8021C0.000498723 14.8451 0.000654285 14.887 0.000654285 14.9278V29.0645C0.000654285 29.1053 0.000498723 29.1472 0.000339237 29.1902C-0.00136687 29.6497 -0.0035122 30.2275 0.179854 30.7721C0.338387 31.243 0.597543 31.6752 0.939988 32.0399C1.33608 32.4616 1.85186 32.7404 2.26206 32.9621C2.3004 32.9828 2.33782 33.0031 2.37413 33.0229L15.5075 40.1828L15.6132 40.2407C16.0007 40.4537 16.4881 40.7216 17.0334 40.8316C17.5052 40.9269 17.9918 40.9269 18.4636 40.8316C19.0089 40.7216 19.4963 40.4537 19.8839 40.2407L19.9895 40.1828L33.1229 33.0229C33.1389 33.0141 33.1552 33.0053 33.1717 32.9964C33.1924 32.9851 33.2135 32.9737 33.2349 32.9621C33.6451 32.7404 34.1609 32.4616 34.557 32.0399C34.8995 31.6752 35.1586 31.243 35.3172 30.7721C35.5005 30.2275 35.4984 29.6497 35.4967 29.1901C35.4965 29.1472 35.4964 29.1053 35.4964 29.0645V14.9278C35.4964 14.887 35.4965 14.8451 35.4967 14.8021C35.4984 14.3426 35.5005 13.7647 35.3172 13.2201C35.1586 12.7493 34.8995 12.3171 34.557 11.9524C34.1609 11.5307 33.6451 11.2519 33.2349 11.0302L33.2335 11.0294C33.1957 11.0089 33.1587 10.989 33.1229 10.9694L19.9895 3.8095L19.8838 3.7516C19.4963 3.53861 19.0089 3.27071 18.4636 3.16064ZM17.2314 6.85437C17.5003 6.70775 17.6376 6.63366 17.74 6.58519L17.7485 6.5812L17.757 6.58519C17.8594 6.63366 17.9967 6.70775 18.2657 6.85437L30.067 13.2881L17.7484 20.0038L5.42997 13.2881L17.2314 6.85437ZM3.55022 16.248L15.9737 23.0209L15.9737 36.4523L4.09795 29.978C3.81407 29.8232 3.66913 29.7434 3.56744 29.6798L3.55885 29.6744L3.55821 29.6644C3.55096 29.5463 3.55022 29.3832 3.55022 29.0645V16.248Z" fill="#464F6D"/>
<path d="M51.6492 27.8164H57.2988V31.0834H47.3363V13.7089H51.6492V27.8164Z" fill="#464F6D"/>
<path d="M61.2728 15.8374C60.5161 15.8374 59.894 15.6229 59.4064 15.1939C58.9356 14.7484 58.7002 14.2039 58.7002 13.5604C58.7002 12.9004 58.9356 12.3559 59.4064 11.9269C59.894 11.4814 60.5161 11.2587 61.2728 11.2587C62.0126 11.2587 62.6179 11.4814 63.0887 11.9269C63.5764 12.3559 63.8202 12.9004 63.8202 13.5604C63.8202 14.2039 63.5764 14.7484 63.0887 15.1939C62.6179 15.6229 62.0126 15.8374 61.2728 15.8374ZM63.4166 17.2729V31.0834H59.1037V17.2729H63.4166Z" fill="#464F6D"/>
<path d="M71.6369 17.0749C72.6289 17.0749 73.4949 17.2729 74.2347 17.6689C74.9913 18.0649 75.5714 18.5847 75.975 19.2282V17.2729H80.2879V31.0587C80.2879 32.3292 80.0273 33.4759 79.506 34.4989C79.0016 35.5384 78.2197 36.3634 77.1604 36.9739C76.1179 37.5844 74.8148 37.8897 73.2511 37.8897C71.1661 37.8897 69.4762 37.4029 68.1815 36.4294C66.8868 35.4724 66.147 34.1689 65.962 32.5189H70.2245C70.359 33.0469 70.6785 33.4594 71.1829 33.7564C71.6873 34.0699 72.3095 34.2267 73.0493 34.2267C73.9404 34.2267 74.6467 33.9709 75.1679 33.4594C75.706 32.9644 75.975 32.1642 75.975 31.0587V29.1034C75.5546 29.7469 74.9745 30.2749 74.2347 30.6874C73.4949 31.0834 72.6289 31.2814 71.6369 31.2814C70.4767 31.2814 69.4258 30.9927 68.4842 30.4152C67.5426 29.8212 66.7943 28.9879 66.2395 27.9154C65.7014 26.8264 65.4324 25.5724 65.4324 24.1534C65.4324 22.7344 65.7014 21.4887 66.2395 20.4162C66.7943 19.3437 67.5426 18.5187 68.4842 17.9412C69.4258 17.3637 70.4767 17.0749 71.6369 17.0749ZM75.975 24.1782C75.975 23.1222 75.6723 22.2889 75.067 21.6784C74.4785 21.0679 73.7555 20.7627 72.898 20.7627C72.0404 20.7627 71.309 21.0679 70.7037 21.6784C70.1152 22.2724 69.8209 23.0974 69.8209 24.1534C69.8209 25.2094 70.1152 26.0509 70.7037 26.6779C71.309 27.2884 72.0404 27.5937 72.898 27.5937C73.7555 27.5937 74.4785 27.2884 75.067 26.6779C75.6723 26.0674 75.975 25.2342 75.975 24.1782Z" fill="#464F6D"/>
<path d="M91.8068 17.1244C93.421 17.1244 94.7157 17.6524 95.691 18.7084C96.6662 19.7479 97.1538 21.1834 97.1538 23.0149V31.0834H92.8661V23.5842C92.8661 22.6602 92.6223 21.9424 92.1347 21.4309C91.6471 20.9194 90.9913 20.6637 90.1674 20.6637C89.3435 20.6637 88.6878 20.9194 88.2002 21.4309C87.7125 21.9424 87.4687 22.6602 87.4687 23.5842V31.0834H83.1558V12.7684H87.4687V19.1292C87.9059 18.5187 88.5028 18.0319 89.2595 17.6689C90.0161 17.3059 90.8652 17.1244 91.8068 17.1244Z" fill="#464F6D"/>
<path d="M107.743 27.4947V31.0834H105.548C103.985 31.0834 102.765 30.7122 101.891 29.9697C101.017 29.2107 100.58 27.9814 100.58 26.2819V20.7874H98.8645V17.2729H100.58V13.9069H104.892V17.2729H107.717V20.7874H104.892V26.3314C104.892 26.7439 104.993 27.0409 105.195 27.2224C105.397 27.4039 105.733 27.4947 106.204 27.4947H107.743Z" fill="#464F6D"/>
<path d="M114.206 19.2282C114.609 18.5847 115.189 18.0649 115.946 17.6689C116.702 17.2729 117.568 17.0749 118.544 17.0749C119.704 17.0749 120.755 17.3637 121.696 17.9412C122.638 18.5187 123.378 19.3437 123.916 20.4162C124.471 21.4887 124.748 22.7344 124.748 24.1534C124.748 25.5724 124.471 26.8264 123.916 27.9154C123.378 28.9879 122.638 29.8212 121.696 30.4152C120.755 30.9927 119.704 31.2814 118.544 31.2814C117.552 31.2814 116.686 31.0917 115.946 30.7122C115.206 30.3162 114.626 29.7964 114.206 29.1529V31.0834H109.893V12.7684H114.206V19.2282ZM120.36 24.1534C120.36 23.0974 120.057 22.2724 119.452 21.6784C118.863 21.0679 118.132 20.7627 117.257 20.7627C116.4 20.7627 115.668 21.0679 115.063 21.6784C114.475 22.2889 114.18 23.1222 114.18 24.1782C114.18 25.2342 114.475 26.0674 115.063 26.6779C115.668 27.2884 116.4 27.5937 117.257 27.5937C118.115 27.5937 118.846 27.2884 119.452 26.6779C120.057 26.0509 120.36 25.2094 120.36 24.1534Z" fill="#464F6D"/>
<path d="M133.165 31.2814C131.786 31.2814 130.542 30.9927 129.432 30.4152C128.339 29.8377 127.473 29.0127 126.834 27.9402C126.212 26.8677 125.901 25.6137 125.901 24.1782C125.901 22.7592 126.221 21.5134 126.859 20.4409C127.498 19.3519 128.373 18.5187 129.483 17.9412C130.592 17.3637 131.837 17.0749 133.215 17.0749C134.594 17.0749 135.838 17.3637 136.948 17.9412C138.058 18.5187 138.932 19.3519 139.571 20.4409C140.21 21.5134 140.53 22.7592 140.53 24.1782C140.53 25.5972 140.202 26.8512 139.546 27.9402C138.907 29.0127 138.024 29.8377 136.898 30.4152C135.788 30.9927 134.544 31.2814 133.165 31.2814ZM133.165 27.6184C133.989 27.6184 134.687 27.3214 135.258 26.7274C135.847 26.1334 136.141 25.2837 136.141 24.1782C136.141 23.0727 135.855 22.2229 135.283 21.6289C134.729 21.0349 134.039 20.7379 133.215 20.7379C132.375 20.7379 131.677 21.0349 131.122 21.6289C130.567 22.2064 130.29 23.0562 130.29 24.1782C130.29 25.2837 130.559 26.1334 131.097 26.7274C131.652 27.3214 132.341 27.6184 133.165 27.6184Z" fill="#464F6D"/>
<path d="M150.889 31.0834L148.19 27.2472L145.92 31.0834H141.254L145.895 24.0297L141.128 17.2729H145.97L148.669 21.0844L150.939 17.2729H155.605L150.889 24.2277L155.731 31.0834H150.889Z" fill="#464F6D"/>
</svg>
