<svg width="24" height="24" viewBox="0 0 24 24" fill="none" xmlns="http://www.w3.org/2000/svg">
<path fill-rule="evenodd" clip-rule="evenodd" d="M12 2C7.02944 2 3 6.02944 3 11C3 14.0738 4.6759 16.5892 6.44162 18.3945C8.2176 20.2102 10.1996 21.4278 11.0729 21.921C11.6521 22.2481 12.3479 22.2481 12.9271 21.921C13.8004 21.4278 15.7824 20.2102 17.5584 18.3945C19.3241 16.5892 21 14.0738 21 11C21 6.02944 16.9706 2 12 2ZM16.4935 9.39682C16.884 9.0063 16.884 8.37314 16.4935 7.98261C16.103 7.59209 15.4698 7.59209 15.0793 7.98261L10.8348 12.2271L9.06698 10.4594C8.67646 10.0689 8.04329 10.0689 7.65277 10.4594C7.26225 10.8499 7.26225 11.4831 7.65277 11.8736L10.0569 14.2778C10.4865 14.7073 11.183 14.7073 11.6126 14.2778L16.4935 9.39682Z" fill="white"/>
</svg>
