<svg width="20" height="21" viewBox="0 0 20 21" fill="none" xmlns="http://www.w3.org/2000/svg">
<path d="M20 0.5V20.5H0V0.5H20Z" fill="white" fill-opacity="0.01"/>
<path fill-rule="evenodd" clip-rule="evenodd" d="M10 2.16675C5.85786 2.16675 2.5 5.52461 2.5 9.66675C2.5 12.2282 3.89658 14.3244 5.36802 15.8288C6.848 17.3419 8.49969 18.3566 9.22741 18.7675C9.71012 19.0402 10.2899 19.0402 10.7726 18.7675C11.5003 18.3566 13.152 17.3419 14.632 15.8288C16.1034 14.3244 17.5 12.2282 17.5 9.66675C17.5 5.52461 14.1421 2.16675 10 2.16675ZM10 12.1667C11.3807 12.1667 12.5 11.0475 12.5 9.66675C12.5 8.28604 11.3807 7.16675 10 7.16675C8.61929 7.16675 7.5 8.28604 7.5 9.66675C7.5 11.0475 8.61929 12.1667 10 12.1667Z" fill="white"/>
</svg>
