<svg width="30" height="31" viewBox="0 0 30 31" fill="none" xmlns="http://www.w3.org/2000/svg">
<path d="M30 0.5V30.5H0V0.5H30Z" fill="white" fill-opacity="0.01"/>
<path fill-rule="evenodd" clip-rule="evenodd" d="M15 3C8.7868 3 3.75 8.0368 3.75 14.25C3.75 18.0922 5.84487 21.2365 8.05203 23.4931C10.272 25.7627 12.7495 27.2847 13.8411 27.9012C14.5652 28.3101 15.4348 28.3101 16.1589 27.9012C17.2505 27.2847 19.728 25.7627 21.948 23.4931C24.1551 21.2365 26.25 18.0922 26.25 14.25C26.25 8.0368 21.2132 3 15 3ZM15 18C17.0711 18 18.75 16.3211 18.75 14.25C18.75 12.1789 17.0711 10.5 15 10.5C12.9289 10.5 11.25 12.1789 11.25 14.25C11.25 16.3211 12.9289 18 15 18Z" fill="#3671FF"/>
</svg>
