<svg width="20" height="21" viewBox="0 0 20 21" fill="none" xmlns="http://www.w3.org/2000/svg">
<path d="M20 0.5V20.5H0V0.5H20Z" fill="white" fill-opacity="0.01"/>
<path fill-rule="evenodd" clip-rule="evenodd" d="M14.9311 2.71947C15.7447 2.58858 16.574 2.63723 17.218 3.2813C17.862 3.92539 17.9105 4.75481 17.7794 5.56839C17.6139 6.59632 17.2411 7.59228 16.9149 8.57692C16.3688 10.2252 15.7898 11.86 15.1768 13.4836L15.1555 13.5399C14.7102 14.7192 14.3479 15.6789 13.9868 16.365C13.6297 17.0437 13.1569 17.6924 12.3703 17.8922C11.0916 18.217 10.1149 17.4658 9.52507 16.3707C9.15139 15.6769 8.77039 14.7031 8.30082 13.5031C7.99773 12.7284 7.78075 12.5059 6.99684 12.1992C5.79573 11.7292 4.82114 11.3478 4.12679 10.9737C3.03293 10.3844 2.28199 9.40921 2.60486 8.13179C2.80396 7.34409 3.45276 6.8705 4.13191 6.51288C4.8184 6.15139 5.77867 5.7887 6.95858 5.34306L7.01501 5.32175C8.63888 4.70839 10.274 4.12933 11.9227 3.5834C12.9073 3.25736 13.9032 2.88482 14.9311 2.71947Z" fill="#464F6D"/>
</svg>
