<svg width="166" height="44" viewBox="0 0 166 44" fill="none" xmlns="http://www.w3.org/2000/svg">
<g clip-path="url(#clip0_2451_3179)">
<path d="M24.8721 3.7783L21.0224 2.74158L17.7782 14.91L14.8492 3.92427L10.9994 4.96099L14.164 16.8303L6.28183 8.90862L3.4636 11.741L12.1093 20.4302L1.34246 17.5307L0.310913 21.3997L12.075 24.5678C11.9404 23.9839 11.8691 23.3756 11.8691 22.7505C11.8691 18.3261 15.4379 14.7393 19.8403 14.7393C24.2426 14.7393 27.8114 18.3261 27.8114 22.7505C27.8114 23.3716 27.7411 23.9762 27.608 24.5566L38.2995 27.4357L39.3309 23.5666L27.52 20.386L38.2876 17.4863L37.256 13.6173L25.4456 16.7977L33.3277 8.8761L30.5095 6.04373L21.9837 14.6123L24.8721 3.7783Z" fill="#464F6D"/>
<path d="M27.5968 24.6016C27.2667 26.004 26.5699 27.2639 25.6138 28.2733L33.3592 36.0578L36.1775 33.2254L27.5968 24.6016Z" fill="#464F6D"/>
<path d="M25.5356 28.3547C24.5679 29.348 23.3451 30.0892 21.9737 30.4712L24.7922 41.0425L28.6419 40.0057L25.5356 28.3547Z" fill="#464F6D"/>
<path d="M21.8299 30.5099C21.1937 30.6743 20.5268 30.7617 19.8396 30.7617C19.1033 30.7617 18.3904 30.6613 17.7135 30.4735L14.8925 41.0544L18.7422 42.0911L21.8299 30.5099Z" fill="#464F6D"/>
<path d="M17.5774 30.4345C16.227 30.0335 15.0259 29.2828 14.078 28.2867L6.31346 36.0902L9.13168 38.9226L17.5774 30.4345Z" fill="#464F6D"/>
<path d="M14.014 28.2177C13.0823 27.2153 12.4037 25.9722 12.0807 24.5915L1.35438 27.48L2.38592 31.3491L14.014 28.2177Z" fill="#464F6D"/>
</g>
<path d="M62.4963 11.8334V25.7759L53.6034 11.8334H50.0463V31.0834H53.6034V17.2509L62.4963 31.0834H66.0534V11.8334H62.4963Z" fill="#464F6D"/>
<path d="M67.6563 15.4359H71.3229V11.8334H67.6563V15.4359ZM67.711 31.0834V17.3334H71.2681V31.0834H67.711Z" fill="#464F6D"/>
<path d="M86.573 24.2084C86.573 19.4509 83.2074 17.1959 79.6503 17.1684C76.0658 17.1409 72.7549 19.4509 72.7549 24.2084C72.7549 28.9659 76.0658 31.2759 79.6503 31.2484C82.9064 31.2209 85.1502 29.7084 86.19 27.2059L83.4263 26.0509C82.5781 27.7559 81.2373 28.3609 79.6503 28.3884C78.2822 28.4159 76.7225 27.7559 76.3941 25.3084H86.4909C86.5457 24.9509 86.573 24.5934 86.573 24.2084ZM79.6503 20.0009C81.0184 20.0284 82.4139 20.7709 82.8517 22.7509H76.4489C76.914 20.7434 78.3095 19.9734 79.6503 20.0009Z" fill="#464F6D"/>
<path d="M94.7938 19.8909V17.1684H92.5501V13.4834L88.9929 14.5834V17.1684H86.7492V19.8909H88.9929V27.0134C88.9929 29.7084 89.2118 31.0834 93.3709 31.0834H94.3286V27.9484H93.3709C92.7142 27.9484 92.5501 27.8384 92.5501 27.0134V19.8909H94.7938Z" fill="#464F6D"/>
<path d="M100.079 28.0859L107.632 20.3309V17.3334H96.3034V20.3309H103.637L96.0845 28.0859V31.0834H107.714V28.0859H100.079Z" fill="#464F6D"/>
<path d="M108.989 27.2059L112.574 26.6559C112.82 28.0309 114.434 28.5534 115.419 28.5534C116.432 28.5534 118.183 28.3334 118.183 26.6834C118.183 23.4659 109.399 27.4809 109.399 21.3209C109.399 17.3609 113.969 17.1409 115.419 17.1409C116.787 17.1409 120.755 17.3609 121.576 20.5509L118.183 21.2659C117.882 19.8084 116.35 19.5334 115.529 19.5334C114.708 19.5334 112.957 19.7259 112.957 21.3209C112.957 24.5109 121.74 20.4409 121.74 26.6834C121.74 30.8909 116.924 31.2484 115.419 31.2484C114.051 31.2484 109.7 30.8909 108.989 27.2059Z" fill="#464F6D"/>
<path d="M126.361 24.2084C126.361 27.5634 128.14 28.5809 130 28.5534C131.669 28.5259 132.819 27.8384 133.503 25.9134L136.431 27.3434C135.363 30.1484 132.764 31.2209 130 31.2484C126.416 31.2759 122.804 28.9659 122.804 24.2084C122.804 19.4509 126.416 17.1409 130 17.1684C132.764 17.1959 135.363 18.2684 136.431 21.0734L133.503 22.5034C132.819 20.5784 131.669 19.8909 130 19.8634C128.14 19.8359 126.361 20.8534 126.361 24.2084Z" fill="#464F6D"/>
<path d="M145.98 17.1134C144.147 17.1134 142.477 18.0759 141.41 20.1384V11.8334H137.853V31.0834H141.41V26.2159C141.41 19.9184 144.01 19.3959 144.967 19.3959C146.5 19.3959 146.719 20.9909 146.719 23.3284V31.0834H150.276V23.3284C150.276 20.4134 149.811 17.1134 145.98 17.1134Z" fill="#464F6D"/>
<path d="M165.294 24.2084C165.294 19.4509 161.928 17.1959 158.371 17.1684C154.787 17.1409 151.476 19.4509 151.476 24.2084C151.476 28.9659 154.787 31.2759 158.371 31.2484C161.627 31.2209 163.871 29.7084 164.911 27.2059L162.147 26.0509C161.299 27.7559 159.958 28.3609 158.371 28.3884C157.003 28.4159 155.444 27.7559 155.115 25.3084H165.212C165.267 24.9509 165.294 24.5934 165.294 24.2084ZM158.371 20.0009C159.739 20.0284 161.135 20.7709 161.573 22.7509H155.17C155.635 20.7434 157.031 19.9734 158.371 20.0009Z" fill="#464F6D"/>
<defs>
<clipPath id="clip0_2451_3179">
<rect width="40.1319" height="40.3333" fill="white" transform="translate(0 1.83337)"/>
</clipPath>
</defs>
</svg>
