<svg width="302" height="96" viewBox="0 0 302 96" fill="none" xmlns="http://www.w3.org/2000/svg">
<path d="M166.646 45.0204C166.646 46.0491 166.649 47.0162 166.646 47.9833C166.638 49.9844 165.308 51.3018 163.299 51.3018C154.355 51.3018 145.41 51.3018 136.466 51.3036C134.484 51.3036 133.153 49.9818 133.153 48.0088C133.153 42.1727 133.148 36.3374 133.163 30.5012C133.164 30.107 133.062 30.0208 132.683 30.026C131.88 30.0375 131.068 30.1228 130.275 29.9125C128.714 29.4989 127.68 28.5072 127.26 26.9601C126.842 25.4166 127.182 23.9989 128.362 22.8901C130.144 21.2146 131.975 19.591 133.788 17.9489C137.196 14.861 140.614 11.7828 144.015 8.68605C147.477 5.53477 152.17 5.49077 155.668 8.60069C156.401 9.25277 157.125 9.91629 157.85 10.5772C158.375 11.0559 158.436 11.7053 158.005 12.1664C157.594 12.6064 156.956 12.5994 156.437 12.1356C155.661 11.4431 154.899 10.7347 154.119 10.0483C151.59 7.82453 148.091 7.85533 145.576 10.124C143.226 12.2439 140.886 14.3735 138.54 16.4969C135.706 19.063 132.871 21.6273 130.038 24.1934C129.231 24.9247 129.01 25.6947 129.348 26.587C129.685 27.4776 130.41 27.9352 131.492 27.9378C132.342 27.9396 133.193 27.9378 134.043 27.9387C134.864 27.9396 135.25 28.3232 135.25 29.146C135.251 35.3782 135.25 41.6095 135.25 47.8416C135.25 48.851 135.615 49.2162 136.624 49.2162C145.452 49.2162 154.279 49.2162 163.106 49.2162C164.186 49.2162 164.534 48.873 164.534 47.8073C164.534 43.7452 164.53 39.684 164.541 35.622C164.542 35.314 164.445 35.1582 164.177 35.0165C162.37 34.0538 160.575 33.0691 158.77 32.1028C158.437 31.9242 158.202 31.6884 158.134 31.3179C158.061 30.9131 158.175 30.5584 158.506 30.3006C158.878 30.0111 159.28 29.9847 159.697 30.21C160.958 30.8902 162.219 31.5704 163.481 32.2498C163.812 32.4276 164.144 32.6027 164.534 32.8104C164.534 32.5904 164.534 32.4355 164.534 32.2815C164.534 30.2284 164.534 28.1754 164.534 26.1232C164.535 25.3365 164.916 24.8816 165.573 24.8745C166.237 24.8684 166.646 25.3471 166.646 26.1479C166.648 31.5 166.652 36.8522 166.638 42.2035C166.637 42.581 166.743 42.7596 167.094 42.9145C172.812 45.4313 179.422 41.7283 180.122 35.5392C180.578 31.5062 178.956 28.4139 175.522 26.2772C174.984 25.9428 174.748 25.5618 174.827 24.9132C175.422 20.0521 172.507 15.734 167.848 14.5372C162.562 13.1793 157.156 16.7759 156.352 22.1817C156.215 23.1022 156.204 24.0192 156.343 24.9388C156.438 25.5609 156.269 25.8918 155.728 26.213C152.647 28.0443 150.983 30.7679 150.951 34.3336C150.908 39.0522 154.277 42.6479 158.369 43.5129C159.266 43.7021 160.17 43.7144 161.08 43.6916C161.578 43.6792 161.943 43.9415 162.096 44.3753C162.347 45.0855 161.877 45.7428 161.061 45.7895C158.432 45.94 156.003 45.3213 153.834 43.813C147.145 39.164 147.173 29.5007 153.889 24.886C154.165 24.6959 154.174 24.497 154.162 24.2277C153.922 18.8025 157.241 14.1306 162.422 12.5941C168.937 10.6616 175.889 15.0819 176.879 21.7813C177.008 22.6543 177.088 23.529 176.99 24.4072C176.963 24.6519 177.075 24.7408 177.24 24.8543C179.957 26.7252 181.609 29.2789 182.171 32.5367C182.978 37.2121 180.642 42.0794 176.443 44.3692C173.472 45.9901 170.362 46.2453 167.145 45.1867C166.994 45.1374 166.844 45.0864 166.646 45.0204Z" fill="#464F6D"/>
<path d="M176.847 76.0245C175.637 76.0447 174.278 75.9919 172.955 75.6047C170.34 74.8391 168.884 73.0712 168.529 70.396C168.326 68.871 168.388 67.3539 168.946 65.8948C169.901 63.3983 172.483 62.6784 174.582 64.3363C174.829 64.5308 174.925 64.4067 175.082 64.2747C176.524 63.0568 179.956 63.0084 181.145 65.3501C181.882 66.8003 181.907 68.3113 181.256 69.8055C180.862 70.7111 180.155 71.2998 179.215 71.6122C176.915 72.376 174.624 71.4265 173.889 69.3735C173.503 68.2946 173.482 67.1858 173.849 66.0972C173.962 65.7619 173.892 65.6115 173.605 65.4478C172.54 64.8415 171.527 65.1521 171.193 66.3093C170.708 67.9875 170.653 69.6982 171.295 71.3561C171.905 72.9295 173.18 73.6837 174.779 73.9591C176.118 74.1897 177.47 74.0559 178.817 74.0832C179.549 74.0982 179.555 74.092 179.551 74.8198C179.544 76.1723 179.711 76.0175 178.365 76.0254C177.911 76.0263 177.456 76.0245 176.847 76.0245ZM179.41 67.705C179.372 67.1286 179.351 66.5575 179.12 66.0233C178.844 65.3835 178.355 65.0412 177.654 65.0359C176.977 65.0315 176.452 65.3211 176.205 65.9635C175.775 67.0819 175.761 68.2233 176.197 69.3418C176.429 69.9375 176.919 70.2367 177.568 70.2596C178.248 70.2843 178.753 70.0079 179.069 69.3999C179.345 68.8657 179.37 68.2805 179.41 67.705Z" fill="#464F6D"/>
<path d="M114.602 68.3545C114.602 67.5423 114.63 66.796 114.594 66.0533C114.564 65.4408 114.232 65.1531 113.679 65.1575C113.131 65.1627 112.803 65.4611 112.789 66.0762C112.778 66.5135 112.605 66.6429 112.2 66.6147C111.85 66.591 111.497 66.6024 111.145 66.6139C110.833 66.6244 110.698 66.4959 110.682 66.1774C110.641 65.3291 110.252 65.0149 109.427 65.1988C109.053 65.2824 108.87 65.1724 108.78 64.8266C108.758 64.7421 108.725 64.6603 108.697 64.5767C108.447 63.8322 108.3 63.7116 109.365 63.5057C110.509 63.2848 111.211 63.6518 111.795 64.7245C112.479 63.4098 113.63 63.3139 114.873 63.5691C116.104 63.8216 116.84 64.6523 116.901 66.041C116.991 68.1037 117.048 70.1787 116.886 72.2362C116.688 74.7495 115.13 76.0527 112.615 76.0246C110.751 76.0035 109.373 75.1437 108.773 73.6283C108.073 71.8595 108.453 69.6965 109.674 68.5085C110.854 67.361 112.767 67.1727 114.178 68.0676C114.301 68.1433 114.418 68.2278 114.602 68.3545ZM114.617 71.3034C114.617 70.9813 114.619 70.6583 114.616 70.3363C114.616 70.221 114.634 70.0995 114.543 70.0036C113.996 69.4272 113.325 69.1491 112.533 69.2125C111.859 69.2662 111.379 69.6367 111.127 70.2518C110.709 71.2708 110.712 72.3083 111.144 73.323C111.438 74.0129 111.99 74.3359 112.746 74.3244C113.5 74.3139 114.017 73.9715 114.325 73.2843C114.61 72.648 114.623 71.9783 114.617 71.3034Z" fill="#464F6D"/>
<path d="M135.305 67.9224C136.263 67.1418 137.315 66.9412 138.417 67.1136C139.861 67.3389 140.761 68.262 141.214 69.6067C141.658 70.9276 141.607 72.2634 141.091 73.5623C140.417 75.258 138.838 76.1724 136.898 76.0184C134.535 75.8309 133.228 74.5884 133.047 72.2124C132.891 70.1813 132.909 68.1388 133.041 66.1069C133.143 64.5493 134.16 63.6112 135.72 63.4872C136.44 63.43 137.155 63.4933 137.865 63.6033C138.536 63.7072 139.204 63.7476 139.871 63.5848C140.204 63.503 140.414 63.6033 140.446 63.9773C140.463 64.1665 140.509 64.3522 140.54 64.5405C140.641 65.1565 140.576 65.2269 139.953 65.3316C139.068 65.4812 138.202 65.351 137.333 65.2111C136.913 65.1433 136.49 65.1081 136.069 65.2278C135.661 65.344 135.409 65.6115 135.344 66.0224C135.247 66.627 135.305 67.236 135.305 67.9224ZM135.297 70.8976C135.306 70.8976 135.315 70.8976 135.324 70.8976C135.324 71.2778 135.322 71.6571 135.324 72.0372C135.326 72.4227 135.419 72.7923 135.552 73.1496C135.845 73.9372 136.37 74.312 137.171 74.3208C137.957 74.3305 138.47 73.9908 138.779 73.2068C139.168 72.2212 139.16 71.2004 138.933 70.1857C138.697 69.1341 138.026 68.6721 136.944 68.7707C136.356 68.8244 135.839 69.0672 135.43 69.4914C135.151 69.78 135.347 70.1646 135.3 70.5025C135.282 70.6319 135.297 70.7656 135.297 70.8976Z" fill="#464F6D"/>
<path d="M159.71 64.9101C160.378 63.4608 161.817 63.3332 162.906 63.5699C164.138 63.8374 164.915 64.7737 164.966 66.1765C165.018 67.5968 164.996 69.0206 164.986 70.4427C164.981 71.2479 165.055 72.0557 164.925 72.8574C164.642 74.6068 163.439 75.7667 161.667 75.9708C160.433 76.1134 159.24 76.006 158.174 75.2774C156.489 74.1264 156.379 71.9466 157.087 70.4321C157.185 70.2227 157.348 70.1444 157.594 70.2288C158.008 70.3714 158.431 70.4876 158.851 70.6108C159.136 70.6935 159.201 70.8677 159.132 71.1476C158.983 71.7512 158.94 72.3629 159.1 72.9745C159.303 73.7471 159.84 74.1774 160.652 74.2232C161.586 74.276 162.18 73.9398 162.482 73.1751C162.624 72.8178 162.686 72.4438 162.686 72.0593C162.687 70.2262 162.689 68.3932 162.684 66.561C162.683 66.3727 162.657 66.1809 162.617 65.9961C162.507 65.4962 162.207 65.2489 161.733 65.2454C161.217 65.2419 160.889 65.4751 160.766 65.9635C160.618 66.5549 160.709 67.1603 160.698 67.7587C160.683 68.5736 160.694 68.5736 159.899 68.5736C159.591 68.5736 159.283 68.5709 158.975 68.5736C158.684 68.5762 158.545 68.4469 158.55 68.1477C158.557 67.5757 158.563 67.0037 158.55 66.4325C158.531 65.5992 158.269 65.3633 157.443 65.4205C157.035 65.4487 156.631 65.5041 156.226 65.3695C155.955 65.2789 155.836 65.1301 155.91 64.8468C155.913 64.8327 155.916 64.8177 155.917 64.8037C156.088 63.6913 156.088 63.6887 157.171 63.5813C157.491 63.5497 157.816 63.4925 158.132 63.5224C158.884 63.5945 159.27 63.9492 159.71 64.9101Z" fill="#464F6D"/>
<path d="M187.177 71.3605C187.177 72.6066 187.178 73.8518 187.177 75.0979C187.176 75.6127 187.123 75.6664 186.594 75.6716C186.154 75.676 185.715 75.6743 185.275 75.6708C184.972 75.669 184.824 75.5247 184.827 75.2088C184.855 72.6744 184.769 70.1382 184.878 67.6038C184.901 67.0767 185.016 66.561 185.181 66.0585C185.696 64.4948 186.809 63.6755 188.413 63.5021C189.232 63.4141 190.055 63.4308 190.852 63.6755C192.369 64.141 193.095 65.2753 193.396 66.7484C193.519 67.3512 193.571 67.9655 193.571 68.5815C193.571 70.7357 193.572 72.8908 193.57 75.0451C193.57 75.5951 193.493 75.669 192.929 75.6716C192.533 75.6734 192.137 75.6593 191.742 75.6734C191.354 75.6875 191.199 75.5405 191.201 75.1313C191.211 72.7861 191.206 70.4409 191.188 68.0966C191.183 67.4683 191.113 66.8417 190.871 66.2477C190.572 65.5147 190.027 65.1548 189.192 65.1565C188.36 65.1583 187.804 65.5226 187.516 66.2548C187.197 67.0635 187.206 67.9188 187.183 68.7654C187.158 69.6304 187.177 70.4955 187.177 71.3605Z" fill="#464F6D"/>
<path d="M122.949 71.3465C122.949 72.6075 122.937 73.8677 122.956 75.1279C122.962 75.5336 122.805 75.6858 122.418 75.6752C121.964 75.6629 121.509 75.6735 121.055 75.6699C120.762 75.6673 120.593 75.5564 120.598 75.2229C120.627 72.6876 120.542 70.1523 120.646 67.6179C120.673 66.972 120.822 66.3455 121.069 65.7435C121.514 64.6541 122.293 63.9448 123.437 63.6474C124.405 63.3948 125.384 63.3878 126.351 63.6087C128.032 63.9923 128.847 65.1768 129.17 66.7784C129.289 67.368 129.339 67.9673 129.34 68.5683C129.346 70.7235 129.343 72.8777 129.342 75.0328C129.342 75.596 129.271 75.6673 128.715 75.6726C128.319 75.6761 127.923 75.6611 127.528 75.677C127.117 75.6937 126.957 75.5283 126.959 75.1068C126.973 72.8346 126.97 70.5624 126.963 68.2903C126.961 67.6751 126.909 67.0618 126.721 66.4695C126.434 65.5667 125.866 65.1513 124.931 65.1575C124.047 65.1627 123.469 65.6045 123.198 66.4898C122.995 67.1551 122.965 67.845 122.954 68.5323C122.938 69.4695 122.949 70.4084 122.949 71.3465Z" fill="#464F6D"/>
<path d="M150.667 69.2529C150.737 69.3506 150.843 69.3541 150.94 69.3841C152.332 69.8197 153.116 70.9751 153.005 72.4289C152.852 74.4221 151.469 75.8037 149.472 75.9832C148.37 76.0817 147.306 76.0008 146.33 75.4244C144.83 74.5391 144.225 72.5433 144.957 70.9645C145.072 70.7164 145.239 70.6407 145.482 70.7032C145.921 70.8158 146.358 70.9346 146.794 71.0605C147.055 71.1361 147.112 71.3201 147.059 71.5761C146.966 72.0223 146.925 72.4702 147.029 72.9261C147.206 73.6969 147.712 74.1545 148.489 74.2179C149.45 74.2953 150.09 73.9636 150.382 73.2077C150.652 72.5081 150.64 71.7961 150.358 71.1071C150.073 70.4128 149.487 70.1356 148.777 70.14C148.331 70.1426 148.154 69.9675 148.198 69.5381C148.204 69.48 148.199 69.421 148.199 69.3621C148.198 68.5058 148.198 68.5058 149.044 68.4073C149.865 68.3113 150.343 67.7191 150.337 66.8065C150.333 65.9248 149.856 65.3387 149.059 65.2366C147.774 65.0712 147.033 65.7637 147.172 67.0195C147.205 67.3134 147.11 67.4665 146.831 67.5255C146.416 67.6126 146 67.6971 145.586 67.7921C145.235 67.8722 145.048 67.7499 144.944 67.3953C144.534 65.9881 145.151 64.5837 146.565 63.9439C148.059 63.2681 149.583 63.2751 151.057 64.0266C152.258 64.6391 152.861 65.8438 152.662 67.1726C152.531 68.0491 152.029 68.6669 151.222 69.0321C151.042 69.113 150.853 69.179 150.667 69.2529Z" fill="#464F6D"/>
<path d="M156.139 86.4023C156.255 86.4921 156.321 86.5493 156.392 86.5986C157.402 87.2938 157.208 88.839 156.006 89.3855C155.258 89.7261 154.473 89.7666 153.699 89.4929C152.646 89.1198 152.261 88.0479 152.789 87.0104C152.895 86.8036 153.032 86.6091 153.18 86.4296C153.522 86.0125 153.713 86.0345 154.04 86.4745C154.148 86.6179 154.06 86.6839 153.989 86.7684C153.767 87.0324 153.629 87.3342 153.574 87.673C153.56 87.7593 153.554 87.8482 153.557 87.9353C153.571 88.3718 153.845 88.7044 154.278 88.8188C154.891 88.9807 155.539 88.7986 155.832 88.3806C156.081 88.0259 156.071 87.6273 155.803 87.285C155.52 86.9224 155.289 86.9277 155.207 87.3738C155.105 87.9326 154.788 87.9089 154.378 87.8807C154.16 87.8658 154.132 87.7786 154.176 87.6097C154.258 87.2955 154.382 86.9981 154.6 86.7534C154.725 86.6144 154.725 86.5326 154.566 86.4138C153.872 85.899 154.005 84.9688 154.381 84.5913C154.903 84.0668 155.986 83.9938 156.517 84.4716C156.939 84.8518 156.955 85.583 156.541 86.0582C156.438 86.177 156.299 86.2668 156.139 86.4023ZM155.522 84.828C155.213 84.8095 154.984 85.0075 154.975 85.3199C154.967 85.6306 155.132 85.855 155.405 85.9676C155.551 86.0274 155.91 85.5381 155.924 85.2873C155.94 85.0049 155.81 84.8465 155.522 84.828Z" fill="#464F6D"/>
<path d="M171.508 86.2941C171.56 85.95 171.607 85.6631 171.644 85.3745C171.669 85.1774 171.664 84.975 171.411 84.931C171.186 84.8922 171.014 84.9873 170.907 85.1967C170.847 85.3164 170.923 85.5285 170.716 85.547C170.484 85.5681 170.247 85.5637 170.015 85.5443C169.896 85.5346 169.924 85.4141 169.937 85.3314C169.991 85.0022 169.817 84.8852 169.534 84.945C169.088 85.0401 169.215 84.667 169.146 84.4813C169.043 84.2058 169.312 84.2094 169.456 84.1838C169.826 84.1196 170.208 84.109 170.426 84.4962C170.537 84.6934 170.589 84.5754 170.671 84.4954C171.105 84.0703 171.622 84.0474 172.131 84.285C172.65 84.527 172.707 85.0225 172.641 85.5285C172.534 86.3548 172.434 87.1838 172.288 88.0039C172.059 89.2922 170.856 89.9998 169.609 89.6064C169.246 89.492 168.961 89.2729 168.78 88.9323C168.206 87.8455 168.928 86.2571 170.122 85.9746C170.609 85.862 171.048 85.9623 171.508 86.2941ZM169.654 88.1122C169.673 88.4193 169.692 88.7942 170.12 88.9024C170.532 89.0062 170.86 88.8443 171.082 88.4747C171.275 88.1518 171.303 87.7883 171.352 87.4275C171.412 86.9831 171.277 86.7834 170.837 86.713C170.433 86.6487 170.124 86.7966 169.915 87.1459C169.746 87.4275 169.674 87.7373 169.654 88.1122Z" fill="#464F6D"/>
<path d="M161.086 86.9224C160.629 87.1424 160.227 87.2515 159.79 87.1838C159.212 87.0931 158.813 86.691 158.744 86.1084C158.672 85.4994 158.865 84.9574 159.164 84.439C159.252 84.2859 159.368 84.2542 159.525 84.2595C159.745 84.2674 159.964 84.2613 160.214 84.2613C160.082 84.6828 159.849 85.0489 159.805 85.4713C159.774 85.7731 159.696 86.119 160.006 86.3178C160.339 86.5317 160.677 86.3997 161.002 86.2316C161.203 86.1278 161.242 85.9518 161.268 85.7608C161.316 85.3982 161.37 85.0366 161.402 84.6731C161.43 84.3616 161.548 84.234 161.891 84.2525C162.502 84.2859 162.499 84.2604 162.411 84.8738C162.266 85.8866 162.127 86.9013 161.986 87.915C161.798 89.2755 160.716 89.9954 159.427 89.617C158.603 89.375 158.251 88.5407 158.618 87.761C158.774 87.431 158.974 87.615 159.162 87.6678C159.35 87.7206 159.628 87.6933 159.526 88.0532C159.425 88.4052 159.448 88.7308 159.88 88.8619C160.26 88.9772 160.637 88.8056 160.815 88.4087C161.014 87.9617 161.014 87.4759 161.086 86.9224Z" fill="#464F6D"/>
<path d="M146.759 89.529C147.268 88.3621 147.653 87.2339 147.701 86.0178C147.704 85.9597 147.724 85.8999 147.715 85.8435C147.66 85.4766 147.699 85.0498 147.199 84.9371C146.776 84.8421 146.357 85.0823 146.177 85.5734C145.818 86.5519 145.76 87.5701 145.85 88.6006C145.859 88.7027 145.876 88.8039 145.888 88.9059C145.964 89.5492 145.964 89.5369 145.301 89.536C145.062 89.536 144.97 89.4586 144.928 89.228C144.719 88.0893 144.717 86.9559 145.024 85.8374C145.343 84.6749 146.079 84.1302 147.222 84.1601C148.063 84.1821 148.631 84.6855 148.705 85.5311C148.824 86.8855 148.422 88.1298 147.852 89.3345C147.777 89.4929 147.671 89.5395 147.506 89.5316C147.274 89.5211 147.04 89.529 146.759 89.529Z" fill="#464F6D"/>
<path d="M175.975 89.529C176.471 88.3973 176.838 87.2929 176.92 86.1102C176.932 85.9325 176.93 85.7609 176.903 85.5857C176.855 85.2795 176.766 85.0076 176.413 84.9398C176.042 84.8685 175.751 85.0058 175.541 85.3094C175.276 85.6949 175.189 86.1454 175.125 86.5933C174.999 87.4813 174.969 88.3736 175.166 89.258C175.212 89.4674 175.179 89.5405 174.947 89.5343C174.01 89.5079 174.218 89.6628 174.083 88.8285C173.909 87.7514 173.948 86.6637 174.314 85.6165C174.672 84.5931 175.371 84.1285 176.456 84.161C177.256 84.1857 177.831 84.6741 177.911 85.4669C178.052 86.8538 177.642 88.1281 177.053 89.3601C176.983 89.507 176.881 89.5361 176.737 89.5317C176.504 89.5237 176.27 89.529 175.975 89.529Z" fill="#464F6D"/>
<path d="M165.101 89.6927C164.507 89.6971 163.984 89.5202 163.697 88.9711C163.391 88.3903 163.493 87.7928 163.828 87.2577C164.054 86.8969 164.303 87.2964 164.545 87.3123C164.769 87.3272 164.728 87.476 164.661 87.6317C164.609 87.7514 164.574 87.8834 164.562 88.0128C164.527 88.3736 164.515 88.7317 164.967 88.8655C165.354 88.9799 165.752 88.7775 165.928 88.3736C166.034 88.128 166.045 87.8623 166.081 87.6018C166.167 86.9788 166.264 86.3575 166.338 85.7327C166.397 85.2311 166.236 84.9935 165.854 84.9565C165.4 84.9125 165.053 85.1915 164.981 85.6332C164.954 85.7943 165.085 86.0231 164.893 86.1049C164.669 86.2 164.41 86.2149 164.166 86.2572C164.008 86.2844 164.025 86.1498 163.997 86.0592C163.817 85.4757 164.109 84.8043 164.704 84.4576C165.149 84.198 165.634 84.1073 166.141 84.1768C166.967 84.2912 167.434 84.8272 167.358 85.6561C167.277 86.5291 167.158 87.402 166.993 88.2627C166.817 89.1779 166.089 89.6944 165.101 89.6927Z" fill="#464F6D"/>
<path d="M135.772 85.9852C136.462 85.635 137.137 85.4704 137.746 85.9826C138.361 86.4991 138.335 87.2269 138.183 87.9326C137.932 89.0942 137.144 89.7138 136.008 89.6909C135.006 89.6706 134.365 88.9658 134.485 87.9643C134.621 86.8318 134.798 85.7045 134.956 84.5746C135.039 83.9709 135.497 84.3229 135.777 84.2754C136.143 84.2129 135.959 84.527 135.948 84.6661C135.912 85.0876 135.839 85.5056 135.772 85.9852ZM137.195 87.3404C137.217 86.7578 137.059 86.493 136.659 86.4454C136.216 86.3935 135.686 86.6619 135.63 87.0007C135.566 87.3879 135.527 87.7813 135.509 88.1729C135.495 88.4941 135.583 88.8021 135.94 88.898C136.293 88.9939 136.602 88.8883 136.822 88.5759C137.085 88.2054 137.175 87.7839 137.195 87.3404Z" fill="#464F6D"/>
<path d="M142.802 89.5289C142.543 89.5289 142.298 89.5307 142.053 89.5281C141.969 89.5272 141.881 89.5448 141.827 89.4418C141.437 88.7061 140.817 88.9253 140.212 89.0458C140.067 89.0749 139.857 89.3389 139.777 88.9358C139.718 88.6428 139.722 88.4536 140.065 88.4122C140.204 88.3955 140.342 88.3735 140.49 88.3533C140.452 88.1896 140.319 88.1385 140.231 88.0488C139.163 86.9655 139.574 84.8896 140.985 84.322C141.671 84.0457 142.372 84.0334 142.977 84.5218C143.563 84.9943 143.58 85.649 143.446 86.3284C143.392 86.6047 143.289 86.8608 143.151 87.1019C142.82 87.6827 142.75 87.6818 142.228 87.2656C142.049 87.1222 142.089 87.0315 142.179 86.8784C142.399 86.5044 142.489 86.0943 142.48 85.6613C142.473 85.3322 142.385 85.0427 142.051 84.9151C141.701 84.7813 141.387 84.8834 141.133 85.1474C140.365 85.95 140.604 87.5762 141.574 88.1192C142.142 88.4378 142.701 88.7545 142.802 89.5289Z" fill="#464F6D"/>
<path d="M124.079 87.8218C124.204 86.896 124.369 85.6931 124.527 84.4892C124.552 84.3018 124.651 84.2455 124.825 84.2596C124.941 84.2692 125.061 84.2745 125.176 84.2587C125.506 84.2138 125.601 84.308 125.543 84.6635C125.363 85.745 125.224 86.8344 125.074 87.9212C125.001 88.4554 125.164 88.81 125.513 88.906C125.958 89.0283 126.405 88.7863 126.599 88.3049C126.766 87.8931 126.761 87.4804 126.58 87.0685C126.451 86.7746 126.331 86.4772 126.306 86.1489C126.287 85.8893 126.331 85.7177 126.65 85.7547C126.809 85.7732 126.972 85.7556 127.133 85.76C127.2 85.7617 127.305 85.7397 127.309 85.8356C127.329 86.5018 127.816 87.0342 127.787 87.732C127.711 89.5545 125.824 90.0491 124.72 89.4824C124.168 89.1981 124.029 88.6816 124.079 87.8218Z" fill="#464F6D"/>
<path d="M131.433 84.2868C131.857 84.1628 132.004 84.315 131.989 84.7277C131.971 85.2768 132.276 85.7309 132.527 86.1894C132.912 86.8908 133.041 87.6159 132.789 88.385C132.409 89.5484 130.798 90.1045 129.766 89.4366C129.207 89.074 128.994 88.3894 129.202 87.5983C129.239 87.4575 129.295 87.3211 129.353 87.1873C129.56 86.7165 129.982 86.6364 130.355 86.9858C130.466 87.0888 130.38 87.1644 130.353 87.256C130.283 87.4936 130.199 87.7303 130.163 87.974C130.112 88.3084 130.163 88.6296 130.508 88.8004C130.828 88.9596 131.311 88.8426 131.542 88.5469C131.908 88.0761 131.914 87.5384 131.742 87.0043C131.637 86.6743 131.454 86.368 131.3 86.0539C131.107 85.6588 130.93 85.2645 130.918 84.8078C130.91 84.418 130.918 84.0924 131.433 84.2868Z" fill="#464F6D"/>
</svg>
