<svg width="302" height="96" viewBox="0 0 302 96" fill="none" xmlns="http://www.w3.org/2000/svg">
<path d="M99.4133 46.1498C101.246 45.5898 103.083 45.0429 104.911 44.4678C109.765 42.9424 114.691 41.705 119.679 40.6855C122.834 40.0403 125.982 39.3596 129.144 38.7522C133.73 37.8719 138.331 37.0767 142.95 36.3809C146.674 35.8199 150.409 35.3603 154.147 34.9169C159.813 34.2448 165.493 33.7507 171.194 33.4648C175.795 33.235 180.396 33.1854 184.996 33.3159C190.793 33.481 196.568 33.9449 202.307 34.8015C206.982 35.4995 211.634 36.3399 216.181 37.6259C220.513 38.8504 224.698 40.4654 228.534 42.8561C230.51 44.087 232.305 45.5273 233.678 47.4325C235.767 50.3313 236.02 53.42 234.661 56.6749C233.848 58.6254 232.628 60.3148 231.207 61.8673C228.398 64.9377 225.114 67.4319 221.592 69.6349C221.487 69.6425 221.418 69.7029 221.363 69.7849C221.33 69.8064 221.295 69.828 221.261 69.8496C221.15 69.8496 221.038 69.8496 220.927 69.8496L220.911 69.8334C220.949 69.6921 220.988 69.5497 221.026 69.4084L221.025 69.4094C221.152 69.4105 221.234 69.3566 221.254 69.226C222.557 68.0889 223.877 66.9669 225.08 65.722C227.3 63.4251 229.281 60.9654 230.447 57.9554C231.133 56.184 231.425 54.3618 231.156 52.4609C230.99 51.2872 230.331 50.3583 229.681 49.438C227.951 46.9912 225.63 45.2047 223.029 43.7515C219.257 41.6435 215.182 40.337 211 39.324C206.12 38.1426 201.166 37.3961 196.171 36.9128C187.999 36.1231 179.805 35.7627 171.594 35.889C167.502 35.9515 163.414 36.1522 159.332 36.4758C155.505 36.779 151.684 37.1264 147.878 37.6129C143.266 38.202 138.676 38.9539 134.078 39.6368C131.29 40.0511 128.473 40.2949 125.684 40.7297C120.603 41.5215 115.58 42.5842 110.599 43.8508C106.986 44.7699 103.41 45.8142 99.8483 46.9114C99.6243 46.9805 99.3959 47.0366 99.1697 47.098C98.9805 46.8456 99.0273 46.5727 99.0979 46.2976C99.2013 46.2468 99.3067 46.1983 99.4133 46.1498Z" fill="#464F6D"/>
<path d="M99.0957 46.2954C99.025 46.5705 98.9783 46.8435 99.1675 47.0959C99.0185 47.4217 99.0827 47.7691 99.0805 48.1046C99.0457 53.7469 99.0185 59.3882 98.9902 65.0305C98.9859 65.886 98.7564 66.2851 98.1518 66.489C97.5297 66.6994 96.5945 66.3974 96.1954 65.8709C96.0159 65.6335 96.0257 65.3692 96.029 65.0995C96.0823 60.0333 96.1356 54.9671 96.1867 49.9009C96.1921 49.3086 96.1791 48.7163 96.1758 48.124C96.2247 47.8403 96.2193 47.5566 96.1801 47.2728C96.2269 45.1961 96.2171 43.1182 96.4053 41.0447C96.5107 39.8796 96.7707 38.7544 97.0828 37.6356C97.6831 36.232 98.9772 35.4488 100.001 34.4228C100.063 34.4379 100.094 34.4185 100.086 34.3506C100.131 34.3096 100.175 34.2686 100.219 34.2276C100.285 34.234 100.322 34.2082 100.319 34.138C100.359 34.0992 100.4 34.0603 100.439 34.0215C100.509 34.0269 100.546 33.9945 100.552 33.9244C100.591 33.8899 100.629 33.8564 100.668 33.8219L100.664 33.8252C100.891 33.7993 101.016 33.645 101.12 33.4648C101.161 33.4659 101.182 33.4454 101.18 33.4044C102.24 32.6924 103.136 31.7862 104.104 30.9662C106.635 28.8226 109.143 26.6509 111.66 24.4878C111.862 24.3142 112.108 24.1793 112.202 23.9053L112.191 23.9096C112.779 23.6485 113.17 23.1371 113.668 22.7617C114.454 22.1694 115.333 22.2374 115.972 22.984C116.56 23.6722 116.479 24.3778 115.709 25.0434C114.049 26.4761 112.368 27.8862 110.718 29.3318C110.007 29.9554 109.229 30.5088 108.606 31.2295L108.598 31.236C108.134 31.5208 107.698 31.839 107.382 32.2932L107.392 32.2889C107.172 32.304 107.048 32.482 106.904 32.605C104.895 34.3236 102.903 36.0594 100.887 37.7683C100.417 38.1664 100.107 38.6378 99.8744 39.1913C98.9054 41.487 99.0022 43.8907 99.0957 46.2954Z" fill="#464F6D"/>
<path d="M88.9961 55.1537C88.994 54.8786 88.9929 54.6024 88.9907 54.3295C88.9831 52.8062 88.9744 51.2807 88.9668 49.7541C89.0125 47.2922 89.0396 44.8293 88.9461 42.3695C88.9102 41.4223 88.7167 40.4772 88.3719 39.5818C88.1414 38.9831 87.9467 38.3563 87.4312 37.9129C85.0039 35.8275 82.5745 33.7453 80.1482 31.6578C77.5013 29.3803 74.8521 27.1051 72.2138 24.8158C71.5178 24.2117 71.5363 23.3799 72.2117 22.7595C72.9533 22.0777 73.6961 22.0723 74.4824 22.7466C79.2902 26.8677 84.073 31.018 88.9189 35.0949C90.2609 36.2245 91.1113 37.5353 91.3908 39.2398C91.6116 40.5894 91.7149 41.9499 91.7627 43.3135C91.8269 45.1087 91.8421 46.9049 91.8791 48.7012C91.8302 48.9839 91.8302 49.2654 91.8845 49.547C91.8813 49.6916 91.8791 49.8372 91.8758 49.9796C91.8758 50.0994 91.8758 50.2224 91.8758 50.3454C91.8758 50.6474 91.8748 50.9506 91.8748 51.2505C91.8737 51.2764 91.8737 51.3034 91.8748 51.3314C91.8769 51.5968 91.878 51.8622 91.8802 52.1254C91.9106 54.0026 91.8791 55.883 91.9476 57.7645C92.0346 60.1649 91.977 62.5707 91.9835 64.9733C91.9846 65.188 91.9889 65.4026 91.8998 65.6044C91.5126 66.2884 90.7416 66.5829 89.8955 66.3693C89.3322 66.2269 89.0592 65.7856 89.0538 64.9744C89.0353 62.4779 89.0222 59.9826 89.007 57.4862V57.5002C89.0027 57.1604 88.9994 56.8205 88.9951 56.4839C88.9972 56.0416 88.9961 55.5971 88.9961 55.1537Z" fill="#464F6D"/>
<path d="M205.955 64.6648C206.047 64.7565 206.102 64.8654 206.105 64.9971C205.996 65.1168 205.99 65.3455 205.736 65.3121C204.974 65.2096 204.17 65.5332 203.439 65.0952C203.285 64.805 203.221 64.4868 203.152 64.1717C203.018 63.5514 203.019 63.5493 202.485 63.9409C201.472 64.6853 200.393 65.3132 199.145 65.5613C197.481 65.8936 195.822 65.9173 194.27 65.1028C192.716 64.2883 191.978 62.9807 191.989 61.2341C191.999 59.4831 192.763 58.2155 194.343 57.4204C195.796 56.6889 197.374 56.4915 198.956 56.2865C199.98 56.1538 200.999 55.9953 201.997 55.7245C202.88 55.4839 202.899 55.485 202.853 54.5647C202.805 53.6186 202.552 52.7512 201.693 52.1913C201.247 51.9011 200.749 51.7554 200.219 51.681C199.331 51.5558 198.451 51.5763 197.574 51.7565C196.251 52.0284 195.528 52.9109 195.187 54.1397C195.084 54.5108 194.957 54.6338 194.556 54.5442C194.012 54.4212 193.449 54.3695 192.894 54.3015C192.576 54.2626 192.429 54.1968 192.523 53.7977C193.05 51.572 194.463 50.231 196.661 49.697C198.409 49.272 200.194 49.2245 201.94 49.6539C204.69 50.3292 205.368 51.6486 205.471 54.2389C205.562 56.5368 205.525 58.8391 205.551 61.1391C205.563 62.1975 205.567 63.258 205.82 64.2969C205.811 64.4382 205.754 64.5979 205.955 64.6648ZM202.868 58.5068C202.86 58.5057 202.851 58.5057 202.843 58.5046C202.843 58.4151 202.844 58.3255 202.843 58.2349C202.838 57.5768 202.838 57.5811 202.187 57.7743C201.46 57.9911 200.727 58.1831 199.98 58.3277C198.775 58.5596 197.542 58.6567 196.375 59.0678C195.283 59.4529 194.787 60.1574 194.81 61.2589C194.832 62.3032 195.472 63.1576 196.478 63.4737C197.053 63.6539 197.645 63.7294 198.246 63.6863C200.197 63.546 202.296 62.6625 202.711 60.0581C202.793 59.5457 202.817 59.0246 202.868 58.5068Z" fill="#464F6D"/>
<path d="M157.173 58.2834C155.415 58.2834 153.658 58.2942 151.9 58.2748C151.498 58.2705 151.363 58.3697 151.4 58.7894C151.555 60.5555 152.244 62.0453 153.792 62.9828C156.138 64.4047 158.879 63.4327 159.949 60.8467C160.102 60.4767 160.254 60.3537 160.66 60.4368C161.226 60.5511 161.806 60.6213 162.384 60.6428C162.895 60.6623 162.88 60.8802 162.744 61.2513C161.925 63.4813 160.453 65.0229 158.061 65.5429C156.195 65.9485 154.347 65.8579 152.582 65.0725C150.899 64.3227 149.802 63.0152 149.232 61.3031C148.375 58.7257 148.415 56.1398 149.419 53.6067C150.619 50.5741 153.375 49.1683 156.583 49.4154C159.991 49.6786 162.423 52.2409 162.854 55.8582C162.932 56.5195 162.96 57.1819 162.972 57.8465C162.979 58.2144 162.842 58.2921 162.5 58.2899C160.724 58.2759 158.949 58.2834 157.173 58.2834ZM155.821 56.1053C155.821 56.1063 155.821 56.1074 155.821 56.1085C157.087 56.1085 158.354 56.0912 159.62 56.1182C160.053 56.1279 160.169 55.9974 160.151 55.5723C160.059 53.3316 158.192 51.6238 155.85 51.599C153.16 51.5709 151.7 53.9152 151.536 55.691C151.504 56.0405 151.656 56.1128 151.97 56.1096C153.252 56.0977 154.537 56.1053 155.821 56.1053Z" fill="#464F6D"/>
<path d="M217.123 65.6982C216.972 65.7069 216.821 65.7155 216.67 65.7231C216.421 65.6163 216.172 65.6152 215.923 65.7241C215.849 65.7209 215.775 65.7187 215.702 65.7155C215.44 65.4544 215.111 65.5396 214.798 65.544L214.756 65.5461L214.719 65.5267C214.594 65.1588 214.048 65.2894 213.95 64.888C214.109 64.8762 214.327 64.8956 214.344 64.6992C214.363 64.4608 214.14 64.3486 213.951 64.2472C213.657 64.0897 213.314 63.9721 213.798 63.5988C213.927 63.4996 214.12 63.3032 214.065 63.054C214.115 63.0734 214.169 63.0875 214.215 63.1112C216.19 64.1242 218.267 63.5654 219.355 61.6612C220.662 59.372 220.548 56.9403 219.871 54.5096C219.605 53.5516 219.071 52.6929 218.188 52.1362C216.354 50.9786 213.961 51.5989 212.923 53.6336C211.497 56.4321 211.505 59.2792 213.02 62.0777C212.939 62.0464 212.84 62.0334 212.779 61.9795C212.673 61.8846 212.566 61.8392 212.436 61.8964C212.353 61.9331 212.359 62.0162 212.403 62.0777C212.489 62.1963 212.593 62.3107 212.76 62.2708C212.864 62.246 212.96 62.1899 213.059 62.1467C213.334 62.4067 213.608 62.6667 213.884 62.9267C213.585 63.0788 213.44 63.5395 212.798 63.191C212.641 63.1026 212.19 63.1716 212.43 63.4348C212.53 63.5449 212.76 63.5212 212.878 63.41C213.195 63.1101 212.442 63.1813 212.798 63.191C213.304 63.7531 213.178 64.3551 213.627 64.6744C213.135 64.7478 212.973 64.1587 212.53 64.1361L212.533 64.1415C212.522 64.0552 212.542 63.9419 212.493 63.8858C212.382 63.7563 212.284 63.5643 212.071 63.6021C211.806 63.6495 211.903 63.8772 211.891 64.0379C211.876 64.2332 211.89 64.4306 211.887 64.6259C211.876 65.2117 211.526 65.4598 210.966 65.2732C210.842 65.2322 210.769 65.1254 210.584 65.1955C209.811 65.49 209.714 65.407 209.716 64.5579C209.78 64.5849 209.877 64.5946 209.906 64.6421C210.122 65.0207 210.345 64.7942 210.501 64.6205C210.689 64.4123 210.545 64.3163 210.319 64.2051C210.037 64.066 210.083 63.8642 210.352 63.6938C210.647 63.5082 210.832 63.2148 211.05 62.9483C211.365 62.561 211.078 61.9849 211.553 61.6461C212.012 61.3203 212.02 60.8748 211.667 60.4411C211.525 60.2663 211.545 59.8391 211.204 59.975C210.929 60.0851 210.954 60.4519 210.954 60.7356C210.954 60.8036 211.008 60.8715 211.011 60.9406C211.027 61.2308 211.011 61.5846 210.783 61.7281C210.31 62.027 210.313 62.4067 210.434 62.848C210.501 63.0939 210.411 63.2644 210.158 63.5147C210.158 62.4844 210.157 61.5717 210.161 60.6601C210.161 60.5932 210.186 60.5112 210.228 60.4605C210.627 59.989 210.512 59.4237 210.458 58.9059C210.301 57.4171 210.331 55.9499 210.643 54.4784C210.748 53.981 211.094 53.4405 210.623 52.9194C210.548 52.8364 210.591 52.6422 210.59 52.4987C210.586 52.0855 210.588 51.6723 210.587 51.2591C210.587 51.0789 210.583 50.9387 210.355 50.8384C210.06 50.7078 210.04 49.8167 210.331 49.697C210.586 49.5912 210.588 49.4391 210.587 49.2395C210.587 48.4487 210.59 47.658 210.585 46.8672C210.584 46.7151 210.645 46.5025 210.43 46.4583C210.118 46.3957 210.164 46.1778 210.151 45.9653C210.124 45.5359 210.226 45.0946 210.08 44.6405C209.866 44.7861 209.941 44.9609 209.939 45.1054C209.929 45.7161 209.935 46.3278 209.935 46.9384C209.935 52.5095 209.936 58.0817 209.928 63.6528C209.928 63.8534 210.076 64.1447 209.715 64.2299C209.715 57.7871 209.714 51.3433 209.714 44.9005C209.714 43.9554 209.723 43.9478 210.696 43.9554C210.735 44.1636 210.442 44.1269 210.428 44.3006C211.366 44.5822 211.543 44.7246 211.46 45.6805C211.445 45.8401 211.44 46.0052 211.463 46.1638C211.485 46.3159 211.341 46.5824 211.621 46.5899C211.871 46.5964 211.896 46.3644 211.895 46.1508C211.89 45.4884 211.896 44.8249 211.898 44.1625C211.984 44.1679 212.071 44.1744 212.157 44.1798C212.212 46.3731 212.221 48.5653 212.151 50.7585C212.145 50.7682 212.133 50.7801 212.134 50.7887C212.138 50.8103 212.148 50.8308 212.157 50.8513C212.158 50.9333 212.159 51.0164 212.159 51.0984C212.088 51.2149 212.054 51.3616 212.174 51.4317C212.323 51.5191 212.384 51.2634 212.537 51.2796L212.545 51.2904C212.541 51.5223 212.868 51.6982 212.641 51.9765C212.462 52.1955 212.583 52.4318 212.72 52.6141C212.806 52.7285 212.965 52.612 213.064 52.5591C213.293 52.435 213.475 52.2581 213.4 51.9604C213.361 51.805 213.302 51.654 213.253 51.5008C213.194 51.3163 213.269 51.1469 213.428 51.1048C213.644 51.0477 213.909 50.9872 214.09 51.1847C214.249 51.3573 214.025 51.4662 213.956 51.5946C213.871 51.7554 213.635 51.8341 213.699 52.1276C214.066 51.9323 214.36 51.6432 214.751 51.5288C214.953 51.4695 214.966 51.3303 214.816 51.1609C214.643 50.9646 214.766 50.8869 214.973 50.8578C215.149 50.833 215.331 50.8125 215.497 50.7542C215.966 50.5902 215.999 50.4165 215.641 50.0843C215.709 49.9127 215.974 50.2094 215.971 49.971C215.967 49.7585 215.746 49.7876 215.589 49.7757C215.608 49.6592 215.664 49.5858 215.793 49.5686C217.27 49.3712 218.577 49.8329 219.784 50.6194C220.005 50.7628 220.193 50.8891 220.459 50.8643C221.371 51.5666 221.992 52.4901 222.373 53.5506C223.406 56.4289 223.368 59.3061 222.058 62.0809C221.245 63.8038 219.883 65.0132 217.976 65.5224C217.679 65.5245 217.376 65.4879 217.123 65.6982ZM211.421 58.77C211.438 58.6675 211.436 58.5574 211.473 58.4636C211.875 57.4376 211.671 56.3998 211.535 55.3641C211.517 55.2281 211.439 55.0868 211.258 55.075C211.143 55.0674 211.046 55.103 210.976 55.199C210.858 55.3587 210.867 56.5508 211.032 56.6436C211.29 56.7892 211.227 56.9985 211.239 57.2024C211.271 57.7246 211.177 58.2554 211.421 58.77ZM211.052 64.8762C211.306 64.8816 211.45 64.7855 211.454 64.5385C211.456 64.3928 211.452 64.2148 211.243 64.2634C211.072 64.3033 210.829 64.2936 210.811 64.5687C210.798 64.7575 210.856 64.8826 211.052 64.8762Z" fill="#464F6D"/>
<path d="M127.062 56.6803C127.062 57.2564 127.061 57.8325 127.061 58.4086C126.741 58.496 126.867 58.7593 126.866 58.9481C126.857 60.904 126.863 62.861 126.86 64.8169C126.859 65.2938 126.6 65.4826 126.184 65.256C125.694 64.9885 125.234 65.0737 124.748 65.2355C124.632 65.0359 124.69 64.8169 124.689 64.6087C124.685 60.0496 124.682 55.4915 124.689 50.9323C124.69 49.8481 124.541 50.0078 125.641 49.998C126.607 49.9894 126.615 49.9959 126.639 50.9345C126.644 51.1621 126.775 51.3779 126.669 51.6195C126.608 51.7587 126.655 51.9184 126.854 51.9292C127.008 51.9378 127.229 51.9993 127.265 51.7889C127.3 51.5861 127.534 51.4836 127.488 51.2614L127.483 51.2668C127.829 51.1772 128.037 50.9485 128.149 50.6216L128.144 50.627C128.289 50.6497 128.371 50.5892 128.386 50.4436C130.567 48.779 134.284 49.1253 136.008 51.147C136.804 52.0813 137.036 53.2065 137.053 54.3673C137.096 57.6017 137.09 60.8371 137.1 64.0714C137.101 64.4846 137.085 64.8968 137.077 65.31C136.613 65.311 136.148 65.2948 135.686 65.3164C135.217 65.338 134.763 65.3639 134.486 64.8806C134.48 61.9364 134.475 58.9923 134.467 56.0482C134.465 55.2379 134.406 54.4321 134.165 53.6531C133.812 52.5085 133.042 51.9065 131.831 51.8051C129.503 51.612 128.174 52.4136 127.31 54.5324C127.161 54.5399 127.079 54.6144 127.079 54.7665C127.078 55.1344 127.031 55.4807 126.894 55.841C126.812 56.0611 126.669 56.4711 127.062 56.6803Z" fill="#464F6D"/>
<path d="M176.444 65.0941C176.306 63.7693 176.416 62.4402 176.408 61.1143C176.379 55.4903 176.401 49.8664 176.391 44.2424C176.39 43.8961 176.515 43.813 176.832 43.8227C177.448 43.8422 178.067 43.867 178.679 43.8206C179.186 43.7818 179.272 43.9781 179.271 44.4323C179.256 50.2548 179.261 56.0762 179.262 61.8986C179.262 62.848 179.264 62.8458 180.196 62.8458C183.113 62.8458 186.029 62.8458 188.946 62.848C189.127 62.848 189.306 62.8685 189.487 62.8793C189.832 63.4521 189.654 64.0876 189.715 64.695C189.766 65.1977 189.577 65.3228 189.083 65.3207C185.197 65.3013 181.313 65.3131 177.427 65.3034C177.131 65.3024 176.723 65.4858 176.613 64.9819C176.558 65.0197 176.502 65.0575 176.444 65.0941Z" fill="#464F6D"/>
<path d="M118.569 26.8321C119.241 26.8246 119.95 27.3068 120.163 27.9163C120.394 28.5777 120.219 29.0416 119.609 29.5648C116.851 31.9285 114.103 34.3041 111.348 36.6711C109.056 38.6389 106.766 40.6099 104.459 42.5615C103.536 43.3426 102.377 43.088 101.824 42.0286C101.52 41.4449 101.65 40.8289 102.216 40.3434C105.421 37.5924 108.632 34.8479 111.839 32.099C113.724 30.484 115.608 28.8679 117.482 27.2421C117.804 26.9627 118.155 26.8332 118.569 26.8321Z" fill="#464F6D"/>
<path d="M85.3335 41.1505C84.4537 42.3955 83.5239 42.4818 82.3516 41.4699C79.7187 39.1978 77.0718 36.942 74.4313 34.6786C74.4096 34.6311 74.4009 34.5696 74.365 34.5383C73.2971 33.6149 72.2422 32.6763 71.1503 31.7808C70.4783 31.2296 69.8758 30.592 69.1287 30.1302L69.1417 30.1345C68.5088 29.457 67.778 28.8885 67.07 28.2951C67.07 28.2951 67.0755 28.3081 67.0744 28.3081C67.0657 28.2552 67.0646 28.2002 67.0461 28.1506C66.7655 27.3684 66.9297 26.7718 67.5572 26.3025C68.1325 25.8731 68.9101 25.8807 69.5202 26.3327C69.7214 26.4827 69.9019 26.6585 70.0965 26.8182C70.9676 27.5335 71.755 28.348 72.6946 28.9823L72.6902 28.9705C72.6968 29.0449 72.7381 29.0805 72.8131 29.0805L72.8055 29.0773C72.8686 29.2585 73.0274 29.3578 73.1622 29.4732C76.9913 32.7593 80.8182 36.0476 84.6582 39.3219C85.2443 39.8236 85.5684 40.3738 85.3335 41.1505Z" fill="#464F6D"/>
<path d="M141.527 57.5897C141.527 55.6662 141.516 54.0134 141.534 52.3606C141.539 51.9819 141.415 51.8287 141.041 51.8795C141.005 51.8838 140.968 51.8848 140.932 51.8795C140.498 51.8126 139.829 52.106 139.674 51.7306C139.463 51.2224 139.601 50.5687 139.606 49.9775C139.608 49.7725 139.791 49.7941 139.934 49.7919C140.314 49.7887 140.696 49.766 141.074 49.7951C141.433 49.8232 141.544 49.7024 141.537 49.3464C141.516 48.3409 141.542 47.3343 141.525 46.3289C141.519 46.0235 141.605 45.8337 141.88 45.6794C142.511 45.3255 143.13 44.9523 143.74 44.565C144.091 44.3427 144.153 44.4549 144.15 44.8152C144.137 46.3062 144.157 47.7982 144.134 49.2881C144.127 49.6948 144.246 49.8221 144.653 49.7951C145.195 49.7606 145.741 49.807 146.282 49.7822C146.646 49.7649 146.815 49.8523 146.788 50.2526C146.76 50.6636 146.775 51.079 146.807 51.49C146.832 51.818 146.686 51.8881 146.394 51.8805C145.779 51.8654 145.162 51.8946 144.548 51.8633C144.221 51.846 144.139 51.9658 144.14 52.2592C144.149 55.349 144.129 58.4398 144.164 61.5296C144.179 62.8695 144.733 63.3108 146.129 63.1177C146.69 63.04 146.876 63.1792 146.911 63.7143C146.939 64.1598 147.036 64.6043 147.139 65.0402C147.207 65.325 147.115 65.4178 146.844 65.4652C145.765 65.654 144.69 65.7328 143.618 65.4296C142.435 65.0941 141.797 64.3476 141.646 63.1328C141.408 61.1984 141.6 59.2555 141.527 57.5897Z" fill="#464F6D"/>
<path d="M116.848 64.8827C116.834 64.723 116.809 64.5633 116.809 64.4037C116.807 57.7365 116.813 51.0693 116.793 44.4031C116.792 43.881 116.96 43.7742 117.431 43.8065C117.99 43.8454 118.555 43.8529 119.113 43.8087C119.54 43.7753 119.683 43.8745 119.674 44.3211C119.647 45.7765 119.665 47.2318 119.665 48.6883C119.664 53.9541 119.664 59.2188 119.661 64.4846C119.661 64.682 119.645 64.8783 119.636 65.0758C119.528 65.0046 119.647 64.8212 119.478 64.764C119.485 65.0229 119.428 65.3066 119.142 65.2808C118.368 65.2106 117.493 65.6756 116.848 64.8827Z" fill="#464F6D"/>
<path d="M168.626 51.8795C168.843 51.4016 169.149 50.9819 169.497 50.5925C170.903 49.0163 172.596 49.1274 174.343 50.1329C174.52 50.2343 174.552 50.3476 174.483 50.5288C174.242 51.1654 173.997 51.8019 173.778 52.4459C173.689 52.707 173.558 52.6779 173.376 52.5743C173.075 52.4039 172.751 52.3014 172.412 52.2323C170.916 51.9302 169.775 52.5527 169.231 53.9714C169.173 54.1203 169.107 54.2659 169.045 54.4126C168.977 54.3921 168.859 54.3576 168.856 54.4234C168.833 54.8992 168.591 55.3167 168.598 55.8184C168.634 58.8013 168.608 61.7843 168.624 64.7684C168.626 65.188 168.517 65.3563 168.077 65.3175C167.681 65.2819 167.277 65.2776 166.883 65.3186C166.366 65.3715 166.21 65.201 166.212 64.6734C166.233 60.0733 166.224 55.4721 166.224 50.8719C166.224 50.0865 166.273 50.0369 167.051 49.9927C167.141 49.9873 167.228 49.9527 167.317 49.9441C168.132 49.8589 168.388 50.0951 168.399 50.9107C168.402 51.1761 168.333 51.4491 168.457 51.7069C168.471 51.7846 168.485 51.8623 168.499 51.94C168.602 52.0468 168.604 51.9432 168.626 51.8795Z" fill="#464F6D"/>
<path d="M88.8026 49.7649C88.858 49.7617 88.9124 49.7574 88.9679 49.7542C88.9755 51.2796 88.9842 52.8062 88.9918 54.3295C88.9864 53.2528 88.9668 52.1783 88.9809 51.1049C88.9864 50.7046 88.8907 50.6064 88.4916 50.7542C85.7489 51.7673 83.0008 52.7652 80.2537 53.7653C79.1532 54.1655 78.0494 54.5604 76.9467 54.9574C76.7552 54.9962 76.4888 54.8409 76.4051 55.1613C76.354 55.1753 76.3028 55.1882 76.2506 55.2023C76.0549 55.199 75.8091 55.0739 75.7558 55.4083L75.733 55.4256L75.7047 55.4191C75.5405 55.3954 75.3665 55.3468 75.3154 55.5831C75.2882 55.6068 75.2567 55.6165 75.2208 55.6111C75.0055 55.6877 74.6564 55.4062 74.577 55.8474L74.5748 55.842C74.3932 55.8334 74.1779 55.7406 74.1191 56.0276C74.0669 56.0394 74.0158 56.0513 73.9636 56.0643C73.757 56.02 73.571 56.0297 73.4677 56.2531L73.4405 56.2746L73.4057 56.2725C73.1991 56.2121 72.9501 56.3318 72.701 56.1204C73.1306 55.9812 73.5656 55.9844 73.7907 55.595C73.8059 55.5755 73.8244 55.5701 73.8473 55.5809C74.279 55.65 74.6259 55.5184 74.8771 55.157C74.8902 55.1365 74.9065 55.1321 74.9272 55.1451C75.0957 55.1721 75.2697 55.2131 75.3176 54.9725C77.0086 54.2939 78.691 53.5937 80.3918 52.9432C82.9877 51.9496 85.5966 50.9894 88.199 50.0141C88.4056 49.9365 88.6025 49.848 88.8026 49.7649Z" fill="#464F6D"/>
<path d="M127.488 51.2602C127.534 51.4825 127.3 51.585 127.265 51.7878C127.229 51.9982 127.008 51.9367 126.854 51.928C126.654 51.9172 126.607 51.7576 126.669 51.6184C126.776 51.3767 126.645 51.161 126.639 50.9333C126.615 49.9948 126.606 49.9883 125.641 49.9969C124.541 50.0066 124.69 49.8459 124.689 50.9312C124.684 55.4903 124.686 60.0484 124.689 64.6076C124.689 64.8158 124.632 65.0348 124.748 65.2344C125.234 65.0726 125.694 64.9873 126.184 65.2549C126.601 65.4825 126.86 65.2926 126.86 64.8158C126.863 62.8599 126.857 60.9029 126.866 58.9469C126.867 58.7581 126.742 58.4949 127.061 58.4075C127.071 60.6321 127.077 62.8555 127.097 65.0801C127.099 65.3876 126.948 65.4307 126.694 65.4275C126.116 65.4178 125.535 65.3962 124.959 65.434C124.528 65.462 124.462 65.2948 124.463 64.9096C124.477 61.0334 124.469 57.1571 124.469 53.2809C124.469 52.2582 124.482 51.2354 124.464 50.2127C124.457 49.8815 124.563 49.7671 124.896 49.7812C125.401 49.8027 125.909 49.8081 126.415 49.7801C126.791 49.7596 126.877 49.9192 126.861 50.2548C126.838 50.7305 126.855 51.2084 126.855 51.7047C127.197 51.6659 127.226 51.3088 127.488 51.2602Z" fill="#464F6D"/>
<path d="M210.697 43.9576C209.724 43.95 209.714 43.9587 209.715 44.9026C209.715 51.3454 209.716 57.7893 209.716 64.2321C209.716 64.3411 209.716 64.449 209.716 64.5579C209.714 65.407 209.811 65.489 210.584 65.1955C210.77 65.1254 210.842 65.2322 210.966 65.2732C211.526 65.4598 211.876 65.2117 211.887 64.6259C211.89 64.4295 211.876 64.2321 211.891 64.0379C211.904 63.8772 211.806 63.6485 212.071 63.6021C212.284 63.5643 212.382 63.7564 212.493 63.8858C212.54 63.9419 212.521 64.0541 212.533 64.1415C212.368 64.1188 212.287 63.8524 212.123 63.9344C211.947 64.0228 211.996 64.2494 211.99 64.4252C211.96 65.4339 211.961 65.4339 210.958 65.4329C210.65 65.4329 210.338 65.4037 210.036 65.4404C209.58 65.4954 209.504 65.2958 209.505 64.8902C209.516 58.0288 209.515 51.1674 209.503 44.305C209.502 43.9112 209.597 43.7591 210.014 43.7817C210.61 43.8141 211.209 43.7947 211.806 43.7871C212.091 43.7839 212.288 43.8335 212.158 44.182C212.072 44.1766 211.985 44.1701 211.899 44.1647C211.867 43.9468 211.701 43.9554 211.54 43.9565C211.258 43.9554 210.978 43.9565 210.697 43.9576Z" fill="#464F6D"/>
<path d="M168.458 51.7069C168.334 51.449 168.403 51.1761 168.4 50.9107C168.389 50.0951 168.134 49.8588 167.318 49.9441C167.229 49.9538 167.142 49.9872 167.053 49.9926C166.274 50.0368 166.225 50.0865 166.225 50.8719C166.225 55.4731 166.234 60.0732 166.213 64.6734C166.211 65.202 166.367 65.3725 166.884 65.3185C167.279 65.2775 167.683 65.2829 168.078 65.3175C168.519 65.3563 168.627 65.188 168.625 64.7683C168.609 61.7853 168.635 58.8013 168.599 55.8183C168.592 55.3177 168.834 54.8991 168.857 54.4234C168.86 54.3576 168.979 54.3921 169.046 54.4126C168.509 57.716 168.826 61.0442 168.761 64.3616C168.74 65.4243 168.783 65.434 167.744 65.421C167.222 65.4145 166.537 65.6422 166.222 65.3369C165.88 65.0057 166.114 64.3174 166.113 63.7866C166.104 59.3127 166.116 54.8387 166.096 50.3648C166.093 49.8772 166.228 49.7358 166.7 49.7768C167.168 49.8168 167.642 49.7952 168.112 49.7801C168.385 49.7714 168.511 49.8556 168.497 50.1458C168.471 50.6669 168.47 51.1869 168.458 51.7069Z" fill="#464F6D"/>
<path d="M91.8802 48.7001C91.9433 48.671 92.0064 48.6419 92.0694 48.6128C93.4397 48.1661 94.8088 47.7206 96.178 47.2739C96.2161 47.5577 96.2226 47.8414 96.1737 48.1251C94.7447 48.5987 93.3146 49.0723 91.8856 49.546C91.8324 49.2644 91.8324 48.9828 91.8802 48.7001Z" fill="#464F6D"/>
<path d="M73.7951 55.595C73.57 55.9834 73.135 55.9801 72.7054 56.1204C72.9544 56.3318 73.2024 56.2131 73.4101 56.2725C72.5488 56.7299 71.6049 56.9824 70.7022 57.3351C69.3418 57.867 67.965 58.3611 66.5937 58.8671C66.4392 58.9243 66.2826 59.0418 66.1195 58.9555C66.0836 58.8272 66.1336 58.7743 66.2011 58.7452C68.7121 57.6501 71.221 56.5443 73.7951 55.595Z" fill="#464F6D"/>
<path d="M176.444 65.0941C176.501 65.0564 176.558 65.0197 176.615 64.9819C176.725 65.4857 177.134 65.3034 177.429 65.3034C181.315 65.3131 185.2 65.3013 189.085 65.3207C189.579 65.3228 189.768 65.1988 189.717 64.695C189.655 64.0876 189.834 63.4521 189.489 62.8793C189.569 62.8825 189.65 62.8847 189.73 62.8879C189.75 62.9084 189.773 62.9246 189.8 62.9354C189.98 63.6927 189.847 64.4598 189.869 65.2225C189.875 65.4296 189.708 65.4232 189.561 65.4232C189.253 65.4232 188.946 65.4232 188.638 65.4232C184.753 65.4242 180.866 65.4275 176.98 65.4178C176.773 65.4178 176.366 65.613 176.444 65.0941Z" fill="#464F6D"/>
<path d="M220.459 50.8654C220.193 50.8902 220.005 50.764 219.784 50.6205C218.577 49.834 217.27 49.3723 215.793 49.5697C215.664 49.587 215.608 49.6603 215.589 49.7779C215.516 49.779 215.444 49.7801 215.371 49.7811C215.23 49.7833 215.159 49.8556 215.154 49.9948C215.081 49.9948 215.009 49.9958 214.937 49.9958C214.47 49.8685 214.08 50.1738 213.644 50.2224L213.617 50.1943C215.154 49.1673 216.81 49.218 218.495 49.6981C219.242 49.9106 219.929 50.2688 220.459 50.8654Z" fill="#464F6D"/>
<path d="M91.9019 65.6033C91.9911 65.4005 91.9867 65.1869 91.9856 64.9722C91.9791 62.5686 92.0357 60.1639 91.9497 57.7635C91.8823 55.882 91.9128 54.0016 91.8823 52.1244C92.0172 56.3923 91.9693 60.6591 91.99 64.9248C91.9911 65.1395 91.9802 65.3541 91.9737 65.5699C91.9737 65.5861 91.9639 65.6098 91.9519 65.6174C91.94 65.6217 91.9193 65.6087 91.9019 65.6033Z" fill="#464F6D"/>
<path d="M220.526 70.3081C220.028 70.7515 219.395 70.9899 218.864 71.3848C218.794 71.4376 218.688 71.4614 218.62 71.3761C218.527 71.2596 218.616 71.169 218.706 71.114C219.283 70.7558 219.751 70.2444 220.366 69.9413C220.37 70.0848 220.375 70.2283 220.526 70.3081ZM220.018 70.4505C220.05 70.4386 220.096 70.4332 220.107 70.4106C220.117 70.3901 220.088 70.3512 220.076 70.32C220.044 70.3329 219.997 70.3372 219.987 70.3599C219.977 70.3804 220.005 70.4203 220.018 70.4505Z" fill="#464F6D"/>
<path d="M212.53 64.134C212.973 64.1567 213.134 64.7457 213.627 64.6724C213.64 64.8838 213.794 64.886 213.95 64.8871C214.047 65.2884 214.594 65.1579 214.719 65.5257C213.825 65.3164 213.071 64.8892 212.53 64.134Z" fill="#464F6D"/>
<path d="M127.062 56.6803C126.669 56.471 126.812 56.0611 126.896 55.841C127.033 55.4806 127.079 55.1343 127.08 54.7665C127.082 54.6143 127.162 54.5399 127.311 54.5323C127.228 55.2476 127.146 55.964 127.062 56.6803Z" fill="#464F6D"/>
<path d="M116.848 64.8827C117.493 65.6767 118.368 65.2107 119.141 65.2797C119.427 65.3045 119.484 65.0219 119.477 64.7629C119.647 64.8201 119.528 65.0035 119.635 65.0747C119.691 65.2743 119.683 65.4275 119.409 65.4264C118.639 65.4232 117.869 65.4286 117.099 65.4243C116.64 65.421 116.874 65.0898 116.848 64.8827Z" fill="#464F6D"/>
<path d="M212.546 51.0768C212.815 50.6777 213.192 50.4069 213.616 50.1943L213.643 50.2224C213.64 50.2904 213.637 50.3583 213.632 50.4263C213.27 50.7143 212.908 51.0024 212.546 51.2915C212.546 51.2915 212.538 51.2807 212.538 51.2818C212.542 51.2128 212.544 51.1448 212.546 51.0768Z" fill="#464F6D"/>
<path d="M203.439 65.0941C204.17 65.5322 204.974 65.2085 205.736 65.311C205.992 65.3455 205.996 65.1168 206.105 64.996C206.34 65.2624 206.418 65.4426 205.923 65.4286C205.24 65.4092 204.557 65.42 203.873 65.4243C203.633 65.4275 203.435 65.3962 203.439 65.0941Z" fill="#464F6D"/>
<path d="M134.487 64.8794C134.762 65.3627 135.218 65.3368 135.687 65.3152C136.15 65.2937 136.614 65.3098 137.078 65.3088C136.46 65.5742 135.814 65.3724 135.182 65.4123C134.958 65.4264 134.682 65.5537 134.487 65.3045C134.499 65.2958 134.523 65.284 134.521 65.2786C134.514 65.2548 134.5 65.2322 134.489 65.2095C134.488 65.0995 134.487 64.9894 134.487 64.8794Z" fill="#464F6D"/>
<path d="M74.8815 55.1559C74.6303 55.5173 74.2834 55.6489 73.8517 55.5799C74.1573 55.349 74.5107 55.2314 74.8815 55.1559Z" fill="#464F6D"/>
<path d="M128.149 50.6205C128.036 50.9474 127.828 51.1761 127.483 51.2656C127.617 50.9614 127.86 50.7672 128.149 50.6205Z" fill="#464F6D"/>
<path d="M220.526 70.3082C220.375 70.2284 220.369 70.0849 220.366 69.9414L220.365 69.9435C220.404 69.9112 220.443 69.8777 220.483 69.8454L220.485 69.8432C220.626 69.84 220.767 69.8367 220.909 69.8335L220.925 69.8497C220.923 69.9198 220.921 69.9899 220.919 70.06C220.758 70.0525 220.605 70.0579 220.59 70.2726C220.576 70.2963 220.554 70.3082 220.526 70.3082Z" fill="#464F6D"/>
<path d="M214.798 65.5429C215.111 65.5397 215.44 65.4534 215.702 65.7145C215.381 65.7555 215.079 65.7037 214.798 65.5429Z" fill="#464F6D"/>
<path d="M215.923 65.7242C216.172 65.6163 216.421 65.6174 216.67 65.7231C216.421 65.8235 216.172 65.8278 215.923 65.7242Z" fill="#464F6D"/>
<path d="M220.91 69.8335C220.768 69.8367 220.627 69.84 220.486 69.8432C220.623 69.6458 220.799 69.4969 221.025 69.4084C220.987 69.5498 220.949 69.6922 220.91 69.8335Z" fill="#464F6D"/>
<path d="M212.546 51.0768C212.544 51.1447 212.542 51.2127 212.538 51.2807C212.384 51.2634 212.324 51.5191 212.175 51.4317C212.055 51.3616 212.089 51.2149 212.16 51.0984C212.294 51.1706 212.42 51.1275 212.546 51.0768Z" fill="#464F6D"/>
<path d="M217.123 65.6983C217.376 65.4879 217.679 65.5246 217.975 65.5235C217.709 65.6681 217.42 65.7026 217.123 65.6983Z" fill="#464F6D"/>
<path d="M74.5792 55.8474C74.6586 55.4062 75.0077 55.6867 75.223 55.6112C75.0371 55.7654 74.8109 55.8118 74.5792 55.8474Z" fill="#464F6D"/>
<path d="M75.757 55.4073C75.8092 55.0728 76.056 55.198 76.2518 55.2012C76.1224 55.3544 75.9418 55.3846 75.757 55.4073Z" fill="#464F6D"/>
<path d="M76.4061 55.1613C76.4899 54.8409 76.7563 54.9962 76.9477 54.9574C76.7922 55.0901 76.6073 55.1483 76.4061 55.1613Z" fill="#464F6D"/>
<path d="M74.1224 56.0276C74.1812 55.7406 74.3965 55.8334 74.5781 55.842C74.4541 55.9736 74.2943 56.0168 74.1224 56.0276Z" fill="#464F6D"/>
<path d="M73.4709 56.2531C73.5743 56.0298 73.7602 56.0201 73.9668 56.0643C73.8331 56.21 73.6613 56.2553 73.4709 56.2531Z" fill="#464F6D"/>
<path d="M75.3176 55.5821C75.3698 55.3458 75.5438 55.3943 75.707 55.4181C75.6026 55.5324 75.4721 55.5842 75.3176 55.5821Z" fill="#464F6D"/>
<path d="M220.92 70.06C220.922 69.9899 220.924 69.9197 220.926 69.8496C221.037 69.8496 221.149 69.8496 221.26 69.8496C221.188 69.9866 221.072 70.0524 220.92 70.06Z" fill="#464F6D"/>
<path d="M75.3219 54.9714C75.2741 55.212 75.1001 55.171 74.9315 55.144C75.0337 55.0254 75.1664 54.9725 75.3219 54.9714Z" fill="#464F6D"/>
<path d="M205.955 64.6648C205.754 64.5979 205.811 64.4382 205.819 64.2969C205.912 64.4015 205.972 64.5191 205.955 64.6648Z" fill="#464F6D"/>
<path d="M220.591 70.2714C220.607 70.0567 220.759 70.0513 220.92 70.0589C220.846 70.1829 220.729 70.2434 220.591 70.2714Z" fill="#464F6D"/>
<path d="M91.8769 51.3303C91.8758 51.3023 91.8758 51.2742 91.8769 51.2494C91.878 51.2645 91.8813 51.2764 91.8813 51.2893C91.8813 51.3023 91.8791 51.3163 91.8769 51.3303Z" fill="#464F6D"/>
<path d="M221.252 69.225C221.233 69.3555 221.152 69.4105 221.024 69.4084C221.058 69.2962 221.136 69.2368 221.252 69.225Z" fill="#464F6D"/>
<path d="M128.387 50.4425C128.37 50.5881 128.289 50.6486 128.144 50.6259C128.182 50.5094 128.267 50.4533 128.387 50.4425Z" fill="#464F6D"/>
<path d="M221.362 69.785C221.418 69.703 221.487 69.6426 221.591 69.635C221.547 69.7343 221.476 69.7936 221.362 69.785Z" fill="#464F6D"/>
<path d="M168.626 51.8795C168.604 51.9432 168.602 52.0467 168.499 51.9399C168.541 51.9205 168.584 51.9 168.626 51.8795Z" fill="#464F6D"/>
<path d="M189.8 62.9365C189.773 62.9257 189.75 62.9095 189.73 62.889C189.782 62.8642 189.8 62.889 189.8 62.9365Z" fill="#464F6D"/>
<path d="M89.0092 57.5002V57.4851L88.9679 57.4916L89.0092 57.5002Z" fill="#464F6D"/>
<path d="M134.49 65.2096C134.5 65.2323 134.515 65.2549 134.521 65.2786C134.522 65.284 134.499 65.2959 134.487 65.3045C134.469 65.2722 134.47 65.2409 134.49 65.2096Z" fill="#464F6D"/>
<path d="M212.158 50.8524C212.15 50.8319 212.139 50.8114 212.135 50.7899C212.134 50.7812 212.146 50.7704 212.152 50.7596C212.186 50.7888 212.187 50.819 212.158 50.8524Z" fill="#464F6D"/>
<path d="M209.716 64.558C209.716 64.449 209.716 64.3411 209.716 64.2322C210.077 64.148 209.929 63.8557 209.929 63.655C209.937 58.0839 209.936 52.5117 209.936 46.9406C209.936 46.33 209.931 45.7183 209.94 45.1077C209.943 44.9631 209.867 44.7883 210.081 44.6427C210.226 45.0969 210.124 45.5381 210.152 45.9675C210.167 46.18 210.119 46.398 210.431 46.4605C210.647 46.5037 210.586 46.7173 210.586 46.8694C210.592 47.6602 210.588 48.451 210.588 49.2418C210.588 49.4414 210.587 49.5935 210.332 49.6992C210.041 49.8189 210.061 50.7101 210.356 50.8406C210.584 50.9409 210.587 51.0812 210.588 51.2614C210.59 51.6745 210.586 52.0877 210.591 52.5009C210.592 52.6444 210.549 52.8375 210.624 52.9217C211.095 53.4428 210.749 53.9822 210.644 54.4806C210.332 55.9521 210.302 57.4193 210.459 58.9081C210.513 59.426 210.628 59.9913 210.23 60.4627C210.187 60.5134 210.162 60.5944 210.162 60.6623C210.158 61.5739 210.159 62.4866 210.159 63.5169C210.412 63.2677 210.503 63.0962 210.435 62.8502C210.314 62.4079 210.311 62.0292 210.784 61.7304C211.012 61.5869 211.027 61.233 211.013 60.9428C211.009 60.8738 210.955 60.8058 210.955 60.7378C210.954 60.4541 210.93 60.0873 211.205 59.9773C211.545 59.8413 211.526 60.2696 211.668 60.4433C212.022 60.877 212.013 61.3226 211.554 61.6484C211.078 61.9871 211.366 62.5632 211.051 62.9505C210.833 63.217 210.648 63.5104 210.354 63.696C210.084 63.8665 210.038 64.0682 210.32 64.2074C210.546 64.3185 210.69 64.4145 210.503 64.6227C210.346 64.7964 210.123 65.023 209.907 64.6443C209.877 64.5936 209.78 64.585 209.716 64.558Z" fill="#464F6D"/>
<path d="M212.546 51.2905C212.908 51.0024 213.27 50.7144 213.632 50.4252C213.807 50.3864 213.98 50.4069 214.158 50.4144C214.486 50.4285 214.792 50.3432 214.936 49.9948C215.008 49.9948 215.081 49.9937 215.153 49.9937C215.294 49.9915 215.367 49.9203 215.37 49.7801C215.443 49.779 215.515 49.7779 215.588 49.7769C215.745 49.7887 215.966 49.7596 215.969 49.9721C215.973 50.2105 215.708 49.9149 215.64 50.0854C215.998 50.4177 215.965 50.5914 215.496 50.7554C215.33 50.8136 215.148 50.8341 214.972 50.8589C214.764 50.8881 214.642 50.9668 214.814 51.1621C214.965 51.3315 214.951 51.4717 214.75 51.53C214.359 51.6443 214.065 51.9334 213.698 52.1287C213.632 51.8363 213.869 51.7565 213.955 51.5958C214.024 51.4674 214.247 51.3584 214.089 51.1858C213.909 50.9884 213.643 51.0488 213.427 51.106C213.268 51.1481 213.193 51.3174 213.252 51.5019C213.301 51.6551 213.359 51.8051 213.399 51.9615C213.474 52.2593 213.293 52.4373 213.063 52.5602C212.965 52.6131 212.806 52.7296 212.719 52.6153C212.581 52.4329 212.46 52.1967 212.639 51.9777C212.869 51.6983 212.542 51.5224 212.546 51.2905Z" fill="#464F6D"/>
<path d="M211.421 58.77C211.176 58.2543 211.271 57.7246 211.24 57.2024C211.228 56.9985 211.291 56.7881 211.033 56.6436C210.869 56.5508 210.859 55.3587 210.977 55.199C211.047 55.103 211.145 55.0674 211.259 55.075C211.44 55.0868 211.517 55.2282 211.536 55.3641C211.67 56.3987 211.876 57.4376 211.474 58.4636C211.436 58.5585 211.438 58.6675 211.421 58.77Z" fill="#464F6D"/>
<path d="M210.697 43.9576C210.978 43.9565 211.259 43.9565 211.54 43.9554C211.701 43.9543 211.867 43.9457 211.899 44.1636C211.897 44.826 211.891 45.4895 211.896 46.1519C211.897 46.3655 211.872 46.5975 211.622 46.591C211.341 46.5834 211.486 46.318 211.464 46.1648C211.441 46.0063 211.446 45.8423 211.461 45.6815C211.544 44.7257 211.367 44.5833 210.429 44.3017C210.443 44.1291 210.735 44.1658 210.697 43.9576Z" fill="#464F6D"/>
<path d="M213.884 62.9246C213.923 62.9278 213.951 62.9461 213.968 62.9817C213.999 63.0044 214.029 63.026 214.06 63.0486L214.066 63.0529C214.121 63.3022 213.927 63.4985 213.799 63.5978C213.315 63.971 213.658 64.0875 213.952 64.2461C214.142 64.3486 214.364 64.4597 214.345 64.6982C214.328 64.8945 214.11 64.8751 213.951 64.887C213.795 64.887 213.641 64.8837 213.628 64.6723C213.179 64.3519 213.305 63.7509 212.981 63.3701C213.44 63.5373 213.585 63.0767 213.884 62.9246Z" fill="#464F6D"/>
<path d="M211.052 64.8762C210.856 64.8827 210.798 64.7575 210.81 64.5698C210.828 64.2936 211.071 64.3044 211.242 64.2645C211.451 64.216 211.455 64.394 211.453 64.5396C211.45 64.7856 211.305 64.8816 211.052 64.8762Z" fill="#464F6D"/>
<path d="M212.617 63.0077C212.442 63.1803 213.195 63.1091 212.878 63.4079C212.76 63.518 212.53 63.5428 212.43 63.4328C212.19 63.1695 212.641 63.0994 212.617 63.0077Z" fill="#464F6D"/>
<path d="M213.02 62.0756C213.048 62.0907 213.061 62.1133 213.059 62.1446C212.96 62.1867 212.864 62.2439 212.76 62.2676C212.593 62.3075 212.489 62.1932 212.404 62.0745C212.359 62.013 212.354 61.9299 212.436 61.8933C212.566 61.8361 212.673 61.8814 212.779 61.9763C212.84 62.0313 212.939 62.0443 213.02 62.0756Z" fill="#464F6D"/>
<path d="M214.937 49.9947C214.793 50.3432 214.487 50.4284 214.159 50.4144C213.981 50.4068 213.809 50.3874 213.633 50.4252C213.637 50.3572 213.64 50.2892 213.644 50.2213C214.079 50.1738 214.47 49.8674 214.937 49.9947Z" fill="#464F6D"/>
<path d="M215.371 49.78C215.368 49.9203 215.295 49.9915 215.154 49.9936C215.159 49.8555 215.23 49.7833 215.371 49.78Z" fill="#464F6D"/>
<path d="M220.017 70.4506C220.005 70.4193 219.976 70.3805 219.987 70.36C219.998 70.3373 220.044 70.333 220.076 70.3201C220.088 70.3514 220.117 70.3902 220.107 70.4107C220.095 70.4333 220.049 70.4387 220.017 70.4506Z" fill="#464F6D"/>
<path d="M214.06 63.0487C214.029 63.026 213.999 63.0045 213.968 62.9818C213.999 63.0034 214.029 63.026 214.06 63.0487Z" fill="#464F6D"/>
</svg>
