<svg width="302" height="96" viewBox="0 0 302 96" fill="none" xmlns="http://www.w3.org/2000/svg">
<g clip-path="url(#clip0_2381_2138)">
<path fill-rule="evenodd" clip-rule="evenodd" d="M244.064 58.7676C243.626 58.7676 243.199 58.7322 242.771 58.6665C242.349 58.6008 241.938 58.4037 241.547 58.0752C241.067 57.6911 240.796 57.2969 240.713 56.8824C240.635 56.4731 240.598 56.0283 240.598 55.5482V41.7559C240.598 41.3718 240.645 40.9826 240.744 40.5783C240.843 40.174 241.088 39.8 241.484 39.4563C241.88 39.1126 242.302 38.8902 242.761 38.7942C243.214 38.6982 243.631 38.6527 244.007 38.6527H258.911V43.5399H248.66C248.462 43.5399 248.27 43.5652 248.082 43.6107C247.894 43.6562 247.738 43.732 247.623 43.828C247.467 43.9644 247.373 44.1262 247.342 44.3182C247.311 44.5103 247.3 44.672 247.3 44.8085V46.3297H258.62V50.7014H247.3V52.8847C247.3 53.0919 247.331 53.2587 247.389 53.375C247.446 53.4862 247.519 53.5771 247.597 53.6327C247.759 53.7894 247.957 53.8703 248.191 53.8753C248.431 53.8854 248.655 53.8905 248.874 53.8905H259.01V58.7777H244.064V58.7676Z" fill="#464F6D"/>
<path fill-rule="evenodd" clip-rule="evenodd" d="M211.497 58.7676V43.6511H204.087V38.6527H225.605V43.6511H218.194V58.7676H211.497Z" fill="#464F6D"/>
<path d="M189.093 38.6527H182.396V58.7676H189.093V38.6527Z" fill="#464F6D"/>
<path fill-rule="evenodd" clip-rule="evenodd" d="M152.024 58.7676C151.628 58.7676 151.221 58.7221 150.81 58.6261C150.393 58.53 150.049 58.3683 149.773 58.1358C149.533 57.9438 149.325 57.6759 149.137 57.3322C148.949 56.9886 148.855 56.6045 148.855 56.185V38.6527H155.552V52.536C155.552 52.6472 155.573 52.8039 155.599 53.0111C155.63 53.2132 155.724 53.38 155.881 53.5165C156.016 53.6277 156.188 53.7035 156.386 53.7288C156.584 53.7591 156.772 53.7742 156.949 53.7742H167.711V58.7777H152.024V58.7676Z" fill="#464F6D"/>
<path fill-rule="evenodd" clip-rule="evenodd" d="M126.451 58.7676L122.689 53.1071L118.921 58.7676H110.921L118.775 48.5686L111.156 38.6527H119.16L122.689 44.0251L126.212 38.6527H134.211L126.597 48.5686L134.451 58.7676H126.451Z" fill="#464F6D"/>
<path fill-rule="evenodd" clip-rule="evenodd" d="M82.649 38.6527V50.2061C82.649 50.6458 82.7011 51.1361 82.7949 51.6718C82.8939 52.2075 83.191 52.6674 83.6808 53.0515C83.9779 53.284 84.3583 53.4609 84.8222 53.5872C85.286 53.7136 85.755 53.7742 86.2293 53.7742C86.7035 53.7742 87.1725 53.7136 87.6364 53.5872C88.1002 53.4609 88.4806 53.284 88.7777 53.0515C89.033 52.8595 89.2311 52.6421 89.3718 52.3945C89.5125 52.1469 89.6115 51.8891 89.6845 51.6313C89.7522 51.3736 89.7939 51.1259 89.8043 50.8834C89.8148 50.6408 89.82 50.4184 89.82 50.2061V38.6527H96.5167V50.7216C96.5167 51.2371 96.4907 51.7577 96.4438 52.2732C96.3968 52.7887 96.2926 53.3093 96.1311 53.8248C95.9747 54.3453 95.7506 54.8457 95.464 55.3359C95.1774 55.8262 94.8073 56.2911 94.3539 56.7308C93.8224 57.2514 93.2387 57.6557 92.6081 57.9539C91.9775 58.2521 91.3104 58.4795 90.6069 58.6311C89.9033 58.7827 89.1842 58.8838 88.4441 58.9293C87.7041 58.9748 86.9693 59.0001 86.2345 59.0001C85.484 59.0001 84.744 58.9748 84.0092 58.9293C83.2796 58.8838 82.5604 58.7827 81.862 58.6311C81.1585 58.4795 80.4966 58.2521 79.8608 57.9539C79.2303 57.6557 78.6466 57.2514 78.1098 56.7308C77.6564 56.2911 77.2864 55.8262 76.9997 55.3359C76.7131 54.8457 76.489 54.3453 76.3327 53.8248C76.1763 53.3093 76.0721 52.7938 76.02 52.2732C75.9731 51.7577 75.947 51.2371 75.947 50.7216V38.6527H82.649Z" fill="#464F6D"/>
<path fill-rule="evenodd" clip-rule="evenodd" d="M46.1686 58.7676C45.7725 58.7676 45.366 58.7221 44.9543 58.6261C44.5374 58.53 44.1934 58.3683 43.9172 58.1358C43.6775 57.9438 43.469 57.6759 43.2814 57.3322C43.0938 56.9886 43 56.6045 43 56.185V38.6527H49.6967V52.536C49.6967 52.6472 49.7124 52.8039 49.7384 53.0111C49.7697 53.2132 49.8635 53.38 50.0199 53.5165C50.1606 53.6277 50.3273 53.7035 50.5254 53.7288C50.7234 53.7591 50.911 53.7742 51.0882 53.7742H61.8447V58.7777H46.1686V58.7676Z" fill="#464F6D"/>
<path fill-rule="evenodd" clip-rule="evenodd" d="M53.6313 37V48.9931C53.6313 49.1043 53.647 49.2711 53.673 49.4682C53.6991 49.6653 53.7981 49.8371 53.9545 49.9736C54.0952 50.0898 54.2671 50.1656 54.46 50.1909C54.6528 50.2162 54.8456 50.2364 55.0228 50.2364H61.8394V37.0101H53.6313V37Z" fill="#464F6D"/>
</g>
<defs>
<clipPath id="clip0_2381_2138">
<rect width="216" height="22" fill="white" transform="translate(43 37)"/>
</clipPath>
</defs>
</svg>
