<svg width="302" height="96" viewBox="0 0 302 96" fill="none" xmlns="http://www.w3.org/2000/svg">
<g clip-path="url(#clip0_2381_2136)">
<path d="M105.837 45.1606L106.069 44.042C106.541 44.042 107.016 44.042 107.488 44.042L107.189 45.3761L108.866 45.6645C108.866 46.1208 108.866 46.5771 108.866 47.0335L106.928 46.6405L106.758 47.3979C108.378 47.5342 109.746 48.6274 109.746 50.326C109.746 52.4048 108.079 53.4601 106.17 53.4601C104.446 53.4601 102.575 52.5126 102.575 50.532C102.575 50.2119 102.632 49.9362 102.698 49.6288C103.242 49.6288 103.789 49.6288 104.333 49.6288C104.255 49.9299 104.179 50.1929 104.179 50.5098C104.179 51.6665 105.157 52.1291 106.17 52.1291C107.195 52.1291 108.136 51.5334 108.139 50.4147C108.133 49.1662 107.29 48.5862 106.12 48.5926L105.104 48.5958L105.554 46.425L103.764 46.1398C103.764 45.6835 103.764 45.224 103.764 44.7645L105.837 45.1606ZM122.818 49.9489C122.818 52.1925 121.28 53.4823 119.119 53.4823C116.958 53.4823 115.313 52.2242 115.313 49.9489C115.313 47.8637 117.084 46.555 119.044 46.555C119.327 46.555 119.607 46.5898 119.884 46.631C119.994 46.4472 120.047 46.2666 120.047 46.0955C120.047 45.5092 119.424 45.262 118.956 45.262C118.487 45.262 117.987 45.4997 117.924 45.975L117.896 46.181C117.405 46.181 116.918 46.181 116.427 46.181V45.9433C116.427 44.6061 117.817 43.9628 118.978 43.9628C120.138 43.9628 121.525 44.6853 121.525 45.9941C121.525 46.3458 121.415 46.7166 121.173 47.081C122.132 47.6863 122.818 48.7954 122.818 49.9457V49.9489ZM119.044 47.9683C117.896 47.9683 116.962 48.7574 116.962 49.9521C116.962 51.2165 117.839 52.1291 119.104 52.1291C120.365 52.1291 121.161 51.2291 121.161 49.9806C121.161 48.7257 120.248 47.9683 119.044 47.9683ZM135.591 50.3292C135.591 52.3763 134.081 53.4474 132.16 53.4474C130.304 53.4474 128.785 52.5284 128.785 50.5003C128.785 50.0598 128.892 49.7176 129.099 49.2264H130.631C130.496 49.6447 130.414 49.9552 130.414 50.5003C130.414 51.5682 131.191 52.1291 132.194 52.1291C133.254 52.1291 134.012 51.4098 134.012 50.3323V46.6754C134.012 45.7944 133.396 45.3127 132.553 45.3127C131.71 45.3127 131.049 45.8926 131.049 46.7609V47.6419C130.574 47.6419 130.087 47.6419 129.599 47.6419V46.7768C129.599 46.0131 129.342 45.3286 128.477 45.3286C128.134 45.3286 127.936 45.3856 127.608 45.468C127.608 45.018 127.608 44.5649 127.608 44.118C127.939 44.0325 128.146 43.9881 128.489 43.9881C129.206 43.9881 129.879 44.2131 130.32 44.8057C130.864 44.2226 131.779 43.9691 132.553 43.9691C134.122 43.9691 135.588 44.9863 135.588 46.6722V50.3292H135.591ZM144.581 43.9691C145.439 43.9691 146.203 44.2226 146.801 44.8596C147.326 44.3018 148.201 44.0547 148.943 44.0547C150.396 44.0547 151.896 44.8089 151.896 46.4916C151.896 47.3377 151.409 48.0539 150.723 48.5165C151.554 48.9095 152.136 49.6827 152.126 50.6207C152.11 52.7439 149.591 53.4506 147.88 53.4506C146.521 53.4506 145.474 53.3016 144.2 52.8485L144.659 51.5936C145.741 51.8851 146.754 52.0531 147.883 52.0531C148.915 52.0531 150.597 51.7964 150.585 50.4749C150.579 49.6574 149.827 49.2454 149.097 49.2074L148.871 49.1947C148.871 48.7415 148.871 48.2884 148.871 47.832H149.11C149.836 47.832 150.399 47.3155 150.399 46.5993C150.402 45.7754 149.701 45.3888 148.943 45.3888C148.468 45.3888 147.871 45.6074 147.587 46.0131C147.732 46.4694 147.842 46.9606 147.842 47.4391C147.842 49.445 146.597 50.7728 144.587 50.7728C142.674 50.7728 141.423 49.3183 141.423 47.4391C141.423 45.4363 142.495 43.9628 144.581 43.9628V43.9691ZM144.612 45.3096C143.417 45.3096 143.055 46.4314 143.055 47.4549C143.055 48.45 143.486 49.4387 144.603 49.4387C145.763 49.4387 146.213 48.4975 146.213 47.4454C146.213 46.3648 145.854 45.3127 144.615 45.3127L144.612 45.3096ZM156.583 48.3549C156.583 45.9148 158.269 43.9786 160.744 43.9786C163.216 43.9786 164.909 45.918 164.909 48.3549C164.909 50.158 164.481 51.7457 163.666 53.346C163.128 53.346 162.591 53.346 162.056 53.346C162.874 51.5904 163.283 50.0947 163.283 48.1521C163.283 46.5803 162.37 45.3254 160.732 45.3254C159.087 45.3254 158.193 46.5771 158.193 48.1521C158.193 50.0978 158.618 51.5967 159.448 53.346C158.911 53.346 158.373 53.346 157.835 53.346C157.017 51.7457 156.586 50.1612 156.586 48.3549H156.583ZM230.998 41.2787C224.713 41.2787 224.103 38.4013 224.103 32.507V23.7037C224.103 19.4637 220.662 15.9968 216.457 15.9968H203.168C198.126 15.9968 195.402 18.1105 195.402 22.6738V35.2608C195.399 38.04 195.66 41.3262 193.201 42.5462C195.758 42.5462 197.478 41.2216 197.56 38.5819L197.645 22.7562C197.645 19.058 199.963 17.3626 203.052 17.3626H212.931C216.822 17.3626 218.558 19.1024 218.549 23.0224L218.53 34.4179C218.514 41.4973 220.159 42.5653 226.616 42.5653H231.001V41.2723L230.998 41.2787ZM230.998 65.1883H226.535C220.074 65.1883 218.445 66.2594 218.445 73.3357C218.445 75.5571 218.445 77.7754 218.445 79.9937H224.103V76.8913C224.103 71.0572 224.71 68.4048 230.998 68.126V65.1915V65.1883ZM196.138 79.9937V73.3357C196.138 66.2594 194.509 65.1883 188.049 65.1883H177.958C171.401 65.1883 171.652 63.062 171.652 57.7318V47.5944C171.652 45.0085 171.382 42.467 173.876 41.2311C170.083 41.2311 169.325 43.817 169.328 47.0335V58.9424C169.328 64.0887 171.52 68.0816 177.773 68.0816H185.866C192.845 68.0816 194.607 69.2383 194.607 76.8881V79.9905H196.135L196.138 79.9937ZM208.091 41.998C207.043 44.3589 205.26 46.4694 202.618 48.9348C198.384 52.8802 199.894 58.7427 205.209 58.7427C210.525 58.7427 212.676 53.9576 210.544 50.0091C209.217 47.5532 208.358 44.4064 208.355 42.0234C208.355 41.792 208.169 41.8174 208.091 42.0012V41.998ZM206.597 46.7673C206.537 47.3599 206.729 49.445 206.515 50.5605C206.257 51.9136 205.077 52.5664 204.087 52.1513C203.291 51.8154 202.907 50.4654 204.181 49.2834C205.389 48.1648 205.829 47.6958 206.597 46.7673Z" fill="#464F6D"/>
<path fill-rule="evenodd" clip-rule="evenodd" d="M159.294 17.2421C158.19 17.2389 158.14 18.3988 158.136 19.2544C158.133 20.11 158.165 21.273 159.269 21.2793C160.376 21.2825 160.426 20.1322 160.433 19.2671C160.439 18.4083 160.401 17.2484 159.294 17.2421ZM156.62 23.0413C155.938 23.9191 155.818 25.5542 155.812 26.638L155.768 33.5115C155.755 35.5681 157.083 37.1209 159.174 37.1272C161.313 37.1336 162.615 35.6822 162.628 33.5622L162.669 26.7838C162.675 25.5733 162.402 24.0522 161.32 23.336C161.452 24.7652 160.521 25.8078 159.112 25.8173C157.621 25.8268 156.812 24.7874 156.812 23.6846C156.812 23.1649 156.992 22.6293 157.366 22.1856C155.954 21.7452 155.026 20.804 155.035 19.248C155.054 17.0044 157.366 15.9999 159.303 16.0062C161.172 16.0094 163.546 16.8998 163.54 19.1276C163.537 20.1892 162.968 21.0765 162.112 21.6501C164.484 22.3251 166.786 24.1757 166.77 26.863L166.736 32.8365C166.714 36.7343 162.515 38.474 159.181 38.4645C155.878 38.455 151.648 36.617 151.673 32.7509L151.707 27.1387C151.723 24.6955 153.812 22.6768 156.086 22.173C156.344 22.1128 156.693 22.1698 156.803 22.4011C156.907 22.623 156.759 22.8796 156.624 23.0508L156.62 23.0413ZM145.596 36.8674C144.335 37.8402 142.596 38.3568 140.875 38.3473C139.17 38.3378 137.591 37.8529 136.481 36.8705C135.478 35.9832 134.855 34.6998 134.864 33.0076C134.868 32.2439 135.141 31.6038 135.6 31.1538C136.063 30.7006 136.714 30.4407 137.472 30.4471C137.972 30.4503 138.412 30.6119 138.752 30.8717C139.048 31.0999 139.268 31.4041 139.387 31.7464C139.507 32.0886 139.526 32.472 139.416 32.8555C139.293 33.2833 139.013 33.7079 138.544 34.0787H138.541C138.485 34.1231 138.437 34.1801 138.403 34.2467C138.371 34.3069 138.353 34.3702 138.353 34.4305C138.346 35.2068 138.604 35.847 139.044 36.297C139.494 36.7565 140.136 37.0195 140.888 37.0226C141.617 37.0258 142.237 36.7058 142.674 36.148C143.127 35.5713 143.391 34.741 143.398 33.746L143.473 20.3794C143.482 18.6871 142.674 17.353 140.869 17.3435C140.098 17.3403 138.997 17.7238 138.576 18.4146C138.419 18.6745 138.384 18.8931 138.642 19.0959C139.202 19.5364 139.563 20.1797 139.541 20.9054C139.507 22.0399 138.585 22.8131 137.494 22.8068C136.207 22.8004 135.358 21.7927 135.364 20.5283C135.38 17.6794 138.337 16.0157 141.523 16.0157C144.266 16.0157 147.575 17.7935 147.559 20.8737L147.49 33.4037C147.483 34.7157 146.606 36.072 145.587 36.8579L145.596 36.8674ZM127.847 24.5497C130.027 25.2722 131.254 27.126 131.241 29.4299L131.219 33.0836C131.2 36.5663 127.646 38.2617 124.598 38.2554C121.33 38.2459 118.578 36.4681 118.591 32.9157C118.597 31.3851 119.695 30.3488 121.198 30.3552C122.261 30.3615 123.208 31.1316 123.214 32.2344C123.22 32.9537 122.812 33.559 122.264 33.99C122.167 34.066 122.079 34.2181 122.079 34.3449C122.072 35.866 123.101 36.9339 124.617 36.9339C126.385 36.9339 127.117 35.2163 127.127 33.6667L127.155 29.2873C127.165 27.1894 126.756 25.3641 124.284 25.3483L122.648 25.3387L122.654 23.9698C123.28 23.9729 123.909 23.9856 124.532 23.9793C126.319 23.9317 127.231 22.0304 127.206 20.4301C127.177 18.7093 126.52 17.3625 124.567 17.3562C123.824 17.353 122.752 17.7079 122.318 18.3512C122.135 18.6238 122.054 18.8773 122.343 19.1054C122.884 19.5301 123.239 20.1417 123.246 20.8388C123.255 21.9955 122.333 22.8258 121.198 22.8194C119.912 22.8131 119.062 21.8054 119.069 20.5441C119.084 17.4322 122.45 16.0316 125.23 16.0316C128.36 16.0316 131.307 17.616 131.307 20.4744C131.307 22.5786 129.709 23.9508 127.85 24.5465L127.847 24.5497ZM111.372 16.7794C112.155 16.8048 113.237 16.6463 113.958 16.1044C114.099 15.9999 114.241 16.003 114.316 16.1235C115.14 17.4291 114.017 19.5839 111.545 19.5839C110.362 19.5839 109.306 18.9502 108.497 18.1136C107.396 16.9727 105.736 17.1851 105.729 19.0104L105.711 24.0426C106.522 23.7955 107.359 23.6846 108.205 23.6877C111.243 23.7004 114.785 25.4655 114.766 28.9323C114.763 29.3633 114.744 33.0298 114.744 33.0932C114.744 36.5695 111.171 38.2712 108.129 38.2649C105.097 38.2554 101.543 36.4839 101.562 33.0203L101.634 20.0434C101.65 17.4259 103.848 16.0379 106.255 16.0474C108.035 16.0537 109.636 16.7256 111.366 16.7794H111.372ZM108.208 25.0187C106.425 25.0155 105.692 26.7489 105.695 28.2922C105.695 28.3271 105.67 33.1153 105.666 33.6382C105.657 35.2195 106.321 36.9403 108.136 36.9434C109.954 36.9498 110.642 35.2575 110.646 33.6699C110.646 33.6604 110.674 28.8309 110.674 28.3239C110.68 26.7489 110.013 25.025 108.205 25.0187H108.208ZM177.452 17.3245C175.637 17.315 174.948 19.0104 174.939 20.5948L174.873 32.4308C174.869 32.9696 174.964 33.3308 175.486 33.5527C176.376 33.9298 177.288 34.5984 177.288 35.8692C177.288 37.3174 176.08 38.3536 174.687 38.3504C171.872 38.3378 170.762 35.3716 170.774 32.9632L170.84 21.1811C170.859 17.7111 174.41 15.9872 177.455 16.003C180.493 16.0189 184.035 17.784 184.016 21.254L183.947 33.8062C183.934 36.2779 181.802 37.9511 179.575 38.4645C178.899 38.6198 178.584 38.1635 179.031 37.5899C179.723 36.7058 179.836 35.3906 179.842 34.3037L179.918 20.6329C179.927 19.0484 179.267 17.334 177.449 17.3245H177.452ZM90.5596 17.3245C88.7447 17.315 88.0559 19.0104 88.0465 20.5948L87.9804 32.4308C87.9773 32.9696 88.0716 33.3308 88.5938 33.5527C89.4839 33.9298 90.396 34.5984 90.396 35.8692C90.396 37.3174 89.1882 38.3536 87.7949 38.3504C84.9798 38.3378 83.8695 35.3716 83.8821 32.9632L83.9481 21.1811C83.967 17.7111 87.5181 15.9872 90.5627 16.003C93.6011 16.0189 97.1427 17.784 97.1238 21.254L97.0546 33.8062C97.0421 36.2779 94.9095 37.9511 92.6827 38.4645C92.0064 38.6198 91.6919 38.1635 92.1385 37.5899C92.8305 36.7058 92.9437 35.3906 92.95 34.3037L93.0255 20.6329C93.0349 19.0484 92.3744 17.334 90.5564 17.3245H90.5596ZM162.364 77.4679C162.364 78.2158 162.257 78.9446 161.901 79.6196C161.71 79.9872 161.065 79.6861 161.263 79.3059C161.565 78.7196 161.643 78.1112 161.643 77.4679C161.643 76.8341 161.612 75.8644 160.706 75.8644C159.813 75.8644 159.763 76.8468 159.763 77.4679C159.763 78.1112 159.841 78.7196 160.143 79.3059C160.341 79.6861 159.697 79.984 159.505 79.6196C159.146 78.9446 159.042 78.2158 159.042 77.4615V75.4873C159.042 74.2165 159.885 73.5289 160.926 73.5289H161.537C161.738 73.5289 161.861 73.6968 161.861 73.8775C161.861 74.0581 161.738 74.2292 161.537 74.2292H160.926C160.275 74.2292 159.763 74.6697 159.763 75.4651C160.052 75.2623 160.344 75.1609 160.706 75.1609C162.084 75.1609 162.367 76.4031 162.364 77.4679ZM176.257 75.5602C176.257 76.064 176.209 76.6883 176.109 77.1763C176.027 77.582 175.3 77.4425 175.404 77.0242C175.505 76.6123 175.543 75.9785 175.543 75.5475C175.543 74.9486 175.382 74.2261 174.621 74.2261C173.718 74.2261 173.699 75.1831 173.699 75.8327C173.699 77.2365 173.86 79.0745 175.571 79.0745C175.999 79.0745 176.008 79.7749 175.571 79.7749H173.615C173.212 79.7749 173.206 79.0809 173.646 79.0809H173.888C173.234 78.5168 172.985 77.2904 172.985 75.8327C172.985 74.3211 173.548 73.5257 174.624 73.5257C175.826 73.5257 176.26 74.5461 176.26 75.557L176.257 75.5602ZM125.482 75.5602C125.482 76.064 125.435 76.6883 125.334 77.1763C125.252 77.582 124.526 77.4425 124.633 77.0242C124.736 76.6123 124.771 75.9785 124.771 75.5475C124.771 74.9486 124.611 74.2261 123.849 74.2261C122.947 74.2261 122.931 75.1831 122.931 75.8327C122.931 77.2365 123.091 79.0745 124.803 79.0745C125.23 79.0745 125.237 79.7749 124.803 79.7749H122.846C122.444 79.7749 122.437 79.0809 122.874 79.0809H123.117C122.462 78.5168 122.214 77.2904 122.214 75.8327C122.214 74.3211 122.777 73.5257 123.849 73.5257C125.051 73.5257 125.485 74.5461 125.485 75.557L125.482 75.5602ZM96.0733 75.5602C96.0733 76.064 96.0261 76.6883 95.9286 77.1763C95.8437 77.582 95.1203 77.4425 95.2241 77.0242C95.3279 76.6123 95.3625 75.9785 95.3625 75.5475C95.3625 74.9486 95.1989 74.2261 94.4409 74.2261C93.5382 74.2261 93.5225 75.1831 93.5225 75.8327C93.5225 77.2365 93.6797 79.0745 95.3939 79.0745C95.8217 79.0745 95.828 79.7749 95.3939 79.7749H93.4375C93.0349 79.7749 93.0286 79.0809 93.469 79.0809H93.7112C93.057 78.5168 92.8053 77.2904 92.8053 75.8327C92.8053 74.3211 93.3683 73.5257 94.444 73.5257C95.6455 73.5257 96.0796 74.5461 96.0796 75.557L96.0733 75.5602ZM72.4898 76.5901C72.2822 76.5901 72.169 76.4253 72.169 76.2415C72.169 76.0609 72.2822 75.8929 72.4898 75.8929H72.9773C73.317 75.8929 73.5655 75.725 73.5655 75.3796C73.5655 74.9105 73.0591 74.7965 72.7509 74.5905C72.4521 74.4162 72.2885 74.1849 72.2885 73.8426C72.2885 73.6493 72.4615 73.5257 72.6502 73.5257C72.8358 73.5257 73.0056 73.6525 73.0056 73.8426C73.0056 73.9408 73.0528 73.9535 73.1409 74.0042C73.7479 74.3148 74.2858 74.6602 74.2858 75.3796C74.2858 75.6299 74.2166 75.8739 74.0656 76.0799C74.0153 76.1496 73.9587 76.213 73.8957 76.2669L73.9461 76.308V76.3112C74.3487 76.6693 74.5531 77.208 74.5531 77.7309C74.5531 78.0161 74.5154 78.2791 74.4399 78.5168C74.3644 78.7608 74.2512 78.9763 74.097 79.1664V79.1696C74.0153 79.2678 73.9272 79.3566 73.8297 79.4326C73.7322 79.5087 73.6253 79.5752 73.512 79.6259C73.3988 79.6798 73.2793 79.7178 73.1597 79.7432C73.0371 79.7685 72.9113 79.7812 72.7855 79.7812C72.6565 79.7812 72.5307 79.7685 72.4112 79.7432C72.2916 79.7178 72.1721 79.6766 72.0557 79.6259C71.9425 79.5721 71.8324 79.5087 71.7349 79.4326C71.6374 79.3566 71.5462 79.2678 71.4676 79.1696C71.3135 78.9795 71.2002 78.7608 71.1247 78.52C71.0524 78.2823 71.0146 78.0193 71.0146 77.7341V76.0324C71.0146 75.2623 71.0996 74.4574 71.3701 73.7317C71.4393 73.5447 71.65 73.4972 71.823 73.5574C72.0966 73.6493 72.0715 73.8965 72.04 73.982C71.801 74.6285 71.7318 75.351 71.7318 76.0324V77.7341C71.7318 77.9496 71.7569 78.1429 71.8104 78.3077C71.8607 78.4693 71.9362 78.6119 72.0337 78.7323C72.0809 78.7925 72.1344 78.8432 72.1878 78.8844C72.2413 78.9256 72.3011 78.9636 72.364 78.989C72.4269 79.0175 72.4961 79.0397 72.5653 79.0555H72.5684C72.6376 79.0682 72.7131 79.0777 72.7917 79.0777C72.8672 79.0777 72.9427 79.0714 73.0119 79.0555C73.0843 79.0397 73.1535 79.0175 73.2164 78.989C73.2793 78.9605 73.339 78.9256 73.3925 78.8812C73.4491 78.84 73.4994 78.7862 73.5466 78.7291C73.6441 78.6087 73.7196 78.4661 73.7699 78.3045C73.8203 78.1365 73.8454 77.9432 73.8454 77.7277C73.8454 77.3791 73.7165 77.002 73.4271 76.7802C73.3736 76.7422 73.317 76.7042 73.2541 76.6725C73.1912 76.644 73.1251 76.6218 73.0622 76.6059C72.9962 76.5901 72.927 76.5837 72.8515 76.5837H72.5055L72.4898 76.5901ZM78.4973 76.5679C78.5225 76.7137 78.5382 76.8594 78.5508 77.0052C78.5634 77.1605 78.5697 77.3158 78.5697 77.4742C78.5697 77.6327 78.5634 77.788 78.5508 77.9401C78.5414 78.089 78.5225 78.2316 78.4973 78.371C78.4659 78.5738 78.4061 78.7576 78.318 78.9224C78.23 79.0936 78.1136 79.2457 77.9721 79.3756C77.8274 79.5087 77.6638 79.6101 77.4845 79.6766C77.3053 79.7432 77.1134 79.778 76.909 79.778C76.7045 79.778 76.5126 79.7432 76.3334 79.6766C76.1541 79.6069 75.9905 79.5087 75.8458 79.3756C75.7043 79.2425 75.5879 79.0936 75.4999 78.9224C75.4118 78.7576 75.3552 78.5738 75.3206 78.371C75.2954 78.2316 75.2797 78.0858 75.2671 77.9369C75.2545 77.7848 75.2482 77.6295 75.2482 77.4742V73.8426C75.2482 73.7634 75.2765 73.6968 75.33 73.6366C75.3646 73.5986 75.4149 73.5701 75.4715 73.5479C75.5156 73.5321 75.5628 73.5257 75.6068 73.5257C75.654 73.5257 75.698 73.5352 75.742 73.5479C75.7987 73.5669 75.8458 73.5986 75.8804 73.6366L75.8836 73.6398C75.9371 73.6968 75.9654 73.7666 75.9654 73.8426V75.4651L76.022 75.4239C76.1541 75.3384 76.2925 75.2718 76.4403 75.2274C76.5881 75.1831 76.7454 75.1609 76.9027 75.1609C77.1071 75.1609 77.3021 75.1926 77.4783 75.2623C77.6575 75.3288 77.8211 75.4303 77.9658 75.5634C78.1073 75.6933 78.2237 75.8454 78.3118 76.0133C78.3998 76.1781 78.4596 76.3651 78.491 76.5647L78.4973 76.5679ZM77.8525 77.4742C77.8525 77.3158 77.8463 77.1732 77.8368 77.0432C77.8274 76.9102 77.8117 76.7897 77.7928 76.682V76.6788C77.7708 76.5521 77.7362 76.438 77.6858 76.3366C77.6355 76.2383 77.5695 76.1528 77.4877 76.0767C77.4122 76.0038 77.3241 75.95 77.2298 75.9151C77.1354 75.8802 77.0285 75.8612 76.909 75.8612C76.7894 75.8612 76.6856 75.8802 76.5913 75.9151C76.4969 75.95 76.412 76.0038 76.3365 76.0767C76.2547 76.1528 76.1887 76.2383 76.1384 76.3366C76.088 76.438 76.0503 76.5521 76.0283 76.6788C76.0094 76.7929 75.9937 76.9165 75.9842 77.0496C75.9748 77.1763 75.9685 77.3189 75.9685 77.4742C75.9685 77.6295 75.9717 77.7721 75.9842 77.8989C75.9937 78.0288 76.0094 78.1492 76.0283 78.2601V78.2633C76.0503 78.39 76.088 78.5073 76.1384 78.6055C76.1887 78.7038 76.2547 78.7893 76.3365 78.8654C76.412 78.9351 76.4969 78.9921 76.5913 79.027C76.6856 79.0619 76.7926 79.0809 76.909 79.0809C77.0285 79.0809 77.1354 79.0619 77.2298 79.027C77.3241 78.9921 77.4122 78.9383 77.4877 78.8654C77.5663 78.7893 77.6324 78.7038 77.6858 78.6055C77.7393 78.5041 77.7739 78.39 77.7928 78.2665C77.8117 78.1524 77.8242 78.0256 77.8368 77.8894C77.8463 77.7626 77.8525 77.6263 77.8525 77.4774V77.4742ZM82.0043 77.5661C81.9729 77.582 81.9383 77.5946 81.9068 77.601C81.8785 77.6073 81.8502 77.6105 81.8188 77.6105C81.7905 77.6105 81.759 77.6073 81.7276 77.601C81.6961 77.5946 81.6647 77.5851 81.6363 77.5725L81.6206 77.563C81.5734 77.5376 81.5357 77.5027 81.5105 77.4615L81.5074 77.4552C81.4759 77.4077 81.4602 77.3538 81.4602 77.2968V75.0436C81.4602 74.9581 81.4539 74.882 81.4382 74.8091C81.4225 74.7394 81.4036 74.6697 81.3721 74.6063C81.347 74.5493 81.3124 74.4986 81.2715 74.451V74.4479C81.2306 74.4035 81.1834 74.3623 81.1331 74.3275C81.0828 74.2958 81.0293 74.2704 80.9695 74.2514C80.9098 74.2356 80.8437 74.2261 80.7714 74.2261C80.6676 74.2261 80.5701 74.2451 80.4883 74.2863C80.4065 74.3243 80.331 74.3877 80.2618 74.4732C80.1895 74.562 80.1329 74.6792 80.092 74.8218C80.0448 74.9803 80.0165 75.1672 80.0071 75.3827V75.3859C79.9945 75.6172 79.9851 75.8359 79.9788 76.0292C79.9725 76.2066 79.9693 76.4 79.9693 76.6028C79.9693 76.8975 79.9756 77.1637 79.9851 77.3982V77.4013C79.9976 77.6485 80.0134 77.8798 80.0354 78.1017C80.0574 78.3108 80.0889 78.5231 80.1329 78.7355C80.1738 78.9446 80.2272 79.1474 80.2933 79.3534C80.3153 79.42 80.3153 79.4833 80.2902 79.5467L80.287 79.5531C80.265 79.6164 80.221 79.6703 80.1612 79.7083C80.1266 79.7305 80.092 79.7495 80.0543 79.7622C80.0071 79.778 79.9599 79.7844 79.9127 79.7812C79.853 79.778 79.7963 79.7622 79.7523 79.7369C79.6831 79.6957 79.6359 79.6418 79.6139 79.5689C79.5416 79.3471 79.4818 79.1189 79.4346 78.8876C79.3875 78.6562 79.3497 78.4217 79.3245 78.1809C79.2994 77.9464 79.2805 77.6992 79.2711 77.433C79.2585 77.1573 79.2522 76.8785 79.2522 76.6028C79.2522 76.4 79.2553 76.1845 79.2616 75.95C79.2679 75.7281 79.2774 75.5253 79.2899 75.3384C79.2994 75.2179 79.312 75.1007 79.3308 74.9834C79.3497 74.8694 79.3717 74.7616 79.4 74.6665C79.4283 74.5683 79.4598 74.4764 79.4975 74.394C79.5353 74.3084 79.5762 74.2292 79.6202 74.1563V74.1595C79.6642 74.0866 79.7146 74.0201 79.768 73.963C79.8215 73.9028 79.8813 73.8458 79.9473 73.7982C80.0071 73.7539 80.0731 73.7127 80.1423 73.6778C80.2084 73.643 80.2807 73.6144 80.3468 73.5954H80.3499C80.416 73.5764 80.4852 73.5606 80.5544 73.5511C80.6267 73.5416 80.699 73.5352 80.7714 73.5352C80.9192 73.5352 81.0608 73.5542 81.196 73.5954C81.3313 73.6366 81.4571 73.7 81.5734 73.7824C81.6647 73.8458 81.7433 73.9218 81.8156 74.0074C81.8848 73.925 81.9666 73.8489 82.061 73.7824C82.1773 73.7 82.3032 73.6366 82.4384 73.5954C82.5736 73.5542 82.7152 73.5352 82.863 73.5352C83.0108 73.5352 83.1524 73.5542 83.2845 73.5954H83.2876C83.3568 73.6144 83.426 73.643 83.4921 73.6778C83.555 73.7095 83.621 73.7507 83.6839 73.7982C83.7468 73.8458 83.8098 73.9028 83.8632 73.963C83.9167 74.0232 83.967 74.0898 84.0111 74.1595C84.0519 74.2261 84.0928 74.3053 84.1337 74.3972H84.1369C84.1683 74.4796 84.2029 74.5715 84.2312 74.6729V74.676C84.2595 74.7743 84.2815 74.8789 84.3004 74.9929C84.3193 75.107 84.3319 75.2274 84.3413 75.3479C84.3539 75.538 84.3633 75.744 84.3696 75.9658C84.3759 76.1971 84.3791 76.4158 84.3791 76.6154C84.3791 76.8911 84.3728 77.1668 84.3602 77.4457C84.3476 77.7119 84.3287 77.9591 84.3036 78.1936C84.2784 78.4312 84.2438 78.6657 84.1935 78.9002C84.1463 79.1316 84.0865 79.3597 84.0142 79.5816C83.9922 79.6545 83.945 79.7115 83.8758 79.7495C83.8318 79.7749 83.7752 79.7907 83.7154 79.7939C83.6682 79.7939 83.621 79.7907 83.577 79.7749C83.5393 79.7622 83.4984 79.7432 83.4669 79.7178L83.4575 79.7115C83.404 79.6703 83.3663 79.6196 83.3411 79.5626C83.3159 79.4928 83.3159 79.42 83.3442 79.3502C83.404 79.1569 83.4543 78.9541 83.4984 78.7481C83.5424 78.5358 83.5739 78.3235 83.5959 78.1143C83.6179 77.8957 83.6336 77.6612 83.6462 77.414C83.6556 77.1795 83.6619 76.9133 83.6619 76.6154C83.6619 76.4126 83.6588 76.2193 83.6525 76.0419C83.6462 75.8454 83.6368 75.6299 83.6242 75.3986V75.3954C83.6147 75.1799 83.5833 74.9929 83.5393 74.8345C83.4952 74.6919 83.4386 74.5746 83.3694 74.4859C83.3034 74.4035 83.2247 74.3401 83.1429 74.2989C83.0612 74.2609 82.97 74.2419 82.863 74.2419C82.7907 74.2419 82.7246 74.2514 82.6649 74.2673C82.6082 74.2863 82.5516 74.3116 82.5013 74.3433C82.4478 74.3782 82.4038 74.4194 82.3629 74.4637V74.4669C82.322 74.5144 82.2906 74.5651 82.2623 74.6222C82.234 74.6824 82.2119 74.7521 82.1962 74.825C82.1836 74.8979 82.1742 74.9739 82.1742 75.0595V77.3126C82.1742 77.3696 82.1553 77.4235 82.1239 77.4742L82.1207 77.4774C82.0924 77.5186 82.0547 77.5534 82.0075 77.5788L81.9981 77.5851L82.0043 77.5661ZM85.0427 77.2144C85.0584 77.132 85.0993 77.0686 85.1748 77.0179C85.2188 76.9894 85.2692 76.9704 85.3289 76.964H85.3384C85.3761 76.9609 85.4107 76.9609 85.4516 76.9672C85.4925 76.9735 85.5365 76.9894 85.5774 77.0116L85.5837 77.0147C85.634 77.0432 85.6749 77.0781 85.7032 77.1193L85.7095 77.1288C85.7441 77.1858 85.7598 77.2461 85.7567 77.3094L85.7536 77.3316L85.7473 77.357C85.6781 77.6358 85.6718 77.9369 85.7252 78.257C85.7473 78.3869 85.785 78.501 85.8353 78.6024C85.8857 78.7006 85.9517 78.7862 86.0303 78.8622L86.0335 78.8654C86.109 78.9351 86.1939 78.989 86.2883 79.0238C86.3826 79.0587 86.4927 79.0777 86.6122 79.0777C86.7286 79.0777 86.8355 79.0587 86.9299 79.0238C87.0243 78.989 87.1092 78.9351 87.1847 78.8622C87.2633 78.7862 87.3325 78.6974 87.3828 78.6024C87.4363 78.501 87.4709 78.3869 87.4929 78.2601V78.257C87.5055 78.1841 87.5149 78.089 87.5212 77.9749C87.5275 77.8672 87.5306 77.7246 87.5306 77.5534C87.5306 77.4806 87.5244 77.4108 87.5149 77.3411C87.5023 77.2682 87.4866 77.2017 87.4677 77.1415C87.4457 77.0749 87.4206 77.0147 87.3923 76.9608C87.3639 76.907 87.3294 76.8563 87.2916 76.8056C87.2602 76.7644 87.2193 76.7232 87.1784 76.6883C87.1312 76.6535 87.0809 76.6186 87.0274 76.5933C86.9771 76.5679 86.9205 76.5457 86.8607 76.533C86.8009 76.5204 86.738 76.514 86.6688 76.514H86.1058C86.0272 76.514 85.958 76.4887 85.8982 76.438L85.8951 76.4348C85.8511 76.3968 85.8196 76.3461 85.8007 76.2859C85.7881 76.2478 85.7819 76.2066 85.7819 76.1654C85.7819 76.1306 85.7881 76.0894 85.8007 76.0514L85.8039 76.045C85.8227 75.9912 85.8511 75.9405 85.8888 75.9024L85.8919 75.8993C85.9517 75.8454 86.024 75.8137 86.109 75.8137H86.543C86.6311 75.8137 86.7129 75.8074 86.7821 75.7915C86.8513 75.7757 86.9236 75.7535 86.9865 75.7186C87.0494 75.6869 87.106 75.6521 87.1564 75.6045C87.2067 75.5602 87.2507 75.5063 87.2885 75.4461C87.3262 75.3859 87.3545 75.3225 87.3734 75.256C87.3923 75.1862 87.4017 75.107 87.4017 75.0215C87.4017 74.8915 87.3828 74.7774 87.3451 74.6824C87.3073 74.5905 87.2539 74.5081 87.1815 74.4415C87.106 74.3718 87.0211 74.318 86.9268 74.2863C86.8292 74.2514 86.7129 74.2324 86.5839 74.2324C86.5116 74.2324 86.4392 74.2387 86.3763 74.2546C86.3134 74.2672 86.2505 74.2894 86.1939 74.3148C86.1404 74.3401 86.0932 74.3718 86.0492 74.4067C86.0083 74.4415 85.9674 74.4891 85.9328 74.5398C85.8982 74.5905 85.8731 74.6444 85.8573 74.7014C85.8416 74.7584 85.8322 74.825 85.8322 74.8979C85.8322 74.9581 85.8385 75.0183 85.8511 75.0753C85.8636 75.1355 85.8857 75.2021 85.914 75.2718C85.9423 75.3384 85.9454 75.4081 85.9265 75.4746L85.9234 75.4778C85.9045 75.538 85.8668 75.5919 85.8133 75.6362C85.7787 75.6616 85.7441 75.6838 85.7095 75.6964H85.7064C85.6623 75.7123 85.612 75.7218 85.568 75.7218C85.5145 75.7218 85.4642 75.7091 85.417 75.6901C85.3604 75.6648 85.3132 75.6267 85.2786 75.5729L85.266 75.5538L85.2566 75.5285C85.2094 75.4207 85.1748 75.3162 85.1528 75.2116C85.1308 75.1039 85.1182 74.9961 85.1182 74.8915C85.1182 74.7616 85.1371 74.6348 85.1717 74.5113C85.2063 74.3908 85.2597 74.2736 85.3289 74.169C85.3981 74.0644 85.4768 73.9694 85.568 73.8901C85.6592 73.8109 85.763 73.7412 85.8731 73.6873C85.9832 73.6335 86.0995 73.5923 86.2159 73.5669C86.3386 73.5416 86.4612 73.5257 86.5871 73.5257C86.8009 73.5257 87.0054 73.5606 87.1878 73.6303C87.3765 73.7 87.5432 73.8046 87.6879 73.9408C87.8326 74.0803 87.9427 74.2419 88.0182 74.4257C88.0905 74.6032 88.1251 74.8028 88.1251 75.0215C88.1251 75.1704 88.1062 75.313 88.0654 75.4524C88.0245 75.5919 87.9678 75.7218 87.8861 75.8454C87.8137 75.9531 87.7288 76.0514 87.6313 76.1338C87.6942 76.1813 87.7508 76.2383 87.8043 76.2954V76.2985C87.8829 76.3873 87.9521 76.4823 88.0087 76.5806C88.0654 76.6788 88.1125 76.7834 88.1503 76.8911C88.1849 76.9957 88.2132 77.1035 88.2289 77.2175C88.2478 77.3316 88.2572 77.4457 88.2572 77.5566C88.2572 77.9115 88.2415 78.1809 88.2132 78.3679V78.371C88.1786 78.5738 88.1188 78.7576 88.0308 78.9256C87.9427 79.0967 87.8263 79.2457 87.6848 79.3756C87.5401 79.5087 87.3765 79.6101 87.2004 79.6766C87.0211 79.7432 86.8292 79.778 86.6248 79.778C86.4172 79.778 86.2253 79.7432 86.0461 79.6766C85.8668 79.6101 85.7064 79.5087 85.5585 79.3756C85.417 79.2457 85.3006 79.0936 85.2126 78.9224C85.1276 78.7576 85.0679 78.5738 85.0364 78.3679C85.0018 78.1651 84.9861 77.9686 84.9892 77.7721C84.9924 77.582 85.0144 77.3918 85.0553 77.2112L85.0427 77.2144ZM89.9368 75.2623C89.9683 75.3352 89.9683 75.4049 89.9462 75.4746L89.9431 75.4778C89.9242 75.538 89.8865 75.5887 89.833 75.6299L89.8236 75.6394C89.7921 75.6616 89.7575 75.6806 89.7198 75.6964C89.6757 75.7123 89.6286 75.7218 89.5814 75.7218C89.5279 75.7218 89.4776 75.7091 89.4304 75.6901L89.4241 75.6869C89.3675 75.6616 89.3203 75.6204 89.2889 75.5665L89.2794 75.5475L89.2731 75.5317C89.2291 75.4303 89.1945 75.3257 89.1725 75.2179C89.1505 75.107 89.1379 74.9993 89.1379 74.8947C89.1379 74.7648 89.1536 74.638 89.1914 74.5144C89.226 74.3908 89.2763 74.2768 89.3455 74.1722C89.4147 74.0676 89.4933 73.9725 89.5845 73.8933C89.6757 73.8141 89.7764 73.7475 89.8896 73.6905C89.9966 73.6366 90.1129 73.5954 90.2356 73.5701C90.3583 73.5447 90.4809 73.5289 90.6068 73.5289C90.8269 73.5289 91.0282 73.5637 91.2107 73.6335C91.3962 73.7032 91.5629 73.8109 91.7076 73.9535C91.8523 74.0961 91.9592 74.2577 92.0316 74.4447C92.1039 74.6285 92.1385 74.825 92.1385 75.0436V77.5566C92.1385 77.7182 92.1354 77.8735 92.1291 78.0193C92.1228 78.1587 92.1134 78.276 92.0976 78.3679V78.3742C92.063 78.577 92.0033 78.7608 91.9152 78.9288C91.8271 79.0999 91.7108 79.2488 91.5692 79.3788C91.4245 79.5119 91.261 79.6133 91.0848 79.6798C90.9056 79.7464 90.7137 79.7812 90.5093 79.7812C90.3017 79.7812 90.1067 79.7464 89.9274 79.6798C89.7449 79.6133 89.5845 79.5119 89.4398 79.3788C89.2983 79.2488 89.1819 79.0967 89.0939 78.9256C89.0089 78.7608 88.9492 78.577 88.9177 78.371C88.8831 78.1714 88.8674 77.9717 88.8706 77.7753C88.8737 77.5883 88.8957 77.4013 88.9366 77.2207C88.9492 77.1415 88.9901 77.0718 89.0624 77.0211H89.0656C89.1096 76.9925 89.1599 76.9735 89.2197 76.964H89.2323C89.27 76.9609 89.3077 76.9609 89.3455 76.9672C89.3895 76.9767 89.4336 76.9894 89.4744 77.0116C89.5279 77.0401 89.5688 77.0781 89.6003 77.1225L89.6034 77.1256C89.6411 77.1858 89.6569 77.2524 89.6474 77.3221L89.6443 77.3411L89.6411 77.3538C89.6066 77.4964 89.5877 77.6422 89.5845 77.7848C89.5814 77.9337 89.594 78.0922 89.6223 78.2538V78.257C89.6412 78.3837 89.6789 78.501 89.7324 78.6024C89.7827 78.7006 89.8487 78.7893 89.9274 78.8622L89.9305 78.8654C90.006 78.9351 90.0909 78.989 90.1853 79.0238C90.2796 79.0587 90.3866 79.0777 90.5093 79.0777C90.6256 79.0777 90.7357 79.0587 90.8269 79.0238C90.9213 78.989 91.0062 78.9351 91.0817 78.8622C91.1635 78.7862 91.2295 78.6974 91.2799 78.6024C91.3302 78.5041 91.3679 78.39 91.3868 78.2633V78.2601C91.3994 78.1872 91.4088 78.0922 91.4151 77.9749C91.4214 77.864 91.4245 77.7246 91.4245 77.5534V75.0405C91.4245 74.9105 91.4057 74.7933 91.3648 74.6951C91.3302 74.6032 91.2736 74.5176 91.1981 74.4479C91.1226 74.375 91.0377 74.3211 90.9433 74.2863C90.8458 74.2482 90.7326 74.2292 90.6068 74.2292C90.5344 74.2292 90.4652 74.2356 90.3992 74.2514C90.3331 74.2673 90.2702 74.2863 90.2167 74.3116C90.1601 74.337 90.1129 74.3687 90.0689 74.4035C90.028 74.4384 89.9871 74.4859 89.9525 74.5366C89.9211 74.5873 89.8928 74.6412 89.8802 74.6982C89.8645 74.7553 89.855 74.8218 89.855 74.8947C89.855 74.9517 89.8613 75.012 89.8739 75.0722C89.8896 75.1387 89.9116 75.2053 89.9368 75.2686V75.2623ZM100.04 75.3384C100.052 75.5285 100.058 75.7376 100.065 75.9658C100.071 76.213 100.074 76.4443 100.074 76.6566C100.074 76.869 100.071 77.1003 100.065 77.3443C100.058 77.5725 100.049 77.7816 100.04 77.9717V77.9749C100.027 78.1239 100.008 78.2665 99.9829 78.3932C99.9546 78.5295 99.9169 78.6562 99.876 78.7703H99.8728C99.8288 78.8876 99.7722 78.9953 99.7156 79.0904C99.6527 79.1918 99.5835 79.2805 99.508 79.3534H99.5048C99.4325 79.4231 99.3539 79.4865 99.2689 79.5404H99.2658C99.184 79.5942 99.0928 79.6386 99.0016 79.6735C98.9135 79.7083 98.816 79.7337 98.7154 79.7495H98.7122C98.6147 79.7654 98.5141 79.7749 98.4103 79.7749C98.3096 79.7749 98.209 79.7654 98.1115 79.7495C98.0108 79.7305 97.9164 79.7052 97.8252 79.6735C97.734 79.6386 97.646 79.5942 97.561 79.5404C97.473 79.4865 97.3943 79.4231 97.3251 79.3534C97.2496 79.2805 97.1804 79.1918 97.1175 79.0904C97.0578 78.9953 97.0043 78.8876 96.9603 78.7703C96.9162 78.6531 96.8785 78.5295 96.8533 78.3932C96.8282 78.2633 96.8093 78.1207 96.7999 77.9717C96.7873 77.7848 96.7778 77.5756 96.7716 77.3443C96.7653 77.1003 96.7621 76.8689 96.7621 76.6535C96.7621 76.438 96.7653 76.2066 96.7716 75.9595C96.7778 75.7313 96.7873 75.5221 96.7999 75.332C96.8093 75.1831 96.8282 75.0405 96.8533 74.9105C96.8816 74.7743 96.9162 74.6475 96.9603 74.5334C97.0075 74.4162 97.0578 74.3084 97.1175 74.2134C97.1804 74.1151 97.2496 74.0264 97.3251 73.9535H97.3283C97.4006 73.8838 97.4793 73.8204 97.561 73.7666C97.646 73.7127 97.7372 73.6651 97.8252 73.6303H97.8284C97.9196 73.5954 98.014 73.5701 98.1115 73.5511C98.209 73.5352 98.3096 73.5257 98.4103 73.5257C98.6682 73.5257 98.9009 73.5733 99.1085 73.6715C99.2218 73.7254 99.3255 73.7919 99.4199 73.8743C99.5143 73.7951 99.6181 73.7254 99.7313 73.6715C99.9357 73.5733 100.172 73.5257 100.43 73.5257C100.527 73.5257 100.628 73.5352 100.728 73.5511C100.826 73.5669 100.92 73.5954 101.011 73.6303C101.106 73.6651 101.197 73.7095 101.279 73.7634C101.364 73.8173 101.442 73.8806 101.515 73.9504H101.512C101.587 74.0232 101.656 74.1088 101.719 74.2102C101.776 74.3053 101.829 74.413 101.876 74.5334C101.924 74.6507 101.958 74.7775 101.983 74.9137C102.008 75.0436 102.027 75.1831 102.037 75.3352C102.049 75.5222 102.059 75.725 102.068 75.9468C102.075 76.1813 102.081 76.3999 102.081 76.6059C102.081 76.8816 102.075 77.1605 102.062 77.4362C102.049 77.7024 102.034 77.9527 102.008 78.1841V78.1872C101.983 78.4249 101.949 78.6594 101.902 78.8844C101.854 79.1157 101.795 79.3407 101.725 79.5657L101.719 79.5847C101.688 79.6576 101.64 79.7083 101.571 79.7432C101.527 79.7654 101.477 79.778 101.427 79.778C101.376 79.7812 101.329 79.7749 101.288 79.7622L101.285 79.759C101.241 79.7464 101.2 79.7273 101.162 79.6957C101.109 79.6576 101.071 79.6038 101.049 79.5467C101.027 79.4865 101.024 79.4168 101.043 79.3502V79.3471C101.106 79.1474 101.159 78.9414 101.203 78.7291C101.247 78.5168 101.279 78.3108 101.301 78.1017C101.323 77.883 101.339 77.6485 101.351 77.3982C101.361 77.1668 101.367 76.9006 101.367 76.6028C101.367 76.3968 101.364 76.2035 101.357 76.026C101.351 75.8295 101.342 75.6172 101.332 75.3827V75.3796C101.326 75.2718 101.313 75.1704 101.298 75.0785C101.282 74.9866 101.257 74.901 101.228 74.8218C101.2 74.7426 101.169 74.676 101.134 74.619C101.099 74.562 101.062 74.5144 101.024 74.4732C100.983 74.432 100.939 74.394 100.895 74.3655C100.851 74.3338 100.804 74.3084 100.757 74.2894H100.754C100.706 74.2704 100.653 74.2546 100.603 74.2419C100.552 74.2324 100.496 74.2261 100.433 74.2261C100.291 74.2261 100.162 74.2546 100.049 74.3148H100.046C99.9924 74.3401 99.9389 74.375 99.8917 74.4194C99.876 74.432 99.8602 74.4479 99.8445 74.4637C99.8886 74.562 99.9232 74.6665 99.9515 74.7806C99.9955 74.9486 100.024 75.1324 100.04 75.332V75.3384ZM99.3255 77.9274C99.3381 77.6929 99.3444 77.4742 99.3507 77.2682C99.357 77.0876 99.357 76.8816 99.357 76.6535C99.357 76.4253 99.3539 76.2225 99.3507 76.0387C99.3444 75.8327 99.335 75.6141 99.3255 75.3827C99.3193 75.2718 99.3067 75.1704 99.2909 75.0785C99.2721 74.9898 99.2501 74.9042 99.2186 74.825C99.1903 74.7489 99.1588 74.6792 99.1242 74.619C99.0896 74.562 99.055 74.5144 99.0173 74.4764C98.9764 74.4352 98.9355 74.3972 98.8883 74.3687C98.8475 74.3401 98.7971 74.3148 98.7468 74.2926C98.6965 74.2736 98.643 74.2577 98.5895 74.2482C98.5361 74.2387 98.4763 74.2324 98.4134 74.2324C98.3536 74.2324 98.297 74.2387 98.2436 74.2482C98.1901 74.2577 98.1398 74.2736 98.0894 74.2958C98.0391 74.318 97.9919 74.3433 97.9479 74.3718C97.9039 74.4035 97.8598 74.4384 97.8189 74.4796C97.7812 74.5208 97.7466 74.5683 97.712 74.6222C97.6774 74.6824 97.6428 74.7521 97.6145 74.8282C97.583 74.9105 97.561 74.9929 97.5422 75.0817C97.5264 75.1767 97.5138 75.2781 97.5076 75.3859C97.4981 75.6204 97.4887 75.839 97.4824 76.0419C97.4793 76.2225 97.4761 76.4285 97.4761 76.6566C97.4761 76.8816 97.4793 77.0876 97.4824 77.2682C97.4887 77.4742 97.4981 77.6929 97.5076 77.9274C97.5138 78.0351 97.5264 78.1365 97.5422 78.2284C97.5579 78.3172 97.583 78.4027 97.6114 78.4819C97.6397 78.5612 97.6711 78.6309 97.7057 78.6879C97.7372 78.7418 97.7749 78.7925 97.8127 78.8305C97.8535 78.8717 97.8944 78.9098 97.9416 78.9414C97.9856 78.97 98.0328 78.9985 98.08 79.0175H98.0831C98.1303 79.0365 98.1807 79.0524 98.2341 79.0619C98.2876 79.0714 98.3442 79.0777 98.404 79.0777C98.4669 79.0777 98.5266 79.0714 98.5833 79.0619C98.6367 79.0524 98.6902 79.0365 98.7374 79.0175C98.7846 78.9985 98.8317 78.9731 98.8758 78.9414C98.9229 78.9098 98.967 78.8717 99.0047 78.8305C99.0425 78.7925 99.0802 78.7418 99.1117 78.6879C99.1463 78.6277 99.1777 78.5612 99.206 78.4819V78.4788C99.2343 78.3996 99.2595 78.3172 99.2752 78.2253C99.2941 78.1334 99.3035 78.032 99.3098 77.9242L99.3255 77.9274ZM102.767 77.1035C102.785 77.0274 102.829 76.9672 102.895 76.9228L102.902 76.9197C102.946 76.8911 102.999 76.8753 103.056 76.869C103.1 76.8658 103.141 76.8658 103.182 76.8721L103.188 76.8753C103.226 76.8816 103.267 76.8975 103.304 76.9165L103.308 76.9197C103.361 76.9513 103.405 76.9894 103.436 77.0401V77.0432C103.477 77.113 103.487 77.1827 103.471 77.2587L103.468 77.2619C103.449 77.3316 103.436 77.4077 103.427 77.4901C103.418 77.5788 103.411 77.6675 103.408 77.7563C103.408 77.845 103.408 77.9337 103.414 78.0193C103.421 78.1048 103.43 78.1841 103.443 78.2538V78.2601C103.465 78.3869 103.503 78.501 103.553 78.6055C103.603 78.7038 103.669 78.7893 103.751 78.8622C103.826 78.9319 103.915 78.989 104.006 79.0238C104.1 79.0587 104.207 79.0777 104.327 79.0777C104.446 79.0777 104.553 79.0587 104.647 79.0238C104.742 78.989 104.824 78.9351 104.902 78.8654C104.984 78.7893 105.05 78.7006 105.1 78.6055C105.154 78.5041 105.188 78.39 105.21 78.2633C105.223 78.1904 105.232 78.089 105.239 77.9559C105.245 77.8323 105.248 77.6675 105.248 77.4584C105.248 77.3696 105.248 77.3031 105.245 77.2556C105.242 77.2017 105.239 77.1383 105.232 77.0686L105.217 76.888C105.21 76.8341 105.204 76.7834 105.198 76.7327V76.7295C105.192 76.6883 105.185 76.644 105.176 76.5964C105.166 76.5489 105.154 76.5014 105.141 76.4602L105.1 76.3176L105.066 76.2066C105.056 76.175 105.044 76.1464 105.028 76.1116C105.012 76.0767 104.993 76.0387 104.975 76.007L104.912 75.8929L104.858 75.801L104.814 75.7313L104.729 75.6172L104.588 75.4334L104.424 75.2306L104.421 75.2274L104.412 75.2179L104.402 75.2053L104.333 75.1197L104.33 75.1165L104.279 75.0563L104.276 75.0532L104.235 74.9993L104.232 74.9961L104.166 74.9105C104.138 74.8725 104.113 74.8408 104.094 74.8123L104.091 74.8091C104.069 74.7743 104.05 74.7458 104.037 74.7204L103.965 74.5746C103.943 74.5366 103.927 74.4986 103.911 74.4574C103.896 74.4162 103.883 74.375 103.874 74.337L103.871 74.3275L103.855 74.2419V74.2356L103.839 74.131L103.836 74.1215C103.833 74.0835 103.826 74.0423 103.823 73.9947C103.82 73.944 103.817 73.8997 103.817 73.8616C103.817 73.7951 103.839 73.7349 103.877 73.6778L103.88 73.6715C103.918 73.6208 103.968 73.5828 104.028 73.5606H104.031C104.078 73.5416 104.125 73.5321 104.172 73.5321C104.22 73.5321 104.264 73.5416 104.311 73.5574L104.317 73.5606C104.374 73.5828 104.424 73.6144 104.459 73.6588C104.509 73.7159 104.531 73.7856 104.531 73.8585C104.531 73.9092 104.534 73.9599 104.537 74.0042C104.54 74.0454 104.55 74.0866 104.556 74.1278C104.562 74.1627 104.575 74.1975 104.588 74.2324C104.6 74.2672 104.619 74.3021 104.635 74.3338C104.654 74.3687 104.676 74.4035 104.701 74.4415C104.72 74.4701 104.739 74.4986 104.754 74.5208L104.83 74.6127L104.937 74.7426L105.122 74.9644L105.125 74.9676L105.198 75.0563L105.204 75.0627L105.295 75.1862L105.298 75.1894L105.39 75.3098V75.313C105.424 75.3605 105.446 75.3954 105.465 75.4239L105.468 75.4303L105.528 75.5285L105.531 75.5317L105.604 75.6616C105.632 75.7091 105.657 75.763 105.682 75.8137C105.704 75.8644 105.726 75.9151 105.742 75.9595V75.9626L105.783 76.0894V76.0926L105.83 76.2447C105.849 76.3112 105.865 76.3714 105.877 76.4253V76.4285C105.89 76.4887 105.902 76.5521 105.909 76.6154V76.6186L105.931 76.7961V76.8024L105.95 76.9957C105.956 77.0559 105.959 77.132 105.962 77.2207C105.968 77.3126 105.968 77.3918 105.968 77.4552C105.968 77.6517 105.965 77.8323 105.956 77.9939C105.95 78.1492 105.937 78.276 105.921 78.371C105.89 78.5738 105.83 78.7576 105.742 78.9224C105.654 79.0936 105.538 79.2457 105.396 79.3756C105.251 79.5087 105.088 79.6101 104.908 79.6766C104.729 79.7432 104.537 79.778 104.333 79.778C104.128 79.778 103.933 79.7432 103.757 79.6766C103.578 79.6101 103.414 79.5087 103.27 79.3756C103.128 79.2457 103.015 79.0967 102.924 78.9256C102.839 78.7608 102.779 78.577 102.744 78.3742C102.729 78.2791 102.716 78.1777 102.707 78.0732C102.7 77.9749 102.697 77.864 102.697 77.7468C102.697 77.6295 102.707 77.5218 102.716 77.4172C102.729 77.3094 102.744 77.208 102.767 77.113V77.1066V77.1035ZM111.838 77.5249C111.838 77.6675 111.831 77.8101 111.819 77.9527C111.806 78.0922 111.79 78.2316 111.765 78.371C111.734 78.5738 111.671 78.7576 111.586 78.9256C111.498 79.0967 111.382 79.2488 111.24 79.3788C111.092 79.5119 110.932 79.6133 110.752 79.6798H110.749C110.57 79.7464 110.378 79.7812 110.174 79.7812C109.966 79.7812 109.777 79.7464 109.598 79.6798C109.419 79.6133 109.255 79.5087 109.111 79.3788C108.969 79.2457 108.853 79.0967 108.765 78.9256C108.68 78.7608 108.617 78.5738 108.585 78.371C108.563 78.2284 108.544 78.0858 108.532 77.9401V77.9369C108.519 77.7848 108.513 77.6295 108.513 77.4711C108.513 77.3126 108.519 77.151 108.532 76.9989C108.541 76.8499 108.56 76.7042 108.585 76.5679C108.617 76.3651 108.68 76.1813 108.765 76.0165C108.853 75.8454 108.969 75.6964 109.111 75.5665C109.255 75.4334 109.419 75.332 109.598 75.2655C109.777 75.1989 109.969 75.1641 110.177 75.1641C110.334 75.1641 110.488 75.1862 110.639 75.2306C110.787 75.275 110.929 75.3415 111.058 75.4271L111.117 75.4683V75.2116C111.117 75.0468 111.095 74.901 111.054 74.7806C111.014 74.6665 110.954 74.5651 110.875 74.4827C110.8 74.4003 110.705 74.3401 110.601 74.2989C110.488 74.2546 110.353 74.2324 110.196 74.2324C110.079 74.2324 109.972 74.2482 109.872 74.2799H109.869C109.771 74.3116 109.68 74.3591 109.592 74.4225C109.51 74.4827 109.444 74.5525 109.394 74.6317C109.343 74.7141 109.309 74.8091 109.29 74.9137C109.277 74.9961 109.24 75.0563 109.174 75.107C109.129 75.1387 109.076 75.1609 109.016 75.1704V75.1672C108.931 75.1831 108.85 75.1704 108.774 75.1387C108.708 75.1134 108.658 75.069 108.623 75.012C108.582 74.9454 108.57 74.8693 108.585 74.7933C108.61 74.6665 108.648 74.5461 108.699 74.4352H108.702C108.752 74.3211 108.821 74.2165 108.897 74.1183C108.975 74.0201 109.063 73.9345 109.158 73.8585C109.255 73.7824 109.362 73.7222 109.475 73.6715H109.479C109.589 73.624 109.705 73.5891 109.825 73.5637C109.944 73.5384 110.07 73.5257 110.193 73.5257C110.441 73.5257 110.664 73.5637 110.863 73.6398C111.07 73.719 111.246 73.8363 111.397 73.9947C111.545 74.15 111.655 74.3306 111.727 74.5366C111.8 74.7363 111.834 74.9612 111.834 75.2053V77.5218L111.838 77.5249ZM111.12 77.4711C111.12 77.3253 111.117 77.189 111.105 77.0623C111.095 76.9323 111.083 76.8024 111.061 76.6756C111.039 76.5521 111.004 76.438 110.951 76.3366C110.9 76.2383 110.834 76.1496 110.752 76.0767C110.677 76.007 110.589 75.95 110.495 75.9151C110.4 75.8802 110.293 75.8612 110.174 75.8612C110.054 75.8612 109.947 75.8802 109.853 75.9151C109.759 75.95 109.674 76.0038 109.598 76.0767C109.516 76.1528 109.45 76.2383 109.4 76.3366C109.346 76.438 109.312 76.5521 109.29 76.6788V76.682C109.271 76.7897 109.255 76.907 109.246 77.0337C109.236 77.1605 109.23 77.3063 109.23 77.4679C109.23 77.6263 109.236 77.7689 109.246 77.8957C109.255 78.0256 109.271 78.146 109.29 78.257C109.312 78.3837 109.35 78.4978 109.4 78.5992C109.45 78.6974 109.516 78.7862 109.598 78.8591C109.674 78.9319 109.759 78.9826 109.853 79.0175C109.947 79.0524 110.054 79.0714 110.174 79.0714C110.29 79.0714 110.397 79.0524 110.495 79.0175C110.589 78.9826 110.677 78.9288 110.752 78.8559C110.831 78.783 110.897 78.6943 110.951 78.596C111.004 78.4946 111.039 78.3805 111.061 78.257C111.08 78.1429 111.095 78.0161 111.105 77.8798C111.114 77.7531 111.12 77.6137 111.12 77.4647V77.4711ZM115.275 77.563C115.244 77.5788 115.209 77.5915 115.178 77.5978C115.15 77.6042 115.118 77.6073 115.09 77.6073C115.062 77.6073 115.03 77.6042 114.999 77.5978C114.967 77.5915 114.939 77.582 114.914 77.5693L114.907 77.5661L114.892 77.5566C114.844 77.5313 114.807 77.4964 114.782 77.4552L114.778 77.4489C114.747 77.4013 114.731 77.3475 114.731 77.2904V75.0373C114.731 74.9517 114.722 74.8757 114.709 74.8028C114.697 74.7331 114.675 74.6665 114.646 74.6C114.621 74.5429 114.587 74.4922 114.546 74.4447C114.505 74.3972 114.458 74.356 114.407 74.3243C114.357 74.2926 114.303 74.2672 114.244 74.2482C114.184 74.2324 114.118 74.2229 114.046 74.2229C113.939 74.2229 113.844 74.2419 113.763 74.2799C113.681 74.318 113.602 74.3813 113.536 74.4669C113.464 74.5556 113.407 74.6729 113.366 74.8155C113.322 74.9739 113.291 75.1609 113.281 75.3764V75.3796C113.269 75.6109 113.259 75.8295 113.253 76.0228C113.247 76.2003 113.247 76.3904 113.247 76.5964C113.247 76.8943 113.253 77.1605 113.262 77.395C113.272 77.6422 113.291 77.8735 113.313 78.0953C113.335 78.3077 113.366 78.5168 113.41 78.7291C113.454 78.9383 113.505 79.1411 113.571 79.3471C113.593 79.4136 113.593 79.477 113.571 79.5404L113.567 79.5467C113.545 79.6038 113.505 79.6545 113.454 79.6957H113.451L113.445 79.6988C113.41 79.7242 113.372 79.7432 113.332 79.7559C113.284 79.7717 113.237 79.778 113.19 79.7749C113.13 79.7717 113.074 79.7559 113.03 79.7305C112.964 79.6925 112.916 79.6354 112.891 79.5626C112.819 79.3407 112.759 79.1126 112.712 78.8812C112.665 78.6499 112.627 78.4154 112.602 78.1746C112.58 77.9401 112.561 77.6929 112.548 77.4267C112.536 77.151 112.53 76.8721 112.53 76.5964C112.53 76.3936 112.533 76.1781 112.542 75.9436C112.548 75.7218 112.558 75.519 112.57 75.332C112.577 75.2116 112.592 75.0943 112.611 74.9771C112.63 74.863 112.652 74.7553 112.681 74.6602C112.709 74.562 112.743 74.4701 112.778 74.3877C112.813 74.3021 112.854 74.2229 112.901 74.1532C112.945 74.0835 112.995 74.0169 113.049 73.9567C113.102 73.8965 113.165 73.8394 113.228 73.7919C113.291 73.7444 113.354 73.7063 113.42 73.6715C113.489 73.6366 113.558 73.6081 113.624 73.5891H113.627C113.693 73.5701 113.763 73.5542 113.832 73.5447C113.904 73.5352 113.976 73.5289 114.049 73.5289C114.197 73.5289 114.338 73.5479 114.473 73.5891C114.609 73.6303 114.734 73.6937 114.851 73.7761H114.854C114.945 73.8394 115.024 73.9155 115.096 74.0011C115.168 73.9187 115.247 73.8426 115.341 73.7761C115.458 73.6937 115.584 73.6303 115.719 73.5891C115.854 73.5479 115.996 73.5257 116.144 73.5257C116.291 73.5257 116.433 73.5447 116.565 73.5859H116.568C116.634 73.6049 116.703 73.6335 116.773 73.6683C116.835 73.7 116.902 73.7412 116.961 73.7887C117.024 73.8363 117.087 73.8933 117.141 73.9535C117.194 74.0137 117.244 74.0803 117.288 74.15C117.336 74.2229 117.376 74.3021 117.411 74.3845C117.446 74.4669 117.48 74.5588 117.509 74.6602C117.537 74.7584 117.562 74.863 117.578 74.9771C117.597 75.0912 117.609 75.2116 117.619 75.332C117.631 75.5221 117.641 75.7281 117.647 75.95C117.653 76.1813 117.656 76.3999 117.656 76.5996C117.656 76.8753 117.65 77.151 117.638 77.4299C117.625 77.6961 117.609 77.9432 117.584 78.1777C117.559 78.4154 117.521 78.6499 117.474 78.8844C117.424 79.1157 117.367 79.3439 117.295 79.5657C117.273 79.6386 117.225 79.6956 117.156 79.7337C117.112 79.759 117.059 79.7749 116.996 79.778C116.949 79.778 116.898 79.7717 116.854 79.759C116.817 79.7464 116.779 79.7273 116.747 79.7052C116.688 79.6671 116.65 79.6133 116.625 79.5531C116.6 79.4833 116.6 79.4104 116.625 79.3407C116.684 79.1474 116.738 78.9446 116.782 78.7386C116.826 78.5263 116.857 78.314 116.88 78.1048C116.902 77.8862 116.917 77.6517 116.93 77.4045C116.939 77.17 116.946 76.9038 116.946 76.6059C116.946 76.3999 116.942 76.2098 116.939 76.0324C116.933 75.8359 116.924 75.6204 116.911 75.3891V75.3859C116.902 75.1704 116.87 74.9834 116.823 74.825C116.782 74.6824 116.725 74.5651 116.653 74.4764C116.587 74.3908 116.511 74.3306 116.43 74.2894C116.348 74.2482 116.254 74.2292 116.147 74.2292C116.074 74.2292 116.008 74.2387 115.948 74.2546C115.889 74.2736 115.835 74.2989 115.785 74.3306C115.731 74.3655 115.684 74.4067 115.647 74.451C115.606 74.4986 115.571 74.5493 115.546 74.6063C115.518 74.6665 115.496 74.7363 115.483 74.8091C115.467 74.882 115.461 74.9581 115.461 75.0436V77.2968C115.461 77.3538 115.445 77.4077 115.411 77.4584V77.4615C115.382 77.5027 115.345 77.5376 115.297 77.563L115.288 77.5693L115.275 77.563ZM118.311 77.2144C118.323 77.1351 118.367 77.0654 118.443 77.0179C118.487 76.9894 118.537 76.9704 118.594 76.964H118.606C118.641 76.9609 118.682 76.9609 118.72 76.9672C118.764 76.9735 118.804 76.9894 118.845 77.0116L118.852 77.0147C118.905 77.0432 118.946 77.0813 118.974 77.1256L118.977 77.1288C119.012 77.1858 119.031 77.2492 119.025 77.3158L119.021 77.3316L119.015 77.3538C118.946 77.6327 118.94 77.9337 118.996 78.2538C119.018 78.3837 119.056 78.4978 119.106 78.5992C119.157 78.6974 119.223 78.783 119.301 78.8591V78.8622C119.377 78.9319 119.462 78.9858 119.553 79.0207H119.556C119.651 79.0555 119.757 79.0745 119.88 79.0745C119.996 79.0745 120.103 79.0555 120.198 79.0207C120.292 78.9858 120.374 78.9319 120.453 78.8591C120.531 78.783 120.597 78.6974 120.651 78.5992C120.704 78.4978 120.742 78.3837 120.761 78.257V78.2538C120.773 78.1809 120.786 78.0858 120.792 77.9717C120.799 77.864 120.802 77.7214 120.802 77.5503C120.802 77.4774 120.795 77.4077 120.786 77.338C120.777 77.2682 120.758 77.2017 120.739 77.1383V77.1351C120.717 77.0686 120.692 77.0084 120.663 76.9545C120.635 76.9006 120.6 76.8499 120.563 76.7992C120.528 76.7549 120.49 76.7168 120.446 76.682C120.402 76.6471 120.352 76.6154 120.298 76.5869C120.245 76.5616 120.192 76.5394 120.132 76.5267C120.072 76.514 120.009 76.5077 119.94 76.5077H119.377C119.298 76.5077 119.229 76.4823 119.169 76.4316L119.166 76.4285C119.125 76.3904 119.091 76.3397 119.072 76.2795C119.059 76.2415 119.053 76.2003 119.053 76.1591C119.053 76.1242 119.059 76.0831 119.072 76.045L119.075 76.0387C119.094 75.9817 119.122 75.9341 119.16 75.8961L119.166 75.8929C119.226 75.8359 119.298 75.8074 119.383 75.8074H119.817C119.905 75.8074 119.984 75.7979 120.056 75.7852C120.129 75.7693 120.198 75.744 120.264 75.7123C120.327 75.6806 120.383 75.6426 120.431 75.5982C120.481 75.5538 120.525 75.5 120.563 75.4398C120.6 75.3796 120.629 75.3162 120.648 75.2496V75.2465C120.666 75.1767 120.676 75.0975 120.676 75.012C120.676 74.882 120.657 74.7679 120.619 74.6729C120.585 74.581 120.528 74.4986 120.456 74.432C120.38 74.3623 120.295 74.3084 120.201 74.2768C120.103 74.2419 119.987 74.2229 119.858 74.2229C119.783 74.2229 119.713 74.2292 119.651 74.2451C119.584 74.2577 119.525 74.2799 119.468 74.3053C119.415 74.3306 119.367 74.3623 119.323 74.3972C119.283 74.432 119.242 74.4796 119.207 74.5303C119.172 74.581 119.147 74.6348 119.132 74.6919C119.116 74.7489 119.106 74.8155 119.106 74.8884C119.106 74.9486 119.113 75.0088 119.125 75.0658C119.138 75.1292 119.16 75.1958 119.188 75.2623C119.216 75.332 119.22 75.4017 119.198 75.4714C119.179 75.5317 119.141 75.5824 119.088 75.6267C119.056 75.6521 119.018 75.6743 118.984 75.6869H118.981C118.933 75.7028 118.886 75.7123 118.842 75.7123C118.789 75.7123 118.738 75.6996 118.691 75.6806H118.688C118.635 75.6552 118.591 75.6204 118.559 75.5697L118.543 75.5475L118.534 75.5222C118.49 75.4144 118.455 75.3067 118.43 75.2053C118.408 75.0975 118.396 74.9898 118.396 74.8852C118.396 74.7553 118.414 74.6285 118.449 74.5049C118.484 74.3845 118.537 74.2672 118.606 74.1627C118.675 74.0581 118.754 73.963 118.845 73.8838C118.937 73.8046 119.04 73.7349 119.15 73.681C119.26 73.6271 119.374 73.5859 119.493 73.5606C119.616 73.5352 119.739 73.5194 119.864 73.5194C120.078 73.5194 120.28 73.5542 120.465 73.624C120.654 73.6937 120.821 73.7982 120.962 73.9345C121.107 74.0739 121.22 74.2356 121.289 74.4194C121.362 74.6 121.396 74.7965 121.396 75.0151C121.396 75.1641 121.377 75.3067 121.336 75.4461C121.296 75.5855 121.236 75.7155 121.157 75.839C121.085 75.95 121 76.045 120.902 76.1306C120.965 76.1781 121.022 76.2352 121.072 76.2922V76.2954C121.151 76.3809 121.217 76.476 121.277 76.5774C121.333 76.6756 121.38 76.7802 121.418 76.888C121.453 76.9925 121.478 77.1003 121.497 77.2144C121.516 77.3284 121.525 77.4425 121.525 77.5534C121.525 77.7151 121.522 77.8703 121.513 78.0161C121.506 78.1587 121.494 78.276 121.481 78.3647V78.3679C121.446 78.5707 121.387 78.7545 121.299 78.9224C121.211 79.0936 121.094 79.2425 120.953 79.3724C120.808 79.5055 120.648 79.6069 120.468 79.6735C120.289 79.74 120.097 79.7749 119.893 79.7749C119.685 79.7749 119.493 79.74 119.314 79.6735C119.135 79.6069 118.971 79.5055 118.826 79.3724H118.823C118.682 79.2425 118.569 79.0904 118.48 78.9193C118.396 78.7545 118.336 78.5707 118.304 78.3647C118.27 78.1619 118.254 77.9654 118.257 77.7689C118.26 77.5788 118.282 77.3887 118.323 77.208L118.311 77.2144ZM126.07 77.1035C126.089 77.0274 126.133 76.9672 126.199 76.9228L126.205 76.9197C126.253 76.8911 126.303 76.8753 126.363 76.869C126.407 76.8658 126.448 76.8658 126.485 76.8721L126.492 76.8753C126.529 76.8816 126.57 76.8975 126.608 76.9165L126.611 76.9197C126.665 76.9513 126.709 76.9894 126.74 77.0401V77.0432C126.781 77.113 126.79 77.1827 126.775 77.2587L126.771 77.2619C126.753 77.3316 126.74 77.4077 126.731 77.4901C126.721 77.5788 126.715 77.6675 126.712 77.7563C126.712 77.845 126.712 77.9337 126.718 78.0193C126.724 78.1048 126.734 78.1841 126.749 78.2538V78.2601C126.771 78.3869 126.809 78.501 126.863 78.6055H126.86C126.91 78.7038 126.976 78.7893 127.058 78.8622C127.133 78.9319 127.221 78.989 127.312 79.0238C127.407 79.0587 127.514 79.0777 127.633 79.0777C127.753 79.0777 127.86 79.0587 127.954 79.0238C128.048 78.989 128.133 78.9351 128.209 78.8654H128.206C128.288 78.7893 128.354 78.7006 128.404 78.6055C128.457 78.5041 128.495 78.39 128.514 78.2633V78.2601C128.527 78.1872 128.536 78.0858 128.542 77.9527C128.549 77.8291 128.552 77.6644 128.552 77.4552C128.552 77.3665 128.552 77.2999 128.549 77.2524C128.549 77.1985 128.542 77.1351 128.536 77.0654L128.52 76.8816C128.514 76.8309 128.508 76.7771 128.501 76.7295V76.7264C128.495 76.6852 128.489 76.6408 128.479 76.5933C128.47 76.5457 128.457 76.4982 128.445 76.457L128.401 76.3144L128.366 76.2035C128.357 76.1718 128.341 76.1433 128.328 76.1084C128.313 76.0735 128.294 76.0355 128.278 76.0038L128.212 75.8866L128.159 75.7978C128.149 75.7788 128.13 75.7567 128.111 75.7281L128.026 75.614L127.885 75.4303L127.721 75.2274L127.715 75.2243L127.706 75.2148L127.696 75.2021L127.624 75.1165L127.621 75.1134L127.57 75.0532L127.567 75.05L127.526 74.9961L127.523 74.9929L127.457 74.9074C127.423 74.863 127.397 74.8282 127.382 74.806C127.36 74.7743 127.341 74.7426 127.328 74.7141L127.253 74.5651C127.231 74.5239 127.212 74.4859 127.199 74.4479C127.184 74.4099 127.171 74.3687 127.162 74.3306L127.158 74.3211L127.143 74.2356L127.139 74.2292L127.124 74.1246L127.121 74.1151C127.114 74.0771 127.111 74.0359 127.108 73.9884C127.105 73.9377 127.102 73.8933 127.102 73.8553C127.102 73.7887 127.124 73.7285 127.162 73.6715L127.165 73.6651C127.202 73.6144 127.253 73.5764 127.316 73.5542H127.319C127.366 73.5352 127.413 73.5257 127.46 73.5257C127.504 73.5257 127.552 73.5352 127.599 73.5511L127.605 73.5542C127.662 73.5764 127.712 73.6081 127.75 73.6525C127.8 73.7095 127.822 73.7792 127.822 73.8521C127.822 73.9092 127.825 73.9567 127.828 73.9947C127.831 74.0359 127.838 74.0771 127.847 74.1183C127.853 74.1532 127.866 74.188 127.879 74.2229C127.891 74.2577 127.91 74.2926 127.926 74.3243C127.948 74.3591 127.967 74.394 127.992 74.432C128.011 74.4606 128.03 74.4891 128.045 74.5113L128.121 74.6032L128.228 74.7331L128.413 74.9549L128.416 74.9581L128.489 75.0468L128.495 75.0532L128.586 75.1767L128.589 75.1799L128.678 75.3003V75.3035C128.712 75.351 128.737 75.3859 128.753 75.4144L128.756 75.4207L128.816 75.519L128.819 75.5222L128.891 75.6521C128.92 75.7028 128.948 75.7567 128.97 75.8042V75.8074C128.989 75.8517 129.011 75.8993 129.027 75.9531L129.03 75.9563L129.071 76.0831V76.0862L129.118 76.2383C129.137 76.3017 129.152 76.3651 129.165 76.4221C129.178 76.4792 129.19 76.5425 129.197 76.6091V76.6123L129.219 76.7897V76.7961L129.234 76.9894C129.241 77.0496 129.244 77.1256 129.247 77.2144C129.25 77.3063 129.253 77.3855 129.253 77.4489C129.253 77.6453 129.25 77.826 129.241 77.9876C129.234 78.1429 129.222 78.2696 129.206 78.3647C129.171 78.5675 129.115 78.7513 129.027 78.9161C128.939 79.0872 128.822 79.2393 128.681 79.3693C128.536 79.5023 128.372 79.6038 128.193 79.6703C128.014 79.7368 127.822 79.7717 127.618 79.7717C127.413 79.7717 127.218 79.7368 127.039 79.6703C126.86 79.6038 126.696 79.5023 126.551 79.3693C126.41 79.2393 126.293 79.0904 126.208 78.9193C126.12 78.7545 126.064 78.5707 126.029 78.3679C126.013 78.2728 125.998 78.1682 125.991 78.0636C125.985 77.9654 125.982 77.8577 125.982 77.7404C125.982 77.6232 125.988 77.5154 126.001 77.4108C126.013 77.3031 126.029 77.2017 126.048 77.1066V77.1003L126.07 77.1035ZM136.877 74.9359C136.899 75.069 136.915 75.2084 136.928 75.3574C136.94 75.5095 136.943 75.6711 136.943 75.8359C136.943 76.0038 136.937 76.1686 136.928 76.3239C136.918 76.476 136.899 76.6154 136.877 76.7422C136.846 76.9418 136.786 77.1256 136.698 77.2904C136.61 77.4615 136.494 77.6105 136.352 77.7436C136.207 77.8767 136.047 77.9781 135.865 78.0446C135.685 78.1112 135.493 78.146 135.289 78.146C134.871 78.146 134.518 78.0129 134.226 77.7436C134.084 77.6137 133.968 77.4615 133.88 77.2936C133.792 77.1288 133.732 76.945 133.701 76.7422C133.679 76.5964 133.66 76.4507 133.647 76.3049C133.635 76.1496 133.631 75.9943 133.631 75.839C133.631 75.6774 133.638 75.5221 133.647 75.3669C133.657 75.2211 133.675 75.0753 133.701 74.9391C133.713 74.8725 133.726 74.8091 133.741 74.7489L133.764 74.6697C133.741 74.6127 133.719 74.562 133.688 74.5176C133.65 74.4574 133.6 74.4035 133.543 74.3591C133.487 74.3148 133.427 74.2831 133.361 74.2609C133.295 74.2419 133.219 74.2292 133.138 74.2292C133.084 74.2292 133.034 74.2356 132.99 74.2451C132.946 74.2546 132.902 74.2672 132.861 74.2863C132.82 74.3053 132.779 74.3275 132.744 74.3528C132.713 74.375 132.682 74.4035 132.653 74.432C132.622 74.4701 132.59 74.5113 132.562 74.5525C132.534 74.5937 132.509 74.6412 132.487 74.6887H132.49C132.464 74.7426 132.442 74.7933 132.43 74.8408C132.414 74.8884 132.405 74.9422 132.395 74.9993V75.0056C132.376 75.1197 132.361 75.2465 132.351 75.3827C132.342 75.5158 132.336 75.6679 132.336 75.839C132.336 76.0102 132.345 76.1845 132.358 76.3524C132.373 76.5299 132.395 76.7042 132.427 76.8785C132.458 77.0528 132.493 77.2175 132.54 77.3728C132.584 77.5249 132.637 77.6675 132.697 77.8038C132.788 78.0129 132.902 78.1967 133.037 78.3552C133.169 78.5105 133.326 78.6436 133.499 78.7545C133.675 78.8622 133.867 78.9446 134.069 78.9985C134.27 79.0524 134.49 79.0809 134.723 79.0809H135.352C135.44 79.0809 135.512 79.1126 135.572 79.1728C135.61 79.2108 135.635 79.2552 135.654 79.309C135.67 79.3502 135.673 79.3914 135.673 79.4326C135.673 79.4707 135.666 79.5119 135.654 79.5531C135.635 79.6101 135.607 79.6513 135.572 79.6893L135.569 79.6925C135.509 79.7495 135.437 79.7812 135.349 79.7812H132.817C132.694 79.7812 132.603 79.7273 132.543 79.6259L132.54 79.6196C132.509 79.5657 132.496 79.5023 132.496 79.4295C132.496 79.3566 132.512 79.2932 132.543 79.2393V79.2362C132.593 79.1506 132.666 79.0967 132.76 79.084C132.729 79.0555 132.697 79.027 132.666 78.9985C132.534 78.8686 132.414 78.7291 132.31 78.5738C132.207 78.4249 132.115 78.2601 132.037 78.0795C131.968 77.921 131.905 77.7499 131.851 77.5661C131.801 77.3887 131.757 77.1985 131.722 76.9989C131.688 76.7992 131.662 76.6059 131.644 76.4126C131.628 76.2161 131.618 76.0228 131.618 75.8327C131.618 75.6584 131.625 75.4905 131.634 75.3288C131.644 75.1736 131.662 75.0278 131.684 74.8947C131.703 74.7775 131.732 74.6602 131.769 74.5461H131.766C131.804 74.4352 131.854 74.3306 131.911 74.2292C131.971 74.1278 132.043 74.0359 132.125 73.9472C132.207 73.8616 132.301 73.7856 132.402 73.7254C132.509 73.6588 132.625 73.6081 132.748 73.5732C132.87 73.5416 132.996 73.5225 133.128 73.5225C133.263 73.5225 133.399 73.5416 133.524 73.5764C133.653 73.6113 133.773 73.6651 133.883 73.738C133.987 73.8046 134.081 73.8838 134.163 73.9757C134.257 73.8806 134.364 73.8014 134.484 73.7317H134.487C134.606 73.662 134.735 73.6113 134.868 73.5764V73.5732C135.003 73.5384 135.141 73.5194 135.283 73.5194C135.698 73.5194 136.053 73.6525 136.343 73.9218C136.484 74.0518 136.597 74.2039 136.689 74.3718C136.774 74.5366 136.833 74.7204 136.868 74.9232L136.877 74.9359ZM136.226 75.8359C136.226 75.6806 136.223 75.538 136.214 75.4144C136.207 75.2845 136.192 75.1609 136.176 75.0436C136.154 74.9169 136.116 74.8028 136.066 74.7046C136.012 74.6063 135.946 74.5176 135.865 74.4447C135.786 74.3718 135.701 74.318 135.61 74.2831C135.515 74.2482 135.412 74.2292 135.295 74.2292C135.063 74.2292 134.871 74.3021 134.713 74.4447C134.632 74.5208 134.566 74.6063 134.515 74.7046C134.465 74.8028 134.427 74.9169 134.405 75.0436C134.386 75.1641 134.374 75.2908 134.364 75.4207C134.355 75.5443 134.352 75.6869 134.352 75.8359C134.352 75.9817 134.355 76.1179 134.364 76.2447C134.374 76.3746 134.386 76.5045 134.405 76.6313C134.427 76.758 134.465 76.8689 134.515 76.9704C134.566 77.0654 134.632 77.1542 134.713 77.2302C134.792 77.3031 134.88 77.357 134.971 77.3918C135.066 77.4267 135.173 77.4457 135.292 77.4457C135.408 77.4457 135.515 77.4267 135.61 77.3918C135.701 77.357 135.786 77.3031 135.865 77.2334H135.868C135.946 77.1605 136.016 77.0718 136.066 76.9767C136.116 76.8785 136.154 76.7644 136.179 76.6408C136.195 76.5235 136.211 76.4 136.217 76.27V76.2669C136.226 76.1433 136.229 75.9975 136.229 75.8359H136.226ZM137.491 77.1066C137.51 77.0306 137.554 76.9704 137.62 76.926L137.626 76.9228C137.67 76.8943 137.723 76.8785 137.78 76.8721C137.824 76.869 137.865 76.869 137.906 76.8753L137.912 76.8785C137.95 76.8848 137.988 76.9006 138.029 76.9197L138.032 76.9228C138.085 76.9545 138.129 76.9925 138.161 77.0432V77.0464C138.202 77.1161 138.211 77.1859 138.195 77.2619V77.2651C138.176 77.3348 138.164 77.4108 138.154 77.4932C138.145 77.582 138.139 77.6707 138.135 77.7594C138.132 77.8482 138.135 77.9369 138.142 78.0224C138.148 78.108 138.157 78.1872 138.17 78.257V78.2633C138.192 78.39 138.23 78.5041 138.283 78.6087C138.334 78.7069 138.4 78.7925 138.478 78.8654C138.554 78.9351 138.639 78.9921 138.733 79.027C138.827 79.0619 138.934 79.0809 139.054 79.0809C139.173 79.0809 139.28 79.0619 139.375 79.027C139.469 78.9921 139.554 78.9383 139.63 78.8686C139.711 78.7925 139.777 78.7038 139.828 78.6087C139.881 78.5073 139.916 78.3932 139.938 78.2665V78.2633C139.95 78.1904 139.96 78.089 139.966 77.9559C139.972 77.8323 139.975 77.6675 139.975 77.4584C139.975 77.3696 139.975 77.3031 139.972 77.2556C139.969 77.2017 139.966 77.1383 139.96 77.0686L139.944 76.888C139.938 76.8341 139.931 76.7834 139.925 76.7327V76.7295C139.919 76.6883 139.913 76.644 139.9 76.5964C139.891 76.5489 139.878 76.5014 139.865 76.4602L139.821 76.3176L139.787 76.2066C139.777 76.175 139.765 76.1464 139.749 76.1116C139.733 76.0767 139.714 76.0387 139.699 76.007L139.633 75.8898L139.579 75.801C139.57 75.782 139.554 75.7598 139.532 75.7313L139.447 75.6172L139.306 75.4334L139.142 75.2306L139.136 75.2274L139.126 75.2179L139.117 75.2053L139.044 75.1197L139.041 75.1165L138.991 75.0563L138.988 75.0532L138.944 74.9993L138.941 74.9961L138.875 74.9105C138.846 74.8725 138.821 74.8408 138.802 74.8123L138.799 74.8091C138.777 74.7743 138.758 74.7458 138.746 74.7204L138.67 74.5715C138.648 74.5303 138.632 74.4922 138.617 74.4542C138.601 74.4162 138.588 74.375 138.579 74.337L138.576 74.3275L138.56 74.2419L138.557 74.2356L138.541 74.131L138.538 74.1215C138.532 74.0835 138.529 74.0423 138.525 73.9947C138.522 73.944 138.519 73.8997 138.519 73.8616C138.519 73.7951 138.541 73.7349 138.579 73.6778L138.582 73.6715C138.62 73.6208 138.67 73.5828 138.73 73.5606H138.733C138.78 73.5416 138.827 73.5321 138.875 73.5321C138.919 73.5321 138.966 73.5416 139.013 73.5574L139.019 73.5606C139.076 73.5828 139.126 73.6144 139.161 73.6588C139.211 73.7159 139.236 73.7856 139.236 73.8585C139.236 73.9155 139.239 73.963 139.243 74.0011C139.246 74.0423 139.252 74.0834 139.261 74.1246C139.271 74.1595 139.28 74.1944 139.293 74.2292C139.306 74.2641 139.321 74.2989 139.34 74.3306C139.362 74.3655 139.381 74.4003 139.406 74.4384C139.425 74.4669 139.444 74.4954 139.46 74.5176L139.532 74.6095L139.639 74.7394L139.825 74.9612L139.828 74.9644L139.9 75.0532L139.903 75.0595L139.994 75.1831L139.997 75.1862L140.086 75.3067V75.3098C140.12 75.3574 140.145 75.3922 140.161 75.4207L140.164 75.4271L140.224 75.5253L140.227 75.5285L140.299 75.6584C140.328 75.7091 140.356 75.763 140.378 75.8105L140.381 75.8137C140.403 75.8581 140.422 75.9056 140.441 75.9595L140.444 75.9626L140.485 76.0894V76.0926L140.532 76.2447C140.551 76.308 140.567 76.3714 140.579 76.4285C140.592 76.4855 140.601 76.5489 140.611 76.6154V76.6186L140.633 76.7961V76.8024L140.652 76.9957C140.658 77.0559 140.661 77.132 140.664 77.2207C140.667 77.3126 140.671 77.3918 140.671 77.4552C140.671 77.6517 140.664 77.8323 140.658 77.9939C140.652 78.1492 140.639 78.276 140.62 78.371C140.589 78.5738 140.526 78.7576 140.441 78.9224C140.353 79.0936 140.237 79.2457 140.095 79.3756C139.95 79.5087 139.787 79.6101 139.607 79.6766C139.428 79.7432 139.236 79.778 139.029 79.778C138.824 79.778 138.632 79.7432 138.453 79.6766C138.274 79.6101 138.11 79.5087 137.966 79.3756C137.824 79.2457 137.708 79.0967 137.62 78.9256C137.535 78.7608 137.475 78.577 137.44 78.3742C137.425 78.2791 137.409 78.1746 137.403 78.07C137.396 77.9717 137.393 77.864 137.393 77.7468C137.393 77.6295 137.399 77.5218 137.412 77.4172C137.425 77.3094 137.44 77.208 137.462 77.113V77.1066H137.491ZM143.111 77.2175C143.124 77.1383 143.165 77.0749 143.237 77.0242L143.243 77.0211C143.284 76.9957 143.335 76.9735 143.394 76.9672H143.404C143.442 76.964 143.476 76.964 143.517 76.9704C143.561 76.9767 143.602 76.9925 143.646 77.0147H143.649C143.7 77.0432 143.74 77.0813 143.772 77.1256C143.813 77.1858 143.828 77.2556 143.819 77.3316L143.816 77.3443L143.813 77.357C143.778 77.4964 143.759 77.639 143.756 77.7879C143.753 77.9369 143.766 78.0922 143.794 78.257V78.2601C143.816 78.3869 143.854 78.501 143.904 78.6055C143.954 78.7038 144.02 78.7893 144.099 78.8654V78.8686C144.174 78.9383 144.259 78.9921 144.354 79.027C144.448 79.0619 144.558 79.0809 144.678 79.0809C144.794 79.0809 144.901 79.0619 144.995 79.027C145.087 78.9921 145.175 78.9383 145.25 78.8654C145.332 78.7893 145.398 78.7006 145.448 78.6024C145.502 78.4978 145.54 78.3869 145.562 78.2633V78.2601C145.574 78.1872 145.584 78.0922 145.59 77.9749C145.596 77.8672 145.599 77.7246 145.599 77.5534C145.599 77.452 145.59 77.357 145.571 77.2714C145.552 77.1859 145.521 77.1003 145.48 77.0147C145.439 76.9355 145.392 76.8658 145.338 76.8024C145.285 76.7422 145.219 76.6883 145.146 76.6408C145.077 76.5964 145.002 76.5616 144.92 76.5394C144.841 76.5172 144.756 76.5045 144.665 76.5045C144.618 76.5045 144.571 76.495 144.52 76.476C144.473 76.457 144.429 76.4285 144.395 76.3904L144.391 76.3841C144.366 76.3556 144.344 76.3207 144.329 76.2859L144.325 76.2827C144.31 76.2447 144.3 76.2003 144.3 76.1559V75.3067L143.325 74.9612C143.25 74.9422 143.19 74.8979 143.149 74.8282C143.121 74.7774 143.105 74.7236 143.105 74.6634C143.105 74.6285 143.111 74.5905 143.121 74.5493C143.133 74.5081 143.149 74.4732 143.168 74.4415L143.174 74.4352C143.212 74.3813 143.262 74.3401 143.319 74.3148H143.325C143.398 74.2863 143.473 74.2831 143.549 74.3053L143.555 74.3084L144.3 74.5683V73.8458C144.3 73.7761 144.325 73.7063 144.376 73.6493C144.41 73.6081 144.458 73.5796 144.511 73.5574L144.52 73.5511C144.564 73.5352 144.612 73.5289 144.659 73.5289C144.703 73.5289 144.747 73.5352 144.791 73.5511C144.851 73.5701 144.898 73.6049 144.932 73.6398C144.989 73.6968 145.017 73.7666 145.017 73.8458V74.8186L146.03 75.1704C146.118 75.1958 146.175 75.2465 146.216 75.3193V75.3225C146.238 75.3669 146.25 75.4144 146.254 75.4651C146.254 75.5063 146.25 75.5475 146.241 75.5855C146.228 75.6267 146.213 75.6648 146.187 75.6996C146.147 75.7598 146.096 75.801 146.033 75.8264C145.961 75.8549 145.889 75.8581 145.813 75.8327H145.81L145.021 75.557V75.8517C145.08 75.8644 145.14 75.8834 145.2 75.9024C145.335 75.95 145.464 76.0165 145.584 76.0989H145.587C145.703 76.1813 145.81 76.2764 145.901 76.3841C145.992 76.4918 146.071 76.6091 146.131 76.7359C146.194 76.8658 146.241 76.9989 146.272 77.132C146.304 77.2682 146.32 77.4108 146.32 77.5566C146.32 77.7214 146.316 77.8767 146.307 78.0224C146.301 78.1651 146.288 78.2823 146.276 78.371V78.3742C146.241 78.577 146.178 78.7608 146.093 78.9288C146.005 79.0999 145.889 79.252 145.747 79.3819C145.602 79.515 145.442 79.6164 145.263 79.683C145.083 79.7495 144.892 79.7844 144.687 79.7844C144.48 79.7844 144.288 79.7495 144.108 79.683C143.929 79.6164 143.766 79.515 143.621 79.3819C143.479 79.252 143.363 79.0999 143.275 78.9288C143.19 78.764 143.13 78.5802 143.099 78.3742C143.064 78.1714 143.048 77.9749 143.052 77.7784C143.055 77.5883 143.077 77.3982 143.118 77.2175H143.111ZM147.074 77.1003C147.093 77.0306 147.134 76.9704 147.203 76.926L147.21 76.9228C147.257 76.8943 147.307 76.8785 147.364 76.8721C147.408 76.869 147.452 76.869 147.49 76.8753L147.496 76.8785C147.537 76.888 147.575 76.9006 147.612 76.9197L147.615 76.9228C147.672 76.9545 147.716 76.9957 147.748 77.0496C147.788 77.1161 147.798 77.1859 147.779 77.2619V77.2651C147.76 77.338 147.748 77.414 147.738 77.4932C147.726 77.582 147.722 77.6707 147.719 77.7563C147.716 77.845 147.719 77.9337 147.726 78.0193C147.732 78.1048 147.741 78.1841 147.754 78.2538V78.2601C147.776 78.3869 147.814 78.501 147.867 78.6055C147.917 78.7038 147.983 78.7893 148.062 78.8622C148.141 78.9351 148.226 78.989 148.317 79.0238H148.32C148.414 79.0587 148.521 79.0777 148.641 79.0777C148.76 79.0777 148.867 79.0587 148.958 79.0238C149.05 78.989 149.138 78.9351 149.213 78.8654C149.295 78.7893 149.361 78.7006 149.411 78.6024C149.465 78.501 149.499 78.3869 149.521 78.2601V78.257C149.534 78.1841 149.543 78.0827 149.55 77.9496C149.556 77.826 149.559 77.6612 149.559 77.452C149.559 77.3665 149.559 77.2999 149.556 77.2524V77.2492C149.556 77.1954 149.55 77.132 149.544 77.0623L149.528 76.8785L149.509 76.7264V76.7232C149.503 76.682 149.496 76.6376 149.487 76.5901C149.477 76.5425 149.465 76.495 149.452 76.4538H149.449L149.408 76.3112L149.371 76.2003C149.361 76.1686 149.348 76.1401 149.336 76.1084V76.1052C149.32 76.0704 149.301 76.0323 149.286 76.0007H149.282L149.22 75.8866L149.166 75.7915C149.153 75.7725 149.141 75.7503 149.119 75.7218L149.037 75.6077L148.896 75.4239L148.732 75.2211L148.726 75.2179L148.716 75.2084L148.707 75.1958L148.635 75.1134L148.631 75.1102L148.584 75.05L148.581 75.0468L148.537 74.9929V74.9898L148.471 74.901V74.8979C148.443 74.8598 148.417 74.8282 148.399 74.7996L148.395 74.7965C148.373 74.7616 148.355 74.7331 148.342 74.7077L148.267 74.5588C148.248 74.5176 148.229 74.4796 148.213 74.4415C148.197 74.4035 148.185 74.3623 148.175 74.3243L148.172 74.3148L148.153 74.2292V74.2229L148.138 74.1183L148.134 74.1088C148.131 74.0708 148.125 74.0296 148.122 73.982C148.119 73.9313 148.116 73.887 148.116 73.8489C148.116 73.7824 148.134 73.7222 148.175 73.6651L148.178 73.6588C148.216 73.6081 148.27 73.5701 148.329 73.5479H148.333C148.38 73.5289 148.424 73.5194 148.474 73.5194C148.518 73.5194 148.565 73.5289 148.609 73.5416L148.619 73.5447C148.675 73.5669 148.723 73.5986 148.763 73.643C148.814 73.7 148.839 73.7697 148.839 73.8426C148.839 73.8997 148.842 73.9472 148.845 73.9852V73.9884C148.848 74.0327 148.855 74.0739 148.864 74.112C148.874 74.1468 148.883 74.1817 148.896 74.2165C148.908 74.2514 148.924 74.2863 148.943 74.318C148.962 74.3528 148.984 74.3877 149.009 74.4257C149.028 74.4542 149.047 74.4827 149.062 74.5049L149.135 74.5968L149.242 74.7267L149.424 74.9486L149.427 74.9517L149.499 75.0405L149.503 75.0468L149.594 75.1672C149.632 75.2179 149.663 75.2591 149.688 75.294C149.72 75.3384 149.745 75.3732 149.764 75.4049L149.77 75.4112L149.83 75.5095L149.833 75.5126L149.905 75.6426C149.934 75.6901 149.959 75.7408 149.984 75.7947C150.009 75.8486 150.028 75.8993 150.044 75.9436L150.047 75.9468L150.088 76.0736V76.0767L150.135 76.2288C150.154 76.289 150.169 76.3524 150.182 76.4126C150.195 76.4697 150.204 76.533 150.213 76.5996V76.6028L150.235 76.7802V76.7866L150.254 76.9799C150.261 77.0401 150.264 77.1161 150.27 77.2049C150.273 77.2968 150.276 77.376 150.276 77.4394C150.276 77.8577 150.261 78.165 150.229 78.352C150.198 78.5548 150.138 78.7386 150.05 78.9066C149.962 79.0777 149.845 79.2298 149.704 79.3597C149.559 79.4928 149.396 79.5942 149.216 79.6608C149.037 79.7273 148.845 79.7622 148.641 79.7622C148.433 79.7622 148.241 79.7273 148.062 79.6608C147.883 79.5942 147.719 79.4928 147.575 79.3597C147.433 79.2298 147.317 79.0809 147.229 78.9098C147.144 78.745 147.084 78.558 147.049 78.3584C147.034 78.2601 147.021 78.1587 147.012 78.0541C147.005 77.9559 147.002 77.8482 147.002 77.7309C147.005 77.6137 147.012 77.5059 147.021 77.4013C147.03 77.2936 147.049 77.1922 147.068 77.0971L147.071 77.0844L147.074 77.1003ZM151.679 77.4742C151.679 78.1048 151.733 79.0809 152.623 79.0809C153.532 79.0809 153.563 78.108 153.563 77.4742C153.563 76.8341 153.532 75.8644 152.623 75.8644C151.729 75.8644 151.679 76.8468 151.679 77.4742ZM150.962 75.2084C150.962 74.2419 151.566 73.5289 152.604 73.5289H153.695C153.893 73.5289 154.019 73.6968 154.019 73.8775C154.019 74.0581 153.893 74.2292 153.695 74.2292H152.604C151.95 74.2292 151.679 74.6348 151.679 75.2084V75.4683C151.969 75.2655 152.261 75.1641 152.623 75.1641C154 75.1641 154.283 76.4063 154.283 77.4774C154.283 78.5295 154.004 79.7844 152.623 79.7844C151.28 79.7844 150.962 78.5707 150.962 77.5281V75.2116V75.2084ZM158.284 77.5313C158.284 77.6707 158.278 77.8165 158.265 77.9591C158.256 78.0985 158.237 78.2379 158.212 78.3774C158.18 78.5802 158.118 78.764 158.033 78.9319C157.945 79.1031 157.828 79.2552 157.687 79.3851C157.542 79.5182 157.378 79.6196 157.199 79.6861C157.02 79.7527 156.828 79.7875 156.624 79.7875C156.419 79.7875 156.227 79.7527 156.048 79.6861C155.869 79.6196 155.705 79.5182 155.56 79.3851C155.419 79.252 155.303 79.1031 155.214 78.9319C155.13 78.7671 155.067 78.5802 155.035 78.3774C155.01 78.2348 154.994 78.0922 154.982 77.9464C154.969 77.7943 154.963 77.6358 154.963 77.4774C154.963 77.3189 154.969 77.1605 154.982 77.0084V77.0052C154.994 76.8563 155.01 76.7105 155.035 76.5711C155.067 76.3683 155.126 76.1845 155.214 76.0197C155.303 75.8485 155.419 75.6996 155.56 75.5697C155.705 75.4366 155.869 75.3352 156.048 75.2686C156.227 75.2021 156.419 75.1672 156.624 75.1672C156.784 75.1672 156.938 75.1894 157.089 75.2338C157.237 75.2781 157.378 75.3447 157.507 75.4303L157.567 75.4714V75.2148C157.567 75.05 157.545 74.9042 157.504 74.7838C157.467 74.6697 157.404 74.5683 157.325 74.4859C157.25 74.4035 157.155 74.3433 157.048 74.3021C156.935 74.2577 156.8 74.2356 156.642 74.2356C156.529 74.2356 156.419 74.2514 156.318 74.2831C156.221 74.3148 156.127 74.3623 156.042 74.4257C155.96 74.4859 155.894 74.5556 155.844 74.6348C155.796 74.7141 155.759 74.8028 155.74 74.9074C155.73 74.9929 155.693 75.0595 155.627 75.1102L155.623 75.1134C155.579 75.145 155.526 75.1672 155.466 75.1767C155.422 75.1831 155.381 75.1831 155.34 75.1799H155.334C155.296 75.1736 155.259 75.1641 155.224 75.1482C155.161 75.1229 155.108 75.0785 155.073 75.0215C155.032 74.9549 155.019 74.882 155.035 74.806C155.06 74.6792 155.098 74.5588 155.148 74.4447C155.199 74.3306 155.268 74.2261 155.343 74.1278C155.422 74.0296 155.51 73.944 155.608 73.868C155.705 73.7919 155.812 73.7317 155.925 73.681H155.928C156.039 73.6335 156.155 73.5986 156.278 73.5732C156.397 73.5479 156.523 73.5384 156.642 73.5384C156.891 73.5384 157.114 73.5764 157.316 73.6525C157.52 73.7317 157.699 73.8489 157.85 74.0074C157.998 74.1627 158.108 74.3433 158.181 74.5493C158.25 74.7489 158.287 74.9739 158.287 75.2179V77.5344L158.284 77.5313ZM157.567 77.4774C157.567 77.3316 157.561 77.1954 157.551 77.0686C157.542 76.9418 157.526 76.8119 157.507 76.6852C157.489 76.5616 157.451 76.4475 157.4 76.3461C157.35 76.2478 157.284 76.1591 157.202 76.0862C157.127 76.0165 157.039 75.9595 156.944 75.9246C156.85 75.8898 156.743 75.8707 156.624 75.8707C156.507 75.8707 156.397 75.8898 156.306 75.9246C156.212 75.9595 156.127 76.0165 156.051 76.0862C155.972 76.1623 155.906 76.2478 155.856 76.3461C155.803 76.4475 155.765 76.5616 155.746 76.6883V76.6915C155.727 76.7992 155.711 76.9165 155.702 77.0432C155.693 77.17 155.686 77.3158 155.686 77.4774C155.686 77.6358 155.693 77.7784 155.702 77.9052C155.711 78.0351 155.727 78.1555 155.746 78.2665C155.768 78.3932 155.803 78.5073 155.856 78.6087C155.906 78.7069 155.972 78.7957 156.051 78.8686C156.127 78.9383 156.212 78.9921 156.306 79.027C156.4 79.0619 156.507 79.0809 156.624 79.0809C156.743 79.0809 156.85 79.0619 156.944 79.027C157.039 78.9921 157.127 78.9383 157.202 78.8654C157.284 78.7925 157.35 78.7038 157.4 78.6055C157.454 78.5041 157.489 78.39 157.511 78.2665C157.529 78.1524 157.545 78.0256 157.555 77.8894C157.564 77.7626 157.57 77.6232 157.57 77.4742L157.567 77.4774ZM166.365 75.3447C166.374 75.5348 166.383 75.744 166.39 75.9721C166.396 76.2193 166.399 76.4507 166.399 76.6598C166.399 76.869 166.396 77.1003 166.39 77.3475C166.383 77.5756 166.374 77.788 166.365 77.9749V77.9781C166.352 78.1302 166.333 78.2696 166.308 78.3996C166.28 78.5358 166.245 78.6626 166.201 78.7735V78.7767C166.154 78.8939 166.104 79.0017 166.044 79.0967C165.981 79.1981 165.912 79.2869 165.833 79.3597C165.758 79.4295 165.682 79.4928 165.597 79.5467C165.512 79.6006 165.424 79.6449 165.333 79.6798C165.245 79.7147 165.147 79.74 165.047 79.7559C164.949 79.7717 164.845 79.7812 164.745 79.7812C164.644 79.7812 164.543 79.7717 164.446 79.7559H164.443C164.342 79.7368 164.248 79.7115 164.16 79.6798C164.069 79.6449 163.98 79.6006 163.896 79.5467C163.811 79.4928 163.729 79.4295 163.66 79.3597C163.584 79.2869 163.515 79.1981 163.452 79.0967C163.392 79.0017 163.339 78.8939 163.295 78.7767C163.251 78.6594 163.216 78.5358 163.188 78.3996C163.163 78.2696 163.144 78.127 163.134 77.9781C163.122 77.7911 163.112 77.582 163.106 77.3506C163.1 77.1066 163.093 76.8753 163.093 76.6598C163.093 76.4443 163.097 76.213 163.106 75.9658C163.112 75.7376 163.122 75.5285 163.134 75.3384C163.144 75.1894 163.163 75.0468 163.188 74.9169C163.216 74.7806 163.254 74.6539 163.295 74.5398C163.342 74.4225 163.395 74.3148 163.452 74.2197C163.515 74.1215 163.584 74.0327 163.66 73.9599C163.732 73.8901 163.811 73.8268 163.892 73.7729C163.977 73.719 164.065 73.6715 164.16 73.6366C164.251 73.6018 164.345 73.5764 164.443 73.5574H164.446C164.543 73.5416 164.644 73.5321 164.745 73.5321C165.003 73.5321 165.235 73.5796 165.443 73.6778C165.556 73.7317 165.66 73.7982 165.754 73.8806C165.849 73.8014 165.953 73.7317 166.066 73.6778C166.273 73.5796 166.506 73.5321 166.764 73.5321C166.862 73.5321 166.962 73.5416 167.063 73.5574C167.16 73.5733 167.255 73.6018 167.346 73.6366C167.44 73.6715 167.532 73.7159 167.613 73.7697C167.698 73.8236 167.777 73.887 167.849 73.9567C167.925 74.0296 167.994 74.1151 168.057 74.2165C168.113 74.3116 168.167 74.4194 168.214 74.5398C168.261 74.657 168.296 74.7838 168.321 74.9201C168.349 75.05 168.365 75.1894 168.374 75.3415C168.387 75.5285 168.396 75.7313 168.403 75.9531C168.412 76.1876 168.415 76.4063 168.415 76.6123C168.415 76.888 168.409 77.1668 168.396 77.4425C168.384 77.7087 168.365 77.9591 168.343 78.1904V78.1936C168.318 78.4312 168.283 78.6657 168.236 78.8907C168.189 79.1221 168.129 79.3471 168.06 79.5721L168.054 79.5911C168.022 79.664 167.972 79.7147 167.906 79.7495C167.862 79.7717 167.811 79.7844 167.761 79.7844C167.714 79.7876 167.664 79.7812 167.623 79.7685L167.62 79.7654C167.576 79.7527 167.535 79.7337 167.497 79.702C167.443 79.664 167.406 79.6101 167.384 79.5531C167.362 79.4928 167.355 79.4231 167.377 79.3566V79.3534C167.44 79.1538 167.497 78.9478 167.538 78.7355C167.582 78.5231 167.613 78.3172 167.635 78.108C167.657 77.8894 167.673 77.6549 167.682 77.4045C167.692 77.1732 167.698 76.907 167.698 76.6091C167.698 76.4031 167.695 76.2098 167.692 76.0324C167.686 75.8359 167.676 75.6236 167.664 75.3891V75.3859C167.657 75.2781 167.648 75.1767 167.629 75.0848C167.61 74.9929 167.588 74.9074 167.56 74.8282C167.531 74.7489 167.5 74.6824 167.465 74.6253C167.434 74.5683 167.396 74.5208 167.355 74.4796C167.314 74.4384 167.27 74.4003 167.23 74.3718H167.226C167.182 74.3401 167.135 74.3148 167.088 74.2958H167.085C167.035 74.2768 166.984 74.2609 166.934 74.2482C166.884 74.2387 166.827 74.2324 166.764 74.2324C166.623 74.2324 166.494 74.2609 166.377 74.3211C166.324 74.3465 166.27 74.3813 166.22 74.4257C166.204 74.4384 166.188 74.4542 166.176 74.4701C166.217 74.5683 166.255 74.6729 166.283 74.787C166.327 74.9549 166.355 75.1387 166.371 75.3384V75.3447H166.365ZM165.647 77.9337C165.66 77.6992 165.669 77.4806 165.673 77.2746C165.679 77.0939 165.679 76.888 165.679 76.6598C165.679 76.4316 165.676 76.2288 165.673 76.045C165.666 75.839 165.657 75.6204 165.647 75.3891C165.641 75.2781 165.629 75.1767 165.613 75.0848C165.597 74.9961 165.572 74.9105 165.541 74.8313C165.512 74.7553 165.481 74.6855 165.446 74.6253C165.415 74.5683 165.377 74.5208 165.339 74.4827C165.301 74.4415 165.257 74.4035 165.21 74.375C165.169 74.3465 165.119 74.3211 165.069 74.2989C165.018 74.2799 164.968 74.2641 164.915 74.2546C164.861 74.2451 164.801 74.2387 164.738 74.2387C164.679 74.2387 164.622 74.2451 164.569 74.2546C164.515 74.2641 164.465 74.2799 164.414 74.3021C164.364 74.3243 164.317 74.3496 164.273 74.3782C164.229 74.4099 164.185 74.4447 164.144 74.4859C164.106 74.5271 164.069 74.5746 164.037 74.6285C163.999 74.6887 163.968 74.7584 163.94 74.8345C163.911 74.9169 163.886 74.9993 163.87 75.088C163.851 75.1831 163.842 75.2845 163.836 75.3922C163.826 75.6267 163.817 75.8454 163.811 76.0482C163.804 76.2288 163.801 76.4348 163.801 76.663C163.801 76.888 163.804 77.0939 163.811 77.2746C163.817 77.4806 163.826 77.6992 163.836 77.9337C163.842 78.0415 163.855 78.1429 163.87 78.2348C163.889 78.3235 163.911 78.4091 163.94 78.4883C163.968 78.5675 163.999 78.6341 164.034 78.6943C164.065 78.7513 164.103 78.7988 164.141 78.8369C164.179 78.8781 164.223 78.9161 164.27 78.9478C164.314 78.9763 164.361 79.0048 164.408 79.0238H164.411C164.459 79.0429 164.512 79.0587 164.565 79.0682C164.619 79.0777 164.676 79.084 164.735 79.084C164.798 79.084 164.858 79.0777 164.915 79.0682C164.968 79.0587 165.022 79.0429 165.069 79.0238C165.116 79.0048 165.163 78.9795 165.207 78.9478C165.254 78.9161 165.298 78.8781 165.336 78.8369C165.374 78.7988 165.412 78.7481 165.443 78.6943C165.478 78.6341 165.512 78.5675 165.537 78.4883V78.4851C165.566 78.4059 165.591 78.3235 165.607 78.2316C165.625 78.1397 165.635 78.0383 165.641 77.9305L165.647 77.9337ZM170.092 75.2655C170.123 75.3384 170.126 75.4112 170.101 75.4841C170.082 75.5412 170.045 75.5919 169.988 75.6362L169.982 75.6394C169.95 75.6616 169.912 75.6838 169.875 75.6964C169.831 75.7123 169.787 75.7218 169.736 75.7218C169.686 75.7218 169.636 75.7123 169.589 75.6901L169.576 75.6838C169.522 75.6584 169.482 75.6204 169.447 75.5697L169.434 75.5507L169.428 75.5317C169.384 75.4303 169.349 75.3257 169.327 75.2179C169.305 75.107 169.293 74.9993 169.293 74.8947C169.293 74.7648 169.312 74.638 169.346 74.5144C169.381 74.3908 169.431 74.2768 169.5 74.1722C169.57 74.0676 169.648 73.9725 169.74 73.8933C169.831 73.8141 169.931 73.7444 170.048 73.6905C170.155 73.6366 170.271 73.5954 170.391 73.5701C170.513 73.5447 170.636 73.5289 170.762 73.5289C170.982 73.5289 171.183 73.5637 171.366 73.6335C171.551 73.7032 171.718 73.8109 171.863 73.9535C172.007 74.0961 172.114 74.2577 172.187 74.4447C172.256 74.6285 172.293 74.825 172.293 75.0405V77.5534C172.293 77.7151 172.29 77.8703 172.281 78.0161C172.275 78.1587 172.262 78.2728 172.249 78.3647L172.246 78.371C172.212 78.5738 172.152 78.7576 172.064 78.9256C171.976 79.0967 171.859 79.2488 171.718 79.3788C171.573 79.5119 171.41 79.6133 171.234 79.6798C171.054 79.7464 170.862 79.7812 170.658 79.7812C170.45 79.7812 170.258 79.7464 170.079 79.6798C169.897 79.6133 169.736 79.5119 169.592 79.3788C169.45 79.2488 169.334 79.0967 169.246 78.9256C169.161 78.7608 169.104 78.577 169.07 78.371H169.066C169.032 78.1714 169.016 77.9717 169.019 77.7753C169.022 77.5788 169.048 77.3855 169.085 77.2049C169.101 77.132 169.142 77.0686 169.211 77.0242L169.217 77.0211C169.258 76.9957 169.312 76.9767 169.368 76.9672H169.381C169.419 76.964 169.456 76.964 169.494 76.9704C169.535 76.9767 169.579 76.9925 169.62 77.0147C169.677 77.0432 169.717 77.0813 169.749 77.1288L169.752 77.132C169.79 77.1922 169.802 77.2587 169.796 77.3284L169.793 77.3475L169.79 77.3601C169.755 77.5027 169.736 77.6485 169.733 77.7943C169.73 77.9432 169.743 78.0985 169.771 78.2601V78.2633C169.793 78.39 169.831 78.5073 169.881 78.6087C169.931 78.7069 169.997 78.7925 170.076 78.8654L170.079 78.8686C170.155 78.9383 170.24 78.9921 170.334 79.027C170.428 79.0619 170.535 79.0809 170.658 79.0809C170.777 79.0809 170.884 79.0619 170.976 79.027C171.07 78.9921 171.158 78.9383 171.234 78.8654C171.315 78.7893 171.378 78.7038 171.429 78.6055C171.479 78.5041 171.517 78.39 171.539 78.2665V78.2633C171.551 78.1904 171.561 78.0953 171.567 77.9781C171.573 77.8672 171.576 77.7277 171.576 77.5566V75.0436C171.576 74.9137 171.557 74.7965 171.517 74.6982C171.479 74.6063 171.422 74.5208 171.35 74.451H171.347C171.274 74.3782 171.186 74.3243 171.092 74.2894C170.994 74.2514 170.881 74.2324 170.755 74.2324C170.683 74.2324 170.614 74.2387 170.548 74.2546C170.482 74.2672 170.422 74.2894 170.365 74.3148C170.312 74.3401 170.262 74.3718 170.218 74.4067C170.177 74.4415 170.136 74.4891 170.101 74.5398C170.067 74.5905 170.041 74.6444 170.026 74.7014C170.007 74.7584 170.001 74.825 170.001 74.8979C170.001 74.9581 170.007 75.0183 170.019 75.0722C170.035 75.1387 170.057 75.2053 170.082 75.2686L170.092 75.2655ZM179.76 77.5661C179.729 77.582 179.694 77.5946 179.663 77.601C179.635 77.6073 179.603 77.6105 179.575 77.6105C179.547 77.6105 179.515 77.6073 179.484 77.601C179.452 77.5946 179.424 77.5851 179.396 77.5725L179.389 77.5693L179.374 77.5598C179.326 77.5344 179.289 77.4996 179.263 77.4584L179.26 77.452C179.229 77.4045 179.213 77.3506 179.213 77.2936V75.0405C179.213 74.9549 179.207 74.8789 179.191 74.806C179.175 74.7363 179.153 74.6665 179.125 74.6032C179.1 74.5461 179.065 74.4954 179.024 74.4479C178.987 74.4003 178.94 74.3591 178.889 74.3275C178.839 74.2958 178.785 74.2704 178.726 74.2514H178.723C178.663 74.2356 178.597 74.2261 178.527 74.2261C178.421 74.2261 178.326 74.2451 178.244 74.2831C178.163 74.3211 178.084 74.3845 178.018 74.4701C177.946 74.5588 177.889 74.676 177.845 74.8186C177.801 74.9771 177.769 75.1641 177.76 75.3796V75.3827C177.747 75.6141 177.738 75.8327 177.732 76.026C177.725 76.2035 177.722 76.3936 177.722 76.5996C177.722 76.8975 177.729 77.1637 177.738 77.3982C177.747 77.6453 177.766 77.8767 177.788 78.0985C177.81 78.3108 177.842 78.52 177.886 78.7323C177.93 78.9414 177.98 79.1443 178.046 79.3502C178.068 79.4168 178.068 79.4802 178.046 79.5435L178.043 79.5499C178.021 79.6069 177.983 79.6576 177.93 79.6988H177.927L177.924 79.702C177.889 79.7273 177.848 79.7464 177.81 79.759C177.766 79.7749 177.716 79.7812 177.669 79.778C177.609 79.7749 177.552 79.759 177.508 79.7337C177.442 79.6956 177.392 79.6386 177.37 79.5657C177.298 79.3439 177.241 79.1157 177.191 78.8844C177.14 78.6531 177.106 78.4186 177.081 78.1777C177.059 77.9432 177.037 77.6961 177.027 77.4299C177.015 77.1542 177.008 76.8753 177.008 76.5996C177.008 76.3968 177.011 76.1813 177.018 75.9468C177.024 75.725 177.033 75.5222 177.046 75.3352C177.055 75.2148 177.068 75.0975 177.087 74.9803C177.106 74.8662 177.128 74.7584 177.156 74.6634C177.184 74.5651 177.216 74.4732 177.254 74.3908C177.288 74.3053 177.329 74.2261 177.376 74.1532V74.1563C177.42 74.0835 177.471 74.0169 177.521 73.9599C177.574 73.8997 177.637 73.8426 177.7 73.7951C177.76 73.7507 177.826 73.7095 177.892 73.6747C177.961 73.6398 178.031 73.6113 178.097 73.5923H178.1C178.166 73.5733 178.235 73.5574 178.304 73.5479C178.377 73.5384 178.449 73.5321 178.521 73.5321C178.669 73.5321 178.811 73.5511 178.946 73.5923C179.081 73.6335 179.207 73.6968 179.323 73.7792C179.414 73.8426 179.496 73.9187 179.565 74.0042C179.638 73.9218 179.72 73.8458 179.811 73.7792C179.927 73.6968 180.053 73.6335 180.188 73.5923C180.323 73.5511 180.465 73.5289 180.613 73.5289C180.761 73.5289 180.902 73.5479 181.034 73.5891H181.037C181.107 73.6081 181.176 73.6366 181.242 73.6715C181.305 73.7032 181.368 73.7444 181.434 73.7919C181.5 73.8394 181.56 73.8965 181.613 73.9567C181.667 74.0169 181.717 74.0835 181.761 74.1532C181.805 74.2261 181.849 74.3053 181.884 74.3908C181.918 74.4732 181.953 74.5651 181.981 74.6665C182.009 74.7648 182.035 74.8694 182.05 74.9834C182.069 75.0975 182.082 75.2179 182.091 75.3384C182.104 75.5285 182.113 75.7345 182.119 75.9563C182.126 76.1876 182.132 76.4063 182.132 76.6059C182.132 76.8816 182.126 77.1573 182.113 77.4362C182.101 77.7024 182.082 77.9496 182.06 78.1841C182.035 78.4217 181.997 78.6562 181.95 78.8907C181.899 79.1221 181.839 79.3502 181.77 79.5721C181.748 79.6449 181.701 79.702 181.632 79.74C181.588 79.7654 181.531 79.7812 181.471 79.7844C181.424 79.7844 181.377 79.7812 181.333 79.7654C181.292 79.7527 181.251 79.7305 181.214 79.702C181.16 79.664 181.119 79.6133 181.097 79.5531C181.072 79.4833 181.072 79.4104 181.097 79.3407C181.157 79.1474 181.21 78.9446 181.251 78.7386C181.295 78.5263 181.327 78.314 181.349 78.1048C181.371 77.8862 181.387 77.6517 181.399 77.4045C181.409 77.17 181.415 76.9038 181.415 76.6059C181.415 76.3999 181.412 76.2098 181.405 76.0324C181.399 75.8359 181.39 75.6204 181.377 75.3891V75.3859C181.368 75.1704 181.339 74.9834 181.292 74.825C181.248 74.6824 181.192 74.5651 181.122 74.4764C181.056 74.3908 180.981 74.3306 180.899 74.2894C180.817 74.2482 180.723 74.2292 180.616 74.2292C180.544 74.2292 180.478 74.2387 180.418 74.2546C180.358 74.2736 180.301 74.2989 180.254 74.3306C180.201 74.3655 180.154 74.4067 180.116 74.451V74.4542C180.075 74.5018 180.044 74.5525 180.015 74.6095C179.987 74.6697 179.965 74.7394 179.952 74.8123C179.937 74.8852 179.93 74.9612 179.93 75.0468V77.2999C179.93 77.357 179.915 77.4108 179.88 77.4615V77.4647C179.852 77.5059 179.814 77.5408 179.767 77.5661L179.757 77.5725L179.76 77.5661ZM186.076 76.5679C186.101 76.7137 186.117 76.8594 186.13 77.0052C186.142 77.1605 186.149 77.3158 186.149 77.4742C186.149 77.6327 186.142 77.788 186.13 77.9401C186.117 78.089 186.101 78.2316 186.076 78.371C186.045 78.5738 185.982 78.7576 185.897 78.9224C185.809 79.0936 185.692 79.2457 185.551 79.3756C185.406 79.5087 185.243 79.6101 185.063 79.6766C184.884 79.7432 184.692 79.778 184.488 79.778C184.283 79.778 184.092 79.7432 183.912 79.6766C183.733 79.6101 183.569 79.5087 183.422 79.3756C183.28 79.2425 183.164 79.0936 183.076 78.9224C182.991 78.7576 182.931 78.5707 182.896 78.3679C182.871 78.2253 182.855 78.0795 182.843 77.9337C182.83 77.7816 182.824 77.6263 182.824 77.4711C182.824 77.3094 182.83 77.1478 182.843 76.9925C182.855 76.8436 182.871 76.701 182.896 76.5616C182.928 76.3683 182.988 76.1876 183.069 76.026V76.0228C183.154 75.8581 183.264 75.7091 183.4 75.5792C183.538 75.4461 183.695 75.3415 183.868 75.2718C183.981 75.2243 184.104 75.1926 184.233 75.1736L184.302 74.9486V74.9454C184.321 74.8852 184.331 74.8345 184.327 74.7965V74.7933C184.327 74.7711 184.321 74.7489 184.312 74.7363C184.305 74.7236 184.293 74.7109 184.274 74.7014C184.243 74.6824 184.198 74.6697 184.145 74.6602H184.142C184.019 74.6348 183.912 74.6032 183.821 74.562C183.717 74.5176 183.632 74.4574 183.566 74.3877C183.497 74.3148 183.444 74.2292 183.412 74.131H183.415C183.384 74.0391 183.368 73.9408 183.368 73.8363C183.368 73.7666 183.393 73.6968 183.444 73.6398C183.478 73.5986 183.525 73.5701 183.579 73.5479L183.588 73.5416C183.632 73.5257 183.68 73.5194 183.727 73.5194C183.771 73.5194 183.818 73.5289 183.862 73.5416C183.919 73.5606 183.963 73.5891 184 73.6271L184.007 73.6303C184.06 73.6873 184.088 73.757 184.088 73.8363C184.088 73.8648 184.092 73.8901 184.098 73.906L184.101 73.9123C184.107 73.9155 184.117 73.925 184.139 73.9313C184.176 73.9472 184.224 73.9599 184.283 73.9694H184.287C184.431 73.9979 184.554 74.0423 184.664 74.1088C184.78 74.1817 184.872 74.2704 184.938 74.3845L184.941 74.3877C185.007 74.4986 185.045 74.6222 185.051 74.7553C185.057 74.8789 185.038 75.0088 184.994 75.1482V75.1514L184.972 75.2211C185.045 75.2433 185.114 75.2686 185.18 75.3003C185.34 75.3764 185.485 75.481 185.614 75.6109C185.74 75.7376 185.84 75.8834 185.919 76.0419C185.994 76.1971 186.051 76.3683 186.083 76.5552V76.5584L186.076 76.5679ZM185.425 77.4742C185.425 77.3031 185.422 77.1573 185.413 77.0306C185.403 76.9006 185.391 76.7834 185.372 76.682C185.35 76.5552 185.312 76.4411 185.262 76.3397C185.211 76.2415 185.145 76.1559 185.067 76.0799C184.988 76.0102 184.9 75.9563 184.806 75.9214C184.708 75.8866 184.601 75.8676 184.485 75.8644V75.8676C184.365 75.8676 184.258 75.8866 184.167 75.9214C184.073 75.9563 183.988 76.0102 183.912 76.0831C183.83 76.1591 183.764 76.2478 183.717 76.3429C183.667 76.4443 183.629 76.5584 183.61 76.682V76.6883C183.591 76.7929 183.576 76.9133 183.566 77.0401C183.557 77.1668 183.554 77.3126 183.554 77.4774C183.554 77.6358 183.557 77.7784 183.566 77.902C183.576 78.032 183.591 78.1524 183.61 78.2601V78.2633C183.632 78.39 183.667 78.5041 183.72 78.6055C183.771 78.7038 183.837 78.7893 183.919 78.8654C183.994 78.9351 184.079 78.9921 184.17 79.027C184.265 79.0619 184.371 79.0809 184.491 79.0809C184.611 79.0809 184.717 79.0619 184.812 79.027C184.906 78.9921 184.994 78.9383 185.07 78.8654C185.148 78.7893 185.214 78.7038 185.265 78.6055C185.318 78.5041 185.353 78.39 185.372 78.2665C185.391 78.1619 185.403 78.0415 185.413 77.9084C185.422 77.7816 185.425 77.639 185.425 77.4774V77.4742ZM186.907 77.1003C186.925 77.0306 186.966 76.9704 187.036 76.926L187.042 76.9228C187.089 76.8943 187.139 76.8785 187.199 76.8721H187.202C187.243 76.869 187.284 76.8721 187.322 76.8785L187.328 76.8816C187.366 76.888 187.407 76.9038 187.444 76.9228L187.448 76.926C187.504 76.9577 187.548 76.9989 187.58 77.0528C187.617 77.1193 187.63 77.1922 187.611 77.2651V77.2682C187.592 77.338 187.58 77.414 187.57 77.4932C187.561 77.582 187.555 77.6707 187.551 77.7594C187.548 77.8482 187.551 77.9369 187.558 78.0224C187.564 78.108 187.573 78.1872 187.586 78.257L187.589 78.2633C187.611 78.39 187.646 78.5041 187.699 78.6087C187.75 78.7069 187.816 78.7925 187.894 78.8654C187.97 78.9383 188.058 78.9921 188.149 79.027H188.152C188.246 79.0619 188.353 79.0809 188.473 79.0809C188.592 79.0809 188.696 79.0619 188.791 79.027C188.885 78.9921 188.97 78.9383 189.045 78.8686C189.127 78.7925 189.19 78.7038 189.244 78.6087C189.294 78.5073 189.332 78.3932 189.354 78.2665C189.366 78.1936 189.376 78.0922 189.382 77.9591C189.388 77.8355 189.391 77.6707 189.391 77.4615C189.391 77.376 189.391 77.3094 189.388 77.2619V77.2587C189.385 77.2049 189.382 77.1415 189.376 77.0718L189.36 76.888L189.341 76.7359V76.7327C189.335 76.6915 189.325 76.6471 189.316 76.5996C189.306 76.5521 189.294 76.5045 189.281 76.4633H189.278L189.237 76.3271L189.2 76.2098C189.19 76.1781 189.178 76.1496 189.162 76.1179V76.1147C189.146 76.0799 189.127 76.0419 189.108 76.0102L189.045 75.8961L188.992 75.801C188.982 75.782 188.967 75.7598 188.948 75.7313L188.863 75.6172L188.721 75.4334L188.558 75.2306L188.555 75.2274L188.545 75.2179L188.536 75.2053L188.467 75.1229L188.464 75.1197L188.41 75.0563L188.404 75.05L188.306 74.9264L188.303 74.9232L188.294 74.9074C188.265 74.8693 188.24 74.8377 188.221 74.8091L188.218 74.806C188.196 74.7711 188.177 74.7426 188.165 74.7172L188.089 74.5683C188.07 74.5271 188.051 74.4922 188.036 74.4542V74.451C188.02 74.4162 188.011 74.375 188.001 74.3306L187.998 74.3211L187.982 74.2356V74.2292L187.967 74.1246L187.963 74.1151C187.96 74.0771 187.954 74.0359 187.951 73.9884C187.948 73.9377 187.945 73.8933 187.945 73.8553C187.945 73.7887 187.967 73.7285 188.004 73.6715L188.007 73.6651C188.045 73.6144 188.096 73.5796 188.158 73.5542H188.162C188.209 73.5352 188.256 73.5257 188.303 73.5257C188.347 73.5257 188.394 73.5352 188.438 73.5479L188.448 73.5511C188.504 73.5732 188.552 73.6049 188.589 73.6493C188.64 73.7063 188.662 73.7761 188.662 73.8489C188.662 73.906 188.665 73.9535 188.668 73.9916V73.9947C188.674 74.0391 188.681 74.0803 188.687 74.1183C188.696 74.1532 188.706 74.188 188.718 74.2229C188.734 74.2577 188.747 74.2926 188.765 74.3243C188.784 74.3591 188.806 74.394 188.832 74.432C188.85 74.4606 188.869 74.4891 188.885 74.5113L188.957 74.6032L189.064 74.7331L189.25 74.9549L189.253 74.9581L189.325 75.0468L189.332 75.0532L189.423 75.1736C189.461 75.2243 189.492 75.2655 189.517 75.3003C189.549 75.3447 189.574 75.3795 189.593 75.4112L189.599 75.4176L189.659 75.5158L189.662 75.519L189.734 75.6489C189.763 75.6964 189.788 75.7471 189.813 75.801C189.838 75.8549 189.86 75.9056 189.873 75.95V75.9531L189.913 76.0799V76.0831L189.961 76.2352C189.98 76.2954 189.995 76.3588 190.008 76.419C190.02 76.476 190.033 76.5394 190.042 76.6059V76.6091L190.064 76.7866V76.7929L190.083 76.9862C190.09 77.0464 190.093 77.1225 190.099 77.2112C190.102 77.3031 190.105 77.3823 190.105 77.4457C190.105 77.864 190.09 78.1714 190.058 78.3584C190.027 78.5612 189.964 78.745 189.876 78.9129C189.788 79.084 189.671 79.2362 189.53 79.3661C189.385 79.4992 189.222 79.6006 189.042 79.6671C188.863 79.7337 188.671 79.7685 188.467 79.7685C188.262 79.7685 188.067 79.7337 187.891 79.6671C187.712 79.6006 187.548 79.4992 187.404 79.3661C187.262 79.2362 187.146 79.0872 187.058 78.9161C186.973 78.7513 186.913 78.5643 186.878 78.3647C186.859 78.2665 186.85 78.165 186.841 78.0605C186.834 77.9622 186.831 77.8545 186.831 77.7372C186.834 77.62 186.841 77.5122 186.85 77.4077C186.863 77.2999 186.878 77.1985 186.9 77.1035L186.903 77.0908L186.907 77.1003ZM71.1625 61.2904H231.004V62.0256H71.1625V61.2904Z" fill="#464F6D"/>
</g>
<defs>
<clipPath id="clip0_2381_2136">
<rect width="160" height="64" fill="white" transform="translate(71 16)"/>
</clipPath>
</defs>
</svg>
