<svg width="302" height="96" viewBox="0 0 302 96" fill="none" xmlns="http://www.w3.org/2000/svg">
<path d="M95.9108 22.6125C95.185 22.7033 94.6407 23.0661 94.6407 23.3383C94.6407 24.7445 93.6428 27.2393 93.0077 27.4661C92.1912 27.7836 90.7851 27.1486 89.3789 25.8331C88.4263 25.0166 88.2902 24.9713 86.9748 25.697C85.614 26.3774 85.5686 26.4682 85.8408 28.8269C86.1129 30.9588 86.0222 31.3217 85.2511 31.7753C84.6161 32.0928 83.8449 32.0928 82.8016 31.8207C80.5336 31.1403 79.9893 31.2764 79.0821 32.5464C78.311 33.5897 78.311 33.7712 78.9007 34.4516C79.3089 34.8598 79.8532 35.8124 80.1254 36.5382C80.8058 38.3526 79.7171 39.5319 77.3584 39.5319C76.0883 39.5319 75.4986 39.7587 75.1357 40.3938C74.3646 41.936 74.6368 42.8886 76.2698 44.2041C78.1295 45.7009 78.2656 46.8803 76.7234 48.0143C74.0017 49.9195 73.8203 50.1463 74.0925 51.6431C74.2739 52.6864 74.5914 53.14 75.1357 53.14C76.4966 53.14 78.6739 54.0926 78.946 54.773C79.2635 55.5895 78.5831 56.9957 77.313 58.4472C76.4512 59.3998 76.4512 59.4451 77.2223 60.7606C77.9481 62.076 78.1295 62.1214 80.3975 61.8946C83.346 61.5771 83.981 62.3482 83.2099 65.2966C82.8016 66.9296 82.847 67.3378 83.5274 68.1089C84.5707 69.243 84.9336 69.243 87.247 68.0182C89.1067 67.0203 89.1521 67.0203 90.0593 67.8368C90.649 68.3811 91.0119 69.2883 91.0119 70.1048C91.0119 72.0099 91.4655 72.5996 93.1438 72.9171C94.3685 73.1439 94.6407 73.0079 95.3665 71.7831C96.8633 69.2883 98.9953 69.379 100.22 72.0099C100.946 73.4615 101.173 73.5975 102.669 73.4615C104.212 73.3254 104.393 73.1893 104.847 71.511C105.709 68.1089 106.616 67.7461 109.156 69.878C110.653 71.1027 110.789 71.1481 112.15 70.4677C113.556 69.8326 113.601 69.7419 113.375 67.4739C113.057 64.2987 113.737 63.6636 116.731 64.4801C118.772 65.0698 118.863 65.0698 119.861 63.8451L120.95 62.6203L119.77 60.8513C118.5 58.9915 118.591 57.5854 119.952 56.9049C120.36 56.7235 144.855 56.4967 174.339 56.406L228 56.3153V55.1813V54.0472H175.7C128.933 54.0472 123.127 54.138 120.904 54.773C117.548 55.7709 115.28 56.9957 112.422 59.3544C109.474 61.7131 108.702 61.9399 104.484 61.6678C101.445 61.441 98.1788 60.5338 94.0056 58.8101C91.4655 57.7214 92.3727 57.1771 99.4942 55.4081L105.527 53.9565L106.57 50.4638C107.16 48.5586 107.523 46.7896 107.387 46.4721C107.251 46.1999 106.026 44.7937 104.665 43.3876C103.032 41.6639 101.989 40.9381 101.49 41.1196C99.6303 41.8453 89.1521 44.1587 88.9253 43.9319C88.4717 43.4783 89.8779 41.6185 93.2799 37.9897C97.0901 33.998 100.946 31.8207 104.257 31.8207C106.752 31.8207 107.296 32.0475 114.781 36.4928L120.133 39.7134L121.494 38.2618C122.764 36.765 122.764 36.765 121.993 35.4495C121.267 34.1794 121.131 34.1341 118.863 34.3609C116.777 34.633 116.459 34.5423 116.005 33.6805C115.597 32.9547 115.597 32.2289 116.005 30.8228C116.459 29.0083 116.414 28.8269 115.325 27.8743L114.146 26.8764L112.104 28.0558C110.154 29.1444 109.972 29.1444 109.201 28.464C108.748 28.0558 108.249 26.8764 108.113 25.8331C107.704 22.7033 105.618 22.295 103.441 24.8806C101.717 26.9218 100.265 26.7403 98.9499 24.2455C97.952 22.4311 97.7706 22.3404 95.9108 22.6125Z" fill="#464F6D"/>
<path d="M133.242 41.5278C132.879 41.936 132.743 43.6143 132.834 46.1545C132.97 50.1009 133.016 50.1916 134.24 50.5998C135.011 50.872 135.919 50.872 136.735 50.5998C137.778 50.237 137.96 49.8741 138.096 48.1504C138.277 45.837 137.506 44.9752 135.329 44.9752C134.15 44.9752 134.059 44.8391 134.195 43.4783C134.331 42.0721 134.376 42.0267 136.281 42.1628C138.64 42.3896 138.822 41.5731 136.508 41.1649C134.104 40.802 133.832 40.802 133.242 41.5278ZM136.599 47.9236C136.599 49.5565 136.508 49.738 135.465 49.738C134.558 49.738 134.286 49.4658 134.195 48.4679C133.968 46.5628 134.422 45.7916 135.556 45.9731C136.463 46.1092 136.599 46.3813 136.599 47.9236Z" fill="#464F6D"/>
<path d="M141.453 41.437C141.09 41.7999 140.908 43.5689 140.908 46.4266C140.908 50.0101 141.044 50.8719 141.589 50.8719C142.088 50.8719 142.269 49.9647 142.36 46.4266C142.496 42.072 142.496 42.0267 143.63 42.0267C144.764 42.0267 144.764 42.072 144.9 46.4266C144.991 49.9647 145.172 50.8719 145.671 50.8719C146.215 50.8719 146.351 50.0101 146.351 46.3359C146.351 42.3442 146.261 41.7999 145.49 41.3463C144.31 40.7112 142.133 40.7566 141.453 41.437Z" fill="#464F6D"/>
<path d="M148.166 41.3464C148.166 41.5278 148.574 41.8 149.073 41.936C149.708 42.0721 149.98 42.5711 149.98 43.3422C149.98 44.068 150.252 44.5216 150.661 44.5216C151.069 44.5216 151.341 44.1133 151.341 43.3876C151.341 42.0721 152.611 41.3464 153.201 42.2989C153.7 43.1154 153.7 48.6494 153.201 49.4205C152.611 50.4184 150.661 49.9195 150.525 48.6947C150.298 47.3339 149.073 47.3793 149.073 48.8308C149.073 50.8267 152.747 51.6885 154.199 50.0555C155.333 48.8308 155.287 42.6618 154.199 41.7092C153.382 40.9835 148.166 40.666 148.166 41.3464Z" fill="#464F6D"/>
<path d="M163.861 41.6184C163.452 41.9813 163.135 42.6164 163.135 42.9793C163.135 43.9772 164.359 43.7504 164.632 42.6617C164.813 41.9813 165.176 41.7545 165.947 41.8906C166.764 41.9813 167.036 42.3442 167.126 43.4782C167.263 44.8844 167.217 44.9751 165.766 44.9751C163.724 44.9751 163.135 45.6555 163.135 47.9235C163.135 50.1008 163.724 50.8719 165.539 50.8719C168.26 50.8719 168.578 50.3276 168.578 45.8823C168.578 42.3442 168.487 41.7545 167.716 41.3463C166.401 40.6659 164.677 40.802 163.861 41.6184ZM166.99 47.9235C166.99 49.5565 166.9 49.7379 165.856 49.7379C164.949 49.7379 164.677 49.4658 164.586 48.4679C164.359 46.5627 164.813 45.7916 165.947 45.973C166.854 46.1091 166.99 46.3813 166.99 47.9235Z" fill="#464F6D"/>
<path d="M171.799 41.4824C171.481 41.7999 171.3 43.7504 171.3 46.4266C171.3 50.0101 171.436 50.8719 171.98 50.8719C172.479 50.8719 172.66 49.9647 172.751 46.4266C172.887 42.3896 172.978 42.0267 173.795 42.0267C174.566 42.0267 174.702 42.3896 174.838 44.6122C174.929 46.5174 175.155 47.2431 175.609 47.2431C176.063 47.2431 176.289 46.5174 176.38 44.6122C176.516 42.3896 176.652 42.0267 177.423 42.0267C178.24 42.0267 178.331 42.3896 178.467 46.4266C178.557 49.9647 178.739 50.8719 179.238 50.8719C179.782 50.8719 179.918 50.0101 179.918 46.3359C179.918 42.5256 179.782 41.7545 179.147 41.437C177.968 40.8473 172.388 40.8927 171.799 41.4824Z" fill="#464F6D"/>
<path d="M184.454 41.4824C184.454 41.7999 184.001 42.2535 183.456 42.4803C182.504 42.8885 182.413 43.2968 182.277 46.3359C182.141 50.2369 182.549 50.8719 185.407 50.8719C187.901 50.8719 188.537 49.9647 188.537 46.5627C188.537 43.6143 187.901 42.2535 186.45 42.2535C186.087 42.2535 185.815 41.936 185.815 41.5731C185.815 41.2102 185.497 40.8927 185.135 40.8927C184.772 40.8927 184.454 41.1648 184.454 41.4824ZM185.271 46.2452C185.633 46.3359 185.815 45.8823 185.815 44.7937C185.815 43.1153 186.405 42.6164 186.904 43.8865C187.312 44.9297 187.221 48.74 186.767 49.4204C186.541 49.7833 185.815 49.9647 185.089 49.874C183.819 49.7379 183.774 49.6472 183.638 47.0617C183.456 43.8865 184.001 42.1174 184.409 44.4761C184.545 45.338 184.953 46.1091 185.271 46.2452Z" fill="#464F6D"/>
<path d="M191.304 41.4824C190.986 41.7999 190.805 43.7504 190.805 46.4266C190.805 50.0101 190.941 50.8719 191.485 50.8719C191.984 50.8719 192.165 49.9647 192.256 46.4266C192.392 42.3896 192.483 42.0267 193.299 42.0267C194.071 42.0267 194.207 42.3896 194.343 44.6122C194.433 46.5174 194.66 47.2431 195.114 47.2431C195.567 47.2431 195.794 46.5174 195.885 44.6122C196.021 42.3896 196.157 42.0267 196.928 42.0267C197.745 42.0267 197.835 42.3896 197.971 46.4266C198.062 49.9647 198.244 50.8719 198.743 50.8719C199.287 50.8719 199.423 50.0101 199.423 46.3359C199.423 42.5256 199.287 41.7545 198.652 41.3916C197.518 40.802 191.939 40.8473 191.304 41.4824Z" fill="#464F6D"/>
<path d="M207.406 41.5731C207.225 42.0267 206.545 42.2535 205.184 42.2535C202.281 42.2535 201.691 43.1153 201.691 47.3792C201.691 50.1462 201.827 50.8719 202.326 50.8719C202.825 50.8719 203.052 50.1915 203.143 48.4679C203.279 46.472 203.415 46.1091 204.186 46.1091C204.821 46.1091 205.138 46.472 205.229 47.3338C205.32 48.0596 205.637 48.6039 206 48.6039C206.363 48.6039 206.681 48.0596 206.771 47.3338C206.862 46.472 207.18 46.1091 207.815 46.1091C208.586 46.1091 208.722 46.472 208.858 48.4679C208.949 50.1915 209.175 50.8719 209.674 50.8719C210.128 50.8719 210.31 50.2823 210.31 48.6493C210.31 45.6101 209.629 45.0205 206.227 45.0658C203.233 45.1112 202.78 44.9297 203.188 43.8411C203.415 43.3421 204.095 43.1607 205.683 43.1607C207.86 43.1607 208.949 42.6164 208.949 41.4824C208.949 40.6659 207.724 40.7566 207.406 41.5731Z" fill="#464F6D"/>
<path d="M212.578 45.4287C212.578 49.4204 212.668 49.9647 213.439 50.4183C215.753 51.6431 218.792 50.373 218.293 48.4225C218.157 47.8782 218.021 46.9256 218.021 46.1998C218.021 45.4287 217.794 44.9751 217.34 44.9751C216.569 44.9751 216.479 45.2926 216.66 48.0596C216.751 49.9647 216.705 50.0101 215.435 49.874L214.165 49.7379L214.029 45.2926C213.938 41.7999 213.757 40.8927 213.258 40.8927C212.714 40.8927 212.578 41.7545 212.578 45.4287Z" fill="#464F6D"/>
<path d="M221.287 41.437C220.924 41.7999 220.742 43.5689 220.742 46.4266C220.742 50.0101 220.879 50.8719 221.423 50.8719C221.922 50.8719 222.103 49.9647 222.194 46.4266C222.33 42.072 222.33 42.0267 223.464 42.0267C224.598 42.0267 224.598 42.072 224.734 46.4266C224.825 49.9647 225.006 50.8719 225.505 50.8719C226.05 50.8719 226.186 50.0101 226.186 46.3359C226.186 42.3442 226.095 41.7999 225.324 41.3463C224.144 40.7112 221.967 40.7566 221.287 41.437Z" fill="#464F6D"/>
<path d="M136.826 63.5729C136.826 67.7007 136.962 68.5625 137.506 68.5625C138.051 68.5625 138.187 67.9275 138.232 65.478V62.4389L139.638 65.478C141.679 70.014 142.269 69.6058 142.269 63.5729C142.269 59.4904 142.133 58.5832 141.589 58.5832C141.135 58.5832 140.908 59.309 140.818 61.3956L140.681 64.2533L139.366 61.3956C137.37 57.1317 136.826 57.5853 136.826 63.5729Z" fill="#464F6D"/>
<path d="M144.991 63.5729V68.5625H147.712C149.209 68.5625 150.434 68.3811 150.434 68.1089C150.434 67.8367 149.527 67.6553 148.393 67.6553H146.351V65.6141C146.351 63.5729 146.351 63.5729 147.939 63.5729C148.801 63.5729 149.527 63.3461 149.527 63.1193C149.527 62.8471 148.801 62.6657 147.939 62.6657C146.442 62.6657 146.351 62.5749 146.351 61.078C146.351 59.4904 146.351 59.4904 148.393 59.4904C149.527 59.4904 150.434 59.2636 150.434 59.0368C150.434 58.7647 149.209 58.5832 147.712 58.5832H144.991V63.5729Z" fill="#464F6D"/>
<path d="M152.883 59.3544C153.019 59.808 153.428 61.577 153.836 63.3461C154.199 65.0698 154.607 66.9749 154.743 67.5192C155.106 69.1068 156.24 68.7893 156.603 66.9749C156.739 66.113 157.057 65.3873 157.238 65.3873C157.419 65.3873 157.737 66.113 157.873 66.9749C158.054 67.8821 158.463 68.5625 158.826 68.5625C159.461 68.5625 159.823 67.5646 160.867 62.6657C161.139 61.3048 161.502 59.808 161.638 59.3544C161.774 58.8554 161.593 58.5832 161.139 58.5832C160.413 58.5832 160.186 59.1276 159.687 61.9853C159.506 62.9832 159.279 63.9811 159.143 64.2079C158.826 64.7522 158.145 63.5275 158.145 62.3028C158.145 61.6224 157.873 61.3048 157.283 61.3048C156.603 61.3048 156.331 61.7585 156.104 63.21C155.741 65.3419 155.287 64.8883 154.788 61.9853C154.29 59.1276 154.063 58.5832 153.337 58.5832C152.883 58.5832 152.747 58.8554 152.883 59.3544Z" fill="#464F6D"/>
<path d="M169.939 63.5729C169.939 67.7007 170.075 68.5625 170.619 68.5625C171.164 68.5625 171.3 67.9275 171.345 65.7048L171.39 62.8925L172.116 65.7502C172.978 69.2429 174.021 69.4243 174.702 66.2038C175.382 63.1193 175.836 63.0285 175.836 65.977C175.836 67.9728 175.972 68.5625 176.516 68.5625C177.06 68.5625 177.196 67.7007 177.196 63.5729C177.196 58.5832 177.196 58.5832 176.108 58.5832C175.11 58.5832 174.928 58.8554 174.475 61.1688C173.658 65.2966 173.477 65.3873 172.751 61.8492C172.116 58.9461 171.935 58.5832 170.982 58.5832C169.939 58.5832 169.939 58.6739 169.939 63.5729Z" fill="#464F6D"/>
<path d="M180.281 59.0822C179.601 59.4451 179.464 60.2162 179.464 63.4821C179.464 67.8821 179.782 68.5625 181.869 68.5625C184.59 68.5625 184.908 68.0182 184.908 63.5729C184.908 60.0348 184.817 59.4451 184.046 59.0368C182.912 58.4471 181.279 58.4925 180.281 59.0822ZM183.32 63.5729C183.32 67.3831 183.32 67.4285 182.186 67.4285C181.097 67.4285 181.052 67.2924 180.916 64.0718C180.735 60.0348 180.961 59.3997 182.277 59.5812C183.275 59.7172 183.32 59.8987 183.32 63.5729Z" fill="#464F6D"/>
<path d="M187.629 59.0368C187.629 59.2636 188.038 59.4904 188.537 59.4904C189.398 59.4904 189.444 59.808 189.444 64.0265C189.444 68.245 189.489 68.5625 190.351 68.5625C191.213 68.5625 191.258 68.245 191.258 64.0265C191.258 59.808 191.304 59.4904 192.165 59.4904C192.664 59.4904 193.073 59.2636 193.073 59.0368C193.073 58.7647 191.848 58.5832 190.351 58.5832C188.854 58.5832 187.629 58.7647 187.629 59.0368Z" fill="#464F6D"/>
<path d="M196.066 59.173C195.431 59.6266 195.341 60.3523 195.431 63.7997C195.567 67.7914 195.613 67.8821 196.838 68.2904C197.609 68.5625 198.516 68.5625 199.332 68.2904C200.512 67.8821 200.557 67.7914 200.693 63.7997C200.829 59.309 200.466 58.5833 198.062 58.5833C197.427 58.5833 196.52 58.8554 196.066 59.173ZM199.196 63.5729C199.196 67.3832 199.196 67.4285 198.062 67.4285C196.974 67.4285 196.928 67.2925 196.792 64.0719C196.611 60.0348 196.838 59.3998 198.153 59.5812C199.151 59.7173 199.196 59.8987 199.196 63.5729Z" fill="#464F6D"/>
<path d="M203.505 63.5729C203.505 67.7007 203.642 68.5625 204.186 68.5625C204.685 68.5625 204.866 68.0182 204.866 66.2945C204.866 64.6162 205.048 64.0265 205.501 64.0265C205.864 64.0265 206.454 64.9791 206.908 66.2945C207.361 67.61 207.951 68.5625 208.314 68.5625C209.085 68.5625 209.085 68.6532 208.268 66.2945C207.633 64.5255 207.633 64.2533 208.268 63.5729C208.631 63.1646 208.949 62.076 208.949 61.1688C208.949 59.2183 208.087 58.5833 205.365 58.5833H203.505V63.5729ZM207.361 61.3049C207.361 62.711 207.225 62.8925 206.136 63.0286C204.912 63.1646 204.866 63.0739 204.866 61.3049C204.866 59.5358 204.912 59.4451 206.136 59.5812C207.225 59.7173 207.361 59.8987 207.361 61.3049Z" fill="#464F6D"/>
<path d="M212.396 59.3091C211.625 60.0802 211.444 62.0761 212.079 63.0286C212.305 63.3915 213.167 63.7998 213.984 63.9812C215.39 64.2534 215.526 64.4348 215.526 65.841C215.526 67.2471 215.39 67.4286 214.392 67.4286C213.575 67.4286 213.213 67.1564 213.122 66.3853C212.895 64.8884 211.58 65.0699 211.761 66.6121C211.943 68.1544 213.757 68.9708 215.662 68.2904C216.66 67.9276 216.932 67.5647 217.023 66.1585C217.204 64.0266 216.569 63.2101 214.709 63.0286C213.394 62.8926 213.258 62.7565 213.258 61.3049C213.258 59.8988 213.394 59.7173 214.392 59.7173C215.208 59.7173 215.571 59.9895 215.662 60.7153C215.844 61.9854 217.114 62.1214 217.114 60.8967C217.114 59.6266 215.889 58.5833 214.392 58.5833C213.666 58.5833 212.759 58.9008 212.396 59.3091Z" fill="#464F6D"/>
<path d="M219.835 63.5729C219.835 67.7007 219.971 68.5625 220.516 68.5625C221.06 68.5625 221.196 67.7007 221.196 63.5729C221.196 59.4451 221.06 58.5832 220.516 58.5832C219.971 58.5832 219.835 59.4451 219.835 63.5729Z" fill="#464F6D"/>
</svg>
