<svg width="302" height="96" viewBox="0 0 302 96" fill="none" xmlns="http://www.w3.org/2000/svg">
<path d="M175.686 40.3724C176.522 40.3272 177.438 40.5875 178.282 41.004C179.68 41.6946 181.006 41.6946 182.411 41.0179C184.088 40.2092 185.858 40.0218 187.669 40.5806C188.919 40.9658 189.977 41.6356 190.845 42.6178C191.178 42.9961 191.209 43.1939 190.751 43.5479C187.475 46.0883 187.201 50.6242 190.123 53.3451C190.55 53.7442 191.011 54.1086 191.542 54.3515C191.934 54.532 191.997 54.7402 191.851 55.122C191.004 57.35 189.8 59.3594 188.148 61.0808C186.916 62.3614 185.403 62.6911 183.813 61.9449C181.7 60.9489 179.68 60.9628 177.584 61.9727C176.258 62.6147 174.86 62.5627 173.794 61.473C169.564 57.1557 167.467 52.0575 168.779 45.9841C169.505 42.6178 172.399 40.4036 175.686 40.3724Z" fill="#464F6D"/>
<path d="M56.8594 56.6178C58.7578 57.6311 60.7116 58.1934 62.787 58.3287C63.9635 58.4051 65.1226 58.3218 66.2193 57.8671C68.843 56.7739 69.3011 53.588 67.0939 51.7938C66.0909 50.9782 64.904 50.5062 63.7067 50.0655C62.1137 49.4824 60.5728 48.8022 59.2054 47.7819C54.9506 44.6133 55.1797 38.5747 59.667 35.7358C61.8118 34.3788 64.203 34.0179 66.6844 34.122C68.437 34.1949 70.1479 34.4968 71.7825 35.1909C72.3066 35.413 72.5078 35.6282 72.2996 36.2147C71.9838 37.0997 71.7235 38.0055 71.4875 38.9182C71.3591 39.4111 71.2134 39.5013 70.7101 39.2792C68.6105 38.3595 66.4171 37.9569 64.1405 38.4254C62.1866 38.8245 61.1177 40.2197 61.3051 42.0139C61.4231 43.1453 62.138 43.8533 63.0299 44.4259C64.1301 45.1339 65.3447 45.6094 66.556 46.0779C67.8782 46.588 69.1588 47.1745 70.3214 47.9936C74.8192 51.1587 74.67 57.8081 70.0334 60.7824C67.8713 62.1671 65.4489 62.5523 62.9501 62.5141C60.6908 62.4794 58.4905 62.0664 56.4048 61.1398C55.8911 60.9108 55.6898 60.6748 55.8877 60.0778C56.2555 58.9534 56.5332 57.8012 56.8594 56.6178Z" fill="#464F6D"/>
<path d="M90.5406 52.1478C90.5718 50.2078 90.9327 48.3476 91.8767 46.6297C93.7855 43.1593 97.9501 41.2088 102.16 41.8127C107.216 42.538 110.378 46.0085 110.645 51.1275C110.721 52.6059 110.635 54.067 110.218 55.4969C108.893 60.0675 104.506 62.9758 99.6957 62.4864C93.9521 61.9069 90.4365 57.9366 90.5406 52.1478ZM105.488 52.1652C105.509 50.5861 105.235 49.073 104.45 47.6848C102.719 44.6203 98.5505 44.5301 96.8569 47.6119C95.2605 50.5202 95.2119 53.595 96.8118 56.5241C98.554 59.71 102.59 59.6823 104.426 56.5519C105.221 55.2019 105.502 53.7165 105.488 52.1652Z" fill="#464F6D"/>
<path d="M139.131 53.5533C137.132 53.5533 135.133 53.5707 133.134 53.5395C132.593 53.5325 132.499 53.6783 132.561 54.1988C132.842 56.5206 134.637 58.2316 137.219 58.5682C139.315 58.8424 141.376 58.6133 143.386 58.0025C143.99 57.8186 144.219 57.8845 144.299 58.5474C144.385 59.2588 144.59 59.9564 144.753 60.6574C144.836 61.0149 144.83 61.2648 144.385 61.414C140.967 62.5523 137.489 62.9618 134.009 61.879C130.25 60.7095 128.293 57.9366 127.8 54.1155C127.463 51.5023 127.841 48.9758 129.098 46.6158C131.628 41.8543 136.875 40.9138 140.661 42.3055C143.764 43.4473 145.159 45.9946 145.76 49.0764C145.996 50.2841 145.964 51.5057 145.926 52.7274C145.909 53.3243 145.739 53.5915 145.048 53.5707C143.073 53.5152 141.102 53.5533 139.131 53.5533ZM136.889 50.0412C137.913 50.0412 138.937 50.0412 139.96 50.0412C141.349 50.0412 141.349 50.0412 141.099 48.6426C140.686 46.3208 139.03 45.0367 136.688 45.2103C134.588 45.3664 132.617 47.5008 132.558 49.6282C132.544 50.0898 132.794 50.0377 133.068 50.0377C134.342 50.0412 135.615 50.0412 136.889 50.0412Z" fill="#464F6D"/>
<path d="M83.4782 37.0962C83.4782 38.5989 83.5198 40.0114 83.4608 41.4204C83.4296 42.1111 83.6795 42.2429 84.2972 42.2152C85.4043 42.1701 86.5148 42.2221 87.6254 42.1943C88.1113 42.1805 88.3195 42.2846 88.2848 42.826C88.2362 43.6554 88.2327 44.4918 88.2848 45.3213C88.3195 45.8731 88.0974 45.9564 87.6185 45.9459C86.4558 45.9182 85.2898 45.9598 84.1237 45.9251C83.6378 45.9112 83.4573 46.0084 83.4608 46.5498C83.492 49.3783 83.4712 52.2067 83.4816 55.0352C83.4816 55.4204 83.5406 55.8091 83.6066 56.1908C83.8703 57.763 84.6165 58.3911 86.2025 58.3946C86.3968 58.3946 86.5912 58.3911 86.7855 58.3842C87.9933 58.3252 87.9933 58.3252 88.0384 59.5885C88.0592 60.1437 88.0314 60.7025 88.1009 61.2508C88.1772 61.8373 87.9724 62.1115 87.3963 62.2156C85.8312 62.4967 84.266 62.7015 82.6973 62.3093C80.2124 61.6916 78.8208 59.8904 78.6368 56.9925C78.4217 53.6123 78.5674 50.2285 78.557 46.8448C78.5535 46.1507 78.4355 45.887 77.6616 45.9147C75.7424 45.9772 75.7424 45.9321 75.7424 44.0164C75.7424 42.2048 75.7459 42.1527 77.5228 42.2256C78.38 42.2603 78.6438 42.0139 78.557 41.1775C78.4841 40.4626 78.5605 39.7372 78.5362 39.0154C78.5223 38.6232 78.6403 38.4323 79.0463 38.3282C80.4935 37.9534 81.9269 37.5335 83.4782 37.0962Z" fill="#464F6D"/>
<path d="M119.183 46.0189C119.491 45.4289 119.672 45.0298 119.901 44.6619C121.109 42.7254 122.82 41.6911 125.145 41.7432C125.707 41.7571 125.985 41.8959 125.957 42.5518C125.901 43.8741 125.94 45.2033 125.94 46.5568C124.857 46.3694 123.868 46.3555 122.896 46.6817C120.952 47.3307 119.828 49.0868 119.814 51.6029C119.793 54.82 119.793 58.0406 119.821 61.2578C119.828 61.8825 119.703 62.1219 119.023 62.0838C117.944 62.0213 116.857 62.0144 115.778 62.0838C115.008 62.1324 114.761 61.9588 114.768 61.1224C114.81 56.0729 114.789 51.0233 114.775 45.9772C114.772 44.8979 114.716 43.8151 114.65 42.7358C114.626 42.3401 114.723 42.1944 115.136 42.2013C116.247 42.2221 117.357 42.2291 118.464 42.1978C118.881 42.1874 118.974 42.3401 118.988 42.7219C119.026 43.7422 119.106 44.7591 119.183 46.0189Z" fill="#464F6D"/>
<path d="M51.3171 52.1546C51.3171 55.233 51.3032 58.3148 51.331 61.3931C51.3345 61.931 51.2061 62.1046 50.6508 62.0837C49.4882 62.0386 48.3186 62.0282 47.156 62.0872C46.4827 62.1219 46.2814 61.9588 46.2884 61.2473C46.3231 55.6147 46.3057 49.9821 46.3057 44.3495C46.3057 43.7942 46.3231 43.2389 46.2988 42.6837C46.2849 42.3297 46.389 42.1978 46.7638 42.2013C48.1243 42.2221 49.4847 42.2325 50.8417 42.1978C51.4664 42.1804 51.3137 42.59 51.3137 42.9162C51.3206 45.9945 51.3171 49.0728 51.3171 52.1546Z" fill="#464F6D"/>
<path d="M157.691 48.1567C157.691 43.6347 157.712 39.1092 157.67 34.5871C157.663 33.8028 157.986 33.7854 158.594 33.7715C159.239 33.7542 159.426 33.9277 159.426 34.5975C159.402 43.6972 159.399 52.8003 159.43 61.8999C159.433 62.6912 159.1 62.6946 158.503 62.7155C157.851 62.7397 157.674 62.5489 157.677 61.8895C157.705 57.3154 157.691 52.7378 157.691 48.1567Z" fill="#464F6D"/>
<path d="M206.011 62.2607C205.133 62.521 204.515 62.3128 204.168 61.3688C203.939 60.7511 203.54 60.2027 203.252 59.6058C203.085 59.2587 202.867 59.1338 202.481 59.1269C201.235 59.0991 201.235 59.0817 201.235 60.3242C201.235 60.7684 201.215 61.2126 201.242 61.6534C201.274 62.1045 201.222 62.3718 200.642 62.351C200.128 62.3336 199.913 62.2434 199.924 61.6638C199.958 59.3386 199.955 57.0099 199.924 54.6846C199.917 54.1641 200.066 54.0218 200.573 54.0426C201.541 54.0842 202.513 54.0357 203.481 54.0704C204.675 54.1155 205.549 54.7922 205.834 55.8264C206.15 56.9648 205.775 58.0996 204.758 58.7139C204.321 58.9776 204.435 59.1581 204.605 59.4704C205.098 60.3658 205.57 61.2682 206.049 62.1705C206.059 62.1878 206.032 62.2225 206.011 62.2607ZM201.239 56.6385C201.239 58.0927 201.239 58.0927 202.717 58.0857C202.967 58.0857 203.221 58.1031 203.463 58.0545C204.102 57.9295 204.491 57.5478 204.567 56.8815C204.685 55.8958 204.217 55.2816 203.234 55.1358C201.364 54.8616 201.239 54.9553 201.239 56.6385Z" fill="#464F6D"/>
<path d="M48.8773 33.9172C50.4945 33.9345 51.671 35.118 51.6433 36.7005C51.619 38.2345 50.3488 39.3832 48.7211 39.3381C47.1316 39.293 45.976 38.1269 46.0003 36.5929C46.028 35.0208 47.2323 33.8998 48.8773 33.9172Z" fill="#464F6D"/>
<path d="M254.744 47.6952C253.841 48.5663 252.915 48.8057 251.891 48.3858C250.857 47.9624 250.43 47.0809 250.329 46.0189C250.298 45.6892 250.291 45.3526 250.322 45.0229C250.419 43.9366 250.825 43.0169 251.901 42.5831C252.925 42.1701 253.841 42.4165 254.709 43.3362C254.709 42.4027 254.737 41.6114 254.698 40.8236C254.678 40.3551 254.82 40.1989 255.299 40.2163C255.74 40.2301 256.007 40.2371 256 40.8236C255.965 43.128 255.989 45.4289 255.982 47.7333C255.982 48.0873 256.142 48.5385 255.472 48.5281C254.931 48.5246 254.539 48.476 254.744 47.6952ZM254.716 45.3734C254.709 44.6967 254.532 43.9505 253.702 43.593C253.005 43.2911 252.394 43.4993 251.943 44.0963C251.398 44.8181 251.412 46.2133 251.964 46.9178C252.432 47.5147 253.064 47.6848 253.741 47.3794C254.514 47.0288 254.709 46.307 254.716 45.3734Z" fill="#464F6D"/>
<path d="M203.79 40.1954C204.106 40.1121 204.359 40.3376 204.536 40.8513C205.341 43.173 206.198 45.474 207.01 47.7957C207.08 47.997 207.448 48.3823 207.045 48.469C206.663 48.5523 206.101 48.7987 205.806 48.2018C205.782 48.1532 205.768 48.0977 205.747 48.0491C205.511 47.4695 205.539 46.5117 205.046 46.3659C204.178 46.1091 203.186 46.2722 202.245 46.2653C201.999 46.2618 201.943 46.4457 201.881 46.6435C201.746 47.0635 201.53 47.466 201.458 47.8964C201.315 48.764 200.68 48.5141 200.173 48.5003C199.823 48.4898 200.017 48.2053 200.069 48.063C200.958 45.5677 201.867 43.0759 202.752 40.5771C202.915 40.1155 203.269 40.2682 203.79 40.1954ZM203.668 41.8404C203.606 41.8438 203.543 41.8508 203.481 41.8543C203.109 42.9579 202.738 44.065 202.363 45.179C203.214 45.179 203.967 45.179 204.8 45.179C204.404 44.0164 204.036 42.9301 203.668 41.8404Z" fill="#464F6D"/>
<path d="M180.701 39.9524C180.281 40.0427 180.083 39.8934 180.083 39.3486C180.09 36.6208 182.769 33.6014 185.483 33.2926C185.837 33.2509 186 33.3307 186.007 33.7055C186.045 36.7388 183.626 39.7199 180.701 39.9524Z" fill="#464F6D"/>
<path d="M219.709 43.3918C220.33 42.6178 220.986 42.361 221.774 42.4027C222.843 42.4617 223.644 43.1384 223.7 44.2039C223.769 45.5018 223.717 46.8067 223.742 48.1082C223.752 48.6218 223.405 48.5073 223.12 48.5107C222.829 48.5142 222.492 48.6079 222.503 48.1012C222.523 47.1607 222.51 46.2167 222.506 45.2762C222.503 44.0165 222.1 43.4646 221.187 43.4612C220.24 43.4577 219.719 44.0893 219.712 45.2624C219.705 46.1751 219.685 47.0913 219.723 48.0041C219.744 48.5073 219.48 48.5316 219.109 48.5142C218.772 48.5003 218.446 48.5663 218.449 48.0353C218.466 45.5712 218.466 43.1037 218.449 40.6397C218.446 40.0462 218.855 40.2579 219.136 40.2302C219.442 40.2024 219.733 40.1712 219.712 40.664C219.681 41.5004 219.709 42.3333 219.709 43.3918Z" fill="#464F6D"/>
<path d="M212.022 60.5776C211.727 61.6812 210.981 62.2816 209.801 62.3926C208.527 62.5106 207.434 61.9831 206.962 60.942C206.469 59.8522 206.472 58.7313 206.996 57.6485C207.573 56.465 208.919 55.9341 210.248 56.3228C211.453 56.6767 212.237 57.9157 212.14 59.2206C212.108 59.6614 211.855 59.6093 211.581 59.6093C210.529 59.6093 209.474 59.6336 208.423 59.5989C207.871 59.5815 207.826 59.8245 207.944 60.2548C208.253 61.3619 209.759 61.8478 210.54 60.9975C211.019 60.4769 211.477 60.5637 212.022 60.5776ZM209.322 58.7382C209.683 58.7382 210.044 58.7139 210.404 58.7452C210.942 58.7903 210.932 58.5473 210.772 58.1552C210.554 57.6172 210.175 57.3014 209.596 57.239C208.954 57.1695 208.451 57.4125 208.117 57.9608C207.739 58.582 207.833 58.7313 208.576 58.7382C208.825 58.7417 209.075 58.7382 209.322 58.7382Z" fill="#464F6D"/>
<path d="M233.945 59.6058C233.39 59.6058 232.838 59.6232 232.282 59.6024C231.8 59.5815 231.724 59.7759 231.831 60.2097C232.119 61.3619 233.591 61.8096 234.476 60.994C234.576 60.9003 234.625 60.7407 234.733 60.6747C235.083 60.4561 235.555 60.4387 235.819 60.6435C236.058 60.8309 235.739 61.1918 235.569 61.4278C234.809 62.4586 232.983 62.7258 231.79 62.0005C230.63 61.296 230.162 59.5121 230.728 57.9747C231.2 56.6871 232.435 56.0139 233.865 56.2568C235.191 56.4824 236.218 57.9365 236.038 59.2761C235.996 59.5954 235.84 59.6128 235.604 59.6128C235.052 59.6024 234.497 59.6058 233.945 59.6058ZM233.254 58.7382C233.556 58.7382 233.861 58.7139 234.16 58.7417C234.837 58.8076 234.823 58.4849 234.597 58.0163C234.153 57.0932 232.859 56.9301 232.175 57.7179C231.956 57.9678 231.727 58.287 231.852 58.5994C231.97 58.8944 232.338 58.7 232.595 58.7313C232.81 58.759 233.036 58.7382 233.254 58.7382Z" fill="#464F6D"/>
<path d="M222.062 59.6059C221.562 59.6059 221.062 59.6336 220.566 59.5989C219.973 59.5573 219.837 59.7724 220.021 60.3208C220.379 61.3758 221.76 61.7645 222.607 61.0253C222.69 60.9524 222.753 60.8587 222.822 60.7719C223.148 60.3694 223.679 60.4527 223.939 60.6262C224.266 60.8413 223.88 61.2127 223.707 61.4487C222.919 62.5002 221.017 62.7258 219.851 61.9311C218.789 61.2092 218.366 59.5746 218.859 58.0927C219.292 56.7913 220.299 56.1388 221.736 56.2291C223.231 56.3228 224.335 57.6936 224.203 59.2276C224.172 59.6024 223.988 59.6093 223.721 59.6059C223.172 59.6024 222.617 59.6059 222.062 59.6059ZM221.357 58.7382C221.687 58.7382 222.024 58.7139 222.35 58.7452C222.957 58.8007 222.999 58.53 222.787 58.0684C222.558 57.5756 222.183 57.2945 221.642 57.239C221.08 57.1834 220.604 57.3535 220.261 57.8185C220.08 58.065 219.875 58.3738 220.004 58.6445C220.108 58.8632 220.455 58.7174 220.691 58.7348C220.913 58.7521 221.135 58.7382 221.357 58.7382Z" fill="#464F6D"/>
<path d="M247.403 45.7898C246.848 45.7898 246.296 45.8037 245.741 45.7863C245.342 45.7725 245.272 45.9599 245.338 46.3C245.442 46.8657 245.744 47.2578 246.286 47.4591C246.907 47.6882 247.483 47.6118 247.993 47.1815C248.094 47.0947 248.139 46.9316 248.247 46.8587C248.597 46.6297 249.066 46.6227 249.336 46.8136C249.583 46.9871 249.277 47.355 249.107 47.5875C248.337 48.653 246.466 48.9167 245.265 48.1463C244.165 47.4418 243.714 45.7794 244.214 44.2593C244.62 43.0204 245.647 42.3436 247.029 42.4096C248.576 42.4824 249.715 43.8602 249.548 45.4254C249.517 45.7204 249.42 45.8002 249.149 45.7968C248.566 45.7794 247.983 45.7898 247.403 45.7898ZM246.72 44.9187C247.053 44.9187 247.386 44.891 247.716 44.9257C248.382 44.9916 248.316 44.6341 248.129 44.2281C247.903 43.7353 247.507 43.4646 246.963 43.4195C246.393 43.3744 245.925 43.5652 245.595 44.0372C245.436 44.2628 245.245 44.5335 245.377 44.7973C245.505 45.0541 245.821 44.8944 246.053 44.9153C246.275 44.9361 246.498 44.9187 246.72 44.9187Z" fill="#464F6D"/>
<path d="M211.879 47.709C211.033 48.6044 210.102 48.8057 209.086 48.3961C208.055 47.9762 207.864 47.0669 207.881 46.064C207.899 45.0402 207.906 44.0129 207.874 42.9926C207.861 42.5345 208.038 42.4304 208.454 42.4477C208.839 42.4651 209.152 42.4304 209.127 42.9891C209.089 43.9851 209.103 44.9812 209.12 45.9772C209.141 47.0218 209.53 47.4799 210.359 47.5042C211.234 47.5285 211.806 46.9698 211.841 45.9703C211.879 44.9742 211.876 43.9747 211.841 42.9822C211.824 42.4998 212.039 42.4477 212.431 42.4477C212.844 42.4442 213.094 42.4755 213.084 43.0099C213.049 44.589 213.08 46.1646 213.066 47.7437C213.063 48.0803 213.268 48.5419 212.577 48.5419C212.001 48.5349 211.72 48.3927 211.879 47.709Z" fill="#464F6D"/>
<path d="M224.856 45.467C224.863 43.5721 225.956 42.4026 227.708 42.4026C229.489 42.4026 230.575 43.6034 230.558 45.5538C230.54 47.4348 229.43 48.594 227.663 48.5801C225.921 48.5627 224.849 47.3723 224.856 45.467ZM229.305 45.4809C229.253 44.7487 229.166 44.0268 228.448 43.6103C227.826 43.2494 227.021 43.3986 226.567 43.9435C225.945 44.6827 225.952 46.3347 226.58 47.0565C227.042 47.591 227.858 47.7298 228.468 47.3619C229.18 46.9316 229.256 46.2063 229.305 45.4809Z" fill="#464F6D"/>
<path d="M240.837 48.5905C239.8 48.5696 239.008 48.3683 238.488 47.6083C238.328 47.3758 238.033 46.9524 238.297 46.8309C238.627 46.6747 239.196 46.4943 239.48 46.9906C239.907 47.7367 240.57 47.6534 241.229 47.5597C241.569 47.5111 241.854 47.3203 241.889 46.9177C241.927 46.5047 241.67 46.3138 241.323 46.2166C240.764 46.057 240.195 45.9321 239.647 45.7516C238.876 45.5017 238.321 45.054 238.356 44.1448C238.391 43.2667 238.925 42.8086 239.699 42.5553C240.9 42.1631 242.257 42.5136 242.767 43.3743C242.909 43.6138 243.201 44.0025 242.899 44.1517C242.607 44.294 242.076 44.464 241.806 43.9747C241.434 43.2979 240.83 43.3188 240.213 43.4264C239.862 43.4854 239.595 43.704 239.567 44.0858C239.539 44.4432 239.786 44.6514 240.095 44.7451C240.622 44.9083 241.163 45.0263 241.694 45.179C242.749 45.4844 243.173 45.9286 243.18 46.7094C243.187 47.5215 242.628 48.1671 241.653 48.4378C241.33 48.5245 241 48.5592 240.837 48.5905Z" fill="#464F6D"/>
<path d="M212.914 60.6019C213.472 60.5776 214 60.3798 214.395 61.0739C214.666 61.5528 215.863 61.5632 216.315 61.2092C216.773 60.8483 216.683 60.2826 216.086 60.064C215.544 59.8662 214.965 59.7655 214.413 59.5885C213.438 59.2796 213.021 58.7591 213.052 57.9504C213.08 57.1696 213.58 56.6143 214.496 56.3436C215.68 55.9931 216.991 56.3575 217.477 57.2043C217.613 57.4368 217.928 57.8255 217.588 57.9782C217.3 58.1066 216.78 58.2905 216.502 57.7839C216.134 57.114 215.527 57.1349 214.906 57.2459C214.548 57.3084 214.295 57.5444 214.271 57.9157C214.246 58.2697 214.5 58.4745 214.805 58.5682C215.388 58.7452 215.978 58.884 216.565 59.0471C217.286 59.2484 217.838 59.6336 217.869 60.4561C217.901 61.3168 217.411 61.8513 216.658 62.1636C214.975 62.8612 213.257 62.1567 212.914 60.6019Z" fill="#464F6D"/>
<path d="M214.85 45.5573C214.85 45.1131 214.847 44.6689 214.85 44.2246C214.857 43.8012 214.927 43.357 214.253 43.4334C213.913 43.4715 213.955 43.18 213.955 42.9648C213.955 42.7531 213.91 42.4373 214.229 42.4686C214.864 42.531 214.899 42.1666 214.847 41.712C214.791 41.2539 214.875 41.0352 215.444 41.0248C216.061 41.0144 216.145 41.2782 216.075 41.7536C216.002 42.2707 216.169 42.5449 216.738 42.4512C217.162 42.3818 217.224 42.6143 217.241 42.9822C217.266 43.4472 217.019 43.4819 216.683 43.4403C216.211 43.3813 216.051 43.5757 216.068 44.0476C216.1 44.8771 216.086 45.7135 216.075 46.5429C216.065 47.1156 216.218 47.5494 216.891 47.532C217.311 47.5216 217.21 47.8027 217.228 48.0352C217.245 48.3094 217.207 48.4899 216.86 48.5523C215.669 48.764 214.895 48.1741 214.857 46.9733C214.84 46.5013 214.854 46.0293 214.85 45.5573Z" fill="#464F6D"/>
<path d="M229.346 58.2246C229.346 59.415 229.319 60.6019 229.357 61.7922C229.374 62.351 229.069 62.3371 228.68 62.3371C228.312 62.3371 228.055 62.3232 228.059 61.8235C228.08 59.3907 228.087 56.9579 228.059 54.525C228.052 53.8934 228.458 54.0912 228.774 54.053C229.169 54.0079 229.371 54.0982 229.357 54.5771C229.322 55.7918 229.346 57.0064 229.346 58.2246Z" fill="#464F6D"/>
<path d="M225.366 58.1587C225.366 56.9718 225.387 55.7814 225.355 54.5945C225.345 54.1503 225.487 54.0149 225.918 54.0496C226.275 54.0774 226.605 53.9767 226.598 54.5632C226.567 56.9683 226.57 59.3733 226.598 61.7749C226.605 62.3059 226.362 62.3233 225.952 62.3406C225.466 62.3614 225.348 62.181 225.359 61.7229C225.387 60.536 225.366 59.3456 225.366 58.1587Z" fill="#464F6D"/>
<path d="M238.314 56.9891C238.724 56.7184 238.935 56.4164 239.289 56.3019C240.025 56.0624 240.31 56.2984 240.233 57.055C240.202 57.3673 240.074 57.3708 239.817 57.3882C238.717 57.468 238.394 57.8359 238.383 58.9672C238.377 59.9077 238.359 60.8517 238.39 61.7922C238.408 62.2538 238.227 62.3544 237.811 62.3406C237.419 62.3267 237.131 62.3475 237.141 61.7922C237.176 60.1854 237.144 58.5785 237.162 56.9717C237.165 56.6941 236.968 56.2429 237.557 56.2672C237.984 56.288 238.557 56.0971 238.314 56.9891Z" fill="#464F6D"/>
<path d="M232.845 43.3466C233.254 42.8538 233.528 42.5137 233.959 42.4617C234.254 42.4269 234.726 42.1562 234.774 42.7775C234.809 43.2078 234.91 43.6381 234.15 43.5861C233.369 43.534 232.97 44.0407 232.938 44.95C232.907 45.946 232.904 46.9455 232.938 47.9416C232.956 48.4483 232.747 48.5281 232.307 48.5315C231.849 48.535 231.679 48.424 231.689 47.9312C231.72 46.3521 231.699 44.773 231.703 43.1905C231.703 42.8261 231.567 42.4269 232.23 42.4235C232.81 42.4269 232.966 42.6386 232.845 43.3466Z" fill="#464F6D"/>
<path d="M237.023 45.5711C237.023 46.345 236.988 47.1224 237.033 47.8929C237.065 48.4308 236.853 48.5418 236.367 48.5349C235.916 48.528 235.732 48.4239 235.739 47.931C235.767 46.2999 235.767 44.6688 235.739 43.0376C235.732 42.5414 235.923 42.4477 236.371 42.4372C236.863 42.4268 237.065 42.5483 237.037 43.0828C236.992 43.9087 237.023 44.7417 237.023 45.5711Z" fill="#464F6D"/>
<path d="M236.339 41.5906C235.909 41.5107 235.652 41.2713 235.694 40.8062C235.732 40.3689 236.02 40.1815 236.426 40.1954C236.843 40.2093 237.096 40.4522 237.089 40.8791C237.079 41.3407 236.801 41.5593 236.339 41.5906Z" fill="#464F6D"/>
</svg>
