<svg width="302" height="96" viewBox="0 0 302 96" fill="none" xmlns="http://www.w3.org/2000/svg">
<path d="M79.6469 27.9901C76.6454 30.3361 75.0538 32.1761 73.2802 35.5801C71.8249 38.3861 70.4151 43.2621 70.9608 43.7681C71.4611 44.2741 72.4616 42.8021 72.7344 41.0541C73.3711 37.0061 77.464 30.8421 80.9657 28.6801L82.5574 27.6681L84.331 29.0941C89.5154 33.2801 92.5623 39.1681 92.5623 45.0561C92.5623 46.4361 92.7897 47.0801 93.2899 47.2641C93.9721 47.5401 94.0176 47.1721 93.7902 43.9981C93.5173 39.9041 92.3804 36.5921 89.9701 32.9121C88.1965 30.2901 83.7853 26.3801 82.4665 26.3801C82.0572 26.3801 80.7838 27.1161 79.6469 27.9901Z" fill="#464F6D"/>
<path d="M114.664 27.392C111.935 28.128 109.161 31.118 108.252 34.384C105.705 43.262 111.481 51.082 119.394 49.426C124.305 48.414 127.216 44.412 127.307 38.57C127.352 34.476 126.306 31.578 123.941 29.416C121.304 27.024 118.439 26.38 114.664 27.392ZM121.349 28.864C123.214 29.646 125.033 31.808 125.76 34.016C126.488 36.27 126.124 42.296 125.169 44.182C122.804 48.69 115.756 49.978 111.89 46.574C109.662 44.55 108.798 41.928 108.979 37.512C109.116 34.522 109.389 33.602 110.389 31.992C111.117 30.934 112.436 29.692 113.345 29.186C115.392 28.082 119.212 27.944 121.349 28.864Z" fill="#464F6D"/>
<path d="M132.127 38.34C132.127 45.378 132.309 49.38 132.582 49.38C132.855 49.38 133.037 47.448 133.037 44.55V39.72H135.129C136.266 39.72 137.63 39.95 138.13 40.226C138.63 40.502 139.949 42.664 141.086 45.056C142.178 47.448 143.314 49.38 143.542 49.38C144.179 49.38 143.678 47.954 141.632 43.768C140.677 41.836 139.54 40.042 139.085 39.812C138.403 39.398 138.539 39.26 139.904 38.662C142.269 37.696 143.496 35.856 143.496 33.418C143.496 29.094 141.086 27.3 135.311 27.3H132.127V38.34ZM140.995 29.738C141.905 30.52 142.269 31.348 142.45 32.958C142.678 34.936 142.587 35.212 141.086 36.73C139.585 38.248 139.358 38.34 136.266 38.34H133.037V33.51V28.68H136.402C139.313 28.68 139.995 28.818 140.995 29.738Z" fill="#464F6D"/>
<path d="M149.408 38.3861V49.5181L153.41 49.2881C158.094 49.0121 160.05 48.2761 162.324 45.8841C166.553 41.4681 166.053 32.4981 161.323 29.3241C159.459 28.0361 156.184 27.3001 152.364 27.3001H149.408V38.3861ZM160.414 29.9681C162.778 31.4401 163.961 34.1541 163.961 38.1101C163.961 42.1121 162.778 44.8261 160.232 46.5281C158.685 47.5401 157.776 47.7701 154.365 47.9081L150.318 48.0921V38.3401V28.5881L154.547 28.7721C157.912 28.9101 159.095 29.1401 160.414 29.9681Z" fill="#464F6D"/>
<path d="M169.964 36.132C170.1 43.86 170.191 45.194 170.964 46.436C172.238 48.598 174.239 49.564 177.24 49.61C180.378 49.61 181.924 48.644 183.425 45.7C184.334 43.814 184.425 43.078 184.425 35.488C184.425 30.336 184.244 27.3 183.971 27.3C183.698 27.3 183.516 30.06 183.516 34.706C183.516 43.262 183.061 45.7 181.151 47.31C179.559 48.69 176.103 48.874 173.966 47.77C171.419 46.436 171.055 44.964 170.873 35.672C170.782 30.612 170.51 27.3 170.237 27.3C169.964 27.3 169.873 30.566 169.964 36.132Z" fill="#464F6D"/>
<path d="M190.337 38.294C190.337 45.24 190.519 49.38 190.792 49.38C191.065 49.38 191.292 45.608 191.338 39.628L191.474 29.922L198.478 39.628C202.343 45.01 205.663 49.38 205.89 49.38C206.072 49.38 206.254 44.412 206.254 38.34C206.254 28.91 206.163 27.3 205.572 27.3C205.026 27.3 204.89 28.772 204.799 36.914L204.663 46.528L198.068 37.328C194.43 32.268 191.201 27.944 190.929 27.668C190.474 27.3 190.337 29.462 190.337 38.294Z" fill="#464F6D"/>
<path d="M212.166 38.34V49.38H217.169C221.307 49.38 222.171 49.242 222.171 48.69C222.171 48.138 221.353 48 217.623 48H213.076V43.4V38.8H217.169C220.489 38.8 221.262 38.662 221.262 38.11C221.262 37.558 220.489 37.42 217.169 37.42H213.076V33.05V28.68H217.396C220.943 28.68 221.716 28.542 221.716 27.99C221.716 27.438 220.898 27.3 216.941 27.3H212.166V38.34Z" fill="#464F6D"/>
<path d="M225.354 27.99C225.354 28.542 225.991 28.68 228.538 28.68H231.721V39.03C231.721 47.908 231.812 49.38 232.403 49.38C232.995 49.38 233.086 47.908 233.086 39.03V28.68H236.042C238.361 28.68 238.998 28.542 238.998 27.99C238.998 27.392 237.952 27.3 232.176 27.3C226.4 27.3 225.354 27.392 225.354 27.99Z" fill="#464F6D"/>
<path d="M80.1926 31.5781C79.2831 32.3601 77.9188 33.9701 77.1457 35.0741C74.9173 38.2941 73.0073 45.7001 74.3716 45.7001C74.8718 45.7001 74.8718 45.7001 75.6904 42.2501C76.0087 40.9621 76.6909 39.0301 77.2366 37.8801C78.2826 35.6261 81.466 31.9001 82.2845 31.9001C83.8307 31.9001 88.9241 39.1681 88.9241 41.4221C88.9241 41.7441 89.2425 42.0201 89.6063 42.0201C90.6068 42.0201 90.4249 40.7321 88.9241 37.5121C87.6053 34.6601 83.6034 30.0601 82.4664 30.0601C82.1481 30.0601 81.1476 30.7501 80.1926 31.5781Z" fill="#464F6D"/>
<path d="M77.7824 42.342C76.9183 42.572 76.1907 43.262 76.1907 43.906C76.1907 44.09 77.0547 44.044 78.1462 43.814C82.0572 43.032 87.0141 43.492 90.8797 45.01C91.3799 45.24 91.6528 45.102 91.6528 44.642C91.6528 43.4 88.1056 42.342 83.2396 42.204C80.7384 42.112 78.2826 42.204 77.7824 42.342Z" fill="#464F6D"/>
<path d="M71.0518 44.964C65.0944 48.552 60.5922 55.912 60.5467 62.26L60.5012 65.25L62.5477 66.262C65.6401 67.78 69.1418 68.378 73.4621 68.102C77.646 67.872 81.8298 66.538 80.602 65.848C80.1927 65.618 78.7374 65.756 77.0093 66.216C73.3257 67.182 67.8685 66.86 64.2303 65.48C61.6836 64.514 61.6381 64.468 61.6381 62.72C61.6381 57.154 66.2768 49.518 71.5521 46.344C72.3707 45.884 73.0073 45.148 73.0073 44.688C73.0073 44.228 72.9619 43.86 72.9164 43.906C72.8254 43.906 72.0068 44.412 71.0518 44.964Z" fill="#464F6D"/>
<path d="M76.3271 46.114C73.3257 47.218 73.0073 47.448 73.0073 48.322C73.0073 48.828 73.2347 48.92 73.8259 48.69C78.4645 46.712 79.1922 46.528 83.0122 46.712C85.1496 46.85 87.2416 47.08 87.7418 47.31C88.3785 47.586 88.5149 47.494 88.3785 46.804C88.1966 45.7 86.7413 45.332 82.3301 45.286C79.8743 45.286 77.9188 45.562 76.3271 46.114Z" fill="#464F6D"/>
<path d="M89.2424 48.276C88.9241 51.312 87.3324 54.854 85.0131 57.568C83.6943 59.132 83.4669 59.684 83.9216 60.098C84.3309 60.512 84.7857 60.236 86.0136 58.81C88.5148 55.912 90.2884 51.818 90.4248 48.736C90.5613 45.102 89.6062 44.78 89.2424 48.276Z" fill="#464F6D"/>
<path d="M94.8362 46.39C94.8362 46.85 96.0186 48.46 97.4284 50.024C100.566 53.474 102.613 57.752 102.931 61.616L103.158 64.468L100.475 65.48C95.2001 67.55 88.515 67.136 83.3761 64.514C82.1027 63.87 81.4206 63.732 80.8294 64.054C80.1927 64.422 80.7384 64.836 83.6944 66.216C89.4245 68.884 96.1551 68.93 102.203 66.308L104.523 65.296L104.25 61.846C103.886 56.372 100.794 50.392 96.6098 47.08C95.2001 45.93 94.8362 45.792 94.8362 46.39Z" fill="#464F6D"/>
<path d="M71.2793 47.6321C70.0514 49.1501 73.3712 57.8901 76.1908 60.6501C78.3282 62.7201 78.6466 61.5701 76.6911 58.9021C74.3263 55.6821 73.5532 54.0721 72.5981 50.2541C72.0069 47.8161 71.6886 47.1721 71.2793 47.6321Z" fill="#464F6D"/>
<path d="M91.6529 48.184C91.6529 48.552 92.7898 49.978 94.1996 51.312C97.0191 54.026 99.3839 58.166 99.5204 60.742C99.6113 62.352 99.5204 62.444 97.5649 63.088C96.2006 63.502 94.2451 63.64 91.6074 63.456C87.2416 63.226 85.6954 63.686 88.0602 64.514C90.1976 65.25 95.5184 65.158 98.6108 64.238L101.294 63.502L101.067 61.064C100.93 59.776 100.248 57.476 99.5658 56.004C97.7922 52.186 91.6529 46.114 91.6529 48.184Z" fill="#464F6D"/>
<path d="M74.5535 49.61C74.2352 50.438 75.0992 53.244 76.3271 55.36C78.2371 58.718 82.3755 62.49 83.6488 61.984C84.1491 61.8 83.8762 61.34 82.421 60.236C79.6924 58.12 77.1911 54.624 76.2816 51.588C75.5085 48.92 75.0083 48.368 74.5535 49.61Z" fill="#464F6D"/>
<path d="M67.823 51.818C65.6855 54.44 63.821 58.764 63.73 61.294L63.6846 63.318L66.1858 64.238C69.5511 65.434 75.8269 65.158 79.1012 63.686C80.6474 62.996 81.1931 62.536 80.8748 62.214C80.5565 61.892 79.5105 62.03 77.6459 62.674C74.4626 63.778 69.7785 63.916 66.8679 62.996C65.1853 62.49 65.0489 62.352 65.1853 60.88C65.3672 58.718 67.0953 54.992 68.8689 52.968C70.2332 51.404 70.7335 49.84 69.8694 49.84C69.642 49.84 68.687 50.714 67.823 51.818Z" fill="#464F6D"/>
<path d="M91.2435 53.336C90.1066 56.418 87.7418 59.822 85.2406 61.984C83.7853 63.226 83.5579 63.594 84.1946 63.824C85.5134 64.33 89.4699 60.282 91.38 56.464C93.2445 52.692 93.5174 51.818 92.8352 51.266C92.3804 50.852 92.0166 51.312 91.2435 53.336Z" fill="#464F6D"/>
<path d="M111.754 52.2781C108.798 53.7041 107.888 60.3281 110.025 64.6981C111.39 67.4121 112.481 68.9761 112.8 68.6541C112.89 68.5161 112.39 67.5041 111.663 66.4001C109.252 62.6741 108.843 57.2461 110.799 54.0261C111.526 52.8301 111.935 52.6001 113.436 52.6001C116.074 52.6001 116.665 53.7041 116.665 58.4421C116.665 60.6961 116.847 62.2601 117.12 62.2601C117.393 62.2601 117.575 60.5121 117.575 57.9361C117.575 53.0141 117.893 52.4621 120.576 52.6921C122.941 52.8761 124.032 54.5321 124.305 58.1201C124.533 61.5241 123.805 64.4681 122.077 66.8601C121.349 67.8721 120.94 68.7001 121.213 68.7001C121.895 68.7001 123.85 65.4801 124.669 62.9961C126.033 58.9021 124.805 53.7501 122.077 52.1861C120.758 51.4501 118.939 51.7261 117.847 52.8761C117.165 53.5201 117.029 53.5201 115.937 52.6461C114.619 51.5881 113.345 51.4501 111.754 52.2781Z" fill="#464F6D"/>
<path d="M135.629 52.3241C131.445 53.8421 128.944 57.3841 128.944 61.7541C128.944 63.0881 129.171 64.6061 129.444 65.1581C130.126 66.4921 132.173 68.7001 132.764 68.7001C132.991 68.7001 132.537 68.0101 131.763 67.1821C128.034 63.2721 129.262 57.2001 133.764 57.2001C135.72 57.2001 136.675 58.5801 136.675 61.4321C136.675 62.6741 136.902 63.6401 137.13 63.6401C137.403 63.6401 137.584 62.3981 137.584 60.8801C137.584 57.8441 138.13 57.2001 140.722 57.2001C144.633 57.2001 145.679 63.0421 142.541 66.9521C141.723 68.0101 141.359 68.7461 141.723 68.6081C142.86 68.2401 144.906 64.7901 145.179 62.8581C145.452 60.6041 144.406 58.0741 142.814 57.2001C141.268 56.3721 139.131 56.4181 138.085 57.3841C137.266 58.1201 137.175 58.1201 135.72 57.2461C134.219 56.3261 132.582 56.3261 131.309 57.3381C130.172 58.2581 130.308 57.2921 131.536 55.8201C132.991 54.0261 135.856 52.6461 137.948 52.6001C138.721 52.6001 139.404 52.3701 139.404 52.1401C139.404 51.4961 137.721 51.5881 135.629 52.3241Z" fill="#464F6D"/>
<path d="M151.637 52.37C148.317 54.256 148.544 60.88 152.046 64.652L153.228 65.94L151.773 66.216C149.09 66.768 150.272 67.09 154.274 66.906L158.276 66.722L155.775 66.216C153.501 65.756 153.137 65.48 151.864 63.548C151.091 62.398 150.272 60.466 150.136 59.316C149.727 56.786 150.5 53.704 151.682 53.06C152.592 52.554 156.366 52.416 156.775 52.876C156.957 53.014 156.775 53.842 156.412 54.67C154.729 58.81 157.048 63.64 160.777 63.64C163.915 63.64 166.007 60.742 165.689 56.832C165.507 54.67 165.234 54.072 163.961 52.922C162.687 51.772 162.233 51.634 160.596 51.864C158.322 52.232 157.003 52.232 154.638 51.91C153.456 51.772 152.41 51.91 151.637 52.37ZM163.915 53.796C164.643 54.716 164.87 55.682 164.87 57.752C164.87 61.202 163.642 62.72 160.777 62.72C157.73 62.72 156.366 60.558 156.821 56.464C157.139 53.566 158.14 52.6 160.823 52.6C162.596 52.6 163.142 52.784 163.915 53.796Z" fill="#464F6D"/>
<path d="M168.509 52.1401C168.872 52.3701 169.827 52.6001 170.601 52.6001C172.283 52.6001 172.601 53.1981 172.601 56.0961C172.601 57.2001 172.829 58.1201 173.056 58.1201C173.329 58.1201 173.511 56.9241 173.511 55.4061C173.511 52.9221 173.602 52.6921 174.557 52.5081C175.148 52.3701 176.103 52.4621 176.603 52.6461C177.558 53.0141 177.604 53.2901 177.604 59.6381C177.604 65.3881 177.513 66.3541 176.831 66.9521C175.648 68.0101 173.92 68.2861 172.01 67.7341C169.873 67.1361 169.236 65.9401 169.6 63.2261C169.827 61.2941 169.782 61.2021 169.191 61.9841C167.781 63.9161 168.872 67.2281 171.237 68.2401C173.284 69.1141 176.24 68.5621 177.467 67.0901C178.468 65.9861 178.513 65.4801 178.513 59.5001C178.513 53.4281 178.468 53.0601 177.513 52.4161C176.24 51.4961 174.921 51.4961 173.647 52.3701C172.829 52.9681 172.647 52.9681 172.147 52.3701C171.828 51.9561 170.828 51.6801 169.691 51.6801C168.327 51.6801 168.008 51.8181 168.509 52.1401Z" fill="#464F6D"/>
<path d="M184.244 52.646L182.97 53.658L183.152 59.822L183.289 66.032L184.789 67.366C186.836 69.206 189.291 69.206 191.338 67.366C192.748 66.078 192.839 65.802 192.839 62.996C192.839 60.328 192.702 59.822 191.565 58.718C189.883 56.97 186.881 56.924 185.153 58.534L183.971 59.638V56.648C183.971 52.83 184.425 52.462 188.928 52.094L192.384 51.818L188.928 51.772C186.017 51.68 185.244 51.818 184.244 52.646ZM191.02 59.27C192.611 60.88 192.657 64.836 191.065 66.722C189.564 68.516 186.563 68.47 185.017 66.676C183.289 64.652 183.88 59.224 185.881 58.442C187.518 57.752 189.974 58.166 191.02 59.27Z" fill="#464F6D"/>
<path d="M198.478 53.014C197.159 54.394 196.795 55.958 197.614 57.2C198.114 57.982 198.205 57.614 198.068 55.682C197.932 53.704 199.205 52.6 201.57 52.6C205.299 52.6 205.345 52.692 205.345 59.914C205.345 67.32 205.072 67.918 201.479 67.918C198.25 67.918 196.477 65.48 197.614 62.536C197.978 61.57 197.932 61.294 197.523 61.432C195.886 61.984 196.431 66.032 198.387 67.734C200.115 69.252 203.662 68.93 205.208 67.136C206.163 65.986 206.254 65.48 206.254 60.19C206.254 57.062 206.118 54.164 205.981 53.75C205.572 52.692 203.389 51.68 201.479 51.68C200.251 51.68 199.478 52.048 198.478 53.014Z" fill="#464F6D"/>
<path d="M215.35 52.462C211.939 53.934 210.757 56.004 210.757 60.236C210.757 66.86 215.031 70.402 220.079 68.01C224.263 65.986 225.082 57.2 221.444 53.888C220.761 53.29 217.26 51.542 216.987 51.726C216.987 51.726 216.214 52.048 215.35 52.462ZM216.714 56.74C216.714 59.178 216.896 60.88 217.169 60.88C217.442 60.88 217.624 59.178 217.624 56.694C217.624 52.6 217.624 52.554 218.67 52.83C221.853 53.75 223.308 56.556 222.944 61.11C222.581 65.986 220.989 67.918 217.305 67.918C213.485 67.918 211.575 65.342 211.575 60.144C211.575 56.418 212.439 54.394 214.622 53.336C215.395 52.922 216.168 52.6 216.396 52.6C216.578 52.6 216.714 54.44 216.714 56.74Z" fill="#464F6D"/>
<path d="M230.084 52.554C228.311 53.658 227.492 55.866 227.583 59.684C227.583 62.812 228.947 68.286 229.72 68.562C230.039 68.654 229.857 67.642 229.311 66.078C228.038 62.26 227.992 56.602 229.266 54.44C230.13 52.968 230.357 52.83 232.358 52.83C234.268 52.83 234.723 53.014 235.541 54.118C236.36 55.222 236.496 56.05 236.496 59.408C236.451 62.03 236.178 64.284 235.632 65.848C234.768 68.424 234.95 69.804 235.86 67.504C236.906 64.744 237.679 59.73 237.406 57.614C236.724 52.646 233.495 50.438 230.084 52.554Z" fill="#464F6D"/>
<path d="M159.231 67.3201C159.777 67.5501 160.368 67.9181 160.55 68.1941C160.686 68.4701 161.096 68.7001 161.369 68.7001C161.687 68.6541 161.414 68.2401 160.823 67.7801C160.232 67.2741 159.413 66.8601 159.004 66.9061C158.504 66.9061 158.549 67.0441 159.231 67.3201Z" fill="#464F6D"/>
</svg>
