<svg width="24" height="24" viewBox="0 0 24 24" fill="none" xmlns="http://www.w3.org/2000/svg">
<path d="M24 0V24H0V0H24Z" fill="white" fill-opacity="0.01"/>
<path fill-rule="evenodd" clip-rule="evenodd" d="M16.5532 22.1324C15.1123 22.0794 11.0316 21.516 6.75824 17.2426C2.48485 12.9692 1.92146 8.88856 1.86843 7.44761C1.85325 7.03527 1.9216 6.65667 2.00173 6.33616L2.0175 6.27307C2.46415 4.48647 3.72036 3.01142 5.41304 2.28598C5.86911 2.09053 6.42149 2.1263 6.85817 2.44483C8.29964 3.49629 9.33942 5.03305 10.2251 6.34206C10.3218 6.48493 10.4166 6.62508 10.5099 6.7616C10.9383 7.38829 10.8359 8.24394 10.254 8.74765L8.30286 10.1967C8.10948 10.3403 8.04517 10.6014 8.16116 10.8125C8.60262 11.616 9.38908 12.8118 10.289 13.7118C11.19 14.6128 12.4423 15.45 13.3011 15.9411C13.5238 16.0685 13.8039 15.9947 13.9447 15.7803L15.214 13.8468C15.7008 13.199 16.6097 13.0575 17.2704 13.5148C17.3592 13.5763 17.449 13.6382 17.5395 13.7006C18.8833 14.6276 20.3955 15.6707 21.5219 17.1132C21.8634 17.5506 21.9142 18.1227 21.7105 18.5981C20.9878 20.2843 19.5184 21.5357 17.7386 21.9806L17.6647 21.9991C17.3442 22.0793 16.9656 22.1476 16.5532 22.1324Z" fill="white"/>
</svg>
