<svg width="25" height="24" viewBox="0 0 25 24" fill="none" xmlns="http://www.w3.org/2000/svg">
<path fill-rule="evenodd" clip-rule="evenodd" d="M17.219 22.1324C15.7781 22.0794 11.6974 21.516 7.42401 17.2426C3.15062 12.9692 2.58723 8.88856 2.5342 7.44761C2.51903 7.03527 2.58738 6.65667 2.6675 6.33616L2.68327 6.27307C3.12992 4.48647 4.38613 3.01142 6.07881 2.28598C6.53488 2.09053 7.08726 2.1263 7.52394 2.44483C8.96541 3.49629 10.0052 5.03305 10.8909 6.34206C10.9875 6.48493 11.0824 6.62508 11.1757 6.7616C11.6041 7.38829 11.5017 8.24394 10.9198 8.74765L8.96864 10.1967C8.77525 10.3403 8.71095 10.6014 8.82693 10.8125C9.26839 11.616 10.0548 12.8118 10.9548 13.7118C11.8558 14.6128 13.1081 15.45 13.9668 15.9411C14.1895 16.0685 14.4697 15.9947 14.6105 15.7803L15.8798 13.8468C16.3665 13.199 17.2755 13.0575 17.9362 13.5148C18.025 13.5763 18.1147 13.6382 18.2052 13.7006C19.5491 14.6276 21.0613 15.6707 22.1877 17.1132C22.5292 17.5506 22.58 18.1227 22.3763 18.5981C21.6536 20.2843 20.1842 21.5357 18.4044 21.9806L18.3305 21.9991C18.01 22.0793 17.6314 22.1476 17.219 22.1324Z" fill="white"/>
</svg>
