<svg width="24" height="24" viewBox="0 0 24 24" fill="none" xmlns="http://www.w3.org/2000/svg">
<path fill-rule="evenodd" clip-rule="evenodd" d="M1.2088 12.0619L2.83282 11.6267C3.31726 11.4969 3.83453 11.6178 4.21125 11.9489L4.95783 12.605C4.96064 12.6075 4.96459 12.6082 4.96807 12.6068L9.16694 10.9664C9.17327 10.9639 9.17535 10.9559 9.17103 10.9507L4.4463 5.19575C4.21569 4.91486 4.35229 4.48958 4.70333 4.39551L6.59266 3.88926C7.05867 3.7644 7.5563 3.8713 7.92992 4.17654L14.4886 9.53492C14.4909 9.53679 14.4939 9.53755 14.4968 9.53701L19.065 8.68198C20.1886 8.47168 21.3341 8.91817 22.0189 9.83341L22.2519 10.1447C22.418 10.3667 22.4813 10.6492 22.4257 10.921C22.2045 12.0017 21.3917 12.8648 20.3261 13.1503L5.20697 17.2015C4.59914 17.3644 3.95427 17.1305 3.59209 16.6159L0.92933 12.8326C0.729292 12.5484 0.873087 12.1518 1.2088 12.0619ZM2.99959 20C2.4473 20 1.99959 20.4477 1.99959 21C1.99959 21.5523 2.4473 22 2.99959 22H20.9996C21.5519 22 21.9996 21.5523 21.9996 21C21.9996 20.4477 21.5519 20 20.9996 20H2.99959Z" fill="#3671FF"/>
</svg>
