<svg width="24" height="24" viewBox="0 0 24 24" fill="none" xmlns="http://www.w3.org/2000/svg">
<path fill-rule="evenodd" clip-rule="evenodd" d="M2 4C2 3.44772 2.44772 3 3 3H21C21.5523 3 22 3.44772 22 4C22 4.55228 21.5523 5 21 5V11.0705C21 12.4247 21.0001 13.5413 20.8812 14.4251C20.7565 15.3529 20.4845 16.1723 19.8284 16.8284C19.1723 17.4845 18.3529 17.7565 17.4251 17.8812C16.2376 18.0409 15.025 18 13.8297 18C14.7077 18.6707 15.4581 19.5128 16.2381 20.2929C16.6287 20.6834 16.6287 21.3166 16.2381 21.7071C15.8476 22.0976 15.2144 22.0976 14.8239 21.7071C14.1068 20.99 13.421 20.2038 12.6138 19.5879C12.2659 19.3224 12.1032 19.2929 11.9955 19.2929C11.8878 19.2929 11.7251 19.3224 11.3772 19.5879C10.57 20.2038 9.88417 20.99 9.16707 21.7071C8.77654 22.0976 8.14338 22.0976 7.75285 21.7071C7.36233 21.3166 7.36233 20.6834 7.75285 20.2929C8.5329 19.5128 9.2833 18.6707 10.1613 18C8.96899 18 7.75943 18.0405 6.57494 17.8812C5.64711 17.7565 4.82768 17.4845 4.17157 16.8284C3.51546 16.1723 3.2435 15.3529 3.11875 14.4251C2.99993 13.5413 2.99996 12.4247 3 11.0706V5C2.44772 5 2 4.55228 2 4ZM16 7C16.5523 7 17 7.44772 17 8V13C17 13.5523 16.5523 14 16 14C15.4477 14 15 13.5523 15 13V8C15 7.44772 15.4477 7 16 7ZM12 9C12.5523 9 13 9.44772 13 10V13C13 13.5523 12.5523 14 12 14C11.4477 14 11 13.5523 11 13V10C11 9.44772 11.4477 9 12 9ZM8 11C8.55228 11 9 11.4477 9 12V13C9 13.5523 8.55228 14 8 14C7.44772 14 7 13.5523 7 13V12C7 11.4477 7.44772 11 8 11Z" fill="#3671FF"/>
</svg>
