<svg width="24" height="24" viewBox="0 0 24 24" fill="none" xmlns="http://www.w3.org/2000/svg">
<path fill-rule="evenodd" clip-rule="evenodd" d="M12 2C6.47715 2 2 6.47715 2 12C2 17.5228 6.47715 22 12 22C17.5228 22 22 17.5228 22 12C22 6.47715 17.5228 2 12 2ZM10.375 10.125C10.375 9.22754 11.1025 8.5 12 8.5C12.8975 8.5 13.625 9.22754 13.625 10.125C13.625 10.8073 13.2042 11.3937 12.6042 11.6343C11.9293 11.9048 11 12.5971 11 13.75V14C11 14.5523 11.4477 15 12 15C12.5523 15 13 14.5523 13 14V13.7536C13.003 13.7451 13.013 13.7245 13.0428 13.6911C13.1027 13.6238 13.2096 13.5463 13.3484 13.4907C14.681 12.9564 15.625 11.6522 15.625 10.125C15.625 8.12297 14.002 6.5 12 6.5C9.99797 6.5 8.375 8.12297 8.375 10.125C8.375 10.6773 8.82272 11.125 9.375 11.125C9.92728 11.125 10.375 10.6773 10.375 10.125ZM12.9989 13.7582C12.9988 13.7582 12.9989 13.7568 12.9998 13.7541C12.9996 13.7568 12.9991 13.7581 12.9989 13.7582ZM12 16C11.4477 16 11 16.4477 11 17C11 17.5523 11.4477 18 12 18H12.002C12.5542 18 13.002 17.5523 13.002 17C13.002 16.4477 12.5542 16 12.002 16H12Z" fill="white"/>
</svg>
