<svg width="52" height="52" viewBox="0 0 52 52" fill="none" xmlns="http://www.w3.org/2000/svg">
<g opacity="0.4">
<path d="M15.1551 41.2942C13.2413 41.2942 11.611 40.8183 10.2643 39.8667C8.91751 38.9151 7.88972 37.6236 7.1809 35.9922C6.47208 34.3608 6.11768 32.5595 6.11768 30.5883C6.11768 28.0053 6.61385 25.5582 7.60619 23.2471C8.59854 20.936 10.0162 18.8288 11.8591 16.9255C13.7729 14.9543 16.0411 13.3909 18.6638 12.2354L23.9799 16.5177C22.0661 17.1974 20.3649 18.0811 18.8764 19.1687C17.3879 20.2563 16.112 21.4798 15.0488 22.8393C14.0564 24.1987 13.3476 25.5922 12.9223 27.0197L13.3476 27.3255C13.702 27.0536 14.0919 26.8497 14.5172 26.7138C15.0133 26.5778 15.6867 26.5099 16.5373 26.5099C17.5297 26.5099 18.522 26.7818 19.5143 27.3255C20.5776 27.8014 21.4636 28.5491 22.1724 29.5687C22.8812 30.5883 23.2356 31.9138 23.2356 33.5452C23.2356 35.0406 22.8458 36.3661 22.0661 37.5216C21.3573 38.6772 20.4004 39.5948 19.1954 40.2746C17.9904 40.9543 16.6436 41.2942 15.1551 41.2942ZM36.9513 41.2942C35.0375 41.2942 33.4072 40.8183 32.0604 39.8667C30.7137 38.9151 29.6859 37.6236 28.9771 35.9922C28.2682 34.3608 27.9138 32.5595 27.9138 30.5883C27.9138 28.0053 28.41 25.5582 29.4024 23.2471C30.3947 20.936 31.8123 18.8288 33.6553 16.9255C35.5691 14.9543 37.8373 13.3909 40.4599 12.2354L45.8824 16.5177C43.9686 17.1974 42.232 18.0811 40.6726 19.1687C39.1841 20.2563 37.9436 21.4798 36.9513 22.8393C35.9589 24.1987 35.2147 25.5922 34.7185 27.0197L35.1438 27.3255C35.4982 27.0536 35.888 26.8497 36.3133 26.7138C36.8095 26.5778 37.4829 26.5099 38.3335 26.5099C39.3258 26.5099 40.3182 26.7818 41.3105 27.3255C42.3737 27.8014 43.2598 28.5491 43.9686 29.5687C44.6774 30.5883 45.0318 31.9138 45.0318 33.5452C45.0318 35.0406 44.6774 36.3661 43.9686 37.5216C43.2598 38.6772 42.2674 39.5948 40.9915 40.2746C39.7865 40.9543 38.4398 41.2942 36.9513 41.2942Z" fill="#3671FF"/>
</g>
</svg>
