<svg width="24" height="24" viewBox="0 0 24 24" fill="none" xmlns="http://www.w3.org/2000/svg">
<path fill-rule="evenodd" clip-rule="evenodd" d="M7 2C4.79086 2 3 3.79086 3 6V15C3 16.9094 4.33785 18.5063 6.12731 18.9045L4.4 20.2C3.95817 20.5314 3.86863 21.1582 4.2 21.6C4.53137 22.0418 5.15817 22.1314 5.6 21.8L9.33333 19H14.6667L18.4 21.8C18.8418 22.1314 19.4686 22.0418 19.8 21.6C20.1314 21.1582 20.0418 20.5314 19.6 20.2L17.8727 18.9045C19.6621 18.5063 21 16.9094 21 15V6C21 3.79086 19.2091 2 17 2H7ZM7.5 5C6.67157 5 6 5.67157 6 6.5V9.5C6 10.3284 6.67157 11 7.5 11H16.5C17.3284 11 18 10.3284 18 9.5V6.5C18 5.67157 17.3284 5 16.5 5H7.5ZM8 9V7H16V9H8ZM9.5 14.5C9.5 15.1904 8.94036 15.75 8.25 15.75C7.55964 15.75 7 15.1904 7 14.5C7 13.8096 7.55964 13.25 8.25 13.25C8.94036 13.25 9.5 13.8096 9.5 14.5ZM15.75 15.75C16.4404 15.75 17 15.1904 17 14.5C17 13.8096 16.4404 13.25 15.75 13.25C15.0596 13.25 14.5 13.8096 14.5 14.5C14.5 15.1904 15.0596 15.75 15.75 15.75Z" fill="#3671FF"/>
</svg>
