<svg width="50" height="50" viewBox="0 0 50 50" fill="none" xmlns="http://www.w3.org/2000/svg">
<path d="M50 0V50H0V0H50Z" fill="white" fill-opacity="0.01"/>
<path d="M31.2496 18.75L24.9996 18.75M24.9996 18.75L19.708 18.75C18.6034 18.75 17.708 19.6455 17.708 20.75L17.708 23C17.708 24.1046 18.6034 25 19.708 25L30.2913 25C31.3959 25 32.2913 25.8955 32.2913 27L32.2913 29.25C32.2913 30.3546 31.3959 31.25 30.2913 31.25L24.9996 31.25M24.9996 18.75L24.9996 14.5834M24.9996 31.25L18.7496 31.25M24.9996 31.25L24.9996 35.4167" stroke="#3671FF" stroke-width="3" stroke-linecap="round" stroke-linejoin="round"/>
<path d="M8.41598 33.757C12.4073 41.332 21.2335 45.4203 29.8528 43.1108C39.8552 40.4306 45.7912 30.1493 43.111 20.1468C40.4308 10.1443 30.1495 4.2084 20.147 6.88856C12.6427 8.89935 7.4273 15.1886 6.4221 22.4287C6.3023 23.2915 6.2423 24.1679 6.24535 25.0521C6.24563 25.1316 6.33438 25.1781 6.4003 25.1337L12.6121 20.9483C12.7037 20.8865 12.6423 20.7437 12.5344 20.7678L8.41598 21.687" stroke="#3671FF" stroke-width="4" stroke-linecap="round"/>
</svg>
