<svg width="50" height="50" viewBox="0 0 50 50" fill="none" xmlns="http://www.w3.org/2000/svg">
<path fill-rule="evenodd" clip-rule="evenodd" d="M25 4.58984C23.4812 4.58984 22.0565 5.12527 20.1793 5.83077C18.0713 6.62298 15.9628 7.41376 13.8537 8.20282C11.748 8.99061 10.1614 9.58418 8.96917 10.671C8.03905 11.5189 7.31308 12.5665 6.84574 13.7351C6.24672 15.233 6.24803 16.927 6.24977 19.1753C6.25038 19.9633 6.23773 20.7551 6.22506 21.5482C6.1957 23.3855 6.16623 25.2301 6.30117 27.0522C6.72889 32.8277 9.80156 38.0816 14.6257 41.2859C15.9341 42.155 17.3552 42.9662 18.7776 43.6372C22.7176 45.496 27.2823 45.496 31.2223 43.6372C32.6445 42.9663 34.0655 42.1552 35.3742 41.2859C40.1984 38.0816 43.271 32.8277 43.6988 27.0522C43.8337 25.2301 43.8042 23.3856 43.7749 21.5484C43.7622 20.7551 43.7495 19.9633 43.7502 19.1753C43.7519 16.927 43.7532 15.233 43.1542 13.7351C42.6868 12.5665 41.9609 11.5189 41.0308 10.671C39.8386 9.58418 38.252 8.99061 36.1462 8.20282C34.0371 7.41377 31.9286 6.62299 29.8207 5.83078C27.9434 5.12528 26.5187 4.58984 25 4.58984ZM33.7631 21.4049C34.4361 20.9217 34.59 19.9845 34.1068 19.3116C33.6237 18.6386 32.6865 18.4847 32.0136 18.9679C28.359 21.5915 25.2359 24.54 22.5153 28.0569C21.2574 26.616 19.8745 25.3286 18.3232 24.1514C17.6632 23.6506 16.7223 23.7796 16.2215 24.4396C15.7207 25.0995 15.8498 26.0405 16.5097 26.5412C18.3757 27.9572 19.9615 29.5431 21.3775 31.409C21.6666 31.7899 22.1199 32.0102 22.598 32.0021C23.0761 31.9939 23.5216 31.7583 23.7975 31.3678C26.5784 27.4314 29.8263 24.2312 33.7631 21.4049Z" fill="#3671FF"/>
</svg>
