<svg width="24" height="24" viewBox="0 0 24 24" fill="none" xmlns="http://www.w3.org/2000/svg">
<path fill-rule="evenodd" clip-rule="evenodd" d="M12 2.20312C11.271 2.20312 10.5871 2.46013 9.68602 2.79877C8.67421 3.17903 7.66213 3.5586 6.64975 3.93735C5.639 4.31549 4.87744 4.60041 4.30518 5.12209C3.85873 5.52908 3.51026 6.03192 3.28594 6.59286C2.99841 7.31185 2.99903 8.12496 2.99987 9.20414C3.00016 9.58237 2.99409 9.96243 2.98801 10.3431C2.97392 11.225 2.95977 12.1104 3.02454 12.985C3.22985 15.7573 4.70473 18.2791 7.02033 19.8172C7.64836 20.2344 8.33049 20.6238 9.01322 20.9459C10.9044 21.8381 13.0955 21.8381 14.9867 20.9459C15.6693 20.6238 16.3514 20.2345 16.9796 19.8172C19.2952 18.2791 20.7701 15.7573 20.9754 12.985C21.0401 12.1105 21.026 11.2251 21.0119 10.3432C21.0058 9.96248 20.9998 9.5824 21.0001 9.20413C21.0009 8.12496 21.0015 7.31185 20.714 6.59286C20.4897 6.03192 20.1412 5.52908 19.6947 5.12209C19.1225 4.60041 18.3609 4.31549 17.3502 3.93735C16.3378 3.55861 15.3257 3.17903 14.3139 2.79877C13.4128 2.46013 12.729 2.20312 12 2.20312ZM11.5084 9.65316C11.7293 9.57032 11.8481 9.52639 11.9384 9.49954C11.9701 9.4901 11.9851 9.48537 12 9.48537C12.0149 9.48537 12.0299 9.4901 12.0616 9.49954C12.1519 9.52639 12.2707 9.57032 12.4916 9.65316L13.5814 10.0619C13.8294 10.1548 13.9672 10.2071 14.0667 10.2527C14.1567 10.2938 14.1851 10.3392 14.1917 10.4331C14.1994 10.5422 14.2 10.6896 14.2 10.9545C14.2 11.0916 14.2026 11.2296 14.2051 11.3679C14.2109 11.6764 14.2166 11.9864 14.194 12.2918C14.1438 12.9695 13.7833 13.5859 13.2172 13.9619C13.022 14.0916 12.8095 14.2133 12.5973 14.3134C12.2191 14.4918 11.7809 14.4918 11.4027 14.3134C11.1905 14.2133 10.978 14.0916 10.7828 13.9619C10.2167 13.5859 9.85619 12.9695 9.80601 12.2918C9.78339 11.9864 9.78914 11.6764 9.79487 11.3679C9.79744 11.2296 9.8 11.0916 9.8 10.9545C9.8 10.6896 9.80057 10.5422 9.80826 10.4331C9.81486 10.3392 9.84327 10.2938 9.93327 10.2527C10.0328 10.2071 10.1706 10.1548 10.4186 10.0619L11.5084 9.65316ZM10.8897 7.74897L10.8897 7.74897C10.4561 7.91313 10.0432 8.06799 9.61967 8.2252L9.61967 8.2252C9.25218 8.36161 8.83691 8.51576 8.51787 8.8066C8.27232 9.03045 8.08066 9.30701 7.95729 9.61553C7.79699 10.0164 7.79846 10.4593 7.79977 10.8513C7.80032 11.0154 7.79788 11.1802 7.79544 11.3453C7.79004 11.7106 7.78463 12.077 7.81147 12.4395C7.90728 13.7332 8.59556 14.9101 9.67617 15.6279C9.95164 15.8108 10.2501 15.981 10.5493 16.1222C11.4679 16.5555 12.5321 16.5555 13.4507 16.1222C13.7499 15.981 14.0484 15.8108 14.3238 15.6279C15.4044 14.9101 16.0927 13.7332 16.1885 12.4395C16.2154 12.077 16.21 11.7105 16.2046 11.3453C16.2021 11.1802 16.1997 11.0154 16.2002 10.8513V10.8513C16.2015 10.4593 16.203 10.0164 16.0427 9.61553C15.9193 9.30701 15.7277 9.03045 15.4821 8.8066C15.1631 8.51576 14.7478 8.36161 14.3803 8.2252C13.946 8.06399 13.5327 7.90887 13.1103 7.74897C12.7815 7.62453 12.4061 7.48242 12 7.48242C11.5939 7.48242 11.2185 7.62453 10.8897 7.74897Z" fill="white"/>
</svg>
