<svg width="24" height="24" viewBox="0 0 24 24" fill="none" xmlns="http://www.w3.org/2000/svg">
<path fill-rule="evenodd" clip-rule="evenodd" d="M12.0005 2.20312C11.2714 2.20312 10.5876 2.46013 9.68651 2.79877C8.6747 3.17903 7.66262 3.5586 6.65024 3.93735C5.63949 4.31549 4.87793 4.60041 4.30567 5.12209C3.85921 5.52908 3.51075 6.03192 3.28642 6.59286C2.99889 7.31185 2.99952 8.12496 3.00036 9.20414C3.00065 9.58237 2.99458 9.96243 2.9885 10.3431C2.97441 11.225 2.96026 12.1104 3.02503 12.985C3.23034 15.7573 4.70522 18.2791 7.02082 19.8172C7.64885 20.2344 8.33098 20.6238 9.01371 20.9459C10.9049 21.8381 13.096 21.8381 14.9872 20.9459C15.6698 20.6238 16.3519 20.2345 16.9801 19.8172C19.2957 18.2791 20.7706 15.7573 20.9759 12.985C21.0406 12.1105 21.0265 11.2251 21.0124 10.3432C21.0063 9.96248 21.0002 9.5824 21.0005 9.20413C21.0014 8.12496 21.002 7.31185 20.7145 6.59286C20.4902 6.03192 20.1417 5.52908 19.6952 5.12209C19.123 4.60041 18.3614 4.31549 17.3507 3.93735C16.3383 3.55861 15.3262 3.17903 14.3144 2.79877C13.4133 2.46013 12.7295 2.20312 12.0005 2.20312ZM16.3701 10.5018C16.8187 10.1797 16.9213 9.55491 16.5992 9.10627C16.2771 8.65762 15.6523 8.55503 15.2037 8.87712C13.5209 10.0852 12.0681 11.4368 10.7939 13.0319C10.2384 12.4264 9.63339 11.8769 8.96484 11.3696C8.52488 11.0358 7.89758 11.1218 7.56374 11.5617C7.22989 12.0017 7.31591 12.629 7.75587 12.9628C8.63123 13.6271 9.37433 14.3702 10.0386 15.2456C10.2313 15.4995 10.5335 15.6464 10.8523 15.641C11.171 15.6355 11.468 15.4785 11.652 15.2181C12.9676 13.3558 14.5039 11.8415 16.3701 10.5018Z" fill="white"/>
</svg>
