<svg width="24" height="24" viewBox="0 0 24 24" fill="none" xmlns="http://www.w3.org/2000/svg">
<path fill-rule="evenodd" clip-rule="evenodd" d="M12.0001 2C10.8955 2 10.0001 2.89543 10.0001 4V4.32052C9.20423 4.45665 8.5229 4.58605 7.95856 4.75167C7.15987 4.98607 6.4197 5.37085 5.88965 6.02641C5.39318 6.64042 5.18621 7.34727 5.09072 8.13704C5.02407 8.68837 5.00642 9.33729 5.00176 10.0877C4.68568 10.2003 4.39851 10.314 4.14346 10.4332C3.3882 10.7862 2.70869 11.2795 2.41388 12.1415C2.11907 13.0035 2.35412 13.8097 2.73501 14.5512C3.13215 15.3244 3.64044 16.0384 4.15303 16.744C4.39374 17.0753 4.5141 17.241 4.69225 17.2845C4.87041 17.328 5.05308 17.2367 5.41843 17.054L5.76364 16.8814C7.17128 16.1776 8.82814 16.1776 10.2358 16.8814L11.5525 17.5397C11.834 17.6805 12.1654 17.6805 12.4469 17.5397L13.7636 16.8814C15.1713 16.1776 16.8281 16.1776 18.2358 16.8814L19.0438 17.2854C19.4445 17.4857 19.6448 17.5859 19.8353 17.5282C20.0258 17.4706 20.137 17.2761 20.3592 16.8871C20.8295 16.064 21.3349 15.242 21.684 14.3577C21.9696 13.6343 22.1161 12.8683 21.801 12.0795C21.4859 11.2908 20.8519 10.8366 20.1464 10.5091C19.8163 10.3559 19.4309 10.213 18.9983 10.0694C18.9935 9.32674 18.9756 8.68389 18.9095 8.13704C18.814 7.34728 18.607 6.64042 18.1106 6.02641C17.5805 5.37085 16.8403 4.98608 16.0416 4.75167C15.4773 4.58605 14.796 4.45665 14.0001 4.32052V4C14.0001 2.89543 13.1047 2 12.0001 2ZM7.01066 9.4528C7.02051 9.03158 7.03954 8.68085 7.07627 8.3771C7.14757 7.78734 7.27418 7.49501 7.44487 7.2839C7.63474 7.04907 7.88768 6.85683 8.52178 6.67073C9.11703 6.49603 9.91474 6.36135 11.0965 6.1644C11.7573 6.05425 12.2429 6.05425 12.9037 6.1644C14.0855 6.36135 14.8832 6.49603 15.4784 6.67073C16.1125 6.85683 16.3655 7.04907 16.5553 7.2839C16.726 7.49501 16.8526 7.78734 16.9239 8.3771C16.9607 8.68085 16.9797 9.03159 16.9895 9.4528C16.1446 9.19931 15.2995 8.9461 14.4547 8.69231C13.4404 8.38763 12.7363 8.17612 12.0001 8.17612C11.2639 8.17612 10.5598 8.38764 9.54542 8.69234C8.70059 8.94612 7.85559 9.19932 7.01066 9.4528Z" fill="white"/>
<path fill-rule="evenodd" clip-rule="evenodd" d="M8.89416 19.5647C8.3311 19.2831 7.66836 19.2831 7.1053 19.5647L4.44694 20.8938C3.95297 21.1408 3.35229 20.9406 3.1053 20.4466C2.85831 19.9526 3.05854 19.352 3.55252 19.105L6.21088 17.7758C7.33699 17.2128 8.66248 17.2128 9.78858 17.7758L11.1053 18.4342C11.6684 18.7157 12.3311 18.7157 12.8942 18.4342L14.2109 17.7758C15.337 17.2128 16.6625 17.2128 17.7886 17.7758L20.4469 19.105C20.9409 19.352 21.1411 19.9526 20.8942 20.4466C20.6472 20.9406 20.0465 21.1408 19.5525 20.8938L16.8942 19.5647C16.3311 19.2831 15.6684 19.2831 15.1053 19.5647L13.7886 20.223C12.6625 20.7861 11.337 20.7861 10.2109 20.223L8.89416 19.5647Z" fill="white"/>
</svg>
