<svg width="24" height="24" viewBox="0 0 24 24" fill="none" xmlns="http://www.w3.org/2000/svg">
<path fill-rule="evenodd" clip-rule="evenodd" d="M10.0004 3C10.0004 2.44772 10.4481 2 11.0004 2H13.0004C13.5527 2 14.0004 2.44772 14.0004 3V4.31954L17.3292 4.87434C18.2935 5.03507 19.0004 5.86945 19.0004 6.84713V10.2792L21.0588 10.9654C21.7526 11.1967 22.1006 11.9715 21.8125 12.6437L19.6439 17.7037L17.7892 16.7763C16.6631 16.2132 15.3376 16.2132 14.2115 16.7763L12.8948 17.4347C12.3317 17.7162 11.669 17.7162 11.1059 17.4347L9.7892 16.7763C8.66309 16.2132 7.3376 16.2132 6.21149 16.7763L4.94094 17.4116L2.28343 12.7609C1.89207 12.076 2.22512 11.2043 2.97345 10.9549L5.00037 10.2792V6.84713C5.00037 5.86945 5.7072 5.03507 6.67157 4.87434L10.0004 4.31954V3ZM17.0004 9.61257V6.84713L12.0004 6.01379L7.00037 6.84713V9.61257L11.3679 8.15673C11.7785 8.01988 12.2223 8.01988 12.6328 8.15673L17.0004 9.61257ZM7.10591 19.5651C7.66897 19.2836 8.33171 19.2836 8.89477 19.5651L10.2115 20.2235C11.3376 20.7866 12.6631 20.7866 13.7892 20.2235L15.1059 19.5651C15.669 19.2836 16.3317 19.2836 16.8948 19.5651L19.5531 20.8943C20.0471 21.1413 20.6478 20.9411 20.8948 20.4471C21.1418 19.9531 20.9415 19.3525 20.4476 19.1055L17.7892 17.7763C16.6631 17.2132 15.3376 17.2132 14.2115 17.7763L12.8948 18.4347C12.3317 18.7162 11.669 18.7162 11.1059 18.4347L9.7892 17.7763C8.66309 17.2132 7.3376 17.2132 6.21149 17.7763L3.55313 19.1055C3.05915 19.3525 2.85892 19.9531 3.10591 20.4471C3.3529 20.9411 3.95358 21.1413 4.44755 20.8943L7.10591 19.5651Z" fill="#3671FF"/>
</svg>
