<svg width="24" height="24" viewBox="0 0 24 24" fill="none" xmlns="http://www.w3.org/2000/svg">
<path fill-rule="evenodd" clip-rule="evenodd" d="M3.99994 10.9999H2.04932C2.51839 6.27553 6.27552 2.51839 10.9999 2.04932V3.99994C10.9999 4.55223 11.4477 4.99994 11.9999 4.99994C12.5522 4.99994 12.9999 4.55223 12.9999 3.99994V2.04932C17.7244 2.51838 21.4815 6.27552 21.9506 10.9999H19.9999C19.4477 10.9999 18.9999 11.4477 18.9999 11.9999C18.9999 12.5522 19.4477 12.9999 19.9999 12.9999H21.9506C21.4488 18.0533 17.1853 21.9999 11.9999 21.9999C6.81459 21.9999 2.55104 18.0533 2.04932 12.9999H3.99994C4.55223 12.9999 4.99994 12.5522 4.99994 11.9999C4.99994 11.4477 4.55223 10.9999 3.99994 10.9999ZM11.2929 12.707C11.1399 12.554 11.0856 12.2072 11.3636 11.9292L11.3625 11.9302L11.3634 11.9295C11.3673 11.926 11.3844 11.9109 11.4207 11.8833C11.4653 11.8492 11.5255 11.8064 11.6025 11.7547C11.7568 11.6512 11.9565 11.5273 12.1914 11.3883C12.4831 11.2159 12.8161 11.0279 13.1624 10.8375C12.972 11.1837 12.784 11.5168 12.6115 11.8084C12.4726 12.0433 12.3487 12.243 12.2452 12.3974C12.1935 12.4744 12.1506 12.5346 12.1166 12.5792C12.0889 12.6155 12.0739 12.6325 12.0704 12.6364L12.0696 12.6373L12.0707 12.6363C11.7927 12.9143 11.4458 12.86 11.2929 12.707ZM15.0872 7.57048C15.0873 7.57045 15.0873 7.57043 15.5355 8.46437C16.4294 8.91255 16.4294 8.9126 16.4294 8.91265L16.4293 8.91285L16.4289 8.91354L16.4277 8.91605L16.4229 8.92562L16.4045 8.96222L16.3347 9.10026C16.2745 9.21917 16.1879 9.38939 16.0821 9.59549C15.8708 10.0073 15.5818 10.5641 15.2725 11.1416C14.9642 11.7175 14.6314 12.322 14.333 12.8265C14.1841 13.0783 14.0389 13.3134 13.9062 13.5114C13.7842 13.6932 13.637 13.8984 13.4849 14.0505C12.5132 15.0222 10.8972 15.1398 9.87864 14.1212C8.86004 13.1026 8.97767 11.4867 9.94935 10.515C10.1015 10.3629 10.3066 10.2157 10.4885 10.0937C10.6864 9.96095 10.9216 9.81574 11.1734 9.66684C11.6778 9.36851 12.2824 9.03569 12.8582 8.72734C13.4358 8.41808 13.9926 8.12911 14.4044 7.91774C14.6105 7.81196 14.7807 7.72539 14.8996 7.66515L15.0376 7.5954L15.0742 7.57699L15.0838 7.57218L15.0863 7.57092L15.087 7.57058L15.0872 7.57048ZM15.5355 8.46437L15.0873 7.57043L17.7789 6.22099L16.4294 8.91255L15.5355 8.46437Z" fill="white"/>
</svg>
