<svg width="152" height="44" viewBox="0 0 152 44" fill="none" xmlns="http://www.w3.org/2000/svg">
<path d="M38.7892 22.2292C38.7892 32.54 30.4401 40.8958 20.1446 40.8958C9.84901 40.8958 1.5 32.54 1.5 22.2292C1.5 11.9183 9.84901 3.5625 20.1446 3.5625C30.4401 3.5625 38.7892 11.9183 38.7892 22.2292Z" stroke="#464F6D" stroke-width="3"/>
<path d="M27.5016 29.5943C23.7244 33.3756 19.4495 35.8394 15.6507 36.8173C11.8142 37.8049 8.75788 37.2275 6.96027 35.4279C5.16266 33.6284 4.58587 30.5687 5.57241 26.728C6.54924 22.925 9.01032 18.6454 12.7875 14.8641C16.5647 11.0827 20.8396 8.61897 24.6384 7.64106C28.4749 6.65344 31.5312 7.23086 33.3288 9.03044C35.1265 10.83 35.7032 13.8897 34.7167 17.7304C33.7399 21.5334 31.2788 25.813 27.5016 29.5943Z" stroke="#464F6D" stroke-width="3"/>
<path d="M27.5015 14.864C31.2786 18.6454 33.7397 22.9249 34.7166 26.7279C35.7031 30.5686 35.1263 33.6283 33.3287 35.4279C31.5311 37.2275 28.4748 37.8049 24.6382 36.8173C20.8394 35.8394 16.5645 33.3756 12.7874 29.5943C9.01017 25.8129 6.54909 21.5334 5.57225 17.7304C4.58572 13.8896 5.1625 10.83 6.96012 9.03039C8.75773 7.23081 11.814 6.65339 15.6506 7.64101C19.4494 8.61892 23.7243 11.0827 27.5015 14.864Z" stroke="#464F6D" stroke-width="3"/>
<path d="M57.5494 31.3867C61.8622 31.3867 64.774 29.1317 64.774 25.5292C64.774 17.9117 54.6651 21.1567 54.6651 17.1417C54.6651 16.0142 55.6815 15.2442 57.3022 15.2442C59.1427 15.2442 60.2964 16.2342 60.4338 17.7467H64.362C64.2521 14.0892 61.4502 11.6967 57.3022 11.6967C53.4015 11.6967 50.6545 13.9517 50.6545 17.1417C50.6545 24.7042 60.6261 21.8167 60.6261 25.5842C60.6261 27.0417 59.3899 27.8117 57.5494 27.8117C55.5167 27.8117 54.2256 26.5742 54.0608 24.6217H50.1051C50.2699 28.7192 53.1817 31.3867 57.5494 31.3867Z" fill="#464F6D"/>
<path d="M65.7082 36.7767H69.5265V29.9292C70.2682 30.8642 71.6142 31.3867 73.18 31.3867C77.1632 31.3867 79.8552 28.5542 79.8552 24.2367C79.8552 19.9192 77.3829 17.0867 73.5097 17.0867C71.7241 17.0867 70.3506 17.7467 69.5265 18.8192V17.3067H65.7082V36.7767ZM72.713 28.0867C70.6528 28.0867 69.3068 26.5467 69.3068 24.2367C69.3068 21.8992 70.6528 20.3592 72.713 20.3592C74.7183 20.3592 76.0918 21.8992 76.0918 24.2367C76.0918 26.5467 74.7183 28.0867 72.713 28.0867Z" fill="#464F6D"/>
<path d="M80.7791 31.1667H84.5974V23.5767C84.5974 21.7892 85.7786 20.4967 87.4543 20.4967C89.0475 20.4967 90.1463 21.7067 90.1463 23.3842V31.1667H93.9646V22.5317C93.9646 19.3417 91.9319 17.0867 88.8278 17.0867C86.9049 17.0867 85.394 17.8842 84.5974 19.2317V11.2842H80.7791V31.1667Z" fill="#464F6D"/>
<path d="M104.646 26.4642C104.344 27.6467 103.328 28.2517 101.789 28.2517C99.8664 28.2517 98.6302 27.0417 98.3555 25.0892H108.3C108.327 24.7867 108.355 24.3742 108.355 23.8517C108.355 20.6892 106.404 17.0867 101.515 17.0867C96.8172 17.0867 94.6746 20.6892 94.6746 24.2092C94.6746 27.7017 97.0919 31.3867 101.789 31.3867C105.196 31.3867 107.833 29.4617 108.382 26.4642H104.646ZM101.515 19.8917C103.355 19.8917 104.426 21.1292 104.536 22.6692H98.4105C98.7401 20.7442 99.784 19.8917 101.515 19.8917Z" fill="#464F6D"/>
<path d="M118.369 20.4967V17.3067H116.399C114.723 17.3067 113.679 17.8842 112.937 19.6167V17.3067H109.092V31.1667H112.937V24.4292C112.937 22.0642 113.789 20.4967 115.684 20.4967H118.369Z" fill="#464F6D"/>
<path d="M131.554 17.3067H127.708V24.8967C127.708 26.6567 126.527 27.9767 124.852 27.9767C123.286 27.9767 122.187 26.7667 122.187 25.0892V17.3067H118.369V25.9417C118.369 29.1042 120.401 31.3867 123.505 31.3867C125.401 31.3867 126.939 30.5617 127.708 29.2417V31.1667H131.554V17.3067Z" fill="#464F6D"/>
<path d="M133.203 31.1667H137.021V11.2842H133.203V31.1667Z" fill="#464F6D"/>
<path d="M147.922 26.4642C147.62 27.6467 146.603 28.2517 145.065 28.2517C143.142 28.2517 141.906 27.0417 141.631 25.0892H151.575C151.603 24.7867 151.63 24.3742 151.63 23.8517C151.63 20.6892 149.68 17.0867 144.79 17.0867C140.093 17.0867 137.95 20.6892 137.95 24.2092C137.95 27.7017 140.368 31.3867 145.065 31.3867C148.471 31.3867 151.108 29.4617 151.658 26.4642H147.922ZM144.79 19.8917C146.631 19.8917 147.702 21.1292 147.812 22.6692H141.686C142.016 20.7442 143.06 19.8917 144.79 19.8917Z" fill="#464F6D"/>
</svg>
