<svg width="24" height="24" viewBox="0 0 24 24" fill="none" xmlns="http://www.w3.org/2000/svg">
<path d="M24 0V24H0V0H24Z" fill="white" fill-opacity="0.01"/>
<path fill-rule="evenodd" clip-rule="evenodd" d="M4.09535 10.7611C4.69077 6.93114 8.00308 4 12 4C15.9969 4 19.3092 6.93114 19.9047 10.7611L17.6947 10.3191C16.9677 10.1737 16.2845 9.73005 15.4646 9.14737C14.6676 8.58089 13.4874 8 12 8C10.5126 8 9.33246 8.58089 8.53539 9.14737C7.71552 9.73005 7.03227 10.1737 6.30531 10.3191L4.09535 10.7611ZM4.20542 13.8092C4.91154 16.8636 7.36684 19.2485 10.4594 19.8518C10.2659 17.2269 9.40262 15.6527 8.31281 14.7809C7.26917 13.9459 5.85283 13.6228 4.20542 13.8092ZM13.5407 19.8518C16.6332 19.2485 19.0885 16.8636 19.7946 13.8092C18.1472 13.6228 16.7308 13.946 15.6872 14.7809C14.5974 15.6527 13.7341 17.2269 13.5407 19.8518ZM12 2C6.47715 2 2 6.47715 2 12C2 17.5228 6.47715 22 12 22C17.5228 22 22 17.5228 22 12C22 6.47715 17.5228 2 12 2Z" fill="white"/>
</svg>
