<svg width="72" height="72" viewBox="0 0 72 72" fill="none" xmlns="http://www.w3.org/2000/svg">
<rect width="72" height="72" rx="36" fill="#E7EEFF"/>
<path fill-rule="evenodd" clip-rule="evenodd" d="M35.9997 19.3334C26.7949 19.3334 19.333 26.7953 19.333 36C19.333 45.2048 26.7949 52.6667 35.9997 52.6667C45.2044 52.6667 52.6663 45.2048 52.6663 36C52.6663 26.7953 45.2044 19.3334 35.9997 19.3334ZM43.7776 31.8541C44.1681 31.4636 44.1681 30.8304 43.7776 30.4399C43.3871 30.0494 42.7539 30.0494 42.3634 30.4399L33.6424 39.1609L29.6355 35.154C29.2449 34.7634 28.6118 34.7634 28.2212 35.154C27.8307 35.5445 27.8307 36.1777 28.2212 36.5682L32.9353 41.2822C33.3258 41.6728 33.959 41.6728 34.3495 41.2822L43.7776 31.8541Z" fill="#3671FF"/>
</svg>
