<svg width="24" height="24" viewBox="0 0 24 24" fill="none" xmlns="http://www.w3.org/2000/svg">
<path fill-rule="evenodd" clip-rule="evenodd" d="M13.0318 3.99986H10.9678C10.8816 3.99986 10.7945 3.99917 10.7068 3.99848C10.0832 3.99355 9.43076 3.9884 8.85177 4.22823C8.11668 4.53271 7.53266 5.11673 7.22818 5.85181C7.07519 6.22118 7.02819 6.62011 7.01143 7.01645C6.47837 7.03184 5.99965 7.06149 5.57476 7.11862C4.64693 7.24336 3.8275 7.51533 3.17139 8.17144C2.51528 8.82755 2.24331 9.64697 2.11857 10.5748C1.98813 11.545 1.99306 12.5328 1.99796 13.5131C1.99889 13.6992 1.99982 13.885 1.99982 14.0704C1.99978 15.4246 1.99975 16.5412 2.11857 17.4249C2.24331 18.3528 2.51528 19.1722 3.17139 19.8283C3.8275 20.4844 4.64693 20.7564 5.57476 20.8811C6.45851 20.9999 7.57513 20.9999 8.92925 20.9999H8.92927H15.0704H15.0704C16.4245 20.9999 17.5411 20.9999 18.4249 20.8811C19.3527 20.7564 20.1721 20.4844 20.8282 19.8283C21.4844 19.1722 21.7563 18.3528 21.8811 17.4249C21.9999 16.5412 21.9999 15.4246 21.9998 14.0704V14.0704C21.9998 13.885 22.0007 13.6992 22.0017 13.513C22.0066 12.5328 22.0115 11.545 21.8811 10.5748C21.7563 9.64697 21.4844 8.82755 20.8282 8.17144C20.1721 7.51533 19.3527 7.24336 18.4249 7.11862C18 7.06149 17.5213 7.03184 16.9882 7.01645C16.9714 6.62011 16.9245 6.22118 16.7715 5.85181C16.467 5.11673 15.883 4.53271 15.1479 4.22823C14.5689 3.9884 13.9165 3.99355 13.2928 3.99848C13.2052 3.99917 13.1181 3.99986 13.0318 3.99986ZM14.9848 6.99986H9.01482C9.02985 6.75779 9.05805 6.66037 9.07594 6.61718C9.23803 6.22586 9.57449 6.04381 9.97358 6.01658C10.2106 6.00041 10.5202 5.99986 10.9998 5.99986H12.9998C13.4794 5.99986 13.7891 6.00041 14.0261 6.01658C14.4251 6.04381 14.7616 6.22586 14.9237 6.61718C14.9416 6.66037 14.9698 6.75779 14.9848 6.99986ZM3.99976 13C3.44747 13 2.99976 13.4477 2.99976 14C2.99976 14.5523 3.44747 15 3.99976 15H19.9998C20.552 15 20.9998 14.5523 20.9998 14C20.9998 13.4477 20.552 13 19.9998 13H3.99976Z" fill="#3671FF"/>
</svg>
