<svg width="24" height="24" viewBox="0 0 24 24" fill="none" xmlns="http://www.w3.org/2000/svg">
<path fill-rule="evenodd" clip-rule="evenodd" d="M12.4643 4.46447C12.3013 4.62754 12.1589 4.80745 12.039 5.00011L12 5C8.13401 5 5 8.13401 5 12C5 15.866 8.13401 19 12 19C15.866 19 19 15.866 19 12L18.9999 11.9608C19.1925 11.8409 19.3724 11.6986 19.5354 11.5355L21.6613 9.40969C21.8822 10.2358 22 11.1042 22 12C22 17.5228 17.5228 22 12 22C6.47715 22 2 17.5228 2 12C2 6.47715 6.47715 2 12 2C12.8958 2 13.764 2.11778 14.5901 2.33869L12.4643 4.46447ZM14.5857 12.4142L16.9831 12.4142C16.7725 14.9819 14.6219 17 12 17C9.23858 17 7 14.7614 7 12C7 9.3781 9.01808 7.22755 11.5857 7.01692L11.5857 9.41422C11.5857 9.47021 11.5872 9.52584 11.5902 9.58107L11.0501 10.1212C10.269 10.9023 10.269 12.1686 11.0501 12.9497C11.8311 13.7307 13.0974 13.7307 13.8785 12.9497L14.4185 12.4096C14.4738 12.4127 14.5296 12.4142 14.5857 12.4142ZM18.5039 2.1262C18.8776 2.28098 19.1212 2.64562 19.1212 3.05008V4.8785H20.9496C21.3541 4.8785 21.7187 5.12215 21.8735 5.49582C22.0283 5.8695 21.9427 6.29961 21.6567 6.58561L18.1212 10.1211C17.9337 10.3087 17.6793 10.414 17.4141 10.414L14.9999 10.414L13.1715 12.2425C12.7809 12.633 12.1478 12.633 11.7572 12.2425C11.3667 11.8519 11.3667 11.2188 11.7572 10.8282L13.5857 8.99983L13.5857 6.58561C13.5857 6.32039 13.691 6.06604 13.8786 5.8785L17.4141 2.34297C17.7001 2.05697 18.1302 1.97142 18.5039 2.1262Z" fill="#3671FF"/>
</svg>
