<svg width="20" height="20" viewBox="0 0 20 20" fill="none" xmlns="http://www.w3.org/2000/svg">
<path fill-rule="evenodd" clip-rule="evenodd" d="M9.99935 1.66663C5.39698 1.66663 1.66602 5.39759 1.66602 9.99996C1.66602 14.6023 5.39698 18.3333 9.99935 18.3333C14.6017 18.3333 18.3327 14.6023 18.3327 9.99996C18.3327 5.39759 14.6017 1.66663 9.99935 1.66663ZM10.9993 5.83329C10.9993 5.28101 10.5516 4.83329 9.99935 4.83329C9.44706 4.83329 8.99935 5.28101 8.99935 5.83329V9.99996C8.99935 10.2652 9.10471 10.5195 9.29224 10.7071L11.7922 13.2071C12.1828 13.5976 12.8159 13.5976 13.2065 13.2071C13.597 12.8165 13.597 12.1834 13.2065 11.7929L10.9993 9.58575V5.83329Z" fill="#3671FF"/>
</svg>
