<svg width="24" height="24" viewBox="0 0 24 24" fill="none" xmlns="http://www.w3.org/2000/svg">
<path fill-rule="evenodd" clip-rule="evenodd" d="M12.5634 2H11.4366H11.4366H11.4365C9.84669 1.99998 8.56488 1.99996 7.5459 2.12041C6.49133 2.24506 5.58891 2.51052 4.82804 3.13495C4.57487 3.34272 4.34272 3.57487 4.13495 3.82804C3.51052 4.58891 3.24506 5.49133 3.12041 6.5459C2.99996 7.56488 2.99998 8.84669 3 10.4365V10.4366V10.4366V10.5634V10.5635V10.5635C2.99998 12.1533 2.99996 13.4351 3.12041 14.4541C3.24506 15.5087 3.51052 16.4111 4.13495 17.172C4.34272 17.4251 4.57487 17.6573 4.82804 17.8651C5.3073 18.2584 5.84274 18.5093 6.43698 18.6723L4.4 20.2C3.95817 20.5314 3.86863 21.1582 4.2 21.6C4.53137 22.0418 5.15817 22.1314 5.6 21.8L9.35117 18.9866C9.97834 19 10.6717 19 11.4364 19H11.4366H12.5634C13.3282 19 14.0216 19 14.6488 18.9866L18.4 21.8C18.8418 22.1314 19.4686 22.0418 19.8 21.6C20.1314 21.1582 20.0418 20.5314 19.6 20.2L17.563 18.6723C18.1573 18.5093 18.6927 18.2584 19.172 17.8651C19.4251 17.6573 19.6573 17.4251 19.8651 17.172C20.4895 16.4111 20.7549 15.5087 20.8796 14.4541C21 13.4351 21 12.1533 21 10.5634V10.4366C21 8.8467 21 7.56489 20.8796 6.5459C20.7549 5.49133 20.4895 4.58891 19.8651 3.82804C19.6573 3.57487 19.4251 3.34272 19.172 3.13495C18.4111 2.51052 17.5087 2.24506 16.4541 2.12041C15.4351 1.99996 14.1533 1.99998 12.5635 2H12.5635H12.5634ZM8.5 5C7.11929 5 6 6.11929 6 7.5V8.5C6 9.88071 7.11929 11 8.5 11H15.5C16.8807 11 18 9.88071 18 8.5V7.5C18 6.11929 16.8807 5 15.5 5H8.5ZM8 7.5C8 7.22386 8.22386 7 8.5 7H15.5C15.7761 7 16 7.22386 16 7.5V8.5C16 8.77614 15.7761 9 15.5 9H8.5C8.22386 9 8 8.77614 8 8.5V7.5ZM9.5 14.5C9.5 15.1904 8.94036 15.75 8.25 15.75C7.55965 15.75 7 15.1904 7 14.5C7 13.8096 7.55965 13.25 8.25 13.25C8.94036 13.25 9.5 13.8096 9.5 14.5ZM15.75 15.75C16.4404 15.75 17 15.1904 17 14.5C17 13.8096 16.4404 13.25 15.75 13.25C15.0596 13.25 14.5 13.8096 14.5 14.5C14.5 15.1904 15.0596 15.75 15.75 15.75Z" fill="white"/>
</svg>
