<svg width="24" height="24" viewBox="0 0 24 24" fill="none" xmlns="http://www.w3.org/2000/svg">
<path fill-rule="evenodd" clip-rule="evenodd" d="M2 6C2 4.89543 2.89543 4 4 4H15C16.1046 4 17 4.89543 17 6V7H18.5194C19.1269 7 19.7016 7.27618 20.0811 7.75061L21.5617 9.60139C21.8454 9.95602 22 10.3966 22 10.8508V15C22 16.1046 21.1046 17 20 17H19C19 18.6569 17.6569 20 16 20C14.3431 20 13 18.6569 13 17H10C10 18.6569 8.65685 20 7 20C5.34315 20 4 18.6569 4 17C2.89543 17 2 16.1046 2 15V6ZM17 13V9H18.5194L20 10.8508V13H17ZM8 17C8 17.5523 7.55228 18 7 18C6.44772 18 6 17.5523 6 17C6 16.4477 6.44772 16 7 16C7.55228 16 8 16.4477 8 17ZM16 18C16.5523 18 17 17.5523 17 17C17 16.4477 16.5523 16 16 16C15.4477 16 15 16.4477 15 17C15 17.5523 15.4477 18 16 18Z" fill="#3671FF"/>
</svg>
