<svg width="39" height="39" viewBox="0 0 39 39" fill="none" xmlns="http://www.w3.org/2000/svg">
<path fill-rule="evenodd" clip-rule="evenodd" d="M3.25 9.75C3.25 7.95508 4.70507 6.5 6.5 6.5H24.375C26.1699 6.5 27.625 7.95507 27.625 9.75V11.375H30.094C31.0813 11.375 32.015 11.8238 32.6318 12.5947L35.0378 15.6023C35.4988 16.1785 35.75 16.8945 35.75 17.6325V24.375C35.75 26.1699 34.2949 27.625 32.5 27.625H30.875C30.875 30.3174 28.6924 32.5 26 32.5C23.3076 32.5 21.125 30.3174 21.125 27.625H16.25C16.25 30.3174 14.0674 32.5 11.375 32.5C8.68261 32.5 6.5 30.3174 6.5 27.625C4.70508 27.625 3.25 26.1699 3.25 24.375V9.75ZM27.625 21.125V14.625H30.094L32.5 17.6325V21.125H27.625ZM13 27.625C13 28.5225 12.2725 29.25 11.375 29.25C10.4775 29.25 9.75 28.5225 9.75 27.625C9.75 26.7275 10.4775 26 11.375 26C12.2725 26 13 26.7275 13 27.625ZM26 29.25C26.8975 29.25 27.625 28.5225 27.625 27.625C27.625 26.7275 26.8975 26 26 26C25.1025 26 24.375 26.7275 24.375 27.625C24.375 28.5225 25.1025 29.25 26 29.25Z" fill="#3671FF"/>
</svg>
