<svg width="24" height="24" viewBox="0 0 24 24" fill="none" xmlns="http://www.w3.org/2000/svg">
<path fill-rule="evenodd" clip-rule="evenodd" d="M7 7C7 4.23858 9.23858 2 12 2C14.7614 2 17 4.23858 17 7C17 9.76142 14.7614 12 12 12C9.23858 12 7 9.76142 7 7ZM3 19.5C3 16.4624 5.46243 14 8.5 14H15.5C18.5376 14 21 16.4624 21 19.5C21 20.8807 19.8807 22 18.5 22H5.5C4.11929 22 3 20.8807 3 19.5Z" fill="white"/>
<path fill-rule="evenodd" clip-rule="evenodd" d="M22.9741 9.26649C23.266 9.73532 23.1226 10.352 22.6538 10.6439C21.5939 11.3039 20.8034 12.0925 20.1414 13.1508C19.9477 13.4604 19.6007 13.6398 19.2362 13.6188C18.8716 13.5978 18.5475 13.3798 18.3906 13.0501C18.1698 12.5859 17.9034 12.3185 17.4606 12.1144C16.9591 11.8831 16.74 11.289 16.9713 10.7875C17.2026 10.286 17.7966 10.0669 18.2981 10.2981C18.6761 10.4724 19.0012 10.6842 19.2816 10.9362C19.9346 10.1588 20.6929 9.50888 21.5967 8.94617C22.0655 8.65425 22.6822 8.79766 22.9741 9.26649Z" fill="white"/>
</svg>
