<svg width="50" height="50" viewBox="0 0 50 50" fill="none" xmlns="http://www.w3.org/2000/svg">
<path fill-rule="evenodd" clip-rule="evenodd" d="M19.792 6.25C14.6143 6.25 10.417 10.4473 10.417 15.625C10.417 20.8027 14.6143 25 19.792 25C24.9697 25 29.167 20.8027 29.167 15.625C29.167 10.4473 24.9697 6.25 19.792 6.25ZM14.9309 27.0833C8.98615 27.0833 4.16699 31.9025 4.16699 37.8472C4.16699 39.9566 5.87702 41.6667 7.98644 41.6667H31.5976C33.707 41.6667 35.417 39.9566 35.417 37.8472C35.417 31.9025 30.5978 27.0833 24.6531 27.0833H14.9309ZM31.2503 18.75C31.2503 15.2982 34.0485 12.5 37.5003 12.5C40.9521 12.5 43.7503 15.2982 43.7503 18.75C43.7503 22.2018 40.9521 25 37.5003 25C34.0485 25 31.2503 22.2018 31.2503 18.75ZM37.5003 27.0833C42.1027 27.0833 45.8337 30.8143 45.8337 35.4167V37.5833C45.8337 38.6879 44.9382 39.5833 43.8337 39.5833H39.3944C39.5183 39.0244 39.5837 38.4434 39.5837 37.8472C39.5837 33.6182 37.8254 29.7999 35.0001 27.0833H37.5003Z" fill="#3671FF"/>
</svg>
