<svg width="24" height="24" viewBox="0 0 24 24" fill="none" xmlns="http://www.w3.org/2000/svg">
<path d="M11 2C8.23858 2 6 4.23858 6 7C6 9.76142 8.23858 12 11 12C13.7614 12 16 9.76142 16 7C16 4.23858 13.7614 2 11 2Z" fill="#0C1739"/>
<path d="M11 13C8.60453 13 6.42467 13.6937 4.82227 14.6715C4.02143 15.1602 3.33788 15.7363 2.84397 16.3615C2.35805 16.9767 2 17.713 2 18.5C2 19.3449 2.41114 20.0111 3.00266 20.4859C3.56324 20.9359 4.30182 21.2336 5.08716 21.4416C6.66466 21.8593 8.77101 22 11 22C11.2305 22 11.4591 21.9985 11.6854 21.9953C12.0257 21.9906 12.3403 21.8131 12.5203 21.5241C12.7002 21.2352 12.7209 20.8746 12.575 20.567C12.2066 19.79 12 18.9205 12 18C12 16.7478 12.3825 15.588 13.0369 14.6272C13.2349 14.3365 13.2656 13.9633 13.1179 13.6442C12.9702 13.325 12.6658 13.107 12.3161 13.0698C11.887 13.0242 11.4475 13 11 13Z" fill="#0C1739"/>
<path d="M18.3162 14.0513C18.111 13.9829 17.889 13.9829 17.6838 14.0513L14.6838 15.0513C14.2754 15.1874 14 15.5696 14 16V17.6714C14 19.8862 15.6653 21.7467 17.8665 21.9913C17.9552 22.0012 18.0448 22.0012 18.1335 21.9913C20.3347 21.7467 22 19.8862 22 17.6714V16C22 15.5696 21.7246 15.1874 21.3162 15.0513L18.3162 14.0513Z" fill="#0C1739"/>
</svg>
