<svg width="40" height="40" viewBox="0 0 40 40" fill="none" xmlns="http://www.w3.org/2000/svg">
<path d="M40 0V40H0V0H40Z" fill="white" fill-opacity="0.01"/>
<path d="M18.334 3.33325C13.7316 3.33325 10.0007 7.06421 10.0007 11.6666C10.0007 16.269 13.7316 19.9999 18.334 19.9999C22.9364 19.9999 26.6673 16.269 26.6673 11.6666C26.6673 7.06421 22.9364 3.33325 18.334 3.33325Z" fill="#3671FF"/>
<path d="M18.334 21.6666C14.3415 21.6666 10.7084 22.8228 8.03777 24.4524C6.70304 25.2668 5.56378 26.227 4.7406 27.2691C3.93073 28.2944 3.33398 29.5215 3.33398 30.8333C3.33398 32.2415 4.01923 33.3517 5.00509 34.1431C5.93939 34.8932 7.17035 35.3892 8.47924 35.7358C11.1084 36.4321 14.619 36.6666 18.334 36.6666C18.7182 36.6666 19.0991 36.6641 19.4763 36.6588C20.0435 36.6509 20.5678 36.355 20.8678 35.8735C21.1677 35.3919 21.2021 34.7909 20.959 34.2783C20.345 32.9832 20.0007 31.5341 20.0007 29.9999C20.0007 27.9129 20.6381 25.9799 21.7289 24.3785C22.0588 23.8941 22.1101 23.2721 21.8639 22.7402C21.6177 22.2083 21.1103 21.8449 20.5275 21.7829C19.8124 21.7069 19.0799 21.6666 18.334 21.6666Z" fill="#3671FF"/>
<path fill-rule="evenodd" clip-rule="evenodd" d="M29.1673 23.3333C25.9457 23.3333 23.334 25.9449 23.334 29.1666C23.334 32.3882 25.9457 34.9999 29.1673 34.9999C30.1719 34.9999 31.1172 34.746 31.9424 34.2988L33.334 35.6904C33.9848 36.3413 35.0401 36.3413 35.691 35.6904C36.3419 35.0396 36.3419 33.9843 35.6911 33.3334L34.2995 31.9418C34.7467 31.1165 35.0007 30.1712 35.0007 29.1666C35.0007 25.9449 32.389 23.3333 29.1673 23.3333ZM26.6673 29.1666C26.6673 27.7859 27.7866 26.6666 29.1673 26.6666C30.548 26.6666 31.6673 27.7859 31.6673 29.1666C31.6673 30.5473 30.548 31.6666 29.1673 31.6666C27.7866 31.6666 26.6673 30.5473 26.6673 29.1666Z" fill="#3671FF"/>
</svg>
