<svg width="24" height="24" viewBox="0 0 24 24" fill="none" xmlns="http://www.w3.org/2000/svg">
<path fill-rule="evenodd" clip-rule="evenodd" d="M9.5 3C7.01472 3 5 5.01472 5 7.5C5 9.98528 7.01472 12 9.5 12C11.9853 12 14 9.98528 14 7.5C14 5.01472 11.9853 3 9.5 3ZM7.16667 13C4.3132 13 2 15.3132 2 18.1667C2 19.1792 2.82081 20 3.83333 20H15.1667C16.1792 20 17 19.1792 17 18.1667C17 15.3132 14.6868 13 11.8333 13H7.16667ZM15 9C15 7.34315 16.3431 6 18 6C19.6569 6 21 7.34315 21 9C21 10.6569 19.6569 12 18 12C16.3431 12 15 10.6569 15 9ZM18 13C20.2091 13 22 14.7909 22 17C22 18.1046 21.1046 19 20 19H18.9092C18.9686 18.7317 19 18.4529 19 18.1667C19 16.1368 18.1561 14.304 16.7999 13H18Z" fill="white"/>
</svg>
