<svg width="24" height="24" viewBox="0 0 24 24" fill="none" xmlns="http://www.w3.org/2000/svg">
<path fill-rule="evenodd" clip-rule="evenodd" d="M5.5002 6C5.22406 6 5.0002 6.22386 5.0002 6.5C5.0002 6.77614 5.22406 7 5.5002 7L14.5583 7C16.1334 6.99996 18.1028 6.80414 19.4352 7.82659C20.3433 8.5234 20.7894 9.52197 20.9164 10.6482C21.1235 12.4848 21.1235 14.5148 20.9164 16.3518C20.7894 17.478 20.3433 18.4766 19.4352 19.1734C18.1028 20.1959 16.1334 20 14.5583 20L9.92962 20C8.07996 20 5.60816 20.2648 4.17177 18.8284C2.73538 17.392 3.00015 14.9202 3.0002 13.0706L3.0002 6.5C3.0002 5.11929 4.11949 4 5.5002 4H16.0002C16.5525 4 17.0002 4.44772 17.0002 5C17.0002 5.55228 16.5525 6 16.0002 6H5.5002ZM14.0002 13.5C14.0002 12.6716 14.6718 12 15.5002 12C16.3286 12 17.0002 12.6716 17.0002 13.5C17.0002 14.3284 16.3286 15 15.5002 15C14.6718 15 14.0002 14.3284 14.0002 13.5Z" fill="white"/>
</svg>
