<svg width="24" height="24" viewBox="0 0 24 24" fill="none" xmlns="http://www.w3.org/2000/svg">
<path d="M24 0V24H0V0H24Z" fill="white" fill-opacity="0.01"/>
<path fill-rule="evenodd" clip-rule="evenodd" d="M12 22C17.5228 22 22 17.5228 22 12C22 6.47715 17.5228 2 12 2C6.47715 2 2 6.47715 2 12C2 17.5228 6.47715 22 12 22ZM9.20552 11.3276L7.91492 10.9328C7.07414 10.6756 6.49993 9.89948 6.49993 9.02025V6.51344C6.49993 6.39424 6.51055 6.27638 6.53119 6.16106C7.96168 4.82073 9.88496 4 11.9999 4C12.4837 4 12.9574 4.04294 13.4175 4.12521C13.6883 4.49197 13.8067 4.9662 13.7114 5.44251C13.5827 6.08599 13.0884 6.59403 12.4487 6.74025L11.8368 6.88009C10.8051 7.11592 10.1357 8.11468 10.3097 9.15861L10.4844 10.2069C10.6065 10.9394 9.9157 11.5448 9.20552 11.3276ZM14.3173 18.1109C14.475 18.6626 14.8621 19.0681 15.3341 19.2742C16.2962 18.8325 17.1556 18.2056 17.8666 17.439C17.8649 17.4219 17.863 17.4048 17.8609 17.3877L17.6327 15.5621C17.5497 14.8985 17.1407 14.3203 16.5426 14.0213L15.0722 13.2861C14.7233 13.1117 14.3049 13.156 14.0003 13.3997L12.4361 14.651C12.2034 14.8371 12.1842 15.1842 12.3949 15.395L13.6335 16.6335C13.8738 16.8738 14.0489 17.1715 14.1423 17.4983L14.3173 18.1109Z" fill="white"/>
</svg>
